%TF.GenerationSoftware,KiCad,Pcbnew,(7.0.0)*%
%TF.CreationDate,2023-12-30T21:58:16+02:00*%
%TF.ProjectId,alu,616c752e-6b69-4636-9164-5f7063625858,rev?*%
%TF.SameCoordinates,Original*%
%TF.FileFunction,Drillmap*%
%TF.FilePolarity,Positive*%
%FSLAX45Y45*%
G04 Gerber Fmt 4.5, Leading zero omitted, Abs format (unit mm)*
G04 Created by KiCad (PCBNEW (7.0.0)) date 2023-12-30 21:58:16*
%MOMM*%
%LPD*%
G01*
G04 APERTURE LIST*
%ADD10C,0.150000*%
%ADD11C,0.200000*%
%ADD12C,0.020000*%
%ADD13C,0.100000*%
G04 APERTURE END LIST*
D10*
X3810000Y-2667000D02*
X11811000Y-2667000D01*
X11811000Y-2667000D02*
X11811000Y-12700000D01*
X11811000Y-12700000D02*
X3810000Y-12700000D01*
X3810000Y-12700000D02*
X3810000Y-2667000D01*
D11*
D12*
X4816000Y-4358800D02*
X4836000Y-4378800D01*
X4836000Y-4358800D02*
X4816000Y-4378800D01*
X4816000Y-4498500D02*
X4836000Y-4518500D01*
X4836000Y-4498500D02*
X4816000Y-4518500D01*
X5082700Y-4333400D02*
X5102700Y-4353400D01*
X5102700Y-4333400D02*
X5082700Y-4353400D01*
X5095400Y-4447700D02*
X5115400Y-4467700D01*
X5115400Y-4447700D02*
X5095400Y-4467700D01*
X5265000Y-2897240D02*
X5285000Y-2917240D01*
X5285000Y-2897240D02*
X5265000Y-2917240D01*
X5265000Y-3090000D02*
X5285000Y-3110000D01*
X5285000Y-3090000D02*
X5265000Y-3110000D01*
X5265000Y-3272240D02*
X5285000Y-3292240D01*
X5285000Y-3272240D02*
X5265000Y-3292240D01*
X5265000Y-3465000D02*
X5285000Y-3485000D01*
X5285000Y-3465000D02*
X5265000Y-3485000D01*
X5324000Y-11356500D02*
X5344000Y-11376500D01*
X5344000Y-11356500D02*
X5324000Y-11376500D01*
X5324000Y-11483500D02*
X5344000Y-11503500D01*
X5344000Y-11483500D02*
X5324000Y-11503500D01*
X5324000Y-11610500D02*
X5344000Y-11630500D01*
X5344000Y-11610500D02*
X5324000Y-11630500D01*
X5324000Y-11737500D02*
X5344000Y-11757500D01*
X5344000Y-11737500D02*
X5324000Y-11757500D01*
X5324000Y-11864500D02*
X5344000Y-11884500D01*
X5344000Y-11864500D02*
X5324000Y-11884500D01*
X5324000Y-11991500D02*
X5344000Y-12011500D01*
X5344000Y-11991500D02*
X5324000Y-12011500D01*
X5324000Y-12118500D02*
X5344000Y-12138500D01*
X5344000Y-12118500D02*
X5324000Y-12138500D01*
X5324000Y-12245500D02*
X5344000Y-12265500D01*
X5344000Y-12245500D02*
X5324000Y-12265500D01*
X5349400Y-6543200D02*
X5369400Y-6563200D01*
X5369400Y-6543200D02*
X5349400Y-6563200D01*
X5349400Y-8016400D02*
X5369400Y-8036400D01*
X5369400Y-8016400D02*
X5349400Y-8036400D01*
X5440000Y-2897240D02*
X5460000Y-2917240D01*
X5460000Y-2897240D02*
X5440000Y-2917240D01*
X5440000Y-3090000D02*
X5460000Y-3110000D01*
X5460000Y-3090000D02*
X5440000Y-3110000D01*
X5440000Y-3272240D02*
X5460000Y-3292240D01*
X5460000Y-3272240D02*
X5440000Y-3292240D01*
X5440000Y-3465000D02*
X5460000Y-3485000D01*
X5460000Y-3465000D02*
X5440000Y-3485000D01*
X5451000Y-11229500D02*
X5471000Y-11249500D01*
X5471000Y-11229500D02*
X5451000Y-11249500D01*
X5451000Y-12372500D02*
X5471000Y-12392500D01*
X5471000Y-12372500D02*
X5451000Y-12392500D01*
X5515000Y-8822240D02*
X5535000Y-8842240D01*
X5535000Y-8822240D02*
X5515000Y-8842240D01*
X5515000Y-9015000D02*
X5535000Y-9035000D01*
X5535000Y-9015000D02*
X5515000Y-9035000D01*
X5515000Y-9197240D02*
X5535000Y-9217240D01*
X5535000Y-9197240D02*
X5515000Y-9217240D01*
X5515000Y-9390000D02*
X5535000Y-9410000D01*
X5535000Y-9390000D02*
X5515000Y-9410000D01*
X5552600Y-6619400D02*
X5572600Y-6639400D01*
X5572600Y-6619400D02*
X5552600Y-6639400D01*
X5552600Y-8092600D02*
X5572600Y-8112600D01*
X5572600Y-8092600D02*
X5552600Y-8112600D01*
X5603400Y-5412900D02*
X5623400Y-5432900D01*
X5623400Y-5412900D02*
X5603400Y-5432900D01*
X5603400Y-5552600D02*
X5623400Y-5572600D01*
X5623400Y-5552600D02*
X5603400Y-5572600D01*
X5603400Y-5654200D02*
X5623400Y-5674200D01*
X5623400Y-5654200D02*
X5603400Y-5674200D01*
X5603400Y-5781200D02*
X5623400Y-5801200D01*
X5623400Y-5781200D02*
X5603400Y-5801200D01*
X5603400Y-6886100D02*
X5623400Y-6906100D01*
X5623400Y-6886100D02*
X5603400Y-6906100D01*
X5603400Y-7025800D02*
X5623400Y-7045800D01*
X5623400Y-7025800D02*
X5603400Y-7045800D01*
X5603400Y-7152800D02*
X5623400Y-7172800D01*
X5623400Y-7152800D02*
X5603400Y-7172800D01*
X5603400Y-7279800D02*
X5623400Y-7299800D01*
X5623400Y-7279800D02*
X5603400Y-7299800D01*
X5603400Y-7406800D02*
X5623400Y-7426800D01*
X5623400Y-7406800D02*
X5603400Y-7426800D01*
X5603400Y-7521100D02*
X5623400Y-7541100D01*
X5623400Y-7521100D02*
X5603400Y-7541100D01*
X5603400Y-7635400D02*
X5623400Y-7655400D01*
X5623400Y-7635400D02*
X5603400Y-7655400D01*
X5603400Y-7762400D02*
X5623400Y-7782400D01*
X5623400Y-7762400D02*
X5603400Y-7782400D01*
X5608480Y-5920900D02*
X5628480Y-5940900D01*
X5628480Y-5920900D02*
X5608480Y-5940900D01*
X5608480Y-6047900D02*
X5628480Y-6067900D01*
X5628480Y-6047900D02*
X5608480Y-6067900D01*
X5608480Y-6174900D02*
X5628480Y-6194900D01*
X5628480Y-6174900D02*
X5608480Y-6194900D01*
X5608480Y-6301900D02*
X5628480Y-6321900D01*
X5628480Y-6301900D02*
X5608480Y-6321900D01*
X5615000Y-2897240D02*
X5635000Y-2917240D01*
X5635000Y-2897240D02*
X5615000Y-2917240D01*
X5615000Y-3090000D02*
X5635000Y-3110000D01*
X5635000Y-3090000D02*
X5615000Y-3110000D01*
X5615000Y-3272240D02*
X5635000Y-3292240D01*
X5635000Y-3272240D02*
X5615000Y-3292240D01*
X5615000Y-3465000D02*
X5635000Y-3485000D01*
X5635000Y-3465000D02*
X5615000Y-3485000D01*
X5641500Y-12499500D02*
X5661500Y-12519500D01*
X5661500Y-12499500D02*
X5641500Y-12519500D01*
X5690000Y-8822240D02*
X5710000Y-8842240D01*
X5710000Y-8822240D02*
X5690000Y-8842240D01*
X5690000Y-9015000D02*
X5710000Y-9035000D01*
X5710000Y-9015000D02*
X5690000Y-9035000D01*
X5690000Y-9197240D02*
X5710000Y-9217240D01*
X5710000Y-9197240D02*
X5690000Y-9217240D01*
X5690000Y-9390000D02*
X5710000Y-9410000D01*
X5710000Y-9390000D02*
X5690000Y-9410000D01*
X5790000Y-2897240D02*
X5810000Y-2917240D01*
X5810000Y-2897240D02*
X5790000Y-2917240D01*
X5790000Y-3090000D02*
X5810000Y-3110000D01*
X5810000Y-3090000D02*
X5790000Y-3110000D01*
X5790000Y-3272240D02*
X5810000Y-3292240D01*
X5810000Y-3272240D02*
X5790000Y-3292240D01*
X5790000Y-3465000D02*
X5810000Y-3485000D01*
X5810000Y-3465000D02*
X5790000Y-3485000D01*
X5832000Y-11229500D02*
X5852000Y-11249500D01*
X5852000Y-11229500D02*
X5832000Y-11249500D01*
X5832000Y-11356500D02*
X5852000Y-11376500D01*
X5852000Y-11356500D02*
X5832000Y-11376500D01*
X5832000Y-11483500D02*
X5852000Y-11503500D01*
X5852000Y-11483500D02*
X5832000Y-11503500D01*
X5832000Y-11610500D02*
X5852000Y-11630500D01*
X5852000Y-11610500D02*
X5832000Y-11630500D01*
X5832000Y-11737500D02*
X5852000Y-11757500D01*
X5852000Y-11737500D02*
X5832000Y-11757500D01*
X5832000Y-11864500D02*
X5852000Y-11884500D01*
X5852000Y-11864500D02*
X5832000Y-11884500D01*
X5832000Y-11991500D02*
X5852000Y-12011500D01*
X5852000Y-11991500D02*
X5832000Y-12011500D01*
X5832000Y-12118500D02*
X5852000Y-12138500D01*
X5852000Y-12118500D02*
X5832000Y-12138500D01*
X5832000Y-12245500D02*
X5852000Y-12265500D01*
X5852000Y-12245500D02*
X5832000Y-12265500D01*
X5832000Y-12372500D02*
X5852000Y-12392500D01*
X5852000Y-12372500D02*
X5832000Y-12392500D01*
X5865000Y-8822240D02*
X5885000Y-8842240D01*
X5885000Y-8822240D02*
X5865000Y-8842240D01*
X5865000Y-9015000D02*
X5885000Y-9035000D01*
X5885000Y-9015000D02*
X5865000Y-9035000D01*
X5865000Y-9197240D02*
X5885000Y-9217240D01*
X5885000Y-9197240D02*
X5865000Y-9217240D01*
X5865000Y-9390000D02*
X5885000Y-9410000D01*
X5885000Y-9390000D02*
X5865000Y-9410000D01*
X5965000Y-6872000D02*
X5985000Y-6892000D01*
X5985000Y-6872000D02*
X5965000Y-6892000D01*
X5965000Y-6999000D02*
X5985000Y-7019000D01*
X5985000Y-6999000D02*
X5965000Y-7019000D01*
X5965000Y-7126000D02*
X5985000Y-7146000D01*
X5985000Y-7126000D02*
X5965000Y-7146000D01*
X5965000Y-7253000D02*
X5985000Y-7273000D01*
X5985000Y-7253000D02*
X5965000Y-7273000D01*
X5965000Y-7380000D02*
X5985000Y-7400000D01*
X5985000Y-7380000D02*
X5965000Y-7400000D01*
X5965000Y-7507000D02*
X5985000Y-7527000D01*
X5985000Y-7507000D02*
X5965000Y-7527000D01*
X5965000Y-7634000D02*
X5985000Y-7654000D01*
X5985000Y-7634000D02*
X5965000Y-7654000D01*
X5965000Y-7761000D02*
X5985000Y-7781000D01*
X5985000Y-7761000D02*
X5965000Y-7781000D01*
X5965000Y-7888000D02*
X5985000Y-7908000D01*
X5985000Y-7888000D02*
X5965000Y-7908000D01*
X5965000Y-8015000D02*
X5985000Y-8035000D01*
X5985000Y-8015000D02*
X5965000Y-8035000D01*
X6040000Y-8822240D02*
X6060000Y-8842240D01*
X6060000Y-8822240D02*
X6040000Y-8842240D01*
X6040000Y-9015000D02*
X6060000Y-9035000D01*
X6060000Y-9015000D02*
X6040000Y-9035000D01*
X6040000Y-9197240D02*
X6060000Y-9217240D01*
X6060000Y-9197240D02*
X6040000Y-9217240D01*
X6040000Y-9390000D02*
X6060000Y-9410000D01*
X6060000Y-9390000D02*
X6040000Y-9410000D01*
X6140000Y-3634900D02*
X6160000Y-3654900D01*
X6160000Y-3634900D02*
X6140000Y-3654900D01*
X6140000Y-3761900D02*
X6160000Y-3781900D01*
X6160000Y-3761900D02*
X6140000Y-3781900D01*
X6140000Y-3923060D02*
X6160000Y-3943060D01*
X6160000Y-3923060D02*
X6140000Y-3943060D01*
X6187600Y-3838100D02*
X6207600Y-3858100D01*
X6207600Y-3838100D02*
X6187600Y-3858100D01*
X6200300Y-3698400D02*
X6220300Y-3718400D01*
X6220300Y-3698400D02*
X6200300Y-3718400D01*
X6200300Y-3965100D02*
X6220300Y-3985100D01*
X6220300Y-3965100D02*
X6200300Y-3985100D01*
X6200300Y-4079400D02*
X6220300Y-4099400D01*
X6220300Y-4079400D02*
X6200300Y-4099400D01*
X6327300Y-4181000D02*
X6347300Y-4201000D01*
X6347300Y-4181000D02*
X6327300Y-4201000D01*
X6340000Y-5422000D02*
X6360000Y-5442000D01*
X6360000Y-5422000D02*
X6340000Y-5442000D01*
X6340000Y-5549000D02*
X6360000Y-5569000D01*
X6360000Y-5549000D02*
X6340000Y-5569000D01*
X6340000Y-5676000D02*
X6360000Y-5696000D01*
X6360000Y-5676000D02*
X6340000Y-5696000D01*
X6340000Y-5803000D02*
X6360000Y-5823000D01*
X6360000Y-5803000D02*
X6340000Y-5823000D01*
X6340000Y-5930000D02*
X6360000Y-5950000D01*
X6360000Y-5930000D02*
X6340000Y-5950000D01*
X6340000Y-6057000D02*
X6360000Y-6077000D01*
X6360000Y-6057000D02*
X6340000Y-6077000D01*
X6340000Y-6184000D02*
X6360000Y-6204000D01*
X6360000Y-6184000D02*
X6340000Y-6204000D01*
X6340000Y-6311000D02*
X6360000Y-6331000D01*
X6360000Y-6311000D02*
X6340000Y-6331000D01*
X6340000Y-6438000D02*
X6360000Y-6458000D01*
X6360000Y-6438000D02*
X6340000Y-6458000D01*
X6403500Y-11229500D02*
X6423500Y-11249500D01*
X6423500Y-11229500D02*
X6403500Y-11249500D01*
X6403500Y-11356500D02*
X6423500Y-11376500D01*
X6423500Y-11356500D02*
X6403500Y-11376500D01*
X6403500Y-11483500D02*
X6423500Y-11503500D01*
X6423500Y-11483500D02*
X6403500Y-11503500D01*
X6403500Y-11610500D02*
X6423500Y-11630500D01*
X6423500Y-11610500D02*
X6403500Y-11630500D01*
X6403500Y-11737500D02*
X6423500Y-11757500D01*
X6423500Y-11737500D02*
X6403500Y-11757500D01*
X6403500Y-11864500D02*
X6423500Y-11884500D01*
X6423500Y-11864500D02*
X6403500Y-11884500D01*
X6403500Y-11991500D02*
X6423500Y-12011500D01*
X6423500Y-11991500D02*
X6403500Y-12011500D01*
X6403500Y-12118500D02*
X6423500Y-12138500D01*
X6423500Y-12118500D02*
X6403500Y-12138500D01*
X6403500Y-12245500D02*
X6423500Y-12265500D01*
X6423500Y-12245500D02*
X6403500Y-12265500D01*
X6403500Y-12372500D02*
X6423500Y-12392500D01*
X6423500Y-12372500D02*
X6403500Y-12392500D01*
X6467000Y-3850800D02*
X6487000Y-3870800D01*
X6487000Y-3850800D02*
X6467000Y-3870800D01*
X6467000Y-4092100D02*
X6487000Y-4112100D01*
X6487000Y-4092100D02*
X6467000Y-4112100D01*
X6490000Y-3940000D02*
X6510000Y-3960000D01*
X6510000Y-3940000D02*
X6490000Y-3960000D01*
X6492400Y-6555900D02*
X6512400Y-6575900D01*
X6512400Y-6555900D02*
X6492400Y-6575900D01*
X6515000Y-5422000D02*
X6535000Y-5442000D01*
X6535000Y-5422000D02*
X6515000Y-5442000D01*
X6515000Y-5549000D02*
X6535000Y-5569000D01*
X6535000Y-5549000D02*
X6515000Y-5569000D01*
X6515000Y-5676000D02*
X6535000Y-5696000D01*
X6535000Y-5676000D02*
X6515000Y-5696000D01*
X6515000Y-5803000D02*
X6535000Y-5823000D01*
X6535000Y-5803000D02*
X6515000Y-5823000D01*
X6515000Y-5930000D02*
X6535000Y-5950000D01*
X6535000Y-5930000D02*
X6515000Y-5950000D01*
X6515000Y-6057000D02*
X6535000Y-6077000D01*
X6535000Y-6057000D02*
X6515000Y-6077000D01*
X6515000Y-6184000D02*
X6535000Y-6204000D01*
X6535000Y-6184000D02*
X6515000Y-6204000D01*
X6515000Y-6311000D02*
X6535000Y-6331000D01*
X6535000Y-6311000D02*
X6515000Y-6331000D01*
X6515000Y-6438000D02*
X6535000Y-6458000D01*
X6535000Y-6438000D02*
X6515000Y-6458000D01*
X6515000Y-6897000D02*
X6535000Y-6917000D01*
X6535000Y-6897000D02*
X6515000Y-6917000D01*
X6515000Y-7024000D02*
X6535000Y-7044000D01*
X6535000Y-7024000D02*
X6515000Y-7044000D01*
X6515000Y-7151000D02*
X6535000Y-7171000D01*
X6535000Y-7151000D02*
X6515000Y-7171000D01*
X6515000Y-7278000D02*
X6535000Y-7298000D01*
X6535000Y-7278000D02*
X6515000Y-7298000D01*
X6515000Y-7405000D02*
X6535000Y-7425000D01*
X6535000Y-7405000D02*
X6515000Y-7425000D01*
X6515000Y-7532000D02*
X6535000Y-7552000D01*
X6535000Y-7532000D02*
X6515000Y-7552000D01*
X6515000Y-7659000D02*
X6535000Y-7679000D01*
X6535000Y-7659000D02*
X6515000Y-7679000D01*
X6515000Y-7786000D02*
X6535000Y-7806000D01*
X6535000Y-7786000D02*
X6515000Y-7806000D01*
X6515000Y-7913000D02*
X6535000Y-7933000D01*
X6535000Y-7913000D02*
X6515000Y-7933000D01*
X6695600Y-6771800D02*
X6715600Y-6791800D01*
X6715600Y-6771800D02*
X6695600Y-6791800D01*
X6721000Y-5298600D02*
X6741000Y-5318600D01*
X6741000Y-5298600D02*
X6721000Y-5318600D01*
X6721000Y-11483500D02*
X6741000Y-11503500D01*
X6741000Y-11483500D02*
X6721000Y-11503500D01*
X6721000Y-11610500D02*
X6741000Y-11630500D01*
X6741000Y-11610500D02*
X6721000Y-11630500D01*
X6721000Y-11737500D02*
X6741000Y-11757500D01*
X6741000Y-11737500D02*
X6721000Y-11757500D01*
X6721000Y-11864500D02*
X6741000Y-11884500D01*
X6741000Y-11864500D02*
X6721000Y-11884500D01*
X6721000Y-12118500D02*
X6741000Y-12138500D01*
X6741000Y-12118500D02*
X6721000Y-12138500D01*
X6721000Y-12245500D02*
X6741000Y-12265500D01*
X6741000Y-12245500D02*
X6721000Y-12265500D01*
X6721000Y-12372500D02*
X6741000Y-12392500D01*
X6741000Y-12372500D02*
X6721000Y-12392500D01*
X6733700Y-11991500D02*
X6753700Y-12011500D01*
X6753700Y-11991500D02*
X6733700Y-12011500D01*
X6784500Y-11356500D02*
X6804500Y-11376500D01*
X6804500Y-11356500D02*
X6784500Y-11376500D01*
X6797200Y-11064400D02*
X6817200Y-11084400D01*
X6817200Y-11064400D02*
X6797200Y-11084400D01*
X6873400Y-5552600D02*
X6893400Y-5572600D01*
X6893400Y-5552600D02*
X6873400Y-5572600D01*
X6873400Y-5679600D02*
X6893400Y-5699600D01*
X6893400Y-5679600D02*
X6873400Y-5699600D01*
X6873400Y-5806600D02*
X6893400Y-5826600D01*
X6893400Y-5806600D02*
X6873400Y-5826600D01*
X6873400Y-5933600D02*
X6893400Y-5953600D01*
X6893400Y-5933600D02*
X6873400Y-5953600D01*
X6873400Y-6060600D02*
X6893400Y-6080600D01*
X6893400Y-6060600D02*
X6873400Y-6080600D01*
X6873400Y-6187600D02*
X6893400Y-6207600D01*
X6893400Y-6187600D02*
X6873400Y-6207600D01*
X6873400Y-6289200D02*
X6893400Y-6309200D01*
X6893400Y-6289200D02*
X6873400Y-6309200D01*
X6873400Y-6416200D02*
X6893400Y-6436200D01*
X6893400Y-6416200D02*
X6873400Y-6436200D01*
X6898800Y-5425600D02*
X6918800Y-5445600D01*
X6918800Y-5425600D02*
X6898800Y-5445600D01*
X6898800Y-6898800D02*
X6918800Y-6918800D01*
X6918800Y-6898800D02*
X6898800Y-6918800D01*
X6898800Y-7000400D02*
X6918800Y-7020400D01*
X6918800Y-7000400D02*
X6898800Y-7020400D01*
X6898800Y-7127400D02*
X6918800Y-7147400D01*
X6918800Y-7127400D02*
X6898800Y-7147400D01*
X6898800Y-7254400D02*
X6918800Y-7274400D01*
X6918800Y-7254400D02*
X6898800Y-7274400D01*
X6898800Y-7381400D02*
X6918800Y-7401400D01*
X6918800Y-7381400D02*
X6898800Y-7401400D01*
X6898800Y-7508400D02*
X6918800Y-7528400D01*
X6918800Y-7508400D02*
X6898800Y-7528400D01*
X6898800Y-7635400D02*
X6918800Y-7655400D01*
X6918800Y-7635400D02*
X6898800Y-7655400D01*
X6898800Y-7762400D02*
X6918800Y-7782400D01*
X6918800Y-7762400D02*
X6898800Y-7782400D01*
X6898800Y-7889400D02*
X6918800Y-7909400D01*
X6918800Y-7889400D02*
X6898800Y-7909400D01*
X6898800Y-8016400D02*
X6918800Y-8036400D01*
X6918800Y-8016400D02*
X6898800Y-8036400D01*
X6911500Y-11356500D02*
X6931500Y-11376500D01*
X6931500Y-11356500D02*
X6911500Y-11376500D01*
X6962300Y-3419000D02*
X6982300Y-3439000D01*
X6982300Y-3419000D02*
X6962300Y-3439000D01*
X7038500Y-3888900D02*
X7058500Y-3908900D01*
X7058500Y-3888900D02*
X7038500Y-3908900D01*
X7038500Y-4028600D02*
X7058500Y-4048600D01*
X7058500Y-4028600D02*
X7038500Y-4048600D01*
X7063900Y-3304700D02*
X7083900Y-3324700D01*
X7083900Y-3304700D02*
X7063900Y-3324700D01*
X7090000Y-3825400D02*
X7110000Y-3845400D01*
X7110000Y-3825400D02*
X7090000Y-3845400D01*
X7152800Y-3520600D02*
X7172800Y-3540600D01*
X7172800Y-3520600D02*
X7152800Y-3540600D01*
X7178200Y-3419000D02*
X7198200Y-3439000D01*
X7198200Y-3419000D02*
X7178200Y-3439000D01*
X7540000Y-3876200D02*
X7560000Y-3896200D01*
X7560000Y-3876200D02*
X7540000Y-3896200D01*
X7540000Y-4040000D02*
X7560000Y-4060000D01*
X7560000Y-4040000D02*
X7540000Y-4060000D01*
X7590000Y-3790000D02*
X7610000Y-3810000D01*
X7610000Y-3790000D02*
X7590000Y-3810000D01*
X7597300Y-3939700D02*
X7617300Y-3959700D01*
X7617300Y-3939700D02*
X7597300Y-3959700D01*
X7724300Y-4104800D02*
X7744300Y-4124800D01*
X7744300Y-4104800D02*
X7724300Y-4124800D01*
X7851300Y-4015900D02*
X7871300Y-4035900D01*
X7871300Y-4015900D02*
X7851300Y-4035900D01*
X8190000Y-4866800D02*
X8210000Y-4886800D01*
X8210000Y-4866800D02*
X8190000Y-4886800D01*
X8194200Y-5857400D02*
X8214200Y-5877400D01*
X8214200Y-5857400D02*
X8194200Y-5877400D01*
X8219600Y-6060600D02*
X8239600Y-6080600D01*
X8239600Y-6060600D02*
X8219600Y-6080600D01*
X8219600Y-6263800D02*
X8239600Y-6283800D01*
X8239600Y-6263800D02*
X8219600Y-6283800D01*
X8232300Y-4473100D02*
X8252300Y-4493100D01*
X8252300Y-4473100D02*
X8232300Y-4493100D01*
X8240000Y-4990000D02*
X8260000Y-5010000D01*
X8260000Y-4990000D02*
X8240000Y-5010000D01*
X8253200Y-4680800D02*
X8273200Y-4700800D01*
X8273200Y-4680800D02*
X8253200Y-4700800D01*
X8321200Y-7965600D02*
X8341200Y-7985600D01*
X8341200Y-7965600D02*
X8321200Y-7985600D01*
X8321200Y-8092600D02*
X8341200Y-8112600D01*
X8341200Y-8092600D02*
X8321200Y-8112600D01*
X8321200Y-8215000D02*
X8341200Y-8235000D01*
X8341200Y-8215000D02*
X8321200Y-8235000D01*
X8321200Y-8295800D02*
X8341200Y-8315800D01*
X8341200Y-8295800D02*
X8321200Y-8315800D01*
X8346600Y-7290000D02*
X8366600Y-7310000D01*
X8366600Y-7290000D02*
X8346600Y-7310000D01*
X8346600Y-7432200D02*
X8366600Y-7452200D01*
X8366600Y-7432200D02*
X8346600Y-7452200D01*
X8346600Y-7635400D02*
X8366600Y-7655400D01*
X8366600Y-7635400D02*
X8346600Y-7655400D01*
X8366920Y-6436520D02*
X8386920Y-6456520D01*
X8386920Y-6436520D02*
X8366920Y-6456520D01*
X8384700Y-3393600D02*
X8404700Y-3413600D01*
X8404700Y-3393600D02*
X8384700Y-3413600D01*
X8390000Y-5040000D02*
X8410000Y-5060000D01*
X8410000Y-5040000D02*
X8390000Y-5060000D01*
X8483760Y-6314600D02*
X8503760Y-6334600D01*
X8503760Y-6314600D02*
X8483760Y-6334600D01*
X8486300Y-3279300D02*
X8506300Y-3299300D01*
X8506300Y-3279300D02*
X8486300Y-3299300D01*
X8486300Y-6111400D02*
X8506300Y-6131400D01*
X8506300Y-6111400D02*
X8486300Y-6131400D01*
X8486300Y-6187600D02*
X8506300Y-6207600D01*
X8506300Y-6187600D02*
X8486300Y-6207600D01*
X8499000Y-4748114D02*
X8519000Y-4768114D01*
X8519000Y-4748114D02*
X8499000Y-4768114D01*
X8507800Y-4840000D02*
X8527800Y-4860000D01*
X8527800Y-4840000D02*
X8507800Y-4860000D01*
X8511700Y-4650900D02*
X8531700Y-4670900D01*
X8531700Y-4650900D02*
X8511700Y-4670900D01*
X8514240Y-6030120D02*
X8534240Y-6050120D01*
X8534240Y-6030120D02*
X8514240Y-6050120D01*
X8562500Y-3495200D02*
X8582500Y-3515200D01*
X8582500Y-3495200D02*
X8562500Y-3515200D01*
X8575200Y-7241700D02*
X8595200Y-7261700D01*
X8595200Y-7241700D02*
X8575200Y-7261700D01*
X8575200Y-7368700D02*
X8595200Y-7388700D01*
X8595200Y-7368700D02*
X8575200Y-7388700D01*
X8587900Y-7902100D02*
X8607900Y-7922100D01*
X8607900Y-7902100D02*
X8587900Y-7922100D01*
X8587900Y-8029100D02*
X8607900Y-8049100D01*
X8607900Y-8029100D02*
X8587900Y-8049100D01*
X8600600Y-3393600D02*
X8620600Y-3413600D01*
X8620600Y-3393600D02*
X8600600Y-3413600D01*
X8600600Y-7635400D02*
X8620600Y-7655400D01*
X8620600Y-7635400D02*
X8600600Y-7655400D01*
X8600600Y-8295800D02*
X8620600Y-8315800D01*
X8620600Y-8295800D02*
X8600600Y-8315800D01*
X8613300Y-8181500D02*
X8633300Y-8201500D01*
X8633300Y-8181500D02*
X8613300Y-8201500D01*
X8640000Y-5040000D02*
X8660000Y-5060000D01*
X8660000Y-5040000D02*
X8640000Y-5060000D01*
X8803800Y-6111400D02*
X8823800Y-6131400D01*
X8823800Y-6111400D02*
X8803800Y-6131400D01*
X8816500Y-4663600D02*
X8836500Y-4683600D01*
X8836500Y-4663600D02*
X8816500Y-4683600D01*
X8816500Y-5920900D02*
X8836500Y-5940900D01*
X8836500Y-5920900D02*
X8816500Y-5940900D01*
X8829200Y-4765200D02*
X8849200Y-4785200D01*
X8849200Y-4765200D02*
X8829200Y-4785200D01*
X8829200Y-4943000D02*
X8849200Y-4963000D01*
X8849200Y-4943000D02*
X8829200Y-4963000D01*
X8829200Y-6314600D02*
X8849200Y-6334600D01*
X8849200Y-6314600D02*
X8829200Y-6334600D01*
X8905400Y-8016400D02*
X8925400Y-8036400D01*
X8925400Y-8016400D02*
X8905400Y-8036400D01*
X8930800Y-8143400D02*
X8950800Y-8163400D01*
X8950800Y-8143400D02*
X8930800Y-8163400D01*
X8930800Y-8270400D02*
X8950800Y-8290400D01*
X8950800Y-8270400D02*
X8930800Y-8290400D01*
X9070500Y-5990550D02*
X9090500Y-6010550D01*
X9090500Y-5990550D02*
X9070500Y-6010550D01*
X9070500Y-6060600D02*
X9090500Y-6080600D01*
X9090500Y-6060600D02*
X9070500Y-6080600D01*
X9070500Y-6183500D02*
X9090500Y-6203500D01*
X9090500Y-6183500D02*
X9070500Y-6203500D01*
X9083200Y-4879500D02*
X9103200Y-4899500D01*
X9103200Y-4879500D02*
X9083200Y-4899500D01*
X9090000Y-6290000D02*
X9110000Y-6310000D01*
X9110000Y-6290000D02*
X9090000Y-6310000D01*
X9140000Y-4816000D02*
X9160000Y-4836000D01*
X9160000Y-4816000D02*
X9140000Y-4836000D01*
X9159400Y-4384200D02*
X9179400Y-4404200D01*
X9179400Y-4384200D02*
X9159400Y-4404200D01*
X9159400Y-4663600D02*
X9179400Y-4683600D01*
X9179400Y-4663600D02*
X9159400Y-4683600D01*
X9159400Y-7102000D02*
X9179400Y-7122000D01*
X9179400Y-7102000D02*
X9159400Y-7122000D01*
X9159400Y-7762400D02*
X9179400Y-7782400D01*
X9179400Y-7762400D02*
X9159400Y-7782400D01*
X9172100Y-7965600D02*
X9192100Y-7985600D01*
X9192100Y-7965600D02*
X9172100Y-7985600D01*
X9172100Y-8092600D02*
X9192100Y-8112600D01*
X9192100Y-8092600D02*
X9172100Y-8112600D01*
X9172100Y-8219600D02*
X9192100Y-8239600D01*
X9192100Y-8219600D02*
X9172100Y-8239600D01*
X9184800Y-5730400D02*
X9204800Y-5750400D01*
X9204800Y-5730400D02*
X9184800Y-5750400D01*
X9184800Y-6035200D02*
X9204800Y-6055200D01*
X9204800Y-6035200D02*
X9184800Y-6055200D01*
X9261000Y-4562000D02*
X9281000Y-4582000D01*
X9281000Y-4562000D02*
X9261000Y-4582000D01*
X9311800Y-5933600D02*
X9331800Y-5953600D01*
X9331800Y-5933600D02*
X9311800Y-5953600D01*
X9438800Y-7102000D02*
X9458800Y-7122000D01*
X9458800Y-7102000D02*
X9438800Y-7122000D01*
X9438800Y-7762400D02*
X9458800Y-7782400D01*
X9458800Y-7762400D02*
X9438800Y-7782400D01*
X9690000Y-10622240D02*
X9710000Y-10642240D01*
X9710000Y-10622240D02*
X9690000Y-10642240D01*
X9690000Y-10815000D02*
X9710000Y-10835000D01*
X9710000Y-10815000D02*
X9690000Y-10835000D01*
X9690000Y-10997240D02*
X9710000Y-11017240D01*
X9710000Y-10997240D02*
X9690000Y-11017240D01*
X9690000Y-11190000D02*
X9710000Y-11210000D01*
X9710000Y-11190000D02*
X9690000Y-11210000D01*
X9865000Y-10622240D02*
X9885000Y-10642240D01*
X9885000Y-10622240D02*
X9865000Y-10642240D01*
X9865000Y-10815000D02*
X9885000Y-10835000D01*
X9885000Y-10815000D02*
X9865000Y-10835000D01*
X9865000Y-10997240D02*
X9885000Y-11017240D01*
X9885000Y-10997240D02*
X9865000Y-11017240D01*
X9865000Y-11190000D02*
X9885000Y-11210000D01*
X9885000Y-11190000D02*
X9865000Y-11210000D01*
X10040000Y-10622240D02*
X10060000Y-10642240D01*
X10060000Y-10622240D02*
X10040000Y-10642240D01*
X10040000Y-10815000D02*
X10060000Y-10835000D01*
X10060000Y-10815000D02*
X10040000Y-10835000D01*
X10040000Y-10997240D02*
X10060000Y-11017240D01*
X10060000Y-10997240D02*
X10040000Y-11017240D01*
X10040000Y-11190000D02*
X10060000Y-11210000D01*
X10060000Y-11190000D02*
X10040000Y-11210000D01*
X10215000Y-10622240D02*
X10235000Y-10642240D01*
X10235000Y-10622240D02*
X10215000Y-10642240D01*
X10215000Y-10815000D02*
X10235000Y-10835000D01*
X10235000Y-10815000D02*
X10215000Y-10835000D01*
X10215000Y-10997240D02*
X10235000Y-11017240D01*
X10235000Y-10997240D02*
X10215000Y-11017240D01*
X10215000Y-11190000D02*
X10235000Y-11210000D01*
X10235000Y-11190000D02*
X10215000Y-11210000D01*
X10290000Y-3047240D02*
X10310000Y-3067240D01*
X10310000Y-3047240D02*
X10290000Y-3067240D01*
X10290000Y-3240000D02*
X10310000Y-3260000D01*
X10310000Y-3240000D02*
X10290000Y-3260000D01*
X10290000Y-3422240D02*
X10310000Y-3442240D01*
X10310000Y-3422240D02*
X10290000Y-3442240D01*
X10290000Y-3615000D02*
X10310000Y-3635000D01*
X10310000Y-3615000D02*
X10290000Y-3635000D01*
X10465000Y-3047240D02*
X10485000Y-3067240D01*
X10485000Y-3047240D02*
X10465000Y-3067240D01*
X10465000Y-3240000D02*
X10485000Y-3260000D01*
X10485000Y-3240000D02*
X10465000Y-3260000D01*
X10465000Y-3422240D02*
X10485000Y-3442240D01*
X10485000Y-3422240D02*
X10465000Y-3442240D01*
X10465000Y-3615000D02*
X10485000Y-3635000D01*
X10485000Y-3615000D02*
X10465000Y-3635000D01*
X10594500Y-4816000D02*
X10614500Y-4836000D01*
X10614500Y-4816000D02*
X10594500Y-4836000D01*
X10594500Y-7317900D02*
X10614500Y-7337900D01*
X10614500Y-7317900D02*
X10594500Y-7337900D01*
X10640000Y-3047240D02*
X10660000Y-3067240D01*
X10660000Y-3047240D02*
X10640000Y-3067240D01*
X10640000Y-3240000D02*
X10660000Y-3260000D01*
X10660000Y-3240000D02*
X10640000Y-3260000D01*
X10640000Y-3422240D02*
X10660000Y-3442240D01*
X10660000Y-3422240D02*
X10640000Y-3442240D01*
X10640000Y-3615000D02*
X10660000Y-3635000D01*
X10660000Y-3615000D02*
X10640000Y-3635000D01*
X10683400Y-5362100D02*
X10703400Y-5382100D01*
X10703400Y-5362100D02*
X10683400Y-5382100D01*
X10683400Y-7368700D02*
X10703400Y-7388700D01*
X10703400Y-7368700D02*
X10683400Y-7388700D01*
X10746900Y-4879500D02*
X10766900Y-4899500D01*
X10766900Y-4879500D02*
X10746900Y-4899500D01*
X10746900Y-7965600D02*
X10766900Y-7985600D01*
X10766900Y-7965600D02*
X10746900Y-7985600D01*
X10797700Y-5412900D02*
X10817700Y-5432900D01*
X10817700Y-5412900D02*
X10797700Y-5432900D01*
X10797700Y-6340000D02*
X10817700Y-6360000D01*
X10817700Y-6340000D02*
X10797700Y-6360000D01*
X10797700Y-8092600D02*
X10817700Y-8112600D01*
X10817700Y-8092600D02*
X10797700Y-8112600D01*
X10815000Y-3047240D02*
X10835000Y-3067240D01*
X10835000Y-3047240D02*
X10815000Y-3067240D01*
X10815000Y-3240000D02*
X10835000Y-3260000D01*
X10835000Y-3240000D02*
X10815000Y-3260000D01*
X10815000Y-3422240D02*
X10835000Y-3442240D01*
X10835000Y-3422240D02*
X10815000Y-3442240D01*
X10815000Y-3615000D02*
X10835000Y-3635000D01*
X10835000Y-3615000D02*
X10815000Y-3635000D01*
X10861200Y-4727100D02*
X10881200Y-4747100D01*
X10881200Y-4727100D02*
X10861200Y-4747100D01*
X10861200Y-6454300D02*
X10881200Y-6474300D01*
X10881200Y-6454300D02*
X10861200Y-6474300D01*
X10861200Y-8219600D02*
X10881200Y-8239600D01*
X10881200Y-8219600D02*
X10861200Y-8239600D01*
X10924700Y-6403500D02*
X10944700Y-6423500D01*
X10944700Y-6403500D02*
X10924700Y-6423500D01*
X10924700Y-8918100D02*
X10944700Y-8938100D01*
X10944700Y-8918100D02*
X10924700Y-8938100D01*
X11000900Y-6517800D02*
X11020900Y-6537800D01*
X11020900Y-6517800D02*
X11000900Y-6537800D01*
X11000900Y-8981600D02*
X11020900Y-9001600D01*
X11020900Y-8981600D02*
X11000900Y-9001600D01*
X11051700Y-6581300D02*
X11071700Y-6601300D01*
X11071700Y-6581300D02*
X11051700Y-6601300D01*
X11051700Y-9032400D02*
X11071700Y-9052400D01*
X11071700Y-9032400D02*
X11051700Y-9052400D01*
D13*
X4495000Y-3683000D02*
G75*
G03*
X4495000Y-3683000I-50000J0D01*
G01*
X4495000Y-3937000D02*
G75*
G03*
X4495000Y-3937000I-50000J0D01*
G01*
X4495000Y-4191000D02*
G75*
G03*
X4495000Y-4191000I-50000J0D01*
G01*
X4495000Y-4445000D02*
G75*
G03*
X4495000Y-4445000I-50000J0D01*
G01*
X4495000Y-4699000D02*
G75*
G03*
X4495000Y-4699000I-50000J0D01*
G01*
X4495000Y-4953000D02*
G75*
G03*
X4495000Y-4953000I-50000J0D01*
G01*
X4495000Y-5207000D02*
G75*
G03*
X4495000Y-5207000I-50000J0D01*
G01*
X4495000Y-5461000D02*
G75*
G03*
X4495000Y-5461000I-50000J0D01*
G01*
X4495000Y-5715000D02*
G75*
G03*
X4495000Y-5715000I-50000J0D01*
G01*
X4495000Y-5969000D02*
G75*
G03*
X4495000Y-5969000I-50000J0D01*
G01*
X4495000Y-6223000D02*
G75*
G03*
X4495000Y-6223000I-50000J0D01*
G01*
X4495000Y-6477000D02*
G75*
G03*
X4495000Y-6477000I-50000J0D01*
G01*
X4495000Y-6731000D02*
G75*
G03*
X4495000Y-6731000I-50000J0D01*
G01*
X4495000Y-6985000D02*
G75*
G03*
X4495000Y-6985000I-50000J0D01*
G01*
X4495000Y-7239000D02*
G75*
G03*
X4495000Y-7239000I-50000J0D01*
G01*
X4495000Y-7493000D02*
G75*
G03*
X4495000Y-7493000I-50000J0D01*
G01*
X4495000Y-7747000D02*
G75*
G03*
X4495000Y-7747000I-50000J0D01*
G01*
X4495000Y-8001000D02*
G75*
G03*
X4495000Y-8001000I-50000J0D01*
G01*
X4495000Y-8255000D02*
G75*
G03*
X4495000Y-8255000I-50000J0D01*
G01*
X4495000Y-8509000D02*
G75*
G03*
X4495000Y-8509000I-50000J0D01*
G01*
X4495000Y-8763000D02*
G75*
G03*
X4495000Y-8763000I-50000J0D01*
G01*
X4495000Y-9017000D02*
G75*
G03*
X4495000Y-9017000I-50000J0D01*
G01*
X4495000Y-9271000D02*
G75*
G03*
X4495000Y-9271000I-50000J0D01*
G01*
X4495000Y-9525000D02*
G75*
G03*
X4495000Y-9525000I-50000J0D01*
G01*
X4495000Y-9779000D02*
G75*
G03*
X4495000Y-9779000I-50000J0D01*
G01*
X4495000Y-10033000D02*
G75*
G03*
X4495000Y-10033000I-50000J0D01*
G01*
X4495000Y-10287000D02*
G75*
G03*
X4495000Y-10287000I-50000J0D01*
G01*
X4495000Y-10541000D02*
G75*
G03*
X4495000Y-10541000I-50000J0D01*
G01*
X4495000Y-10795000D02*
G75*
G03*
X4495000Y-10795000I-50000J0D01*
G01*
X4495000Y-11049000D02*
G75*
G03*
X4495000Y-11049000I-50000J0D01*
G01*
X4495000Y-11303000D02*
G75*
G03*
X4495000Y-11303000I-50000J0D01*
G01*
X4495000Y-11557000D02*
G75*
G03*
X4495000Y-11557000I-50000J0D01*
G01*
X4749000Y-3683000D02*
G75*
G03*
X4749000Y-3683000I-50000J0D01*
G01*
X4749000Y-3937000D02*
G75*
G03*
X4749000Y-3937000I-50000J0D01*
G01*
X4749000Y-4191000D02*
G75*
G03*
X4749000Y-4191000I-50000J0D01*
G01*
X4749000Y-4445000D02*
G75*
G03*
X4749000Y-4445000I-50000J0D01*
G01*
X4749000Y-4699000D02*
G75*
G03*
X4749000Y-4699000I-50000J0D01*
G01*
X4749000Y-4953000D02*
G75*
G03*
X4749000Y-4953000I-50000J0D01*
G01*
X4749000Y-5207000D02*
G75*
G03*
X4749000Y-5207000I-50000J0D01*
G01*
X4749000Y-5461000D02*
G75*
G03*
X4749000Y-5461000I-50000J0D01*
G01*
X4749000Y-5715000D02*
G75*
G03*
X4749000Y-5715000I-50000J0D01*
G01*
X4749000Y-5969000D02*
G75*
G03*
X4749000Y-5969000I-50000J0D01*
G01*
X4749000Y-6223000D02*
G75*
G03*
X4749000Y-6223000I-50000J0D01*
G01*
X4749000Y-6477000D02*
G75*
G03*
X4749000Y-6477000I-50000J0D01*
G01*
X4749000Y-6731000D02*
G75*
G03*
X4749000Y-6731000I-50000J0D01*
G01*
X4749000Y-6985000D02*
G75*
G03*
X4749000Y-6985000I-50000J0D01*
G01*
X4749000Y-7239000D02*
G75*
G03*
X4749000Y-7239000I-50000J0D01*
G01*
X4749000Y-7493000D02*
G75*
G03*
X4749000Y-7493000I-50000J0D01*
G01*
X4749000Y-7747000D02*
G75*
G03*
X4749000Y-7747000I-50000J0D01*
G01*
X4749000Y-8001000D02*
G75*
G03*
X4749000Y-8001000I-50000J0D01*
G01*
X4749000Y-8255000D02*
G75*
G03*
X4749000Y-8255000I-50000J0D01*
G01*
X4749000Y-8509000D02*
G75*
G03*
X4749000Y-8509000I-50000J0D01*
G01*
X4749000Y-8763000D02*
G75*
G03*
X4749000Y-8763000I-50000J0D01*
G01*
X4749000Y-9017000D02*
G75*
G03*
X4749000Y-9017000I-50000J0D01*
G01*
X4749000Y-9271000D02*
G75*
G03*
X4749000Y-9271000I-50000J0D01*
G01*
X4749000Y-9525000D02*
G75*
G03*
X4749000Y-9525000I-50000J0D01*
G01*
X4749000Y-9779000D02*
G75*
G03*
X4749000Y-9779000I-50000J0D01*
G01*
X4749000Y-10033000D02*
G75*
G03*
X4749000Y-10033000I-50000J0D01*
G01*
X4749000Y-10287000D02*
G75*
G03*
X4749000Y-10287000I-50000J0D01*
G01*
X4749000Y-10541000D02*
G75*
G03*
X4749000Y-10541000I-50000J0D01*
G01*
X4749000Y-10795000D02*
G75*
G03*
X4749000Y-10795000I-50000J0D01*
G01*
X4749000Y-11049000D02*
G75*
G03*
X4749000Y-11049000I-50000J0D01*
G01*
X4749000Y-11303000D02*
G75*
G03*
X4749000Y-11303000I-50000J0D01*
G01*
X4749000Y-11557000D02*
G75*
G03*
X4749000Y-11557000I-50000J0D01*
G01*
X5003000Y-3683000D02*
G75*
G03*
X5003000Y-3683000I-50000J0D01*
G01*
X5003000Y-3937000D02*
G75*
G03*
X5003000Y-3937000I-50000J0D01*
G01*
X5003000Y-4191000D02*
G75*
G03*
X5003000Y-4191000I-50000J0D01*
G01*
X5003000Y-4445000D02*
G75*
G03*
X5003000Y-4445000I-50000J0D01*
G01*
X5003000Y-4699000D02*
G75*
G03*
X5003000Y-4699000I-50000J0D01*
G01*
X5003000Y-4953000D02*
G75*
G03*
X5003000Y-4953000I-50000J0D01*
G01*
X5003000Y-5207000D02*
G75*
G03*
X5003000Y-5207000I-50000J0D01*
G01*
X5003000Y-5461000D02*
G75*
G03*
X5003000Y-5461000I-50000J0D01*
G01*
X5003000Y-5715000D02*
G75*
G03*
X5003000Y-5715000I-50000J0D01*
G01*
X5003000Y-5969000D02*
G75*
G03*
X5003000Y-5969000I-50000J0D01*
G01*
X5003000Y-6223000D02*
G75*
G03*
X5003000Y-6223000I-50000J0D01*
G01*
X5003000Y-6477000D02*
G75*
G03*
X5003000Y-6477000I-50000J0D01*
G01*
X5003000Y-6731000D02*
G75*
G03*
X5003000Y-6731000I-50000J0D01*
G01*
X5003000Y-6985000D02*
G75*
G03*
X5003000Y-6985000I-50000J0D01*
G01*
X5003000Y-7239000D02*
G75*
G03*
X5003000Y-7239000I-50000J0D01*
G01*
X5003000Y-7493000D02*
G75*
G03*
X5003000Y-7493000I-50000J0D01*
G01*
X5003000Y-7747000D02*
G75*
G03*
X5003000Y-7747000I-50000J0D01*
G01*
X5003000Y-8001000D02*
G75*
G03*
X5003000Y-8001000I-50000J0D01*
G01*
X5003000Y-8255000D02*
G75*
G03*
X5003000Y-8255000I-50000J0D01*
G01*
X5003000Y-8509000D02*
G75*
G03*
X5003000Y-8509000I-50000J0D01*
G01*
X5003000Y-8763000D02*
G75*
G03*
X5003000Y-8763000I-50000J0D01*
G01*
X5003000Y-9017000D02*
G75*
G03*
X5003000Y-9017000I-50000J0D01*
G01*
X5003000Y-9271000D02*
G75*
G03*
X5003000Y-9271000I-50000J0D01*
G01*
X5003000Y-9525000D02*
G75*
G03*
X5003000Y-9525000I-50000J0D01*
G01*
X5003000Y-9779000D02*
G75*
G03*
X5003000Y-9779000I-50000J0D01*
G01*
X5003000Y-10033000D02*
G75*
G03*
X5003000Y-10033000I-50000J0D01*
G01*
X5003000Y-10287000D02*
G75*
G03*
X5003000Y-10287000I-50000J0D01*
G01*
X5003000Y-10541000D02*
G75*
G03*
X5003000Y-10541000I-50000J0D01*
G01*
X5003000Y-10795000D02*
G75*
G03*
X5003000Y-10795000I-50000J0D01*
G01*
X5003000Y-11049000D02*
G75*
G03*
X5003000Y-11049000I-50000J0D01*
G01*
X5003000Y-11303000D02*
G75*
G03*
X5003000Y-11303000I-50000J0D01*
G01*
X5003000Y-11557000D02*
G75*
G03*
X5003000Y-11557000I-50000J0D01*
G01*
D11*
X4050119Y-13000976D02*
X4050119Y-12800976D01*
X4050119Y-12800976D02*
X4097738Y-12800976D01*
X4097738Y-12800976D02*
X4126309Y-12810500D01*
X4126309Y-12810500D02*
X4145357Y-12829548D01*
X4145357Y-12829548D02*
X4154881Y-12848595D01*
X4154881Y-12848595D02*
X4164405Y-12886690D01*
X4164405Y-12886690D02*
X4164405Y-12915262D01*
X4164405Y-12915262D02*
X4154881Y-12953357D01*
X4154881Y-12953357D02*
X4145357Y-12972405D01*
X4145357Y-12972405D02*
X4126309Y-12991452D01*
X4126309Y-12991452D02*
X4097738Y-13000976D01*
X4097738Y-13000976D02*
X4050119Y-13000976D01*
X4250119Y-13000976D02*
X4250119Y-12867643D01*
X4250119Y-12905738D02*
X4259643Y-12886690D01*
X4259643Y-12886690D02*
X4269167Y-12877167D01*
X4269167Y-12877167D02*
X4288214Y-12867643D01*
X4288214Y-12867643D02*
X4307262Y-12867643D01*
X4373929Y-13000976D02*
X4373929Y-12867643D01*
X4373929Y-12800976D02*
X4364405Y-12810500D01*
X4364405Y-12810500D02*
X4373929Y-12820024D01*
X4373929Y-12820024D02*
X4383452Y-12810500D01*
X4383452Y-12810500D02*
X4373929Y-12800976D01*
X4373929Y-12800976D02*
X4373929Y-12820024D01*
X4497738Y-13000976D02*
X4478690Y-12991452D01*
X4478690Y-12991452D02*
X4469167Y-12972405D01*
X4469167Y-12972405D02*
X4469167Y-12800976D01*
X4602500Y-13000976D02*
X4583452Y-12991452D01*
X4583452Y-12991452D02*
X4573929Y-12972405D01*
X4573929Y-12972405D02*
X4573929Y-12800976D01*
X4798690Y-13000976D02*
X4798690Y-12800976D01*
X4798690Y-12800976D02*
X4865357Y-12943833D01*
X4865357Y-12943833D02*
X4932024Y-12800976D01*
X4932024Y-12800976D02*
X4932024Y-13000976D01*
X5112976Y-13000976D02*
X5112976Y-12896214D01*
X5112976Y-12896214D02*
X5103452Y-12877167D01*
X5103452Y-12877167D02*
X5084405Y-12867643D01*
X5084405Y-12867643D02*
X5046309Y-12867643D01*
X5046309Y-12867643D02*
X5027262Y-12877167D01*
X5112976Y-12991452D02*
X5093929Y-13000976D01*
X5093929Y-13000976D02*
X5046309Y-13000976D01*
X5046309Y-13000976D02*
X5027262Y-12991452D01*
X5027262Y-12991452D02*
X5017738Y-12972405D01*
X5017738Y-12972405D02*
X5017738Y-12953357D01*
X5017738Y-12953357D02*
X5027262Y-12934309D01*
X5027262Y-12934309D02*
X5046309Y-12924786D01*
X5046309Y-12924786D02*
X5093929Y-12924786D01*
X5093929Y-12924786D02*
X5112976Y-12915262D01*
X5208214Y-12867643D02*
X5208214Y-13067643D01*
X5208214Y-12877167D02*
X5227262Y-12867643D01*
X5227262Y-12867643D02*
X5265357Y-12867643D01*
X5265357Y-12867643D02*
X5284405Y-12877167D01*
X5284405Y-12877167D02*
X5293929Y-12886690D01*
X5293929Y-12886690D02*
X5303452Y-12905738D01*
X5303452Y-12905738D02*
X5303452Y-12962881D01*
X5303452Y-12962881D02*
X5293929Y-12981928D01*
X5293929Y-12981928D02*
X5284405Y-12991452D01*
X5284405Y-12991452D02*
X5265357Y-13000976D01*
X5265357Y-13000976D02*
X5227262Y-13000976D01*
X5227262Y-13000976D02*
X5208214Y-12991452D01*
X5389167Y-12981928D02*
X5398690Y-12991452D01*
X5398690Y-12991452D02*
X5389167Y-13000976D01*
X5389167Y-13000976D02*
X5379643Y-12991452D01*
X5379643Y-12991452D02*
X5389167Y-12981928D01*
X5389167Y-12981928D02*
X5389167Y-13000976D01*
X5389167Y-12877167D02*
X5398690Y-12886690D01*
X5398690Y-12886690D02*
X5389167Y-12896214D01*
X5389167Y-12896214D02*
X5379643Y-12886690D01*
X5379643Y-12886690D02*
X5389167Y-12877167D01*
X5389167Y-12877167D02*
X5389167Y-12896214D01*
D12*
X3782500Y-13337500D02*
X3802500Y-13357500D01*
X3802500Y-13337500D02*
X3782500Y-13357500D01*
D11*
X4088214Y-13220976D02*
X4107262Y-13220976D01*
X4107262Y-13220976D02*
X4126309Y-13230500D01*
X4126309Y-13230500D02*
X4135833Y-13240024D01*
X4135833Y-13240024D02*
X4145357Y-13259071D01*
X4145357Y-13259071D02*
X4154881Y-13297167D01*
X4154881Y-13297167D02*
X4154881Y-13344786D01*
X4154881Y-13344786D02*
X4145357Y-13382881D01*
X4145357Y-13382881D02*
X4135833Y-13401928D01*
X4135833Y-13401928D02*
X4126309Y-13411452D01*
X4126309Y-13411452D02*
X4107262Y-13420976D01*
X4107262Y-13420976D02*
X4088214Y-13420976D01*
X4088214Y-13420976D02*
X4069167Y-13411452D01*
X4069167Y-13411452D02*
X4059643Y-13401928D01*
X4059643Y-13401928D02*
X4050119Y-13382881D01*
X4050119Y-13382881D02*
X4040595Y-13344786D01*
X4040595Y-13344786D02*
X4040595Y-13297167D01*
X4040595Y-13297167D02*
X4050119Y-13259071D01*
X4050119Y-13259071D02*
X4059643Y-13240024D01*
X4059643Y-13240024D02*
X4069167Y-13230500D01*
X4069167Y-13230500D02*
X4088214Y-13220976D01*
X4240595Y-13401928D02*
X4250119Y-13411452D01*
X4250119Y-13411452D02*
X4240595Y-13420976D01*
X4240595Y-13420976D02*
X4231071Y-13411452D01*
X4231071Y-13411452D02*
X4240595Y-13401928D01*
X4240595Y-13401928D02*
X4240595Y-13420976D01*
X4326310Y-13240024D02*
X4335833Y-13230500D01*
X4335833Y-13230500D02*
X4354881Y-13220976D01*
X4354881Y-13220976D02*
X4402500Y-13220976D01*
X4402500Y-13220976D02*
X4421548Y-13230500D01*
X4421548Y-13230500D02*
X4431071Y-13240024D01*
X4431071Y-13240024D02*
X4440595Y-13259071D01*
X4440595Y-13259071D02*
X4440595Y-13278119D01*
X4440595Y-13278119D02*
X4431071Y-13306690D01*
X4431071Y-13306690D02*
X4316786Y-13420976D01*
X4316786Y-13420976D02*
X4440595Y-13420976D01*
X4564405Y-13220976D02*
X4583452Y-13220976D01*
X4583452Y-13220976D02*
X4602500Y-13230500D01*
X4602500Y-13230500D02*
X4612024Y-13240024D01*
X4612024Y-13240024D02*
X4621548Y-13259071D01*
X4621548Y-13259071D02*
X4631071Y-13297167D01*
X4631071Y-13297167D02*
X4631071Y-13344786D01*
X4631071Y-13344786D02*
X4621548Y-13382881D01*
X4621548Y-13382881D02*
X4612024Y-13401928D01*
X4612024Y-13401928D02*
X4602500Y-13411452D01*
X4602500Y-13411452D02*
X4583452Y-13420976D01*
X4583452Y-13420976D02*
X4564405Y-13420976D01*
X4564405Y-13420976D02*
X4545357Y-13411452D01*
X4545357Y-13411452D02*
X4535833Y-13401928D01*
X4535833Y-13401928D02*
X4526310Y-13382881D01*
X4526310Y-13382881D02*
X4516786Y-13344786D01*
X4516786Y-13344786D02*
X4516786Y-13297167D01*
X4516786Y-13297167D02*
X4526310Y-13259071D01*
X4526310Y-13259071D02*
X4535833Y-13240024D01*
X4535833Y-13240024D02*
X4545357Y-13230500D01*
X4545357Y-13230500D02*
X4564405Y-13220976D01*
X4754881Y-13220976D02*
X4773929Y-13220976D01*
X4773929Y-13220976D02*
X4792976Y-13230500D01*
X4792976Y-13230500D02*
X4802500Y-13240024D01*
X4802500Y-13240024D02*
X4812024Y-13259071D01*
X4812024Y-13259071D02*
X4821548Y-13297167D01*
X4821548Y-13297167D02*
X4821548Y-13344786D01*
X4821548Y-13344786D02*
X4812024Y-13382881D01*
X4812024Y-13382881D02*
X4802500Y-13401928D01*
X4802500Y-13401928D02*
X4792976Y-13411452D01*
X4792976Y-13411452D02*
X4773929Y-13420976D01*
X4773929Y-13420976D02*
X4754881Y-13420976D01*
X4754881Y-13420976D02*
X4735833Y-13411452D01*
X4735833Y-13411452D02*
X4726310Y-13401928D01*
X4726310Y-13401928D02*
X4716786Y-13382881D01*
X4716786Y-13382881D02*
X4707262Y-13344786D01*
X4707262Y-13344786D02*
X4707262Y-13297167D01*
X4707262Y-13297167D02*
X4716786Y-13259071D01*
X4716786Y-13259071D02*
X4726310Y-13240024D01*
X4726310Y-13240024D02*
X4735833Y-13230500D01*
X4735833Y-13230500D02*
X4754881Y-13220976D01*
X4907262Y-13420976D02*
X4907262Y-13287643D01*
X4907262Y-13306690D02*
X4916786Y-13297167D01*
X4916786Y-13297167D02*
X4935833Y-13287643D01*
X4935833Y-13287643D02*
X4964405Y-13287643D01*
X4964405Y-13287643D02*
X4983452Y-13297167D01*
X4983452Y-13297167D02*
X4992976Y-13316214D01*
X4992976Y-13316214D02*
X4992976Y-13420976D01*
X4992976Y-13316214D02*
X5002500Y-13297167D01*
X5002500Y-13297167D02*
X5021548Y-13287643D01*
X5021548Y-13287643D02*
X5050119Y-13287643D01*
X5050119Y-13287643D02*
X5069167Y-13297167D01*
X5069167Y-13297167D02*
X5078691Y-13316214D01*
X5078691Y-13316214D02*
X5078691Y-13420976D01*
X5173929Y-13420976D02*
X5173929Y-13287643D01*
X5173929Y-13306690D02*
X5183452Y-13297167D01*
X5183452Y-13297167D02*
X5202500Y-13287643D01*
X5202500Y-13287643D02*
X5231072Y-13287643D01*
X5231072Y-13287643D02*
X5250119Y-13297167D01*
X5250119Y-13297167D02*
X5259643Y-13316214D01*
X5259643Y-13316214D02*
X5259643Y-13420976D01*
X5259643Y-13316214D02*
X5269167Y-13297167D01*
X5269167Y-13297167D02*
X5288214Y-13287643D01*
X5288214Y-13287643D02*
X5316786Y-13287643D01*
X5316786Y-13287643D02*
X5335833Y-13297167D01*
X5335833Y-13297167D02*
X5345357Y-13316214D01*
X5345357Y-13316214D02*
X5345357Y-13420976D01*
X5703452Y-13211452D02*
X5532024Y-13468595D01*
X5928214Y-13220976D02*
X5947262Y-13220976D01*
X5947262Y-13220976D02*
X5966310Y-13230500D01*
X5966310Y-13230500D02*
X5975833Y-13240024D01*
X5975833Y-13240024D02*
X5985357Y-13259071D01*
X5985357Y-13259071D02*
X5994881Y-13297167D01*
X5994881Y-13297167D02*
X5994881Y-13344786D01*
X5994881Y-13344786D02*
X5985357Y-13382881D01*
X5985357Y-13382881D02*
X5975833Y-13401928D01*
X5975833Y-13401928D02*
X5966310Y-13411452D01*
X5966310Y-13411452D02*
X5947262Y-13420976D01*
X5947262Y-13420976D02*
X5928214Y-13420976D01*
X5928214Y-13420976D02*
X5909167Y-13411452D01*
X5909167Y-13411452D02*
X5899643Y-13401928D01*
X5899643Y-13401928D02*
X5890119Y-13382881D01*
X5890119Y-13382881D02*
X5880595Y-13344786D01*
X5880595Y-13344786D02*
X5880595Y-13297167D01*
X5880595Y-13297167D02*
X5890119Y-13259071D01*
X5890119Y-13259071D02*
X5899643Y-13240024D01*
X5899643Y-13240024D02*
X5909167Y-13230500D01*
X5909167Y-13230500D02*
X5928214Y-13220976D01*
X6080595Y-13401928D02*
X6090119Y-13411452D01*
X6090119Y-13411452D02*
X6080595Y-13420976D01*
X6080595Y-13420976D02*
X6071071Y-13411452D01*
X6071071Y-13411452D02*
X6080595Y-13401928D01*
X6080595Y-13401928D02*
X6080595Y-13420976D01*
X6213929Y-13220976D02*
X6232976Y-13220976D01*
X6232976Y-13220976D02*
X6252024Y-13230500D01*
X6252024Y-13230500D02*
X6261548Y-13240024D01*
X6261548Y-13240024D02*
X6271071Y-13259071D01*
X6271071Y-13259071D02*
X6280595Y-13297167D01*
X6280595Y-13297167D02*
X6280595Y-13344786D01*
X6280595Y-13344786D02*
X6271071Y-13382881D01*
X6271071Y-13382881D02*
X6261548Y-13401928D01*
X6261548Y-13401928D02*
X6252024Y-13411452D01*
X6252024Y-13411452D02*
X6232976Y-13420976D01*
X6232976Y-13420976D02*
X6213929Y-13420976D01*
X6213929Y-13420976D02*
X6194881Y-13411452D01*
X6194881Y-13411452D02*
X6185357Y-13401928D01*
X6185357Y-13401928D02*
X6175833Y-13382881D01*
X6175833Y-13382881D02*
X6166310Y-13344786D01*
X6166310Y-13344786D02*
X6166310Y-13297167D01*
X6166310Y-13297167D02*
X6175833Y-13259071D01*
X6175833Y-13259071D02*
X6185357Y-13240024D01*
X6185357Y-13240024D02*
X6194881Y-13230500D01*
X6194881Y-13230500D02*
X6213929Y-13220976D01*
X6404405Y-13220976D02*
X6423452Y-13220976D01*
X6423452Y-13220976D02*
X6442500Y-13230500D01*
X6442500Y-13230500D02*
X6452024Y-13240024D01*
X6452024Y-13240024D02*
X6461548Y-13259071D01*
X6461548Y-13259071D02*
X6471071Y-13297167D01*
X6471071Y-13297167D02*
X6471071Y-13344786D01*
X6471071Y-13344786D02*
X6461548Y-13382881D01*
X6461548Y-13382881D02*
X6452024Y-13401928D01*
X6452024Y-13401928D02*
X6442500Y-13411452D01*
X6442500Y-13411452D02*
X6423452Y-13420976D01*
X6423452Y-13420976D02*
X6404405Y-13420976D01*
X6404405Y-13420976D02*
X6385357Y-13411452D01*
X6385357Y-13411452D02*
X6375833Y-13401928D01*
X6375833Y-13401928D02*
X6366310Y-13382881D01*
X6366310Y-13382881D02*
X6356786Y-13344786D01*
X6356786Y-13344786D02*
X6356786Y-13297167D01*
X6356786Y-13297167D02*
X6366310Y-13259071D01*
X6366310Y-13259071D02*
X6375833Y-13240024D01*
X6375833Y-13240024D02*
X6385357Y-13230500D01*
X6385357Y-13230500D02*
X6404405Y-13220976D01*
X6537738Y-13220976D02*
X6671071Y-13220976D01*
X6671071Y-13220976D02*
X6585357Y-13420976D01*
X6756786Y-13420976D02*
X6794881Y-13420976D01*
X6794881Y-13420976D02*
X6813929Y-13411452D01*
X6813929Y-13411452D02*
X6823452Y-13401928D01*
X6823452Y-13401928D02*
X6842500Y-13373357D01*
X6842500Y-13373357D02*
X6852024Y-13335262D01*
X6852024Y-13335262D02*
X6852024Y-13259071D01*
X6852024Y-13259071D02*
X6842500Y-13240024D01*
X6842500Y-13240024D02*
X6832976Y-13230500D01*
X6832976Y-13230500D02*
X6813929Y-13220976D01*
X6813929Y-13220976D02*
X6775833Y-13220976D01*
X6775833Y-13220976D02*
X6756786Y-13230500D01*
X6756786Y-13230500D02*
X6747262Y-13240024D01*
X6747262Y-13240024D02*
X6737738Y-13259071D01*
X6737738Y-13259071D02*
X6737738Y-13306690D01*
X6737738Y-13306690D02*
X6747262Y-13325738D01*
X6747262Y-13325738D02*
X6756786Y-13335262D01*
X6756786Y-13335262D02*
X6775833Y-13344786D01*
X6775833Y-13344786D02*
X6813929Y-13344786D01*
X6813929Y-13344786D02*
X6832976Y-13335262D01*
X6832976Y-13335262D02*
X6842500Y-13325738D01*
X6842500Y-13325738D02*
X6852024Y-13306690D01*
X6928214Y-13220976D02*
X6928214Y-13259071D01*
X7004405Y-13220976D02*
X7004405Y-13259071D01*
X7267262Y-13497167D02*
X7257738Y-13487643D01*
X7257738Y-13487643D02*
X7238691Y-13459071D01*
X7238691Y-13459071D02*
X7229167Y-13440024D01*
X7229167Y-13440024D02*
X7219643Y-13411452D01*
X7219643Y-13411452D02*
X7210119Y-13363833D01*
X7210119Y-13363833D02*
X7210119Y-13325738D01*
X7210119Y-13325738D02*
X7219643Y-13278119D01*
X7219643Y-13278119D02*
X7229167Y-13249548D01*
X7229167Y-13249548D02*
X7238691Y-13230500D01*
X7238691Y-13230500D02*
X7257738Y-13201928D01*
X7257738Y-13201928D02*
X7267262Y-13192405D01*
X7333929Y-13240024D02*
X7343452Y-13230500D01*
X7343452Y-13230500D02*
X7362500Y-13220976D01*
X7362500Y-13220976D02*
X7410119Y-13220976D01*
X7410119Y-13220976D02*
X7429167Y-13230500D01*
X7429167Y-13230500D02*
X7438691Y-13240024D01*
X7438691Y-13240024D02*
X7448214Y-13259071D01*
X7448214Y-13259071D02*
X7448214Y-13278119D01*
X7448214Y-13278119D02*
X7438691Y-13306690D01*
X7438691Y-13306690D02*
X7324405Y-13420976D01*
X7324405Y-13420976D02*
X7448214Y-13420976D01*
X7543452Y-13420976D02*
X7581548Y-13420976D01*
X7581548Y-13420976D02*
X7600595Y-13411452D01*
X7600595Y-13411452D02*
X7610119Y-13401928D01*
X7610119Y-13401928D02*
X7629167Y-13373357D01*
X7629167Y-13373357D02*
X7638691Y-13335262D01*
X7638691Y-13335262D02*
X7638691Y-13259071D01*
X7638691Y-13259071D02*
X7629167Y-13240024D01*
X7629167Y-13240024D02*
X7619643Y-13230500D01*
X7619643Y-13230500D02*
X7600595Y-13220976D01*
X7600595Y-13220976D02*
X7562500Y-13220976D01*
X7562500Y-13220976D02*
X7543452Y-13230500D01*
X7543452Y-13230500D02*
X7533929Y-13240024D01*
X7533929Y-13240024D02*
X7524405Y-13259071D01*
X7524405Y-13259071D02*
X7524405Y-13306690D01*
X7524405Y-13306690D02*
X7533929Y-13325738D01*
X7533929Y-13325738D02*
X7543452Y-13335262D01*
X7543452Y-13335262D02*
X7562500Y-13344786D01*
X7562500Y-13344786D02*
X7600595Y-13344786D01*
X7600595Y-13344786D02*
X7619643Y-13335262D01*
X7619643Y-13335262D02*
X7629167Y-13325738D01*
X7629167Y-13325738D02*
X7638691Y-13306690D01*
X7810119Y-13287643D02*
X7810119Y-13420976D01*
X7762500Y-13211452D02*
X7714881Y-13354309D01*
X7714881Y-13354309D02*
X7838691Y-13354309D01*
X8034881Y-13420976D02*
X8034881Y-13220976D01*
X8120595Y-13420976D02*
X8120595Y-13316214D01*
X8120595Y-13316214D02*
X8111072Y-13297167D01*
X8111072Y-13297167D02*
X8092024Y-13287643D01*
X8092024Y-13287643D02*
X8063452Y-13287643D01*
X8063452Y-13287643D02*
X8044405Y-13297167D01*
X8044405Y-13297167D02*
X8034881Y-13306690D01*
X8244405Y-13420976D02*
X8225357Y-13411452D01*
X8225357Y-13411452D02*
X8215833Y-13401928D01*
X8215833Y-13401928D02*
X8206310Y-13382881D01*
X8206310Y-13382881D02*
X8206310Y-13325738D01*
X8206310Y-13325738D02*
X8215833Y-13306690D01*
X8215833Y-13306690D02*
X8225357Y-13297167D01*
X8225357Y-13297167D02*
X8244405Y-13287643D01*
X8244405Y-13287643D02*
X8272976Y-13287643D01*
X8272976Y-13287643D02*
X8292024Y-13297167D01*
X8292024Y-13297167D02*
X8301548Y-13306690D01*
X8301548Y-13306690D02*
X8311072Y-13325738D01*
X8311072Y-13325738D02*
X8311072Y-13382881D01*
X8311072Y-13382881D02*
X8301548Y-13401928D01*
X8301548Y-13401928D02*
X8292024Y-13411452D01*
X8292024Y-13411452D02*
X8272976Y-13420976D01*
X8272976Y-13420976D02*
X8244405Y-13420976D01*
X8425357Y-13420976D02*
X8406310Y-13411452D01*
X8406310Y-13411452D02*
X8396786Y-13392405D01*
X8396786Y-13392405D02*
X8396786Y-13220976D01*
X8577738Y-13411452D02*
X8558691Y-13420976D01*
X8558691Y-13420976D02*
X8520595Y-13420976D01*
X8520595Y-13420976D02*
X8501548Y-13411452D01*
X8501548Y-13411452D02*
X8492024Y-13392405D01*
X8492024Y-13392405D02*
X8492024Y-13316214D01*
X8492024Y-13316214D02*
X8501548Y-13297167D01*
X8501548Y-13297167D02*
X8520595Y-13287643D01*
X8520595Y-13287643D02*
X8558691Y-13287643D01*
X8558691Y-13287643D02*
X8577738Y-13297167D01*
X8577738Y-13297167D02*
X8587262Y-13316214D01*
X8587262Y-13316214D02*
X8587262Y-13335262D01*
X8587262Y-13335262D02*
X8492024Y-13354309D01*
X8663453Y-13411452D02*
X8682500Y-13420976D01*
X8682500Y-13420976D02*
X8720595Y-13420976D01*
X8720595Y-13420976D02*
X8739643Y-13411452D01*
X8739643Y-13411452D02*
X8749167Y-13392405D01*
X8749167Y-13392405D02*
X8749167Y-13382881D01*
X8749167Y-13382881D02*
X8739643Y-13363833D01*
X8739643Y-13363833D02*
X8720595Y-13354309D01*
X8720595Y-13354309D02*
X8692024Y-13354309D01*
X8692024Y-13354309D02*
X8672976Y-13344786D01*
X8672976Y-13344786D02*
X8663453Y-13325738D01*
X8663453Y-13325738D02*
X8663453Y-13316214D01*
X8663453Y-13316214D02*
X8672976Y-13297167D01*
X8672976Y-13297167D02*
X8692024Y-13287643D01*
X8692024Y-13287643D02*
X8720595Y-13287643D01*
X8720595Y-13287643D02*
X8739643Y-13297167D01*
X8815834Y-13497167D02*
X8825357Y-13487643D01*
X8825357Y-13487643D02*
X8844405Y-13459071D01*
X8844405Y-13459071D02*
X8853929Y-13440024D01*
X8853929Y-13440024D02*
X8863453Y-13411452D01*
X8863453Y-13411452D02*
X8872976Y-13363833D01*
X8872976Y-13363833D02*
X8872976Y-13325738D01*
X8872976Y-13325738D02*
X8863453Y-13278119D01*
X8863453Y-13278119D02*
X8853929Y-13249548D01*
X8853929Y-13249548D02*
X8844405Y-13230500D01*
X8844405Y-13230500D02*
X8825357Y-13201928D01*
X8825357Y-13201928D02*
X8815834Y-13192405D01*
D13*
X3802500Y-13611500D02*
G75*
G03*
X3802500Y-13611500I-50000J0D01*
G01*
D11*
X4154881Y-13684976D02*
X4040595Y-13684976D01*
X4097738Y-13684976D02*
X4097738Y-13484976D01*
X4097738Y-13484976D02*
X4078690Y-13513548D01*
X4078690Y-13513548D02*
X4059643Y-13532595D01*
X4059643Y-13532595D02*
X4040595Y-13542119D01*
X4240595Y-13665928D02*
X4250119Y-13675452D01*
X4250119Y-13675452D02*
X4240595Y-13684976D01*
X4240595Y-13684976D02*
X4231071Y-13675452D01*
X4231071Y-13675452D02*
X4240595Y-13665928D01*
X4240595Y-13665928D02*
X4240595Y-13684976D01*
X4373929Y-13484976D02*
X4392976Y-13484976D01*
X4392976Y-13484976D02*
X4412024Y-13494500D01*
X4412024Y-13494500D02*
X4421548Y-13504024D01*
X4421548Y-13504024D02*
X4431071Y-13523071D01*
X4431071Y-13523071D02*
X4440595Y-13561167D01*
X4440595Y-13561167D02*
X4440595Y-13608786D01*
X4440595Y-13608786D02*
X4431071Y-13646881D01*
X4431071Y-13646881D02*
X4421548Y-13665928D01*
X4421548Y-13665928D02*
X4412024Y-13675452D01*
X4412024Y-13675452D02*
X4392976Y-13684976D01*
X4392976Y-13684976D02*
X4373929Y-13684976D01*
X4373929Y-13684976D02*
X4354881Y-13675452D01*
X4354881Y-13675452D02*
X4345357Y-13665928D01*
X4345357Y-13665928D02*
X4335833Y-13646881D01*
X4335833Y-13646881D02*
X4326310Y-13608786D01*
X4326310Y-13608786D02*
X4326310Y-13561167D01*
X4326310Y-13561167D02*
X4335833Y-13523071D01*
X4335833Y-13523071D02*
X4345357Y-13504024D01*
X4345357Y-13504024D02*
X4354881Y-13494500D01*
X4354881Y-13494500D02*
X4373929Y-13484976D01*
X4564405Y-13484976D02*
X4583452Y-13484976D01*
X4583452Y-13484976D02*
X4602500Y-13494500D01*
X4602500Y-13494500D02*
X4612024Y-13504024D01*
X4612024Y-13504024D02*
X4621548Y-13523071D01*
X4621548Y-13523071D02*
X4631071Y-13561167D01*
X4631071Y-13561167D02*
X4631071Y-13608786D01*
X4631071Y-13608786D02*
X4621548Y-13646881D01*
X4621548Y-13646881D02*
X4612024Y-13665928D01*
X4612024Y-13665928D02*
X4602500Y-13675452D01*
X4602500Y-13675452D02*
X4583452Y-13684976D01*
X4583452Y-13684976D02*
X4564405Y-13684976D01*
X4564405Y-13684976D02*
X4545357Y-13675452D01*
X4545357Y-13675452D02*
X4535833Y-13665928D01*
X4535833Y-13665928D02*
X4526310Y-13646881D01*
X4526310Y-13646881D02*
X4516786Y-13608786D01*
X4516786Y-13608786D02*
X4516786Y-13561167D01*
X4516786Y-13561167D02*
X4526310Y-13523071D01*
X4526310Y-13523071D02*
X4535833Y-13504024D01*
X4535833Y-13504024D02*
X4545357Y-13494500D01*
X4545357Y-13494500D02*
X4564405Y-13484976D01*
X4754881Y-13484976D02*
X4773929Y-13484976D01*
X4773929Y-13484976D02*
X4792976Y-13494500D01*
X4792976Y-13494500D02*
X4802500Y-13504024D01*
X4802500Y-13504024D02*
X4812024Y-13523071D01*
X4812024Y-13523071D02*
X4821548Y-13561167D01*
X4821548Y-13561167D02*
X4821548Y-13608786D01*
X4821548Y-13608786D02*
X4812024Y-13646881D01*
X4812024Y-13646881D02*
X4802500Y-13665928D01*
X4802500Y-13665928D02*
X4792976Y-13675452D01*
X4792976Y-13675452D02*
X4773929Y-13684976D01*
X4773929Y-13684976D02*
X4754881Y-13684976D01*
X4754881Y-13684976D02*
X4735833Y-13675452D01*
X4735833Y-13675452D02*
X4726310Y-13665928D01*
X4726310Y-13665928D02*
X4716786Y-13646881D01*
X4716786Y-13646881D02*
X4707262Y-13608786D01*
X4707262Y-13608786D02*
X4707262Y-13561167D01*
X4707262Y-13561167D02*
X4716786Y-13523071D01*
X4716786Y-13523071D02*
X4726310Y-13504024D01*
X4726310Y-13504024D02*
X4735833Y-13494500D01*
X4735833Y-13494500D02*
X4754881Y-13484976D01*
X4907262Y-13684976D02*
X4907262Y-13551643D01*
X4907262Y-13570690D02*
X4916786Y-13561167D01*
X4916786Y-13561167D02*
X4935833Y-13551643D01*
X4935833Y-13551643D02*
X4964405Y-13551643D01*
X4964405Y-13551643D02*
X4983452Y-13561167D01*
X4983452Y-13561167D02*
X4992976Y-13580214D01*
X4992976Y-13580214D02*
X4992976Y-13684976D01*
X4992976Y-13580214D02*
X5002500Y-13561167D01*
X5002500Y-13561167D02*
X5021548Y-13551643D01*
X5021548Y-13551643D02*
X5050119Y-13551643D01*
X5050119Y-13551643D02*
X5069167Y-13561167D01*
X5069167Y-13561167D02*
X5078691Y-13580214D01*
X5078691Y-13580214D02*
X5078691Y-13684976D01*
X5173929Y-13684976D02*
X5173929Y-13551643D01*
X5173929Y-13570690D02*
X5183452Y-13561167D01*
X5183452Y-13561167D02*
X5202500Y-13551643D01*
X5202500Y-13551643D02*
X5231072Y-13551643D01*
X5231072Y-13551643D02*
X5250119Y-13561167D01*
X5250119Y-13561167D02*
X5259643Y-13580214D01*
X5259643Y-13580214D02*
X5259643Y-13684976D01*
X5259643Y-13580214D02*
X5269167Y-13561167D01*
X5269167Y-13561167D02*
X5288214Y-13551643D01*
X5288214Y-13551643D02*
X5316786Y-13551643D01*
X5316786Y-13551643D02*
X5335833Y-13561167D01*
X5335833Y-13561167D02*
X5345357Y-13580214D01*
X5345357Y-13580214D02*
X5345357Y-13684976D01*
X5703452Y-13475452D02*
X5532024Y-13732595D01*
X5928214Y-13484976D02*
X5947262Y-13484976D01*
X5947262Y-13484976D02*
X5966310Y-13494500D01*
X5966310Y-13494500D02*
X5975833Y-13504024D01*
X5975833Y-13504024D02*
X5985357Y-13523071D01*
X5985357Y-13523071D02*
X5994881Y-13561167D01*
X5994881Y-13561167D02*
X5994881Y-13608786D01*
X5994881Y-13608786D02*
X5985357Y-13646881D01*
X5985357Y-13646881D02*
X5975833Y-13665928D01*
X5975833Y-13665928D02*
X5966310Y-13675452D01*
X5966310Y-13675452D02*
X5947262Y-13684976D01*
X5947262Y-13684976D02*
X5928214Y-13684976D01*
X5928214Y-13684976D02*
X5909167Y-13675452D01*
X5909167Y-13675452D02*
X5899643Y-13665928D01*
X5899643Y-13665928D02*
X5890119Y-13646881D01*
X5890119Y-13646881D02*
X5880595Y-13608786D01*
X5880595Y-13608786D02*
X5880595Y-13561167D01*
X5880595Y-13561167D02*
X5890119Y-13523071D01*
X5890119Y-13523071D02*
X5899643Y-13504024D01*
X5899643Y-13504024D02*
X5909167Y-13494500D01*
X5909167Y-13494500D02*
X5928214Y-13484976D01*
X6080595Y-13665928D02*
X6090119Y-13675452D01*
X6090119Y-13675452D02*
X6080595Y-13684976D01*
X6080595Y-13684976D02*
X6071071Y-13675452D01*
X6071071Y-13675452D02*
X6080595Y-13665928D01*
X6080595Y-13665928D02*
X6080595Y-13684976D01*
X6213929Y-13484976D02*
X6232976Y-13484976D01*
X6232976Y-13484976D02*
X6252024Y-13494500D01*
X6252024Y-13494500D02*
X6261548Y-13504024D01*
X6261548Y-13504024D02*
X6271071Y-13523071D01*
X6271071Y-13523071D02*
X6280595Y-13561167D01*
X6280595Y-13561167D02*
X6280595Y-13608786D01*
X6280595Y-13608786D02*
X6271071Y-13646881D01*
X6271071Y-13646881D02*
X6261548Y-13665928D01*
X6261548Y-13665928D02*
X6252024Y-13675452D01*
X6252024Y-13675452D02*
X6232976Y-13684976D01*
X6232976Y-13684976D02*
X6213929Y-13684976D01*
X6213929Y-13684976D02*
X6194881Y-13675452D01*
X6194881Y-13675452D02*
X6185357Y-13665928D01*
X6185357Y-13665928D02*
X6175833Y-13646881D01*
X6175833Y-13646881D02*
X6166310Y-13608786D01*
X6166310Y-13608786D02*
X6166310Y-13561167D01*
X6166310Y-13561167D02*
X6175833Y-13523071D01*
X6175833Y-13523071D02*
X6185357Y-13504024D01*
X6185357Y-13504024D02*
X6194881Y-13494500D01*
X6194881Y-13494500D02*
X6213929Y-13484976D01*
X6347262Y-13484976D02*
X6471071Y-13484976D01*
X6471071Y-13484976D02*
X6404405Y-13561167D01*
X6404405Y-13561167D02*
X6432976Y-13561167D01*
X6432976Y-13561167D02*
X6452024Y-13570690D01*
X6452024Y-13570690D02*
X6461548Y-13580214D01*
X6461548Y-13580214D02*
X6471071Y-13599262D01*
X6471071Y-13599262D02*
X6471071Y-13646881D01*
X6471071Y-13646881D02*
X6461548Y-13665928D01*
X6461548Y-13665928D02*
X6452024Y-13675452D01*
X6452024Y-13675452D02*
X6432976Y-13684976D01*
X6432976Y-13684976D02*
X6375833Y-13684976D01*
X6375833Y-13684976D02*
X6356786Y-13675452D01*
X6356786Y-13675452D02*
X6347262Y-13665928D01*
X6566310Y-13684976D02*
X6604405Y-13684976D01*
X6604405Y-13684976D02*
X6623452Y-13675452D01*
X6623452Y-13675452D02*
X6632976Y-13665928D01*
X6632976Y-13665928D02*
X6652024Y-13637357D01*
X6652024Y-13637357D02*
X6661548Y-13599262D01*
X6661548Y-13599262D02*
X6661548Y-13523071D01*
X6661548Y-13523071D02*
X6652024Y-13504024D01*
X6652024Y-13504024D02*
X6642500Y-13494500D01*
X6642500Y-13494500D02*
X6623452Y-13484976D01*
X6623452Y-13484976D02*
X6585357Y-13484976D01*
X6585357Y-13484976D02*
X6566310Y-13494500D01*
X6566310Y-13494500D02*
X6556786Y-13504024D01*
X6556786Y-13504024D02*
X6547262Y-13523071D01*
X6547262Y-13523071D02*
X6547262Y-13570690D01*
X6547262Y-13570690D02*
X6556786Y-13589738D01*
X6556786Y-13589738D02*
X6566310Y-13599262D01*
X6566310Y-13599262D02*
X6585357Y-13608786D01*
X6585357Y-13608786D02*
X6623452Y-13608786D01*
X6623452Y-13608786D02*
X6642500Y-13599262D01*
X6642500Y-13599262D02*
X6652024Y-13589738D01*
X6652024Y-13589738D02*
X6661548Y-13570690D01*
X6832976Y-13551643D02*
X6832976Y-13684976D01*
X6785357Y-13475452D02*
X6737738Y-13618309D01*
X6737738Y-13618309D02*
X6861548Y-13618309D01*
X6928214Y-13484976D02*
X6928214Y-13523071D01*
X7004405Y-13484976D02*
X7004405Y-13523071D01*
X7267262Y-13761167D02*
X7257738Y-13751643D01*
X7257738Y-13751643D02*
X7238691Y-13723071D01*
X7238691Y-13723071D02*
X7229167Y-13704024D01*
X7229167Y-13704024D02*
X7219643Y-13675452D01*
X7219643Y-13675452D02*
X7210119Y-13627833D01*
X7210119Y-13627833D02*
X7210119Y-13589738D01*
X7210119Y-13589738D02*
X7219643Y-13542119D01*
X7219643Y-13542119D02*
X7229167Y-13513548D01*
X7229167Y-13513548D02*
X7238691Y-13494500D01*
X7238691Y-13494500D02*
X7257738Y-13465928D01*
X7257738Y-13465928D02*
X7267262Y-13456405D01*
X7352976Y-13684976D02*
X7391071Y-13684976D01*
X7391071Y-13684976D02*
X7410119Y-13675452D01*
X7410119Y-13675452D02*
X7419643Y-13665928D01*
X7419643Y-13665928D02*
X7438691Y-13637357D01*
X7438691Y-13637357D02*
X7448214Y-13599262D01*
X7448214Y-13599262D02*
X7448214Y-13523071D01*
X7448214Y-13523071D02*
X7438691Y-13504024D01*
X7438691Y-13504024D02*
X7429167Y-13494500D01*
X7429167Y-13494500D02*
X7410119Y-13484976D01*
X7410119Y-13484976D02*
X7372024Y-13484976D01*
X7372024Y-13484976D02*
X7352976Y-13494500D01*
X7352976Y-13494500D02*
X7343452Y-13504024D01*
X7343452Y-13504024D02*
X7333929Y-13523071D01*
X7333929Y-13523071D02*
X7333929Y-13570690D01*
X7333929Y-13570690D02*
X7343452Y-13589738D01*
X7343452Y-13589738D02*
X7352976Y-13599262D01*
X7352976Y-13599262D02*
X7372024Y-13608786D01*
X7372024Y-13608786D02*
X7410119Y-13608786D01*
X7410119Y-13608786D02*
X7429167Y-13599262D01*
X7429167Y-13599262D02*
X7438691Y-13589738D01*
X7438691Y-13589738D02*
X7448214Y-13570690D01*
X7619643Y-13484976D02*
X7581548Y-13484976D01*
X7581548Y-13484976D02*
X7562500Y-13494500D01*
X7562500Y-13494500D02*
X7552976Y-13504024D01*
X7552976Y-13504024D02*
X7533929Y-13532595D01*
X7533929Y-13532595D02*
X7524405Y-13570690D01*
X7524405Y-13570690D02*
X7524405Y-13646881D01*
X7524405Y-13646881D02*
X7533929Y-13665928D01*
X7533929Y-13665928D02*
X7543452Y-13675452D01*
X7543452Y-13675452D02*
X7562500Y-13684976D01*
X7562500Y-13684976D02*
X7600595Y-13684976D01*
X7600595Y-13684976D02*
X7619643Y-13675452D01*
X7619643Y-13675452D02*
X7629167Y-13665928D01*
X7629167Y-13665928D02*
X7638691Y-13646881D01*
X7638691Y-13646881D02*
X7638691Y-13599262D01*
X7638691Y-13599262D02*
X7629167Y-13580214D01*
X7629167Y-13580214D02*
X7619643Y-13570690D01*
X7619643Y-13570690D02*
X7600595Y-13561167D01*
X7600595Y-13561167D02*
X7562500Y-13561167D01*
X7562500Y-13561167D02*
X7543452Y-13570690D01*
X7543452Y-13570690D02*
X7533929Y-13580214D01*
X7533929Y-13580214D02*
X7524405Y-13599262D01*
X7844405Y-13684976D02*
X7844405Y-13484976D01*
X7930119Y-13684976D02*
X7930119Y-13580214D01*
X7930119Y-13580214D02*
X7920595Y-13561167D01*
X7920595Y-13561167D02*
X7901548Y-13551643D01*
X7901548Y-13551643D02*
X7872976Y-13551643D01*
X7872976Y-13551643D02*
X7853929Y-13561167D01*
X7853929Y-13561167D02*
X7844405Y-13570690D01*
X8053929Y-13684976D02*
X8034881Y-13675452D01*
X8034881Y-13675452D02*
X8025357Y-13665928D01*
X8025357Y-13665928D02*
X8015833Y-13646881D01*
X8015833Y-13646881D02*
X8015833Y-13589738D01*
X8015833Y-13589738D02*
X8025357Y-13570690D01*
X8025357Y-13570690D02*
X8034881Y-13561167D01*
X8034881Y-13561167D02*
X8053929Y-13551643D01*
X8053929Y-13551643D02*
X8082500Y-13551643D01*
X8082500Y-13551643D02*
X8101548Y-13561167D01*
X8101548Y-13561167D02*
X8111072Y-13570690D01*
X8111072Y-13570690D02*
X8120595Y-13589738D01*
X8120595Y-13589738D02*
X8120595Y-13646881D01*
X8120595Y-13646881D02*
X8111072Y-13665928D01*
X8111072Y-13665928D02*
X8101548Y-13675452D01*
X8101548Y-13675452D02*
X8082500Y-13684976D01*
X8082500Y-13684976D02*
X8053929Y-13684976D01*
X8234881Y-13684976D02*
X8215833Y-13675452D01*
X8215833Y-13675452D02*
X8206310Y-13656405D01*
X8206310Y-13656405D02*
X8206310Y-13484976D01*
X8387262Y-13675452D02*
X8368214Y-13684976D01*
X8368214Y-13684976D02*
X8330119Y-13684976D01*
X8330119Y-13684976D02*
X8311072Y-13675452D01*
X8311072Y-13675452D02*
X8301548Y-13656405D01*
X8301548Y-13656405D02*
X8301548Y-13580214D01*
X8301548Y-13580214D02*
X8311072Y-13561167D01*
X8311072Y-13561167D02*
X8330119Y-13551643D01*
X8330119Y-13551643D02*
X8368214Y-13551643D01*
X8368214Y-13551643D02*
X8387262Y-13561167D01*
X8387262Y-13561167D02*
X8396786Y-13580214D01*
X8396786Y-13580214D02*
X8396786Y-13599262D01*
X8396786Y-13599262D02*
X8301548Y-13618309D01*
X8472976Y-13675452D02*
X8492024Y-13684976D01*
X8492024Y-13684976D02*
X8530119Y-13684976D01*
X8530119Y-13684976D02*
X8549167Y-13675452D01*
X8549167Y-13675452D02*
X8558691Y-13656405D01*
X8558691Y-13656405D02*
X8558691Y-13646881D01*
X8558691Y-13646881D02*
X8549167Y-13627833D01*
X8549167Y-13627833D02*
X8530119Y-13618309D01*
X8530119Y-13618309D02*
X8501548Y-13618309D01*
X8501548Y-13618309D02*
X8482500Y-13608786D01*
X8482500Y-13608786D02*
X8472976Y-13589738D01*
X8472976Y-13589738D02*
X8472976Y-13580214D01*
X8472976Y-13580214D02*
X8482500Y-13561167D01*
X8482500Y-13561167D02*
X8501548Y-13551643D01*
X8501548Y-13551643D02*
X8530119Y-13551643D01*
X8530119Y-13551643D02*
X8549167Y-13561167D01*
X8625357Y-13761167D02*
X8634881Y-13751643D01*
X8634881Y-13751643D02*
X8653929Y-13723071D01*
X8653929Y-13723071D02*
X8663453Y-13704024D01*
X8663453Y-13704024D02*
X8672976Y-13675452D01*
X8672976Y-13675452D02*
X8682500Y-13627833D01*
X8682500Y-13627833D02*
X8682500Y-13589738D01*
X8682500Y-13589738D02*
X8672976Y-13542119D01*
X8672976Y-13542119D02*
X8663453Y-13513548D01*
X8663453Y-13513548D02*
X8653929Y-13494500D01*
X8653929Y-13494500D02*
X8634881Y-13465928D01*
X8634881Y-13465928D02*
X8625357Y-13456405D01*
M02*
