%TF.GenerationSoftware,KiCad,Pcbnew,(7.0.0)*%
%TF.CreationDate,2023-12-30T22:17:33+02:00*%
%TF.ProjectId,alu,616c752e-6b69-4636-9164-5f7063625858,rev?*%
%TF.SameCoordinates,Original*%
%TF.FileFunction,Soldermask,Top*%
%TF.FilePolarity,Negative*%
%FSLAX46Y46*%
G04 Gerber Fmt 4.6, Leading zero omitted, Abs format (unit mm)*
G04 Created by KiCad (PCBNEW (7.0.0)) date 2023-12-30 22:17:33*
%MOMM*%
%LPD*%
G01*
G04 APERTURE LIST*
G04 Aperture macros list*
%AMRoundRect*
0 Rectangle with rounded corners*
0 $1 Rounding radius*
0 $2 $3 $4 $5 $6 $7 $8 $9 X,Y pos of 4 corners*
0 Add a 4 corners polygon primitive as box body*
4,1,4,$2,$3,$4,$5,$6,$7,$8,$9,$2,$3,0*
0 Add four circle primitives for the rounded corners*
1,1,$1+$1,$2,$3*
1,1,$1+$1,$4,$5*
1,1,$1+$1,$6,$7*
1,1,$1+$1,$8,$9*
0 Add four rect primitives between the rounded corners*
20,1,$1+$1,$2,$3,$4,$5,0*
20,1,$1+$1,$4,$5,$6,$7,0*
20,1,$1+$1,$6,$7,$8,$9,0*
20,1,$1+$1,$8,$9,$2,$3,0*%
G04 Aperture macros list end*
%ADD10C,3.200000*%
%ADD11RoundRect,0.140000X0.140000X0.170000X-0.140000X0.170000X-0.140000X-0.170000X0.140000X-0.170000X0*%
%ADD12RoundRect,0.100000X0.100000X-0.637500X0.100000X0.637500X-0.100000X0.637500X-0.100000X-0.637500X0*%
%ADD13RoundRect,0.140000X0.170000X-0.140000X0.170000X0.140000X-0.170000X0.140000X-0.170000X-0.140000X0*%
%ADD14RoundRect,0.100000X-0.637500X-0.100000X0.637500X-0.100000X0.637500X0.100000X-0.637500X0.100000X0*%
%ADD15C,2.790000*%
%ADD16RoundRect,0.102000X-0.754000X0.754000X-0.754000X-0.754000X0.754000X-0.754000X0.754000X0.754000X0*%
%ADD17C,1.712000*%
%ADD18RoundRect,0.140000X-0.140000X-0.170000X0.140000X-0.170000X0.140000X0.170000X-0.140000X0.170000X0*%
%ADD19RoundRect,0.150000X0.875000X0.150000X-0.875000X0.150000X-0.875000X-0.150000X0.875000X-0.150000X0*%
%ADD20RoundRect,0.150000X-0.875000X-0.150000X0.875000X-0.150000X0.875000X0.150000X-0.875000X0.150000X0*%
%ADD21RoundRect,0.140000X-0.170000X0.140000X-0.170000X-0.140000X0.170000X-0.140000X0.170000X0.140000X0*%
G04 APERTURE END LIST*
D10*
%TO.C,REF\u002A\u002A*%
X113537000Y-122555000D03*
%TD*%
%TO.C,REF\u002A\u002A*%
X113669000Y-30998000D03*
%TD*%
D11*
%TO.C,C8*%
X98371600Y-48209200D03*
X97411600Y-48209200D03*
%TD*%
D12*
%TO.C,U10*%
X109200400Y-70952200D03*
X109850400Y-70952200D03*
X110500400Y-70952200D03*
X111150400Y-70952200D03*
X111800400Y-70952200D03*
X112450400Y-70952200D03*
X113100400Y-70952200D03*
X113100400Y-65227200D03*
X112450400Y-65227200D03*
X111800400Y-65227200D03*
X111150400Y-65227200D03*
X110500400Y-65227200D03*
X109850400Y-65227200D03*
X109200400Y-65227200D03*
%TD*%
%TO.C,U3*%
X76028000Y-55999300D03*
X76678000Y-55999300D03*
X77328000Y-55999300D03*
X77978000Y-55999300D03*
X78628000Y-55999300D03*
X79278000Y-55999300D03*
X79928000Y-55999300D03*
X79928000Y-50274300D03*
X79278000Y-50274300D03*
X78628000Y-50274300D03*
X77978000Y-50274300D03*
X77328000Y-50274300D03*
X76678000Y-50274300D03*
X76028000Y-50274300D03*
%TD*%
D13*
%TO.C,C13*%
X66294000Y-46454000D03*
X66294000Y-45494000D03*
%TD*%
D14*
%TO.C,U9*%
X93911500Y-89286800D03*
X93911500Y-89936800D03*
X93911500Y-90586800D03*
X93911500Y-91236800D03*
X93911500Y-91886800D03*
X93911500Y-92536800D03*
X93911500Y-93186800D03*
X99636500Y-93186800D03*
X99636500Y-92536800D03*
X99636500Y-91886800D03*
X99636500Y-91236800D03*
X99636500Y-90586800D03*
X99636500Y-89936800D03*
X99636500Y-89286800D03*
%TD*%
D15*
%TO.C,J1*%
X41910000Y-31750000D03*
X41910000Y-120650000D03*
D16*
X44450000Y-115570000D03*
D17*
X44450000Y-113030000D03*
X44450000Y-110490000D03*
X44450000Y-107950000D03*
X44450000Y-105410000D03*
X44450000Y-102870000D03*
X44450000Y-100330000D03*
X44450000Y-97790000D03*
X44450000Y-95250000D03*
X44450000Y-92710000D03*
X44450000Y-90170000D03*
X44450000Y-87630000D03*
X44450000Y-85090000D03*
X44450000Y-82550000D03*
X44450000Y-80010000D03*
X44450000Y-77470000D03*
X44450000Y-74930000D03*
X44450000Y-72390000D03*
X44450000Y-69850000D03*
X44450000Y-67310000D03*
X44450000Y-64770000D03*
X44450000Y-62230000D03*
X44450000Y-59690000D03*
X44450000Y-57150000D03*
X44450000Y-54610000D03*
X44450000Y-52070000D03*
X44450000Y-49530000D03*
X44450000Y-46990000D03*
X44450000Y-44450000D03*
X44450000Y-41910000D03*
X44450000Y-39370000D03*
X44450000Y-36830000D03*
X46990000Y-115570000D03*
X46990000Y-113030000D03*
X46990000Y-110490000D03*
X46990000Y-107950000D03*
X46990000Y-105410000D03*
X46990000Y-102870000D03*
X46990000Y-100330000D03*
X46990000Y-97790000D03*
X46990000Y-95250000D03*
X46990000Y-92710000D03*
X46990000Y-90170000D03*
X46990000Y-87630000D03*
X46990000Y-85090000D03*
X46990000Y-82550000D03*
X46990000Y-80010000D03*
X46990000Y-77470000D03*
X46990000Y-74930000D03*
X46990000Y-72390000D03*
X46990000Y-69850000D03*
X46990000Y-67310000D03*
X46990000Y-64770000D03*
X46990000Y-62230000D03*
X46990000Y-59690000D03*
X46990000Y-57150000D03*
X46990000Y-54610000D03*
X46990000Y-52070000D03*
X46990000Y-49530000D03*
X46990000Y-46990000D03*
X46990000Y-44450000D03*
X46990000Y-41910000D03*
X46990000Y-39370000D03*
X46990000Y-36830000D03*
X49530000Y-115570000D03*
X49530000Y-113030000D03*
X49530000Y-110490000D03*
X49530000Y-107950000D03*
X49530000Y-105410000D03*
X49530000Y-102870000D03*
X49530000Y-100330000D03*
X49530000Y-97790000D03*
X49530000Y-95250000D03*
X49530000Y-92710000D03*
X49530000Y-90170000D03*
X49530000Y-87630000D03*
X49530000Y-85090000D03*
X49530000Y-82550000D03*
X49530000Y-80010000D03*
X49530000Y-77470000D03*
X49530000Y-74930000D03*
X49530000Y-72390000D03*
X49530000Y-69850000D03*
X49530000Y-67310000D03*
X49530000Y-64770000D03*
X49530000Y-62230000D03*
X49530000Y-59690000D03*
X49530000Y-57150000D03*
X49530000Y-54610000D03*
X49530000Y-52070000D03*
X49530000Y-49530000D03*
X49530000Y-46990000D03*
X49530000Y-44450000D03*
X49530000Y-41910000D03*
X49530000Y-39370000D03*
X49530000Y-36830000D03*
%TD*%
D11*
%TO.C,C4*%
X85344000Y-63144400D03*
X84384000Y-63144400D03*
%TD*%
D14*
%TO.C,U1*%
X76233100Y-36759600D03*
X76233100Y-37409600D03*
X76233100Y-38059600D03*
X76233100Y-38709600D03*
X76233100Y-39359600D03*
X76233100Y-40009600D03*
X76233100Y-40659600D03*
X81958100Y-40659600D03*
X81958100Y-40009600D03*
X81958100Y-39359600D03*
X81958100Y-38709600D03*
X81958100Y-38059600D03*
X81958100Y-37409600D03*
X81958100Y-36759600D03*
%TD*%
D13*
%TO.C,C25*%
X67310000Y-75410000D03*
X67310000Y-74450000D03*
%TD*%
D12*
%TO.C,U7*%
X97070800Y-70764400D03*
X97720800Y-70764400D03*
X98370800Y-70764400D03*
X99020800Y-70764400D03*
X99670800Y-70764400D03*
X100320800Y-70764400D03*
X100970800Y-70764400D03*
X100970800Y-65039400D03*
X100320800Y-65039400D03*
X99670800Y-65039400D03*
X99020800Y-65039400D03*
X98370800Y-65039400D03*
X97720800Y-65039400D03*
X97070800Y-65039400D03*
%TD*%
D11*
%TO.C,C3*%
X74444800Y-63042800D03*
X73484800Y-63042800D03*
%TD*%
D12*
%TO.C,U8*%
X98430800Y-55745300D03*
X99080800Y-55745300D03*
X99730800Y-55745300D03*
X100380800Y-55745300D03*
X101030800Y-55745300D03*
X101680800Y-55745300D03*
X102330800Y-55745300D03*
X102330800Y-50020300D03*
X101680800Y-50020300D03*
X101030800Y-50020300D03*
X100380800Y-50020300D03*
X99730800Y-50020300D03*
X99080800Y-50020300D03*
X98430800Y-50020300D03*
%TD*%
D14*
%TO.C,U6*%
X94198600Y-30185600D03*
X94198600Y-30835600D03*
X94198600Y-31485600D03*
X94198600Y-32135600D03*
X94198600Y-32785600D03*
X94198600Y-33435600D03*
X94198600Y-34085600D03*
X99923600Y-34085600D03*
X99923600Y-33435600D03*
X99923600Y-32785600D03*
X99923600Y-32135600D03*
X99923600Y-31485600D03*
X99923600Y-30835600D03*
X99923600Y-30185600D03*
%TD*%
D12*
%TO.C,U5*%
X85376400Y-70713600D03*
X86026400Y-70713600D03*
X86676400Y-70713600D03*
X87326400Y-70713600D03*
X87976400Y-70713600D03*
X88626400Y-70713600D03*
X89276400Y-70713600D03*
X89276400Y-64988600D03*
X88626400Y-64988600D03*
X87976400Y-64988600D03*
X87326400Y-64988600D03*
X86676400Y-64988600D03*
X86026400Y-64988600D03*
X85376400Y-64988600D03*
%TD*%
D11*
%TO.C,C6*%
X108915200Y-63347600D03*
X107955200Y-63347600D03*
%TD*%
D14*
%TO.C,U30*%
X58656300Y-55606400D03*
X58656300Y-56256400D03*
X58656300Y-56906400D03*
X58656300Y-57556400D03*
X58656300Y-58206400D03*
X58656300Y-58856400D03*
X58656300Y-59506400D03*
X64381300Y-59506400D03*
X64381300Y-58856400D03*
X64381300Y-58206400D03*
X64381300Y-57556400D03*
X64381300Y-56906400D03*
X64381300Y-56256400D03*
X64381300Y-55606400D03*
%TD*%
D18*
%TO.C,C10*%
X102339200Y-30073600D03*
X103299200Y-30073600D03*
%TD*%
D11*
%TO.C,C7*%
X76019600Y-48260000D03*
X75059600Y-48260000D03*
%TD*%
D14*
%TO.C,U4*%
X76791900Y-96500400D03*
X76791900Y-97150400D03*
X76791900Y-97800400D03*
X76791900Y-98450400D03*
X76791900Y-99100400D03*
X76791900Y-99750400D03*
X76791900Y-100400400D03*
X82516900Y-100400400D03*
X82516900Y-99750400D03*
X82516900Y-99100400D03*
X82516900Y-98450400D03*
X82516900Y-97800400D03*
X82516900Y-97150400D03*
X82516900Y-96500400D03*
%TD*%
D18*
%TO.C,C9*%
X84254400Y-36576000D03*
X85214400Y-36576000D03*
%TD*%
D13*
%TO.C,C26*%
X67945000Y-86840000D03*
X67945000Y-85880000D03*
%TD*%
D14*
%TO.C,U29*%
X58486200Y-46655200D03*
X58486200Y-47305200D03*
X58486200Y-47955200D03*
X58486200Y-48605200D03*
X58486200Y-49255200D03*
X58486200Y-49905200D03*
X58486200Y-50555200D03*
X58486200Y-51205200D03*
X64211200Y-51205200D03*
X64211200Y-50555200D03*
X64211200Y-49905200D03*
X64211200Y-49255200D03*
X64211200Y-48605200D03*
X64211200Y-47955200D03*
X64211200Y-47305200D03*
X64211200Y-46655200D03*
%TD*%
D19*
%TO.C,U31*%
X67515000Y-40005000D03*
X67515000Y-38735000D03*
X67515000Y-37465000D03*
X67515000Y-36195000D03*
X67515000Y-34925000D03*
X67515000Y-33655000D03*
X67515000Y-32385000D03*
X67515000Y-31115000D03*
X67515000Y-29845000D03*
X67515000Y-28575000D03*
X58215000Y-28575000D03*
X58215000Y-29845000D03*
X58215000Y-31115000D03*
X58215000Y-32385000D03*
X58215000Y-33655000D03*
X58215000Y-34925000D03*
X58215000Y-36195000D03*
X58215000Y-37465000D03*
X58215000Y-38735000D03*
X58215000Y-40005000D03*
%TD*%
D20*
%TO.C,U13*%
X56515000Y-112395000D03*
X56515000Y-113665000D03*
X56515000Y-114935000D03*
X56515000Y-116205000D03*
X56515000Y-117475000D03*
X56515000Y-118745000D03*
X56515000Y-120015000D03*
X56515000Y-121285000D03*
X56515000Y-122555000D03*
X56515000Y-123825000D03*
X65815000Y-123825000D03*
X65815000Y-122555000D03*
X65815000Y-121285000D03*
X65815000Y-120015000D03*
X65815000Y-118745000D03*
X65815000Y-117475000D03*
X65815000Y-116205000D03*
X65815000Y-114935000D03*
X65815000Y-113665000D03*
X65815000Y-112395000D03*
%TD*%
D18*
%TO.C,C23*%
X68100000Y-112395000D03*
X69060000Y-112395000D03*
%TD*%
D14*
%TO.C,U15*%
X60002500Y-86950000D03*
X60002500Y-87600000D03*
X60002500Y-88250000D03*
X60002500Y-88900000D03*
X60002500Y-89550000D03*
X60002500Y-90200000D03*
X60002500Y-90850000D03*
X65727500Y-90850000D03*
X65727500Y-90200000D03*
X65727500Y-89550000D03*
X65727500Y-88900000D03*
X65727500Y-88250000D03*
X65727500Y-87600000D03*
X65727500Y-86950000D03*
%TD*%
%TO.C,U14*%
X59680000Y-75565000D03*
X59680000Y-76215000D03*
X59680000Y-76865000D03*
X59680000Y-77515000D03*
X59680000Y-78165000D03*
X59680000Y-78815000D03*
X59680000Y-79465000D03*
X65405000Y-79465000D03*
X65405000Y-78815000D03*
X65405000Y-78165000D03*
X65405000Y-77515000D03*
X65405000Y-76865000D03*
X65405000Y-76215000D03*
X65405000Y-75565000D03*
%TD*%
D13*
%TO.C,C1*%
X84175600Y-96339600D03*
X84175600Y-95379600D03*
%TD*%
D21*
%TO.C,C24*%
X55880000Y-38890000D03*
X55880000Y-39850000D03*
%TD*%
D13*
%TO.C,C2*%
X101447600Y-89154000D03*
X101447600Y-88194000D03*
%TD*%
D11*
%TO.C,C5*%
X97050800Y-63347600D03*
X96090800Y-63347600D03*
%TD*%
D12*
%TO.C,U2*%
X74464800Y-70713600D03*
X75114800Y-70713600D03*
X75764800Y-70713600D03*
X76414800Y-70713600D03*
X77064800Y-70713600D03*
X77714800Y-70713600D03*
X78364800Y-70713600D03*
X78364800Y-64988600D03*
X77714800Y-64988600D03*
X77064800Y-64988600D03*
X76414800Y-64988600D03*
X75764800Y-64988600D03*
X75114800Y-64988600D03*
X74464800Y-64988600D03*
%TD*%
D13*
%TO.C,C14*%
X66421000Y-55598000D03*
X66421000Y-54638000D03*
%TD*%
M02*
