%TF.GenerationSoftware,KiCad,Pcbnew,(7.0.0)*%
%TF.CreationDate,2023-12-30T22:17:33+02:00*%
%TF.ProjectId,alu,616c752e-6b69-4636-9164-5f7063625858,rev?*%
%TF.SameCoordinates,Original*%
%TF.FileFunction,Soldermask,Bot*%
%TF.FilePolarity,Negative*%
%FSLAX46Y46*%
G04 Gerber Fmt 4.6, Leading zero omitted, Abs format (unit mm)*
G04 Created by KiCad (PCBNEW (7.0.0)) date 2023-12-30 22:17:33*
%MOMM*%
%LPD*%
G01*
G04 APERTURE LIST*
G04 Aperture macros list*
%AMRoundRect*
0 Rectangle with rounded corners*
0 $1 Rounding radius*
0 $2 $3 $4 $5 $6 $7 $8 $9 X,Y pos of 4 corners*
0 Add a 4 corners polygon primitive as box body*
4,1,4,$2,$3,$4,$5,$6,$7,$8,$9,$2,$3,0*
0 Add four circle primitives for the rounded corners*
1,1,$1+$1,$2,$3*
1,1,$1+$1,$4,$5*
1,1,$1+$1,$6,$7*
1,1,$1+$1,$8,$9*
0 Add four rect primitives between the rounded corners*
20,1,$1+$1,$2,$3,$4,$5,0*
20,1,$1+$1,$4,$5,$6,$7,0*
20,1,$1+$1,$6,$7,$8,$9,0*
20,1,$1+$1,$8,$9,$2,$3,0*%
G04 Aperture macros list end*
%ADD10C,3.200000*%
%ADD11C,2.790000*%
%ADD12RoundRect,0.102000X-0.754000X0.754000X-0.754000X-0.754000X0.754000X-0.754000X0.754000X0.754000X0*%
%ADD13C,1.712000*%
G04 APERTURE END LIST*
D10*
%TO.C,REF\u002A\u002A*%
X113537000Y-122555000D03*
%TD*%
%TO.C,REF\u002A\u002A*%
X113669000Y-30998000D03*
%TD*%
D11*
%TO.C,J1*%
X41910000Y-31750000D03*
X41910000Y-120650000D03*
D12*
X44450000Y-115570000D03*
D13*
X44450000Y-113030000D03*
X44450000Y-110490000D03*
X44450000Y-107950000D03*
X44450000Y-105410000D03*
X44450000Y-102870000D03*
X44450000Y-100330000D03*
X44450000Y-97790000D03*
X44450000Y-95250000D03*
X44450000Y-92710000D03*
X44450000Y-90170000D03*
X44450000Y-87630000D03*
X44450000Y-85090000D03*
X44450000Y-82550000D03*
X44450000Y-80010000D03*
X44450000Y-77470000D03*
X44450000Y-74930000D03*
X44450000Y-72390000D03*
X44450000Y-69850000D03*
X44450000Y-67310000D03*
X44450000Y-64770000D03*
X44450000Y-62230000D03*
X44450000Y-59690000D03*
X44450000Y-57150000D03*
X44450000Y-54610000D03*
X44450000Y-52070000D03*
X44450000Y-49530000D03*
X44450000Y-46990000D03*
X44450000Y-44450000D03*
X44450000Y-41910000D03*
X44450000Y-39370000D03*
X44450000Y-36830000D03*
X46990000Y-115570000D03*
X46990000Y-113030000D03*
X46990000Y-110490000D03*
X46990000Y-107950000D03*
X46990000Y-105410000D03*
X46990000Y-102870000D03*
X46990000Y-100330000D03*
X46990000Y-97790000D03*
X46990000Y-95250000D03*
X46990000Y-92710000D03*
X46990000Y-90170000D03*
X46990000Y-87630000D03*
X46990000Y-85090000D03*
X46990000Y-82550000D03*
X46990000Y-80010000D03*
X46990000Y-77470000D03*
X46990000Y-74930000D03*
X46990000Y-72390000D03*
X46990000Y-69850000D03*
X46990000Y-67310000D03*
X46990000Y-64770000D03*
X46990000Y-62230000D03*
X46990000Y-59690000D03*
X46990000Y-57150000D03*
X46990000Y-54610000D03*
X46990000Y-52070000D03*
X46990000Y-49530000D03*
X46990000Y-46990000D03*
X46990000Y-44450000D03*
X46990000Y-41910000D03*
X46990000Y-39370000D03*
X46990000Y-36830000D03*
X49530000Y-115570000D03*
X49530000Y-113030000D03*
X49530000Y-110490000D03*
X49530000Y-107950000D03*
X49530000Y-105410000D03*
X49530000Y-102870000D03*
X49530000Y-100330000D03*
X49530000Y-97790000D03*
X49530000Y-95250000D03*
X49530000Y-92710000D03*
X49530000Y-90170000D03*
X49530000Y-87630000D03*
X49530000Y-85090000D03*
X49530000Y-82550000D03*
X49530000Y-80010000D03*
X49530000Y-77470000D03*
X49530000Y-74930000D03*
X49530000Y-72390000D03*
X49530000Y-69850000D03*
X49530000Y-67310000D03*
X49530000Y-64770000D03*
X49530000Y-62230000D03*
X49530000Y-59690000D03*
X49530000Y-57150000D03*
X49530000Y-54610000D03*
X49530000Y-52070000D03*
X49530000Y-49530000D03*
X49530000Y-46990000D03*
X49530000Y-44450000D03*
X49530000Y-41910000D03*
X49530000Y-39370000D03*
X49530000Y-36830000D03*
%TD*%
M02*
