M48
; DRILL file {KiCad (7.0.0)} date Sat Dec 30 22:17:35 2023
; FORMAT={-:-/ absolute / inch / decimal}
; #@! TF.CreationDate,2023-12-30T22:17:35+02:00
; #@! TF.GenerationSoftware,Kicad,Pcbnew,(7.0.0)
; #@! TF.FileFunction,Plated,1,4,PTH
FMAT,2
INCH
; #@! TA.AperFunction,Plated,PTH,ViaDrill
T1C0.0079
; #@! TA.AperFunction,Plated,PTH,ComponentDrill
T2C0.0394
%
G90
G05
T1
X2.1Y-4.475
X2.1Y-4.525
X2.1Y-4.575
X2.1Y-4.625
X2.1Y-4.675
X2.1Y-4.725
X2.1Y-4.775
X2.1Y-4.825
X2.1081Y-1.125
X2.1081Y-1.175
X2.1081Y-1.225
X2.1081Y-1.275
X2.1081Y-1.325
X2.125Y-1.375
X2.15Y-1.425
X2.15Y-4.425
X2.15Y-4.875
X2.175Y-1.475
X2.187Y-3.8316
X2.187Y-3.9075
X2.187Y-3.9792
X2.187Y-4.0551
X2.2Y-1.5
X2.2Y-1.6
X2.225Y-4.925
X2.2283Y-1.8607
X2.2304Y-1.937
X2.2492Y-1.8369
X2.25Y-1.885
X2.25Y-1.915
X2.25Y-1.965
X2.25Y-2.015
X2.2559Y-3.8316
X2.2559Y-3.9075
X2.2559Y-3.9792
X2.2559Y-4.0551
X2.26Y-2.345
X2.265Y-2.24
X2.2835Y-3.0
X2.2835Y-3.448
X2.294Y-3.128
X2.3Y-2.976
X2.3Y-3.052
X2.3Y-3.578
X2.3Y-4.425
X2.3Y-4.475
X2.3Y-4.525
X2.3Y-4.575
X2.3Y-4.625
X2.3Y-4.675
X2.3Y-4.725
X2.3Y-4.775
X2.3Y-4.825
X2.3Y-4.875
X2.302Y-3.168
X2.305Y-2.05
X2.306Y-3.422
X2.31Y-2.38
X2.312Y-3.5
X2.312Y-3.618
X2.3248Y-3.8316
X2.3248Y-3.9075
X2.3248Y-3.9792
X2.3248Y-4.0551
X2.348Y-2.216
X2.35Y-1.94
X2.35Y-2.015
X2.35Y-2.188
X2.352Y-3.168
X2.355Y-2.345
X2.362Y-3.618
X2.3622Y-1.9055
X2.368Y-1.126
X2.368Y-1.176
X2.368Y-1.226
X2.368Y-1.276
X2.368Y-1.326
X2.368Y-1.376
X2.368Y-1.426
X2.368Y-1.476
X2.368Y-1.526
X2.368Y-1.576
X2.3858Y-1.864
X2.3858Y-1.964
X2.3858Y-2.014
X2.392Y-3.028
X2.3937Y-3.8316
X2.3937Y-3.9075
X2.3937Y-3.9792
X2.3937Y-4.0551
X2.398Y-3.102
X2.402Y-3.168
X2.408Y-3.128
X2.41Y-3.474
X2.41Y-3.546
X2.412Y-3.618
X2.422Y-3.576
X2.428Y-4.424
X2.428Y-4.474
X2.428Y-4.524
X2.428Y-4.574
X2.428Y-4.624
X2.428Y-4.674
X2.428Y-4.724
X2.428Y-4.774
X2.428Y-4.824
X2.428Y-4.874
X2.452Y-3.168
X2.4567Y-1.8583
X2.462Y-3.618
X2.472Y-2.19
X2.472Y-2.24
X2.472Y-2.29
X2.472Y-2.34
X2.484Y-1.888
X2.526Y-3.028
X2.528Y-3.104
X2.534Y-4.824
X2.536Y-4.726
X2.536Y-4.772
X2.536Y-4.8759
X2.54Y-3.474
X2.544Y-3.55
X2.55Y-1.125
X2.55Y-1.176
X2.55Y-1.226
X2.55Y-1.276
X2.55Y-1.326
X2.55Y-1.376
X2.55Y-1.426
X2.55Y-1.476
X2.55Y-1.526
X2.552Y-3.68
X2.575Y-1.79
X2.578Y-1.888
X2.58Y-2.15
X2.5886Y-2.3434
X2.5886Y-2.4193
X2.5886Y-2.491
X2.5886Y-2.5669
X2.595Y-1.575
X2.61Y-1.75
X2.61Y-2.93
X2.615Y-2.11
X2.626Y-3.052
X2.626Y-3.128
X2.634Y-3.38
X2.636Y-3.5
X2.636Y-3.576
X2.645Y-1.83
X2.65Y-1.79
X2.65Y-4.525
X2.65Y-4.575
X2.65Y-4.625
X2.65Y-4.675
X2.652Y-2.89
X2.655Y-2.15
X2.6575Y-2.3434
X2.6575Y-2.4193
X2.6575Y-2.491
X2.6575Y-2.5669
X2.66Y-2.19
X2.675Y-1.125
X2.675Y-4.475
X2.676Y-3.338
X2.68Y-4.372
X2.69Y-3.002
X2.692Y-2.93
X2.692Y-2.97
X2.706Y-3.894
X2.716Y-3.382
X2.7172Y-1.276
X2.718Y-1.224
X2.718Y-1.324
X2.718Y-1.378
X2.72Y-1.175
X2.72Y-1.426
X2.72Y-1.528
X2.72Y-3.418
X2.722Y-1.474
X2.725Y-4.475
X2.7264Y-2.3434
X2.7264Y-2.4193
X2.7264Y-2.491
X2.7264Y-2.5669
X2.742Y-3.826
X2.742Y-3.944
X2.766Y-3.5
X2.786Y-3.126
X2.7953Y-2.3434
X2.7953Y-2.4193
X2.7953Y-2.491
X2.7953Y-2.5669
X2.806Y-2.678
X2.814Y-3.578
X2.834Y-2.744
X2.84Y-2.604
X2.846Y-2.632
X2.854Y-2.48
X2.8583Y-2.718
X2.87Y-1.548
X2.874Y-2.2539
X2.874Y-2.3031
X2.892Y-2.526
X2.894Y-2.44
X2.904Y-3.746
X2.916Y-1.898
X2.9232Y-2.2539
X2.9232Y-2.3031
X2.928Y-2.852
X2.9331Y-1.7126
X2.9331Y-1.7618
X2.936Y-3.748
X2.938Y-2.394
X2.94Y-2.438
X2.944Y-1.602
X2.948Y-1.566
X2.952Y-1.5
X2.956Y-1.944
X2.958Y-1.86
X2.958Y-2.604
X2.958Y-2.854
X2.96Y-3.952
X2.972Y-2.464
X2.972Y-3.8
X2.974Y-3.876
X2.98Y-2.41
X2.982Y-2.868
X2.9823Y-1.7126
X2.9823Y-1.7618
X2.986Y-2.604
X2.996Y-2.2835
X3.008Y-2.834
X3.01Y-1.87
X3.02Y-2.256
X3.024Y-2.03
X3.024Y-3.996
X3.034Y-2.604
X3.034Y-2.744
X3.042Y-1.552
X3.044Y-1.524
X3.046Y-2.2913
X3.046Y-4.252
X3.048Y-4.13
X3.048Y-4.162
X3.048Y-4.192
X3.048Y-4.222
X3.054Y-2.85
X3.056Y-1.602
X3.06Y-2.506
X3.072Y-2.256
X3.072Y-3.82
X3.072Y-3.898
X3.0762Y-2.0576
X3.084Y-2.84
X3.086Y-3.952
X3.088Y-2.73
X3.0881Y-2.4803
X3.0925Y-3.376
X3.0925Y-3.4252
X3.102Y-2.032
X3.1079Y-2.0653
X3.122Y-2.786
X3.124Y-2.258
X3.13Y-2.032
X3.1417Y-3.376
X3.1417Y-3.4252
X3.146Y-2.15
X3.1468Y-1.9318
X3.1555Y-2.8957
X3.1555Y-2.9449
X3.158Y-2.032
X3.1594Y-2.3425
X3.1594Y-2.3917
X3.1618Y-2.2712
X3.178Y-1.524
X3.18Y-1.602
X3.192Y-2.206
X3.2Y-3.904
X3.202Y-3.82
X3.2047Y-2.8957
X3.2047Y-2.9449
X3.2087Y-2.3425
X3.2087Y-2.3917
X3.275Y-1.47
X3.275Y-1.5
X3.276Y-1.55
X3.28Y-3.756
X3.284Y-2.658
X3.286Y-2.486
X3.288Y-2.598
X3.298Y-3.928
X3.3Y-3.852
X3.312Y-2.372
X3.314Y-3.72
X3.318Y-1.406
X3.32Y-2.524
X3.324Y-2.442
X3.354Y-1.4
X3.354Y-3.756
X3.354Y-3.794
X3.356Y-1.478
X3.374Y-2.442
X3.386Y-2.606
X3.386Y-2.832
X3.394Y-1.44
X3.4055Y-2.4311
X3.4055Y-2.4902
X3.414Y-2.608
X3.436Y-3.75
X3.438Y-2.516
X3.438Y-2.832
X3.458Y-3.936
X3.464Y-2.602
X3.464Y-2.736
X3.465Y-2.36
X3.486Y-2.84
X3.486Y-3.748
X3.514Y-2.514
X3.514Y-2.728
X3.514Y-2.84
X3.5161Y-3.932
X3.554Y-2.786
X3.556Y-2.6
X3.564Y-3.442
X3.628Y-1.493
X3.628Y-1.5689
X3.628Y-1.6406
X3.628Y-1.7165
X3.6358Y-4.2568
X3.6358Y-4.3327
X3.6358Y-4.4044
X3.6358Y-4.4803
X3.638Y-3.67
X3.6437Y-3.1083
X3.6437Y-3.1575
X3.646Y-3.514
X3.646Y-3.592
X3.65Y-1.342
X3.654Y-1.308
X3.655Y-1.215
X3.658Y-1.244
X3.6713Y-2.1654
X3.6713Y-2.2146
X3.6929Y-3.1083
X3.6929Y-3.1575
X3.6969Y-1.493
X3.6969Y-1.5689
X3.6969Y-1.6406
X3.6969Y-1.7165
X3.698Y-3.712
X3.7047Y-4.2568
X3.7047Y-4.3327
X3.7047Y-4.4044
X3.7047Y-4.4803
X3.7205Y-2.1654
X3.7205Y-2.2146
X3.722Y-2.594
X3.728Y-2.654
X3.736Y-2.57
X3.742Y-3.54
X3.744Y-3.618
X3.748Y-2.492
X3.75Y-1.265
X3.756Y-3.67
X3.76Y-1.342
X3.7657Y-1.493
X3.7657Y-1.5689
X3.7657Y-1.6406
X3.7657Y-1.7165
X3.77Y-3.375
X3.7736Y-4.2568
X3.7736Y-4.3327
X3.7736Y-4.4044
X3.7736Y-4.4803
X3.7795Y-1.29
X3.782Y-2.536
X3.786Y-2.452
X3.794Y-1.898
X3.8248Y-2.3602
X3.8248Y-2.4094
X3.828Y-2.46
X3.8346Y-1.493
X3.8346Y-1.5689
X3.8346Y-1.6406
X3.8346Y-1.7165
X3.836Y-1.852
X3.836Y-1.94
X3.8425Y-4.2568
X3.8425Y-4.3327
X3.8425Y-4.4044
X3.8425Y-4.4803
X3.848Y-2.606
X3.848Y-2.838
X3.8523Y-2.2617
X3.874Y-3.542
X3.874Y-2.3602
X3.874Y-2.4094
X3.876Y-3.618
X3.882Y-1.86
X3.8833Y-2.6956
X3.884Y-2.608
X3.888Y-1.264
X3.89Y-1.344
X3.8973Y-2.7387
X3.898Y-2.254
X3.9Y-2.4882
X3.924Y-2.51
X3.926Y-2.62
X3.928Y-2.256
X3.9422Y-2.4803
X3.952Y-3.472
X3.972Y-3.642
X3.974Y-2.012
X3.976Y-2.728
X3.976Y-2.842
X3.976Y-3.566
X3.9843Y-2.2835
X3.985Y-1.215
X3.985Y-1.29
X3.99Y-2.3307
X3.99Y-2.495
X3.992Y-3.43
X4.002Y-2.012
X4.006Y-2.256
X4.0079Y-1.2362
X4.0079Y-1.315
X4.014Y-2.786
X4.0288Y-1.9162
X4.03Y-1.154
X4.03Y-2.14
X4.036Y-3.47
X4.042Y-3.51
X4.0472Y-2.254
X4.066Y-1.14
X4.07Y-1.224
X4.072Y-2.196
X4.106Y-1.184
X4.138Y-3.45
X4.176Y-3.452
X4.1949Y-1.4458
X4.1949Y-1.5217
X4.1949Y-1.5934
X4.1949Y-1.6693
X4.212Y-2.492
X4.2323Y-4.2548
X4.2323Y-4.3307
X4.2323Y-4.4025
X4.2323Y-4.4783
X4.25Y-2.452
X4.25Y-2.536
X4.256Y-2.722
X4.2638Y-1.4458
X4.2638Y-1.5217
X4.2638Y-1.5934
X4.2638Y-1.6693
X4.294Y-2.46
X4.3Y-2.858
X4.3012Y-4.2548
X4.3012Y-4.3307
X4.3012Y-4.4025
X4.3012Y-4.4783
X4.324Y-2.8819
X4.3327Y-1.4458
X4.3327Y-1.5217
X4.3327Y-1.5934
X4.3327Y-1.6693
X4.3566Y-3.375
X4.3701Y-4.2548
X4.3701Y-4.3307
X4.3701Y-4.4025
X4.3701Y-4.4783
X4.376Y-2.85
X4.396Y-2.74
X4.4016Y-1.4458
X4.4016Y-1.5217
X4.4016Y-1.5934
X4.4016Y-1.6693
X4.426Y-2.7165
X4.439Y-4.2548
X4.439Y-4.3307
X4.439Y-4.4025
X4.439Y-4.4783
X4.452Y-2.738
X4.456Y-2.846
X4.494Y-2.792
T2
X1.75Y-1.45
X1.75Y-1.55
X1.75Y-1.65
X1.75Y-1.75
X1.75Y-1.85
X1.75Y-1.95
X1.75Y-2.05
X1.75Y-2.15
X1.75Y-2.25
X1.75Y-2.35
X1.75Y-2.45
X1.75Y-2.55
X1.75Y-2.65
X1.75Y-2.75
X1.75Y-2.85
X1.75Y-2.95
X1.75Y-3.05
X1.75Y-3.15
X1.75Y-3.25
X1.75Y-3.35
X1.75Y-3.45
X1.75Y-3.55
X1.75Y-3.65
X1.75Y-3.75
X1.75Y-3.85
X1.75Y-3.95
X1.75Y-4.05
X1.75Y-4.15
X1.75Y-4.25
X1.75Y-4.35
X1.75Y-4.45
X1.75Y-4.55
X1.85Y-1.45
X1.85Y-1.55
X1.85Y-1.65
X1.85Y-1.75
X1.85Y-1.85
X1.85Y-1.95
X1.85Y-2.05
X1.85Y-2.15
X1.85Y-2.25
X1.85Y-2.35
X1.85Y-2.45
X1.85Y-2.55
X1.85Y-2.65
X1.85Y-2.75
X1.85Y-2.85
X1.85Y-2.95
X1.85Y-3.05
X1.85Y-3.15
X1.85Y-3.25
X1.85Y-3.35
X1.85Y-3.45
X1.85Y-3.55
X1.85Y-3.65
X1.85Y-3.75
X1.85Y-3.85
X1.85Y-3.95
X1.85Y-4.05
X1.85Y-4.15
X1.85Y-4.25
X1.85Y-4.35
X1.85Y-4.45
X1.85Y-4.55
X1.95Y-1.45
X1.95Y-1.55
X1.95Y-1.65
X1.95Y-1.75
X1.95Y-1.85
X1.95Y-1.95
X1.95Y-2.05
X1.95Y-2.15
X1.95Y-2.25
X1.95Y-2.35
X1.95Y-2.45
X1.95Y-2.55
X1.95Y-2.65
X1.95Y-2.75
X1.95Y-2.85
X1.95Y-2.95
X1.95Y-3.05
X1.95Y-3.15
X1.95Y-3.25
X1.95Y-3.35
X1.95Y-3.45
X1.95Y-3.55
X1.95Y-3.65
X1.95Y-3.75
X1.95Y-3.85
X1.95Y-3.95
X1.95Y-4.05
X1.95Y-4.15
X1.95Y-4.25
X1.95Y-4.35
X1.95Y-4.45
X1.95Y-4.55
T0
M30
