%TF.GenerationSoftware,KiCad,Pcbnew,8.0.5-8.0.5-0~ubuntu24.04.1*%
%TF.CreationDate,2024-09-12T21:52:08+03:00*%
%TF.ProjectId,alu,616c752e-6b69-4636-9164-5f7063625858,rev?*%
%TF.SameCoordinates,Original*%
%TF.FileFunction,Paste,Top*%
%TF.FilePolarity,Positive*%
%FSLAX46Y46*%
G04 Gerber Fmt 4.6, Leading zero omitted, Abs format (unit mm)*
G04 Created by KiCad (PCBNEW 8.0.5-8.0.5-0~ubuntu24.04.1) date 2024-09-12 21:52:08*
%MOMM*%
%LPD*%
G01*
G04 APERTURE LIST*
G04 Aperture macros list*
%AMRoundRect*
0 Rectangle with rounded corners*
0 $1 Rounding radius*
0 $2 $3 $4 $5 $6 $7 $8 $9 X,Y pos of 4 corners*
0 Add a 4 corners polygon primitive as box body*
4,1,4,$2,$3,$4,$5,$6,$7,$8,$9,$2,$3,0*
0 Add four circle primitives for the rounded corners*
1,1,$1+$1,$2,$3*
1,1,$1+$1,$4,$5*
1,1,$1+$1,$6,$7*
1,1,$1+$1,$8,$9*
0 Add four rect primitives between the rounded corners*
20,1,$1+$1,$2,$3,$4,$5,0*
20,1,$1+$1,$4,$5,$6,$7,0*
20,1,$1+$1,$6,$7,$8,$9,0*
20,1,$1+$1,$8,$9,$2,$3,0*%
G04 Aperture macros list end*
%ADD10RoundRect,0.100000X-0.637500X-0.100000X0.637500X-0.100000X0.637500X0.100000X-0.637500X0.100000X0*%
%ADD11RoundRect,0.250000X-0.325000X-0.650000X0.325000X-0.650000X0.325000X0.650000X-0.325000X0.650000X0*%
%ADD12RoundRect,0.150000X0.875000X0.150000X-0.875000X0.150000X-0.875000X-0.150000X0.875000X-0.150000X0*%
%ADD13RoundRect,0.150000X-0.875000X-0.150000X0.875000X-0.150000X0.875000X0.150000X-0.875000X0.150000X0*%
%ADD14RoundRect,0.250000X0.325000X0.650000X-0.325000X0.650000X-0.325000X-0.650000X0.325000X-0.650000X0*%
G04 APERTURE END LIST*
D10*
%TO.C,U21*%
X82413000Y-39071000D03*
X82413000Y-39721000D03*
X82413000Y-40371000D03*
X82413000Y-41021000D03*
X82413000Y-41671000D03*
X82413000Y-42321000D03*
X82413000Y-42971000D03*
X88138000Y-42971000D03*
X88138000Y-42321000D03*
X88138000Y-41671000D03*
X88138000Y-41021000D03*
X88138000Y-40371000D03*
X88138000Y-39721000D03*
X88138000Y-39071000D03*
%TD*%
D11*
%TO.C,C28*%
X57925000Y-78000000D03*
X60875000Y-78000000D03*
%TD*%
%TO.C,C27*%
X58725000Y-54600000D03*
X61675000Y-54600000D03*
%TD*%
%TO.C,C25*%
X92250000Y-74800000D03*
X95200000Y-74800000D03*
%TD*%
D10*
%TO.C,U17*%
X84386500Y-75774000D03*
X84386500Y-76424000D03*
X84386500Y-77074000D03*
X84386500Y-77724000D03*
X84386500Y-78374000D03*
X84386500Y-79024000D03*
X84386500Y-79674000D03*
X90111500Y-79674000D03*
X90111500Y-79024000D03*
X90111500Y-78374000D03*
X90111500Y-77724000D03*
X90111500Y-77074000D03*
X90111500Y-76424000D03*
X90111500Y-75774000D03*
%TD*%
%TO.C,U14*%
X81778000Y-102108000D03*
X81778000Y-102758000D03*
X81778000Y-103408000D03*
X81778000Y-104058000D03*
X81778000Y-104708000D03*
X81778000Y-105358000D03*
X81778000Y-106008000D03*
X87503000Y-106008000D03*
X87503000Y-105358000D03*
X87503000Y-104708000D03*
X87503000Y-104058000D03*
X87503000Y-103408000D03*
X87503000Y-102758000D03*
X87503000Y-102108000D03*
%TD*%
D12*
%TO.C,U19*%
X67310000Y-75565000D03*
X67310000Y-74295000D03*
X67310000Y-73025000D03*
X67310000Y-71755000D03*
X67310000Y-70485000D03*
X67310000Y-69215000D03*
X67310000Y-67945000D03*
X67310000Y-66675000D03*
X67310000Y-65405000D03*
X67310000Y-64135000D03*
X58010000Y-64135000D03*
X58010000Y-65405000D03*
X58010000Y-66675000D03*
X58010000Y-67945000D03*
X58010000Y-69215000D03*
X58010000Y-70485000D03*
X58010000Y-71755000D03*
X58010000Y-73025000D03*
X58010000Y-74295000D03*
X58010000Y-75565000D03*
%TD*%
%TO.C,U16*%
X67310000Y-100965000D03*
X67310000Y-99695000D03*
X67310000Y-98425000D03*
X67310000Y-97155000D03*
X67310000Y-95885000D03*
X67310000Y-94615000D03*
X67310000Y-93345000D03*
X67310000Y-92075000D03*
X67310000Y-90805000D03*
X67310000Y-89535000D03*
X58010000Y-89535000D03*
X58010000Y-90805000D03*
X58010000Y-92075000D03*
X58010000Y-93345000D03*
X58010000Y-94615000D03*
X58010000Y-95885000D03*
X58010000Y-97155000D03*
X58010000Y-98425000D03*
X58010000Y-99695000D03*
X58010000Y-100965000D03*
%TD*%
%TO.C,U22*%
X67945000Y-52070000D03*
X67945000Y-50800000D03*
X67945000Y-49530000D03*
X67945000Y-48260000D03*
X67945000Y-46990000D03*
X67945000Y-45720000D03*
X67945000Y-44450000D03*
X67945000Y-43180000D03*
X67945000Y-41910000D03*
X67945000Y-40640000D03*
X58645000Y-40640000D03*
X58645000Y-41910000D03*
X58645000Y-43180000D03*
X58645000Y-44450000D03*
X58645000Y-45720000D03*
X58645000Y-46990000D03*
X58645000Y-48260000D03*
X58645000Y-49530000D03*
X58645000Y-50800000D03*
X58645000Y-52070000D03*
%TD*%
D10*
%TO.C,U15*%
X81973500Y-88474000D03*
X81973500Y-89124000D03*
X81973500Y-89774000D03*
X81973500Y-90424000D03*
X81973500Y-91074000D03*
X81973500Y-91724000D03*
X81973500Y-92374000D03*
X87698500Y-92374000D03*
X87698500Y-91724000D03*
X87698500Y-91074000D03*
X87698500Y-90424000D03*
X87698500Y-89774000D03*
X87698500Y-89124000D03*
X87698500Y-88474000D03*
%TD*%
%TO.C,U18*%
X84386500Y-63582000D03*
X84386500Y-64232000D03*
X84386500Y-64882000D03*
X84386500Y-65532000D03*
X84386500Y-66182000D03*
X84386500Y-66832000D03*
X84386500Y-67482000D03*
X90111500Y-67482000D03*
X90111500Y-66832000D03*
X90111500Y-66182000D03*
X90111500Y-65532000D03*
X90111500Y-64882000D03*
X90111500Y-64232000D03*
X90111500Y-63582000D03*
%TD*%
D11*
%TO.C,C14*%
X89925000Y-49000000D03*
X92875000Y-49000000D03*
%TD*%
%TO.C,C26*%
X89650000Y-100400000D03*
X92600000Y-100400000D03*
%TD*%
D10*
%TO.C,U29*%
X54092000Y-32497000D03*
X54092000Y-33147000D03*
X54092000Y-33797000D03*
X54092000Y-34447000D03*
X54092000Y-35097000D03*
X54092000Y-35747000D03*
X54092000Y-36397000D03*
X54092000Y-37047000D03*
X59817000Y-37047000D03*
X59817000Y-36397000D03*
X59817000Y-35747000D03*
X59817000Y-35097000D03*
X59817000Y-34447000D03*
X59817000Y-33797000D03*
X59817000Y-33147000D03*
X59817000Y-32497000D03*
%TD*%
D13*
%TO.C,U13*%
X56515000Y-112395000D03*
X56515000Y-113665000D03*
X56515000Y-114935000D03*
X56515000Y-116205000D03*
X56515000Y-117475000D03*
X56515000Y-118745000D03*
X56515000Y-120015000D03*
X56515000Y-121285000D03*
X56515000Y-122555000D03*
X56515000Y-123825000D03*
X65815000Y-123825000D03*
X65815000Y-122555000D03*
X65815000Y-121285000D03*
X65815000Y-120015000D03*
X65815000Y-118745000D03*
X65815000Y-117475000D03*
X65815000Y-116205000D03*
X65815000Y-114935000D03*
X65815000Y-113665000D03*
X65815000Y-112395000D03*
%TD*%
D14*
%TO.C,C23*%
X65875000Y-110000000D03*
X62925000Y-110000000D03*
%TD*%
D11*
%TO.C,C13*%
X90000000Y-38000000D03*
X92950000Y-38000000D03*
%TD*%
%TO.C,C30*%
X89725000Y-86800000D03*
X92675000Y-86800000D03*
%TD*%
%TO.C,C24*%
X92125000Y-62800000D03*
X95075000Y-62800000D03*
%TD*%
D10*
%TO.C,U20*%
X82227500Y-50374000D03*
X82227500Y-51024000D03*
X82227500Y-51674000D03*
X82227500Y-52324000D03*
X82227500Y-52974000D03*
X82227500Y-53624000D03*
X82227500Y-54274000D03*
X87952500Y-54274000D03*
X87952500Y-53624000D03*
X87952500Y-52974000D03*
X87952500Y-52324000D03*
X87952500Y-51674000D03*
X87952500Y-51024000D03*
X87952500Y-50374000D03*
%TD*%
D14*
%TO.C,C15*%
X59875000Y-30800000D03*
X56925000Y-30800000D03*
%TD*%
D11*
%TO.C,C29*%
X58125000Y-103400000D03*
X61075000Y-103400000D03*
%TD*%
M02*
