%TF.GenerationSoftware,KiCad,Pcbnew,8.0.5-8.0.5-0~ubuntu24.04.1*%
%TF.CreationDate,2024-09-12T21:52:08+03:00*%
%TF.ProjectId,alu,616c752e-6b69-4636-9164-5f7063625858,rev?*%
%TF.SameCoordinates,Original*%
%TF.FileFunction,Legend,Top*%
%TF.FilePolarity,Positive*%
%FSLAX46Y46*%
G04 Gerber Fmt 4.6, Leading zero omitted, Abs format (unit mm)*
G04 Created by KiCad (PCBNEW 8.0.5-8.0.5-0~ubuntu24.04.1) date 2024-09-12 21:52:08*
%MOMM*%
%LPD*%
G01*
G04 APERTURE LIST*
%ADD10C,0.150000*%
%ADD11C,0.120000*%
%ADD12C,0.127000*%
%ADD13C,0.200000*%
G04 APERTURE END LIST*
D10*
X80360555Y-38300000D02*
G75*
G02*
X79639445Y-38300000I-360555J0D01*
G01*
X79639445Y-38300000D02*
G75*
G02*
X80360555Y-38300000I360555J0D01*
G01*
X77978000Y-58293000D02*
X98044000Y-58293000D01*
X98044000Y-83439000D01*
X77978000Y-83439000D01*
X77978000Y-58293000D01*
X80660555Y-87700000D02*
G75*
G02*
X79939445Y-87700000I-360555J0D01*
G01*
X79939445Y-87700000D02*
G75*
G02*
X80660555Y-87700000I360555J0D01*
G01*
X80560555Y-101100000D02*
G75*
G02*
X79839445Y-101100000I-360555J0D01*
G01*
X79839445Y-101100000D02*
G75*
G02*
X80560555Y-101100000I360555J0D01*
G01*
X52197000Y-39370000D02*
X72771000Y-39370000D01*
X72771000Y-105156000D01*
X52197000Y-105156000D01*
X52197000Y-39370000D01*
X82560555Y-74600000D02*
G75*
G02*
X81839445Y-74600000I-360555J0D01*
G01*
X81839445Y-74600000D02*
G75*
G02*
X82560555Y-74600000I360555J0D01*
G01*
X69760555Y-101000000D02*
G75*
G02*
X69039445Y-101000000I-360555J0D01*
G01*
X69039445Y-101000000D02*
G75*
G02*
X69760555Y-101000000I360555J0D01*
G01*
X69660555Y-75700000D02*
G75*
G02*
X68939445Y-75700000I-360555J0D01*
G01*
X68939445Y-75700000D02*
G75*
G02*
X69660555Y-75700000I360555J0D01*
G01*
X82360555Y-62600000D02*
G75*
G02*
X81639445Y-62600000I-360555J0D01*
G01*
X81639445Y-62600000D02*
G75*
G02*
X82360555Y-62600000I360555J0D01*
G01*
X80260555Y-49800000D02*
G75*
G02*
X79539445Y-49800000I-360555J0D01*
G01*
X79539445Y-49800000D02*
G75*
G02*
X80260555Y-49800000I360555J0D01*
G01*
X52070000Y-106600000D02*
X69150000Y-106600000D01*
X69150000Y-125857000D01*
X52070000Y-125857000D01*
X52070000Y-106600000D01*
X53160555Y-31600000D02*
G75*
G02*
X52439445Y-31600000I-360555J0D01*
G01*
X52439445Y-31600000D02*
G75*
G02*
X53160555Y-31600000I360555J0D01*
G01*
X77978000Y-34163000D02*
X98044000Y-34163000D01*
X98044000Y-58293000D01*
X77978000Y-58293000D01*
X77978000Y-34163000D01*
X52197000Y-29083000D02*
X72771000Y-29083000D01*
X72771000Y-39370000D01*
X52197000Y-39370000D01*
X52197000Y-29083000D01*
X54460555Y-111500000D02*
G75*
G02*
X53739445Y-111500000I-360555J0D01*
G01*
X53739445Y-111500000D02*
G75*
G02*
X54460555Y-111500000I360555J0D01*
G01*
X77978000Y-83439000D02*
X98044000Y-83439000D01*
X98044000Y-112522000D01*
X77978000Y-112522000D01*
X77978000Y-83439000D01*
X70860555Y-52100000D02*
G75*
G02*
X70139445Y-52100000I-360555J0D01*
G01*
X70139445Y-52100000D02*
G75*
G02*
X70860555Y-52100000I360555J0D01*
G01*
X85887160Y-59655104D02*
X86363350Y-59655104D01*
X85791922Y-59940819D02*
X86125255Y-58940819D01*
X86125255Y-58940819D02*
X86458588Y-59940819D01*
X86791922Y-59940819D02*
X86791922Y-58940819D01*
X86791922Y-58940819D02*
X87363350Y-59940819D01*
X87363350Y-59940819D02*
X87363350Y-58940819D01*
X87839541Y-59940819D02*
X87839541Y-58940819D01*
X87839541Y-58940819D02*
X88077636Y-58940819D01*
X88077636Y-58940819D02*
X88220493Y-58988438D01*
X88220493Y-58988438D02*
X88315731Y-59083676D01*
X88315731Y-59083676D02*
X88363350Y-59178914D01*
X88363350Y-59178914D02*
X88410969Y-59369390D01*
X88410969Y-59369390D02*
X88410969Y-59512247D01*
X88410969Y-59512247D02*
X88363350Y-59702723D01*
X88363350Y-59702723D02*
X88315731Y-59797961D01*
X88315731Y-59797961D02*
X88220493Y-59893200D01*
X88220493Y-59893200D02*
X88077636Y-59940819D01*
X88077636Y-59940819D02*
X87839541Y-59940819D01*
X91522779Y-117131875D02*
X91522779Y-116131875D01*
X91522779Y-116131875D02*
X91903731Y-116131875D01*
X91903731Y-116131875D02*
X91998969Y-116179494D01*
X91998969Y-116179494D02*
X92046588Y-116227113D01*
X92046588Y-116227113D02*
X92094207Y-116322351D01*
X92094207Y-116322351D02*
X92094207Y-116465208D01*
X92094207Y-116465208D02*
X92046588Y-116560446D01*
X92046588Y-116560446D02*
X91998969Y-116608065D01*
X91998969Y-116608065D02*
X91903731Y-116655684D01*
X91903731Y-116655684D02*
X91522779Y-116655684D01*
X93046588Y-117131875D02*
X92475160Y-117131875D01*
X92760874Y-117131875D02*
X92760874Y-116131875D01*
X92760874Y-116131875D02*
X92665636Y-116274732D01*
X92665636Y-116274732D02*
X92570398Y-116369970D01*
X92570398Y-116369970D02*
X92475160Y-116417589D01*
X94808493Y-117036636D02*
X94760874Y-117084256D01*
X94760874Y-117084256D02*
X94618017Y-117131875D01*
X94618017Y-117131875D02*
X94522779Y-117131875D01*
X94522779Y-117131875D02*
X94379922Y-117084256D01*
X94379922Y-117084256D02*
X94284684Y-116989017D01*
X94284684Y-116989017D02*
X94237065Y-116893779D01*
X94237065Y-116893779D02*
X94189446Y-116703303D01*
X94189446Y-116703303D02*
X94189446Y-116560446D01*
X94189446Y-116560446D02*
X94237065Y-116369970D01*
X94237065Y-116369970D02*
X94284684Y-116274732D01*
X94284684Y-116274732D02*
X94379922Y-116179494D01*
X94379922Y-116179494D02*
X94522779Y-116131875D01*
X94522779Y-116131875D02*
X94618017Y-116131875D01*
X94618017Y-116131875D02*
X94760874Y-116179494D01*
X94760874Y-116179494D02*
X94808493Y-116227113D01*
X95237065Y-117131875D02*
X95237065Y-116131875D01*
X95237065Y-116131875D02*
X95618017Y-116131875D01*
X95618017Y-116131875D02*
X95713255Y-116179494D01*
X95713255Y-116179494D02*
X95760874Y-116227113D01*
X95760874Y-116227113D02*
X95808493Y-116322351D01*
X95808493Y-116322351D02*
X95808493Y-116465208D01*
X95808493Y-116465208D02*
X95760874Y-116560446D01*
X95760874Y-116560446D02*
X95713255Y-116608065D01*
X95713255Y-116608065D02*
X95618017Y-116655684D01*
X95618017Y-116655684D02*
X95237065Y-116655684D01*
X96237065Y-116131875D02*
X96237065Y-116941398D01*
X96237065Y-116941398D02*
X96284684Y-117036636D01*
X96284684Y-117036636D02*
X96332303Y-117084256D01*
X96332303Y-117084256D02*
X96427541Y-117131875D01*
X96427541Y-117131875D02*
X96618017Y-117131875D01*
X96618017Y-117131875D02*
X96713255Y-117084256D01*
X96713255Y-117084256D02*
X96760874Y-117036636D01*
X96760874Y-117036636D02*
X96808493Y-116941398D01*
X96808493Y-116941398D02*
X96808493Y-116131875D01*
X97998970Y-116846160D02*
X98475160Y-116846160D01*
X97903732Y-117131875D02*
X98237065Y-116131875D01*
X98237065Y-116131875D02*
X98570398Y-117131875D01*
X99379922Y-117131875D02*
X98903732Y-117131875D01*
X98903732Y-117131875D02*
X98903732Y-116131875D01*
X99713256Y-116131875D02*
X99713256Y-116941398D01*
X99713256Y-116941398D02*
X99760875Y-117036636D01*
X99760875Y-117036636D02*
X99808494Y-117084256D01*
X99808494Y-117084256D02*
X99903732Y-117131875D01*
X99903732Y-117131875D02*
X100094208Y-117131875D01*
X100094208Y-117131875D02*
X100189446Y-117084256D01*
X100189446Y-117084256D02*
X100237065Y-117036636D01*
X100237065Y-117036636D02*
X100284684Y-116941398D01*
X100284684Y-116941398D02*
X100284684Y-116131875D01*
X91856112Y-118218009D02*
X91998969Y-118265628D01*
X91998969Y-118265628D02*
X92046588Y-118313247D01*
X92046588Y-118313247D02*
X92094207Y-118408485D01*
X92094207Y-118408485D02*
X92094207Y-118551342D01*
X92094207Y-118551342D02*
X92046588Y-118646580D01*
X92046588Y-118646580D02*
X91998969Y-118694200D01*
X91998969Y-118694200D02*
X91903731Y-118741819D01*
X91903731Y-118741819D02*
X91522779Y-118741819D01*
X91522779Y-118741819D02*
X91522779Y-117741819D01*
X91522779Y-117741819D02*
X91856112Y-117741819D01*
X91856112Y-117741819D02*
X91951350Y-117789438D01*
X91951350Y-117789438D02*
X91998969Y-117837057D01*
X91998969Y-117837057D02*
X92046588Y-117932295D01*
X92046588Y-117932295D02*
X92046588Y-118027533D01*
X92046588Y-118027533D02*
X91998969Y-118122771D01*
X91998969Y-118122771D02*
X91951350Y-118170390D01*
X91951350Y-118170390D02*
X91856112Y-118218009D01*
X91856112Y-118218009D02*
X91522779Y-118218009D01*
X92522779Y-118741819D02*
X92522779Y-117741819D01*
X92998969Y-118741819D02*
X92998969Y-117741819D01*
X92998969Y-117741819D02*
X93570397Y-118741819D01*
X93570397Y-118741819D02*
X93570397Y-117741819D01*
X93998969Y-118456104D02*
X94475159Y-118456104D01*
X93903731Y-118741819D02*
X94237064Y-117741819D01*
X94237064Y-117741819D02*
X94570397Y-118741819D01*
X95475159Y-118741819D02*
X95141826Y-118265628D01*
X94903731Y-118741819D02*
X94903731Y-117741819D01*
X94903731Y-117741819D02*
X95284683Y-117741819D01*
X95284683Y-117741819D02*
X95379921Y-117789438D01*
X95379921Y-117789438D02*
X95427540Y-117837057D01*
X95427540Y-117837057D02*
X95475159Y-117932295D01*
X95475159Y-117932295D02*
X95475159Y-118075152D01*
X95475159Y-118075152D02*
X95427540Y-118170390D01*
X95427540Y-118170390D02*
X95379921Y-118218009D01*
X95379921Y-118218009D02*
X95284683Y-118265628D01*
X95284683Y-118265628D02*
X94903731Y-118265628D01*
X96094207Y-118265628D02*
X96094207Y-118741819D01*
X95760874Y-117741819D02*
X96094207Y-118265628D01*
X96094207Y-118265628D02*
X96427540Y-117741819D01*
X97713255Y-117741819D02*
X97903731Y-117741819D01*
X97903731Y-117741819D02*
X97998969Y-117789438D01*
X97998969Y-117789438D02*
X98094207Y-117884676D01*
X98094207Y-117884676D02*
X98141826Y-118075152D01*
X98141826Y-118075152D02*
X98141826Y-118408485D01*
X98141826Y-118408485D02*
X98094207Y-118598961D01*
X98094207Y-118598961D02*
X97998969Y-118694200D01*
X97998969Y-118694200D02*
X97903731Y-118741819D01*
X97903731Y-118741819D02*
X97713255Y-118741819D01*
X97713255Y-118741819D02*
X97618017Y-118694200D01*
X97618017Y-118694200D02*
X97522779Y-118598961D01*
X97522779Y-118598961D02*
X97475160Y-118408485D01*
X97475160Y-118408485D02*
X97475160Y-118075152D01*
X97475160Y-118075152D02*
X97522779Y-117884676D01*
X97522779Y-117884676D02*
X97618017Y-117789438D01*
X97618017Y-117789438D02*
X97713255Y-117741819D01*
X98570398Y-118741819D02*
X98570398Y-117741819D01*
X98570398Y-117741819D02*
X98951350Y-117741819D01*
X98951350Y-117741819D02*
X99046588Y-117789438D01*
X99046588Y-117789438D02*
X99094207Y-117837057D01*
X99094207Y-117837057D02*
X99141826Y-117932295D01*
X99141826Y-117932295D02*
X99141826Y-118075152D01*
X99141826Y-118075152D02*
X99094207Y-118170390D01*
X99094207Y-118170390D02*
X99046588Y-118218009D01*
X99046588Y-118218009D02*
X98951350Y-118265628D01*
X98951350Y-118265628D02*
X98570398Y-118265628D01*
X100332303Y-118741819D02*
X100332303Y-117741819D01*
X100332303Y-117741819D02*
X100665636Y-118456104D01*
X100665636Y-118456104D02*
X100998969Y-117741819D01*
X100998969Y-117741819D02*
X100998969Y-118741819D01*
X101665636Y-117741819D02*
X101856112Y-117741819D01*
X101856112Y-117741819D02*
X101951350Y-117789438D01*
X101951350Y-117789438D02*
X102046588Y-117884676D01*
X102046588Y-117884676D02*
X102094207Y-118075152D01*
X102094207Y-118075152D02*
X102094207Y-118408485D01*
X102094207Y-118408485D02*
X102046588Y-118598961D01*
X102046588Y-118598961D02*
X101951350Y-118694200D01*
X101951350Y-118694200D02*
X101856112Y-118741819D01*
X101856112Y-118741819D02*
X101665636Y-118741819D01*
X101665636Y-118741819D02*
X101570398Y-118694200D01*
X101570398Y-118694200D02*
X101475160Y-118598961D01*
X101475160Y-118598961D02*
X101427541Y-118408485D01*
X101427541Y-118408485D02*
X101427541Y-118075152D01*
X101427541Y-118075152D02*
X101475160Y-117884676D01*
X101475160Y-117884676D02*
X101570398Y-117789438D01*
X101570398Y-117789438D02*
X101665636Y-117741819D01*
X102522779Y-118741819D02*
X102522779Y-117741819D01*
X102522779Y-117741819D02*
X102760874Y-117741819D01*
X102760874Y-117741819D02*
X102903731Y-117789438D01*
X102903731Y-117789438D02*
X102998969Y-117884676D01*
X102998969Y-117884676D02*
X103046588Y-117979914D01*
X103046588Y-117979914D02*
X103094207Y-118170390D01*
X103094207Y-118170390D02*
X103094207Y-118313247D01*
X103094207Y-118313247D02*
X103046588Y-118503723D01*
X103046588Y-118503723D02*
X102998969Y-118598961D01*
X102998969Y-118598961D02*
X102903731Y-118694200D01*
X102903731Y-118694200D02*
X102760874Y-118741819D01*
X102760874Y-118741819D02*
X102522779Y-118741819D01*
X103522779Y-117741819D02*
X103522779Y-118551342D01*
X103522779Y-118551342D02*
X103570398Y-118646580D01*
X103570398Y-118646580D02*
X103618017Y-118694200D01*
X103618017Y-118694200D02*
X103713255Y-118741819D01*
X103713255Y-118741819D02*
X103903731Y-118741819D01*
X103903731Y-118741819D02*
X103998969Y-118694200D01*
X103998969Y-118694200D02*
X104046588Y-118646580D01*
X104046588Y-118646580D02*
X104094207Y-118551342D01*
X104094207Y-118551342D02*
X104094207Y-117741819D01*
X105046588Y-118741819D02*
X104570398Y-118741819D01*
X104570398Y-118741819D02*
X104570398Y-117741819D01*
X105379922Y-118218009D02*
X105713255Y-118218009D01*
X105856112Y-118741819D02*
X105379922Y-118741819D01*
X105379922Y-118741819D02*
X105379922Y-117741819D01*
X105379922Y-117741819D02*
X105856112Y-117741819D01*
X52936779Y-108069819D02*
X52936779Y-107069819D01*
X53412969Y-108069819D02*
X53412969Y-107069819D01*
X53412969Y-107069819D02*
X53984397Y-108069819D01*
X53984397Y-108069819D02*
X53984397Y-107069819D01*
X54460588Y-108069819D02*
X54460588Y-107069819D01*
X54460588Y-107069819D02*
X54841540Y-107069819D01*
X54841540Y-107069819D02*
X54936778Y-107117438D01*
X54936778Y-107117438D02*
X54984397Y-107165057D01*
X54984397Y-107165057D02*
X55032016Y-107260295D01*
X55032016Y-107260295D02*
X55032016Y-107403152D01*
X55032016Y-107403152D02*
X54984397Y-107498390D01*
X54984397Y-107498390D02*
X54936778Y-107546009D01*
X54936778Y-107546009D02*
X54841540Y-107593628D01*
X54841540Y-107593628D02*
X54460588Y-107593628D01*
X55460588Y-107069819D02*
X55460588Y-107879342D01*
X55460588Y-107879342D02*
X55508207Y-107974580D01*
X55508207Y-107974580D02*
X55555826Y-108022200D01*
X55555826Y-108022200D02*
X55651064Y-108069819D01*
X55651064Y-108069819D02*
X55841540Y-108069819D01*
X55841540Y-108069819D02*
X55936778Y-108022200D01*
X55936778Y-108022200D02*
X55984397Y-107974580D01*
X55984397Y-107974580D02*
X56032016Y-107879342D01*
X56032016Y-107879342D02*
X56032016Y-107069819D01*
X56365350Y-107069819D02*
X56936778Y-107069819D01*
X56651064Y-108069819D02*
X56651064Y-107069819D01*
X58365350Y-107546009D02*
X58508207Y-107593628D01*
X58508207Y-107593628D02*
X58555826Y-107641247D01*
X58555826Y-107641247D02*
X58603445Y-107736485D01*
X58603445Y-107736485D02*
X58603445Y-107879342D01*
X58603445Y-107879342D02*
X58555826Y-107974580D01*
X58555826Y-107974580D02*
X58508207Y-108022200D01*
X58508207Y-108022200D02*
X58412969Y-108069819D01*
X58412969Y-108069819D02*
X58032017Y-108069819D01*
X58032017Y-108069819D02*
X58032017Y-107069819D01*
X58032017Y-107069819D02*
X58365350Y-107069819D01*
X58365350Y-107069819D02*
X58460588Y-107117438D01*
X58460588Y-107117438D02*
X58508207Y-107165057D01*
X58508207Y-107165057D02*
X58555826Y-107260295D01*
X58555826Y-107260295D02*
X58555826Y-107355533D01*
X58555826Y-107355533D02*
X58508207Y-107450771D01*
X58508207Y-107450771D02*
X58460588Y-107498390D01*
X58460588Y-107498390D02*
X58365350Y-107546009D01*
X58365350Y-107546009D02*
X58032017Y-107546009D01*
X59032017Y-107069819D02*
X59032017Y-107879342D01*
X59032017Y-107879342D02*
X59079636Y-107974580D01*
X59079636Y-107974580D02*
X59127255Y-108022200D01*
X59127255Y-108022200D02*
X59222493Y-108069819D01*
X59222493Y-108069819D02*
X59412969Y-108069819D01*
X59412969Y-108069819D02*
X59508207Y-108022200D01*
X59508207Y-108022200D02*
X59555826Y-107974580D01*
X59555826Y-107974580D02*
X59603445Y-107879342D01*
X59603445Y-107879342D02*
X59603445Y-107069819D01*
X60412969Y-107546009D02*
X60079636Y-107546009D01*
X60079636Y-108069819D02*
X60079636Y-107069819D01*
X60079636Y-107069819D02*
X60555826Y-107069819D01*
X61270112Y-107546009D02*
X60936779Y-107546009D01*
X60936779Y-108069819D02*
X60936779Y-107069819D01*
X60936779Y-107069819D02*
X61412969Y-107069819D01*
X61793922Y-107546009D02*
X62127255Y-107546009D01*
X62270112Y-108069819D02*
X61793922Y-108069819D01*
X61793922Y-108069819D02*
X61793922Y-107069819D01*
X61793922Y-107069819D02*
X62270112Y-107069819D01*
X63270112Y-108069819D02*
X62936779Y-107593628D01*
X62698684Y-108069819D02*
X62698684Y-107069819D01*
X62698684Y-107069819D02*
X63079636Y-107069819D01*
X63079636Y-107069819D02*
X63174874Y-107117438D01*
X63174874Y-107117438D02*
X63222493Y-107165057D01*
X63222493Y-107165057D02*
X63270112Y-107260295D01*
X63270112Y-107260295D02*
X63270112Y-107403152D01*
X63270112Y-107403152D02*
X63222493Y-107498390D01*
X63222493Y-107498390D02*
X63174874Y-107546009D01*
X63174874Y-107546009D02*
X63079636Y-107593628D01*
X63079636Y-107593628D02*
X62698684Y-107593628D01*
X64365351Y-107069819D02*
X65032017Y-108069819D01*
X65032017Y-107069819D02*
X64365351Y-108069819D01*
X65174875Y-108165057D02*
X65936779Y-108165057D01*
X66365351Y-107069819D02*
X66555827Y-107069819D01*
X66555827Y-107069819D02*
X66651065Y-107117438D01*
X66651065Y-107117438D02*
X66746303Y-107212676D01*
X66746303Y-107212676D02*
X66793922Y-107403152D01*
X66793922Y-107403152D02*
X66793922Y-107736485D01*
X66793922Y-107736485D02*
X66746303Y-107926961D01*
X66746303Y-107926961D02*
X66651065Y-108022200D01*
X66651065Y-108022200D02*
X66555827Y-108069819D01*
X66555827Y-108069819D02*
X66365351Y-108069819D01*
X66365351Y-108069819D02*
X66270113Y-108022200D01*
X66270113Y-108022200D02*
X66174875Y-107926961D01*
X66174875Y-107926961D02*
X66127256Y-107736485D01*
X66127256Y-107736485D02*
X66127256Y-107403152D01*
X66127256Y-107403152D02*
X66174875Y-107212676D01*
X66174875Y-107212676D02*
X66270113Y-107117438D01*
X66270113Y-107117438D02*
X66365351Y-107069819D01*
X67222494Y-107069819D02*
X67222494Y-107879342D01*
X67222494Y-107879342D02*
X67270113Y-107974580D01*
X67270113Y-107974580D02*
X67317732Y-108022200D01*
X67317732Y-108022200D02*
X67412970Y-108069819D01*
X67412970Y-108069819D02*
X67603446Y-108069819D01*
X67603446Y-108069819D02*
X67698684Y-108022200D01*
X67698684Y-108022200D02*
X67746303Y-107974580D01*
X67746303Y-107974580D02*
X67793922Y-107879342D01*
X67793922Y-107879342D02*
X67793922Y-107069819D01*
X68127256Y-107069819D02*
X68698684Y-107069819D01*
X68412970Y-108069819D02*
X68412970Y-107069819D01*
X54375255Y-58305819D02*
X54565731Y-58305819D01*
X54565731Y-58305819D02*
X54660969Y-58353438D01*
X54660969Y-58353438D02*
X54756207Y-58448676D01*
X54756207Y-58448676D02*
X54803826Y-58639152D01*
X54803826Y-58639152D02*
X54803826Y-58972485D01*
X54803826Y-58972485D02*
X54756207Y-59162961D01*
X54756207Y-59162961D02*
X54660969Y-59258200D01*
X54660969Y-59258200D02*
X54565731Y-59305819D01*
X54565731Y-59305819D02*
X54375255Y-59305819D01*
X54375255Y-59305819D02*
X54280017Y-59258200D01*
X54280017Y-59258200D02*
X54184779Y-59162961D01*
X54184779Y-59162961D02*
X54137160Y-58972485D01*
X54137160Y-58972485D02*
X54137160Y-58639152D01*
X54137160Y-58639152D02*
X54184779Y-58448676D01*
X54184779Y-58448676D02*
X54280017Y-58353438D01*
X54280017Y-58353438D02*
X54375255Y-58305819D01*
X55232398Y-58305819D02*
X55232398Y-59115342D01*
X55232398Y-59115342D02*
X55280017Y-59210580D01*
X55280017Y-59210580D02*
X55327636Y-59258200D01*
X55327636Y-59258200D02*
X55422874Y-59305819D01*
X55422874Y-59305819D02*
X55613350Y-59305819D01*
X55613350Y-59305819D02*
X55708588Y-59258200D01*
X55708588Y-59258200D02*
X55756207Y-59210580D01*
X55756207Y-59210580D02*
X55803826Y-59115342D01*
X55803826Y-59115342D02*
X55803826Y-58305819D01*
X56137160Y-58305819D02*
X56708588Y-58305819D01*
X56422874Y-59305819D02*
X56422874Y-58305819D01*
X57041922Y-59305819D02*
X57041922Y-58305819D01*
X57041922Y-58305819D02*
X57422874Y-58305819D01*
X57422874Y-58305819D02*
X57518112Y-58353438D01*
X57518112Y-58353438D02*
X57565731Y-58401057D01*
X57565731Y-58401057D02*
X57613350Y-58496295D01*
X57613350Y-58496295D02*
X57613350Y-58639152D01*
X57613350Y-58639152D02*
X57565731Y-58734390D01*
X57565731Y-58734390D02*
X57518112Y-58782009D01*
X57518112Y-58782009D02*
X57422874Y-58829628D01*
X57422874Y-58829628D02*
X57041922Y-58829628D01*
X58041922Y-58305819D02*
X58041922Y-59115342D01*
X58041922Y-59115342D02*
X58089541Y-59210580D01*
X58089541Y-59210580D02*
X58137160Y-59258200D01*
X58137160Y-59258200D02*
X58232398Y-59305819D01*
X58232398Y-59305819D02*
X58422874Y-59305819D01*
X58422874Y-59305819D02*
X58518112Y-59258200D01*
X58518112Y-59258200D02*
X58565731Y-59210580D01*
X58565731Y-59210580D02*
X58613350Y-59115342D01*
X58613350Y-59115342D02*
X58613350Y-58305819D01*
X58946684Y-58305819D02*
X59518112Y-58305819D01*
X59232398Y-59305819D02*
X59232398Y-58305819D01*
X60946684Y-58782009D02*
X61089541Y-58829628D01*
X61089541Y-58829628D02*
X61137160Y-58877247D01*
X61137160Y-58877247D02*
X61184779Y-58972485D01*
X61184779Y-58972485D02*
X61184779Y-59115342D01*
X61184779Y-59115342D02*
X61137160Y-59210580D01*
X61137160Y-59210580D02*
X61089541Y-59258200D01*
X61089541Y-59258200D02*
X60994303Y-59305819D01*
X60994303Y-59305819D02*
X60613351Y-59305819D01*
X60613351Y-59305819D02*
X60613351Y-58305819D01*
X60613351Y-58305819D02*
X60946684Y-58305819D01*
X60946684Y-58305819D02*
X61041922Y-58353438D01*
X61041922Y-58353438D02*
X61089541Y-58401057D01*
X61089541Y-58401057D02*
X61137160Y-58496295D01*
X61137160Y-58496295D02*
X61137160Y-58591533D01*
X61137160Y-58591533D02*
X61089541Y-58686771D01*
X61089541Y-58686771D02*
X61041922Y-58734390D01*
X61041922Y-58734390D02*
X60946684Y-58782009D01*
X60946684Y-58782009D02*
X60613351Y-58782009D01*
X61613351Y-58305819D02*
X61613351Y-59115342D01*
X61613351Y-59115342D02*
X61660970Y-59210580D01*
X61660970Y-59210580D02*
X61708589Y-59258200D01*
X61708589Y-59258200D02*
X61803827Y-59305819D01*
X61803827Y-59305819D02*
X61994303Y-59305819D01*
X61994303Y-59305819D02*
X62089541Y-59258200D01*
X62089541Y-59258200D02*
X62137160Y-59210580D01*
X62137160Y-59210580D02*
X62184779Y-59115342D01*
X62184779Y-59115342D02*
X62184779Y-58305819D01*
X62994303Y-58782009D02*
X62660970Y-58782009D01*
X62660970Y-59305819D02*
X62660970Y-58305819D01*
X62660970Y-58305819D02*
X63137160Y-58305819D01*
X63851446Y-58782009D02*
X63518113Y-58782009D01*
X63518113Y-59305819D02*
X63518113Y-58305819D01*
X63518113Y-58305819D02*
X63994303Y-58305819D01*
X64375256Y-58782009D02*
X64708589Y-58782009D01*
X64851446Y-59305819D02*
X64375256Y-59305819D01*
X64375256Y-59305819D02*
X64375256Y-58305819D01*
X64375256Y-58305819D02*
X64851446Y-58305819D01*
X65851446Y-59305819D02*
X65518113Y-58829628D01*
X65280018Y-59305819D02*
X65280018Y-58305819D01*
X65280018Y-58305819D02*
X65660970Y-58305819D01*
X65660970Y-58305819D02*
X65756208Y-58353438D01*
X65756208Y-58353438D02*
X65803827Y-58401057D01*
X65803827Y-58401057D02*
X65851446Y-58496295D01*
X65851446Y-58496295D02*
X65851446Y-58639152D01*
X65851446Y-58639152D02*
X65803827Y-58734390D01*
X65803827Y-58734390D02*
X65756208Y-58782009D01*
X65756208Y-58782009D02*
X65660970Y-58829628D01*
X65660970Y-58829628D02*
X65280018Y-58829628D01*
X66946685Y-58305819D02*
X67613351Y-59305819D01*
X67613351Y-58305819D02*
X66946685Y-59305819D01*
X67756209Y-59401057D02*
X68518113Y-59401057D01*
X68756209Y-59305819D02*
X68756209Y-58305819D01*
X69232399Y-59305819D02*
X69232399Y-58305819D01*
X69232399Y-58305819D02*
X69803827Y-59305819D01*
X69803827Y-59305819D02*
X69803827Y-58305819D01*
X64979779Y-30603819D02*
X64979779Y-29603819D01*
X64979779Y-29603819D02*
X65217874Y-29603819D01*
X65217874Y-29603819D02*
X65360731Y-29651438D01*
X65360731Y-29651438D02*
X65455969Y-29746676D01*
X65455969Y-29746676D02*
X65503588Y-29841914D01*
X65503588Y-29841914D02*
X65551207Y-30032390D01*
X65551207Y-30032390D02*
X65551207Y-30175247D01*
X65551207Y-30175247D02*
X65503588Y-30365723D01*
X65503588Y-30365723D02*
X65455969Y-30460961D01*
X65455969Y-30460961D02*
X65360731Y-30556200D01*
X65360731Y-30556200D02*
X65217874Y-30603819D01*
X65217874Y-30603819D02*
X64979779Y-30603819D01*
X65979779Y-30080009D02*
X66313112Y-30080009D01*
X66455969Y-30603819D02*
X65979779Y-30603819D01*
X65979779Y-30603819D02*
X65979779Y-29603819D01*
X65979779Y-29603819D02*
X66455969Y-29603819D01*
X67455969Y-30508580D02*
X67408350Y-30556200D01*
X67408350Y-30556200D02*
X67265493Y-30603819D01*
X67265493Y-30603819D02*
X67170255Y-30603819D01*
X67170255Y-30603819D02*
X67027398Y-30556200D01*
X67027398Y-30556200D02*
X66932160Y-30460961D01*
X66932160Y-30460961D02*
X66884541Y-30365723D01*
X66884541Y-30365723D02*
X66836922Y-30175247D01*
X66836922Y-30175247D02*
X66836922Y-30032390D01*
X66836922Y-30032390D02*
X66884541Y-29841914D01*
X66884541Y-29841914D02*
X66932160Y-29746676D01*
X66932160Y-29746676D02*
X67027398Y-29651438D01*
X67027398Y-29651438D02*
X67170255Y-29603819D01*
X67170255Y-29603819D02*
X67265493Y-29603819D01*
X67265493Y-29603819D02*
X67408350Y-29651438D01*
X67408350Y-29651438D02*
X67455969Y-29699057D01*
X68075017Y-29603819D02*
X68265493Y-29603819D01*
X68265493Y-29603819D02*
X68360731Y-29651438D01*
X68360731Y-29651438D02*
X68455969Y-29746676D01*
X68455969Y-29746676D02*
X68503588Y-29937152D01*
X68503588Y-29937152D02*
X68503588Y-30270485D01*
X68503588Y-30270485D02*
X68455969Y-30460961D01*
X68455969Y-30460961D02*
X68360731Y-30556200D01*
X68360731Y-30556200D02*
X68265493Y-30603819D01*
X68265493Y-30603819D02*
X68075017Y-30603819D01*
X68075017Y-30603819D02*
X67979779Y-30556200D01*
X67979779Y-30556200D02*
X67884541Y-30460961D01*
X67884541Y-30460961D02*
X67836922Y-30270485D01*
X67836922Y-30270485D02*
X67836922Y-29937152D01*
X67836922Y-29937152D02*
X67884541Y-29746676D01*
X67884541Y-29746676D02*
X67979779Y-29651438D01*
X67979779Y-29651438D02*
X68075017Y-29603819D01*
X68932160Y-30603819D02*
X68932160Y-29603819D01*
X68932160Y-29603819D02*
X69170255Y-29603819D01*
X69170255Y-29603819D02*
X69313112Y-29651438D01*
X69313112Y-29651438D02*
X69408350Y-29746676D01*
X69408350Y-29746676D02*
X69455969Y-29841914D01*
X69455969Y-29841914D02*
X69503588Y-30032390D01*
X69503588Y-30032390D02*
X69503588Y-30175247D01*
X69503588Y-30175247D02*
X69455969Y-30365723D01*
X69455969Y-30365723D02*
X69408350Y-30460961D01*
X69408350Y-30460961D02*
X69313112Y-30556200D01*
X69313112Y-30556200D02*
X69170255Y-30603819D01*
X69170255Y-30603819D02*
X68932160Y-30603819D01*
X69932160Y-30080009D02*
X70265493Y-30080009D01*
X70408350Y-30603819D02*
X69932160Y-30603819D01*
X69932160Y-30603819D02*
X69932160Y-29603819D01*
X69932160Y-29603819D02*
X70408350Y-29603819D01*
X71408350Y-30603819D02*
X71075017Y-30127628D01*
X70836922Y-30603819D02*
X70836922Y-29603819D01*
X70836922Y-29603819D02*
X71217874Y-29603819D01*
X71217874Y-29603819D02*
X71313112Y-29651438D01*
X71313112Y-29651438D02*
X71360731Y-29699057D01*
X71360731Y-29699057D02*
X71408350Y-29794295D01*
X71408350Y-29794295D02*
X71408350Y-29937152D01*
X71408350Y-29937152D02*
X71360731Y-30032390D01*
X71360731Y-30032390D02*
X71313112Y-30080009D01*
X71313112Y-30080009D02*
X71217874Y-30127628D01*
X71217874Y-30127628D02*
X70836922Y-30127628D01*
X86506255Y-34937819D02*
X86696731Y-34937819D01*
X86696731Y-34937819D02*
X86791969Y-34985438D01*
X86791969Y-34985438D02*
X86887207Y-35080676D01*
X86887207Y-35080676D02*
X86934826Y-35271152D01*
X86934826Y-35271152D02*
X86934826Y-35604485D01*
X86934826Y-35604485D02*
X86887207Y-35794961D01*
X86887207Y-35794961D02*
X86791969Y-35890200D01*
X86791969Y-35890200D02*
X86696731Y-35937819D01*
X86696731Y-35937819D02*
X86506255Y-35937819D01*
X86506255Y-35937819D02*
X86411017Y-35890200D01*
X86411017Y-35890200D02*
X86315779Y-35794961D01*
X86315779Y-35794961D02*
X86268160Y-35604485D01*
X86268160Y-35604485D02*
X86268160Y-35271152D01*
X86268160Y-35271152D02*
X86315779Y-35080676D01*
X86315779Y-35080676D02*
X86411017Y-34985438D01*
X86411017Y-34985438D02*
X86506255Y-34937819D01*
X87934826Y-35937819D02*
X87601493Y-35461628D01*
X87363398Y-35937819D02*
X87363398Y-34937819D01*
X87363398Y-34937819D02*
X87744350Y-34937819D01*
X87744350Y-34937819D02*
X87839588Y-34985438D01*
X87839588Y-34985438D02*
X87887207Y-35033057D01*
X87887207Y-35033057D02*
X87934826Y-35128295D01*
X87934826Y-35128295D02*
X87934826Y-35271152D01*
X87934826Y-35271152D02*
X87887207Y-35366390D01*
X87887207Y-35366390D02*
X87839588Y-35414009D01*
X87839588Y-35414009D02*
X87744350Y-35461628D01*
X87744350Y-35461628D02*
X87363398Y-35461628D01*
X69636779Y-120219819D02*
X69636779Y-119219819D01*
X70065350Y-120219819D02*
X70065350Y-119696009D01*
X70065350Y-119696009D02*
X70017731Y-119600771D01*
X70017731Y-119600771D02*
X69922493Y-119553152D01*
X69922493Y-119553152D02*
X69779636Y-119553152D01*
X69779636Y-119553152D02*
X69684398Y-119600771D01*
X69684398Y-119600771D02*
X69636779Y-119648390D01*
X70398684Y-119553152D02*
X70779636Y-119553152D01*
X70541541Y-119219819D02*
X70541541Y-120076961D01*
X70541541Y-120076961D02*
X70589160Y-120172200D01*
X70589160Y-120172200D02*
X70684398Y-120219819D01*
X70684398Y-120219819D02*
X70779636Y-120219819D01*
X70970113Y-119553152D02*
X71351065Y-119553152D01*
X71112970Y-119219819D02*
X71112970Y-120076961D01*
X71112970Y-120076961D02*
X71160589Y-120172200D01*
X71160589Y-120172200D02*
X71255827Y-120219819D01*
X71255827Y-120219819D02*
X71351065Y-120219819D01*
X71684399Y-119553152D02*
X71684399Y-120553152D01*
X71684399Y-119600771D02*
X71779637Y-119553152D01*
X71779637Y-119553152D02*
X71970113Y-119553152D01*
X71970113Y-119553152D02*
X72065351Y-119600771D01*
X72065351Y-119600771D02*
X72112970Y-119648390D01*
X72112970Y-119648390D02*
X72160589Y-119743628D01*
X72160589Y-119743628D02*
X72160589Y-120029342D01*
X72160589Y-120029342D02*
X72112970Y-120124580D01*
X72112970Y-120124580D02*
X72065351Y-120172200D01*
X72065351Y-120172200D02*
X71970113Y-120219819D01*
X71970113Y-120219819D02*
X71779637Y-120219819D01*
X71779637Y-120219819D02*
X71684399Y-120172200D01*
X72541542Y-120172200D02*
X72636780Y-120219819D01*
X72636780Y-120219819D02*
X72827256Y-120219819D01*
X72827256Y-120219819D02*
X72922494Y-120172200D01*
X72922494Y-120172200D02*
X72970113Y-120076961D01*
X72970113Y-120076961D02*
X72970113Y-120029342D01*
X72970113Y-120029342D02*
X72922494Y-119934104D01*
X72922494Y-119934104D02*
X72827256Y-119886485D01*
X72827256Y-119886485D02*
X72684399Y-119886485D01*
X72684399Y-119886485D02*
X72589161Y-119838866D01*
X72589161Y-119838866D02*
X72541542Y-119743628D01*
X72541542Y-119743628D02*
X72541542Y-119696009D01*
X72541542Y-119696009D02*
X72589161Y-119600771D01*
X72589161Y-119600771D02*
X72684399Y-119553152D01*
X72684399Y-119553152D02*
X72827256Y-119553152D01*
X72827256Y-119553152D02*
X72922494Y-119600771D01*
X73398685Y-120124580D02*
X73446304Y-120172200D01*
X73446304Y-120172200D02*
X73398685Y-120219819D01*
X73398685Y-120219819D02*
X73351066Y-120172200D01*
X73351066Y-120172200D02*
X73398685Y-120124580D01*
X73398685Y-120124580D02*
X73398685Y-120219819D01*
X73398685Y-119600771D02*
X73446304Y-119648390D01*
X73446304Y-119648390D02*
X73398685Y-119696009D01*
X73398685Y-119696009D02*
X73351066Y-119648390D01*
X73351066Y-119648390D02*
X73398685Y-119600771D01*
X73398685Y-119600771D02*
X73398685Y-119696009D01*
X74589160Y-119172200D02*
X73732018Y-120457914D01*
X75636779Y-119172200D02*
X74779637Y-120457914D01*
X76398684Y-119553152D02*
X76398684Y-120362676D01*
X76398684Y-120362676D02*
X76351065Y-120457914D01*
X76351065Y-120457914D02*
X76303446Y-120505533D01*
X76303446Y-120505533D02*
X76208208Y-120553152D01*
X76208208Y-120553152D02*
X76065351Y-120553152D01*
X76065351Y-120553152D02*
X75970113Y-120505533D01*
X76398684Y-120172200D02*
X76303446Y-120219819D01*
X76303446Y-120219819D02*
X76112970Y-120219819D01*
X76112970Y-120219819D02*
X76017732Y-120172200D01*
X76017732Y-120172200D02*
X75970113Y-120124580D01*
X75970113Y-120124580D02*
X75922494Y-120029342D01*
X75922494Y-120029342D02*
X75922494Y-119743628D01*
X75922494Y-119743628D02*
X75970113Y-119648390D01*
X75970113Y-119648390D02*
X76017732Y-119600771D01*
X76017732Y-119600771D02*
X76112970Y-119553152D01*
X76112970Y-119553152D02*
X76303446Y-119553152D01*
X76303446Y-119553152D02*
X76398684Y-119600771D01*
X76874875Y-120219819D02*
X76874875Y-119553152D01*
X76874875Y-119219819D02*
X76827256Y-119267438D01*
X76827256Y-119267438D02*
X76874875Y-119315057D01*
X76874875Y-119315057D02*
X76922494Y-119267438D01*
X76922494Y-119267438D02*
X76874875Y-119219819D01*
X76874875Y-119219819D02*
X76874875Y-119315057D01*
X77208208Y-119553152D02*
X77589160Y-119553152D01*
X77351065Y-119219819D02*
X77351065Y-120076961D01*
X77351065Y-120076961D02*
X77398684Y-120172200D01*
X77398684Y-120172200D02*
X77493922Y-120219819D01*
X77493922Y-120219819D02*
X77589160Y-120219819D01*
X77922494Y-120219819D02*
X77922494Y-119219819D01*
X78351065Y-120219819D02*
X78351065Y-119696009D01*
X78351065Y-119696009D02*
X78303446Y-119600771D01*
X78303446Y-119600771D02*
X78208208Y-119553152D01*
X78208208Y-119553152D02*
X78065351Y-119553152D01*
X78065351Y-119553152D02*
X77970113Y-119600771D01*
X77970113Y-119600771D02*
X77922494Y-119648390D01*
X79255827Y-119553152D02*
X79255827Y-120219819D01*
X78827256Y-119553152D02*
X78827256Y-120076961D01*
X78827256Y-120076961D02*
X78874875Y-120172200D01*
X78874875Y-120172200D02*
X78970113Y-120219819D01*
X78970113Y-120219819D02*
X79112970Y-120219819D01*
X79112970Y-120219819D02*
X79208208Y-120172200D01*
X79208208Y-120172200D02*
X79255827Y-120124580D01*
X79732018Y-120219819D02*
X79732018Y-119219819D01*
X79732018Y-119600771D02*
X79827256Y-119553152D01*
X79827256Y-119553152D02*
X80017732Y-119553152D01*
X80017732Y-119553152D02*
X80112970Y-119600771D01*
X80112970Y-119600771D02*
X80160589Y-119648390D01*
X80160589Y-119648390D02*
X80208208Y-119743628D01*
X80208208Y-119743628D02*
X80208208Y-120029342D01*
X80208208Y-120029342D02*
X80160589Y-120124580D01*
X80160589Y-120124580D02*
X80112970Y-120172200D01*
X80112970Y-120172200D02*
X80017732Y-120219819D01*
X80017732Y-120219819D02*
X79827256Y-120219819D01*
X79827256Y-120219819D02*
X79732018Y-120172200D01*
X80636780Y-120124580D02*
X80684399Y-120172200D01*
X80684399Y-120172200D02*
X80636780Y-120219819D01*
X80636780Y-120219819D02*
X80589161Y-120172200D01*
X80589161Y-120172200D02*
X80636780Y-120124580D01*
X80636780Y-120124580D02*
X80636780Y-120219819D01*
X81541541Y-120172200D02*
X81446303Y-120219819D01*
X81446303Y-120219819D02*
X81255827Y-120219819D01*
X81255827Y-120219819D02*
X81160589Y-120172200D01*
X81160589Y-120172200D02*
X81112970Y-120124580D01*
X81112970Y-120124580D02*
X81065351Y-120029342D01*
X81065351Y-120029342D02*
X81065351Y-119743628D01*
X81065351Y-119743628D02*
X81112970Y-119648390D01*
X81112970Y-119648390D02*
X81160589Y-119600771D01*
X81160589Y-119600771D02*
X81255827Y-119553152D01*
X81255827Y-119553152D02*
X81446303Y-119553152D01*
X81446303Y-119553152D02*
X81541541Y-119600771D01*
X82112970Y-120219819D02*
X82017732Y-120172200D01*
X82017732Y-120172200D02*
X81970113Y-120124580D01*
X81970113Y-120124580D02*
X81922494Y-120029342D01*
X81922494Y-120029342D02*
X81922494Y-119743628D01*
X81922494Y-119743628D02*
X81970113Y-119648390D01*
X81970113Y-119648390D02*
X82017732Y-119600771D01*
X82017732Y-119600771D02*
X82112970Y-119553152D01*
X82112970Y-119553152D02*
X82255827Y-119553152D01*
X82255827Y-119553152D02*
X82351065Y-119600771D01*
X82351065Y-119600771D02*
X82398684Y-119648390D01*
X82398684Y-119648390D02*
X82446303Y-119743628D01*
X82446303Y-119743628D02*
X82446303Y-120029342D01*
X82446303Y-120029342D02*
X82398684Y-120124580D01*
X82398684Y-120124580D02*
X82351065Y-120172200D01*
X82351065Y-120172200D02*
X82255827Y-120219819D01*
X82255827Y-120219819D02*
X82112970Y-120219819D01*
X82874875Y-120219819D02*
X82874875Y-119553152D01*
X82874875Y-119648390D02*
X82922494Y-119600771D01*
X82922494Y-119600771D02*
X83017732Y-119553152D01*
X83017732Y-119553152D02*
X83160589Y-119553152D01*
X83160589Y-119553152D02*
X83255827Y-119600771D01*
X83255827Y-119600771D02*
X83303446Y-119696009D01*
X83303446Y-119696009D02*
X83303446Y-120219819D01*
X83303446Y-119696009D02*
X83351065Y-119600771D01*
X83351065Y-119600771D02*
X83446303Y-119553152D01*
X83446303Y-119553152D02*
X83589160Y-119553152D01*
X83589160Y-119553152D02*
X83684399Y-119600771D01*
X83684399Y-119600771D02*
X83732018Y-119696009D01*
X83732018Y-119696009D02*
X83732018Y-120219819D01*
X84922493Y-119172200D02*
X84065351Y-120457914D01*
X85684398Y-120219819D02*
X85684398Y-119696009D01*
X85684398Y-119696009D02*
X85636779Y-119600771D01*
X85636779Y-119600771D02*
X85541541Y-119553152D01*
X85541541Y-119553152D02*
X85351065Y-119553152D01*
X85351065Y-119553152D02*
X85255827Y-119600771D01*
X85684398Y-120172200D02*
X85589160Y-120219819D01*
X85589160Y-120219819D02*
X85351065Y-120219819D01*
X85351065Y-120219819D02*
X85255827Y-120172200D01*
X85255827Y-120172200D02*
X85208208Y-120076961D01*
X85208208Y-120076961D02*
X85208208Y-119981723D01*
X85208208Y-119981723D02*
X85255827Y-119886485D01*
X85255827Y-119886485D02*
X85351065Y-119838866D01*
X85351065Y-119838866D02*
X85589160Y-119838866D01*
X85589160Y-119838866D02*
X85684398Y-119791247D01*
X86160589Y-120219819D02*
X86160589Y-119219819D01*
X86255827Y-119838866D02*
X86541541Y-120219819D01*
X86541541Y-119553152D02*
X86160589Y-119934104D01*
X87398684Y-120219819D02*
X87398684Y-119696009D01*
X87398684Y-119696009D02*
X87351065Y-119600771D01*
X87351065Y-119600771D02*
X87255827Y-119553152D01*
X87255827Y-119553152D02*
X87065351Y-119553152D01*
X87065351Y-119553152D02*
X86970113Y-119600771D01*
X87398684Y-120172200D02*
X87303446Y-120219819D01*
X87303446Y-120219819D02*
X87065351Y-120219819D01*
X87065351Y-120219819D02*
X86970113Y-120172200D01*
X86970113Y-120172200D02*
X86922494Y-120076961D01*
X86922494Y-120076961D02*
X86922494Y-119981723D01*
X86922494Y-119981723D02*
X86970113Y-119886485D01*
X86970113Y-119886485D02*
X87065351Y-119838866D01*
X87065351Y-119838866D02*
X87303446Y-119838866D01*
X87303446Y-119838866D02*
X87398684Y-119791247D01*
X87827256Y-120172200D02*
X87922494Y-120219819D01*
X87922494Y-120219819D02*
X88112970Y-120219819D01*
X88112970Y-120219819D02*
X88208208Y-120172200D01*
X88208208Y-120172200D02*
X88255827Y-120076961D01*
X88255827Y-120076961D02*
X88255827Y-120029342D01*
X88255827Y-120029342D02*
X88208208Y-119934104D01*
X88208208Y-119934104D02*
X88112970Y-119886485D01*
X88112970Y-119886485D02*
X87970113Y-119886485D01*
X87970113Y-119886485D02*
X87874875Y-119838866D01*
X87874875Y-119838866D02*
X87827256Y-119743628D01*
X87827256Y-119743628D02*
X87827256Y-119696009D01*
X87827256Y-119696009D02*
X87874875Y-119600771D01*
X87874875Y-119600771D02*
X87970113Y-119553152D01*
X87970113Y-119553152D02*
X88112970Y-119553152D01*
X88112970Y-119553152D02*
X88208208Y-119600771D01*
X88684399Y-120219819D02*
X88684399Y-119219819D01*
X89112970Y-120219819D02*
X89112970Y-119696009D01*
X89112970Y-119696009D02*
X89065351Y-119600771D01*
X89065351Y-119600771D02*
X88970113Y-119553152D01*
X88970113Y-119553152D02*
X88827256Y-119553152D01*
X88827256Y-119553152D02*
X88732018Y-119600771D01*
X88732018Y-119600771D02*
X88684399Y-119648390D01*
X89589161Y-120219819D02*
X89589161Y-119553152D01*
X89589161Y-119219819D02*
X89541542Y-119267438D01*
X89541542Y-119267438D02*
X89589161Y-119315057D01*
X89589161Y-119315057D02*
X89636780Y-119267438D01*
X89636780Y-119267438D02*
X89589161Y-119219819D01*
X89589161Y-119219819D02*
X89589161Y-119315057D01*
X90065351Y-120219819D02*
X90065351Y-119219819D01*
X90493922Y-120219819D02*
X90493922Y-119696009D01*
X90493922Y-119696009D02*
X90446303Y-119600771D01*
X90446303Y-119600771D02*
X90351065Y-119553152D01*
X90351065Y-119553152D02*
X90208208Y-119553152D01*
X90208208Y-119553152D02*
X90112970Y-119600771D01*
X90112970Y-119600771D02*
X90065351Y-119648390D01*
X90970113Y-120219819D02*
X90970113Y-119553152D01*
X90970113Y-119219819D02*
X90922494Y-119267438D01*
X90922494Y-119267438D02*
X90970113Y-119315057D01*
X90970113Y-119315057D02*
X91017732Y-119267438D01*
X91017732Y-119267438D02*
X90970113Y-119219819D01*
X90970113Y-119219819D02*
X90970113Y-119315057D01*
X92160588Y-119172200D02*
X91303446Y-120457914D01*
X92493922Y-120219819D02*
X92493922Y-119219819D01*
X92493922Y-119219819D02*
X92874874Y-119219819D01*
X92874874Y-119219819D02*
X92970112Y-119267438D01*
X92970112Y-119267438D02*
X93017731Y-119315057D01*
X93017731Y-119315057D02*
X93065350Y-119410295D01*
X93065350Y-119410295D02*
X93065350Y-119553152D01*
X93065350Y-119553152D02*
X93017731Y-119648390D01*
X93017731Y-119648390D02*
X92970112Y-119696009D01*
X92970112Y-119696009D02*
X92874874Y-119743628D01*
X92874874Y-119743628D02*
X92493922Y-119743628D01*
X93493922Y-120219819D02*
X93493922Y-119553152D01*
X93493922Y-119743628D02*
X93541541Y-119648390D01*
X93541541Y-119648390D02*
X93589160Y-119600771D01*
X93589160Y-119600771D02*
X93684398Y-119553152D01*
X93684398Y-119553152D02*
X93779636Y-119553152D01*
X94255827Y-120219819D02*
X94160589Y-120172200D01*
X94160589Y-120172200D02*
X94112970Y-120124580D01*
X94112970Y-120124580D02*
X94065351Y-120029342D01*
X94065351Y-120029342D02*
X94065351Y-119743628D01*
X94065351Y-119743628D02*
X94112970Y-119648390D01*
X94112970Y-119648390D02*
X94160589Y-119600771D01*
X94160589Y-119600771D02*
X94255827Y-119553152D01*
X94255827Y-119553152D02*
X94398684Y-119553152D01*
X94398684Y-119553152D02*
X94493922Y-119600771D01*
X94493922Y-119600771D02*
X94541541Y-119648390D01*
X94541541Y-119648390D02*
X94589160Y-119743628D01*
X94589160Y-119743628D02*
X94589160Y-120029342D01*
X94589160Y-120029342D02*
X94541541Y-120124580D01*
X94541541Y-120124580D02*
X94493922Y-120172200D01*
X94493922Y-120172200D02*
X94398684Y-120219819D01*
X94398684Y-120219819D02*
X94255827Y-120219819D01*
X95017732Y-119553152D02*
X95017732Y-120410295D01*
X95017732Y-120410295D02*
X94970113Y-120505533D01*
X94970113Y-120505533D02*
X94874875Y-120553152D01*
X94874875Y-120553152D02*
X94827256Y-120553152D01*
X95017732Y-119219819D02*
X94970113Y-119267438D01*
X94970113Y-119267438D02*
X95017732Y-119315057D01*
X95017732Y-119315057D02*
X95065351Y-119267438D01*
X95065351Y-119267438D02*
X95017732Y-119219819D01*
X95017732Y-119219819D02*
X95017732Y-119315057D01*
X95874874Y-120172200D02*
X95779636Y-120219819D01*
X95779636Y-120219819D02*
X95589160Y-120219819D01*
X95589160Y-120219819D02*
X95493922Y-120172200D01*
X95493922Y-120172200D02*
X95446303Y-120076961D01*
X95446303Y-120076961D02*
X95446303Y-119696009D01*
X95446303Y-119696009D02*
X95493922Y-119600771D01*
X95493922Y-119600771D02*
X95589160Y-119553152D01*
X95589160Y-119553152D02*
X95779636Y-119553152D01*
X95779636Y-119553152D02*
X95874874Y-119600771D01*
X95874874Y-119600771D02*
X95922493Y-119696009D01*
X95922493Y-119696009D02*
X95922493Y-119791247D01*
X95922493Y-119791247D02*
X95446303Y-119886485D01*
X96779636Y-120172200D02*
X96684398Y-120219819D01*
X96684398Y-120219819D02*
X96493922Y-120219819D01*
X96493922Y-120219819D02*
X96398684Y-120172200D01*
X96398684Y-120172200D02*
X96351065Y-120124580D01*
X96351065Y-120124580D02*
X96303446Y-120029342D01*
X96303446Y-120029342D02*
X96303446Y-119743628D01*
X96303446Y-119743628D02*
X96351065Y-119648390D01*
X96351065Y-119648390D02*
X96398684Y-119600771D01*
X96398684Y-119600771D02*
X96493922Y-119553152D01*
X96493922Y-119553152D02*
X96684398Y-119553152D01*
X96684398Y-119553152D02*
X96779636Y-119600771D01*
X97065351Y-119553152D02*
X97446303Y-119553152D01*
X97208208Y-119219819D02*
X97208208Y-120076961D01*
X97208208Y-120076961D02*
X97255827Y-120172200D01*
X97255827Y-120172200D02*
X97351065Y-120219819D01*
X97351065Y-120219819D02*
X97446303Y-120219819D01*
X97684399Y-119219819D02*
X98303446Y-119219819D01*
X98303446Y-119219819D02*
X97970113Y-119600771D01*
X97970113Y-119600771D02*
X98112970Y-119600771D01*
X98112970Y-119600771D02*
X98208208Y-119648390D01*
X98208208Y-119648390D02*
X98255827Y-119696009D01*
X98255827Y-119696009D02*
X98303446Y-119791247D01*
X98303446Y-119791247D02*
X98303446Y-120029342D01*
X98303446Y-120029342D02*
X98255827Y-120124580D01*
X98255827Y-120124580D02*
X98208208Y-120172200D01*
X98208208Y-120172200D02*
X98112970Y-120219819D01*
X98112970Y-120219819D02*
X97827256Y-120219819D01*
X97827256Y-120219819D02*
X97732018Y-120172200D01*
X97732018Y-120172200D02*
X97684399Y-120124580D01*
X98636780Y-119219819D02*
X99255827Y-119219819D01*
X99255827Y-119219819D02*
X98922494Y-119600771D01*
X98922494Y-119600771D02*
X99065351Y-119600771D01*
X99065351Y-119600771D02*
X99160589Y-119648390D01*
X99160589Y-119648390D02*
X99208208Y-119696009D01*
X99208208Y-119696009D02*
X99255827Y-119791247D01*
X99255827Y-119791247D02*
X99255827Y-120029342D01*
X99255827Y-120029342D02*
X99208208Y-120124580D01*
X99208208Y-120124580D02*
X99160589Y-120172200D01*
X99160589Y-120172200D02*
X99065351Y-120219819D01*
X99065351Y-120219819D02*
X98779637Y-120219819D01*
X98779637Y-120219819D02*
X98684399Y-120172200D01*
X98684399Y-120172200D02*
X98636780Y-120124580D01*
X100112970Y-119553152D02*
X100112970Y-120219819D01*
X99874875Y-119172200D02*
X99636780Y-119886485D01*
X99636780Y-119886485D02*
X100255827Y-119886485D01*
X101351065Y-119172200D02*
X100493923Y-120457914D01*
X101541542Y-119553152D02*
X101922494Y-119553152D01*
X101684399Y-119219819D02*
X101684399Y-120076961D01*
X101684399Y-120076961D02*
X101732018Y-120172200D01*
X101732018Y-120172200D02*
X101827256Y-120219819D01*
X101827256Y-120219819D02*
X101922494Y-120219819D01*
X102255828Y-120219819D02*
X102255828Y-119553152D01*
X102255828Y-119743628D02*
X102303447Y-119648390D01*
X102303447Y-119648390D02*
X102351066Y-119600771D01*
X102351066Y-119600771D02*
X102446304Y-119553152D01*
X102446304Y-119553152D02*
X102541542Y-119553152D01*
X103255828Y-120172200D02*
X103160590Y-120219819D01*
X103160590Y-120219819D02*
X102970114Y-120219819D01*
X102970114Y-120219819D02*
X102874876Y-120172200D01*
X102874876Y-120172200D02*
X102827257Y-120076961D01*
X102827257Y-120076961D02*
X102827257Y-119696009D01*
X102827257Y-119696009D02*
X102874876Y-119600771D01*
X102874876Y-119600771D02*
X102970114Y-119553152D01*
X102970114Y-119553152D02*
X103160590Y-119553152D01*
X103160590Y-119553152D02*
X103255828Y-119600771D01*
X103255828Y-119600771D02*
X103303447Y-119696009D01*
X103303447Y-119696009D02*
X103303447Y-119791247D01*
X103303447Y-119791247D02*
X102827257Y-119886485D01*
X104112971Y-120172200D02*
X104017733Y-120219819D01*
X104017733Y-120219819D02*
X103827257Y-120219819D01*
X103827257Y-120219819D02*
X103732019Y-120172200D01*
X103732019Y-120172200D02*
X103684400Y-120076961D01*
X103684400Y-120076961D02*
X103684400Y-119696009D01*
X103684400Y-119696009D02*
X103732019Y-119600771D01*
X103732019Y-119600771D02*
X103827257Y-119553152D01*
X103827257Y-119553152D02*
X104017733Y-119553152D01*
X104017733Y-119553152D02*
X104112971Y-119600771D01*
X104112971Y-119600771D02*
X104160590Y-119696009D01*
X104160590Y-119696009D02*
X104160590Y-119791247D01*
X104160590Y-119791247D02*
X103684400Y-119886485D01*
X105303447Y-119172200D02*
X104446305Y-120457914D01*
X105636781Y-120219819D02*
X105636781Y-119553152D01*
X105636781Y-119648390D02*
X105684400Y-119600771D01*
X105684400Y-119600771D02*
X105779638Y-119553152D01*
X105779638Y-119553152D02*
X105922495Y-119553152D01*
X105922495Y-119553152D02*
X106017733Y-119600771D01*
X106017733Y-119600771D02*
X106065352Y-119696009D01*
X106065352Y-119696009D02*
X106065352Y-120219819D01*
X106065352Y-119696009D02*
X106112971Y-119600771D01*
X106112971Y-119600771D02*
X106208209Y-119553152D01*
X106208209Y-119553152D02*
X106351066Y-119553152D01*
X106351066Y-119553152D02*
X106446305Y-119600771D01*
X106446305Y-119600771D02*
X106493924Y-119696009D01*
X106493924Y-119696009D02*
X106493924Y-120219819D01*
X107398685Y-120219819D02*
X107398685Y-119696009D01*
X107398685Y-119696009D02*
X107351066Y-119600771D01*
X107351066Y-119600771D02*
X107255828Y-119553152D01*
X107255828Y-119553152D02*
X107065352Y-119553152D01*
X107065352Y-119553152D02*
X106970114Y-119600771D01*
X107398685Y-120172200D02*
X107303447Y-120219819D01*
X107303447Y-120219819D02*
X107065352Y-120219819D01*
X107065352Y-120219819D02*
X106970114Y-120172200D01*
X106970114Y-120172200D02*
X106922495Y-120076961D01*
X106922495Y-120076961D02*
X106922495Y-119981723D01*
X106922495Y-119981723D02*
X106970114Y-119886485D01*
X106970114Y-119886485D02*
X107065352Y-119838866D01*
X107065352Y-119838866D02*
X107303447Y-119838866D01*
X107303447Y-119838866D02*
X107398685Y-119791247D01*
X107827257Y-120172200D02*
X107922495Y-120219819D01*
X107922495Y-120219819D02*
X108112971Y-120219819D01*
X108112971Y-120219819D02*
X108208209Y-120172200D01*
X108208209Y-120172200D02*
X108255828Y-120076961D01*
X108255828Y-120076961D02*
X108255828Y-120029342D01*
X108255828Y-120029342D02*
X108208209Y-119934104D01*
X108208209Y-119934104D02*
X108112971Y-119886485D01*
X108112971Y-119886485D02*
X107970114Y-119886485D01*
X107970114Y-119886485D02*
X107874876Y-119838866D01*
X107874876Y-119838866D02*
X107827257Y-119743628D01*
X107827257Y-119743628D02*
X107827257Y-119696009D01*
X107827257Y-119696009D02*
X107874876Y-119600771D01*
X107874876Y-119600771D02*
X107970114Y-119553152D01*
X107970114Y-119553152D02*
X108112971Y-119553152D01*
X108112971Y-119553152D02*
X108208209Y-119600771D01*
X108541543Y-119553152D02*
X108922495Y-119553152D01*
X108684400Y-119219819D02*
X108684400Y-120076961D01*
X108684400Y-120076961D02*
X108732019Y-120172200D01*
X108732019Y-120172200D02*
X108827257Y-120219819D01*
X108827257Y-120219819D02*
X108922495Y-120219819D01*
X109636781Y-120172200D02*
X109541543Y-120219819D01*
X109541543Y-120219819D02*
X109351067Y-120219819D01*
X109351067Y-120219819D02*
X109255829Y-120172200D01*
X109255829Y-120172200D02*
X109208210Y-120076961D01*
X109208210Y-120076961D02*
X109208210Y-119696009D01*
X109208210Y-119696009D02*
X109255829Y-119600771D01*
X109255829Y-119600771D02*
X109351067Y-119553152D01*
X109351067Y-119553152D02*
X109541543Y-119553152D01*
X109541543Y-119553152D02*
X109636781Y-119600771D01*
X109636781Y-119600771D02*
X109684400Y-119696009D01*
X109684400Y-119696009D02*
X109684400Y-119791247D01*
X109684400Y-119791247D02*
X109208210Y-119886485D01*
X110112972Y-120219819D02*
X110112972Y-119553152D01*
X110112972Y-119743628D02*
X110160591Y-119648390D01*
X110160591Y-119648390D02*
X110208210Y-119600771D01*
X110208210Y-119600771D02*
X110303448Y-119553152D01*
X110303448Y-119553152D02*
X110398686Y-119553152D01*
X111446305Y-119172200D02*
X110589163Y-120457914D01*
X111779639Y-120219819D02*
X111779639Y-119219819D01*
X111779639Y-119219819D02*
X112160591Y-119219819D01*
X112160591Y-119219819D02*
X112255829Y-119267438D01*
X112255829Y-119267438D02*
X112303448Y-119315057D01*
X112303448Y-119315057D02*
X112351067Y-119410295D01*
X112351067Y-119410295D02*
X112351067Y-119553152D01*
X112351067Y-119553152D02*
X112303448Y-119648390D01*
X112303448Y-119648390D02*
X112255829Y-119696009D01*
X112255829Y-119696009D02*
X112160591Y-119743628D01*
X112160591Y-119743628D02*
X111779639Y-119743628D01*
X113303448Y-120219819D02*
X112732020Y-120219819D01*
X113017734Y-120219819D02*
X113017734Y-119219819D01*
X113017734Y-119219819D02*
X112922496Y-119362676D01*
X112922496Y-119362676D02*
X112827258Y-119457914D01*
X112827258Y-119457914D02*
X112732020Y-119505533D01*
X85839541Y-84467819D02*
X86506207Y-85467819D01*
X86506207Y-84467819D02*
X85839541Y-85467819D01*
X87077636Y-84467819D02*
X87268112Y-84467819D01*
X87268112Y-84467819D02*
X87363350Y-84515438D01*
X87363350Y-84515438D02*
X87458588Y-84610676D01*
X87458588Y-84610676D02*
X87506207Y-84801152D01*
X87506207Y-84801152D02*
X87506207Y-85134485D01*
X87506207Y-85134485D02*
X87458588Y-85324961D01*
X87458588Y-85324961D02*
X87363350Y-85420200D01*
X87363350Y-85420200D02*
X87268112Y-85467819D01*
X87268112Y-85467819D02*
X87077636Y-85467819D01*
X87077636Y-85467819D02*
X86982398Y-85420200D01*
X86982398Y-85420200D02*
X86887160Y-85324961D01*
X86887160Y-85324961D02*
X86839541Y-85134485D01*
X86839541Y-85134485D02*
X86839541Y-84801152D01*
X86839541Y-84801152D02*
X86887160Y-84610676D01*
X86887160Y-84610676D02*
X86982398Y-84515438D01*
X86982398Y-84515438D02*
X87077636Y-84467819D01*
X88506207Y-85467819D02*
X88172874Y-84991628D01*
X87934779Y-85467819D02*
X87934779Y-84467819D01*
X87934779Y-84467819D02*
X88315731Y-84467819D01*
X88315731Y-84467819D02*
X88410969Y-84515438D01*
X88410969Y-84515438D02*
X88458588Y-84563057D01*
X88458588Y-84563057D02*
X88506207Y-84658295D01*
X88506207Y-84658295D02*
X88506207Y-84801152D01*
X88506207Y-84801152D02*
X88458588Y-84896390D01*
X88458588Y-84896390D02*
X88410969Y-84944009D01*
X88410969Y-84944009D02*
X88315731Y-84991628D01*
X88315731Y-84991628D02*
X87934779Y-84991628D01*
X84037405Y-37025819D02*
X84037405Y-37835342D01*
X84037405Y-37835342D02*
X84085024Y-37930580D01*
X84085024Y-37930580D02*
X84132643Y-37978200D01*
X84132643Y-37978200D02*
X84227881Y-38025819D01*
X84227881Y-38025819D02*
X84418357Y-38025819D01*
X84418357Y-38025819D02*
X84513595Y-37978200D01*
X84513595Y-37978200D02*
X84561214Y-37930580D01*
X84561214Y-37930580D02*
X84608833Y-37835342D01*
X84608833Y-37835342D02*
X84608833Y-37025819D01*
X85037405Y-37121057D02*
X85085024Y-37073438D01*
X85085024Y-37073438D02*
X85180262Y-37025819D01*
X85180262Y-37025819D02*
X85418357Y-37025819D01*
X85418357Y-37025819D02*
X85513595Y-37073438D01*
X85513595Y-37073438D02*
X85561214Y-37121057D01*
X85561214Y-37121057D02*
X85608833Y-37216295D01*
X85608833Y-37216295D02*
X85608833Y-37311533D01*
X85608833Y-37311533D02*
X85561214Y-37454390D01*
X85561214Y-37454390D02*
X84989786Y-38025819D01*
X84989786Y-38025819D02*
X85608833Y-38025819D01*
X86561214Y-38025819D02*
X85989786Y-38025819D01*
X86275500Y-38025819D02*
X86275500Y-37025819D01*
X86275500Y-37025819D02*
X86180262Y-37168676D01*
X86180262Y-37168676D02*
X86085024Y-37263914D01*
X86085024Y-37263914D02*
X85989786Y-37311533D01*
X58557142Y-80159580D02*
X58509523Y-80207200D01*
X58509523Y-80207200D02*
X58366666Y-80254819D01*
X58366666Y-80254819D02*
X58271428Y-80254819D01*
X58271428Y-80254819D02*
X58128571Y-80207200D01*
X58128571Y-80207200D02*
X58033333Y-80111961D01*
X58033333Y-80111961D02*
X57985714Y-80016723D01*
X57985714Y-80016723D02*
X57938095Y-79826247D01*
X57938095Y-79826247D02*
X57938095Y-79683390D01*
X57938095Y-79683390D02*
X57985714Y-79492914D01*
X57985714Y-79492914D02*
X58033333Y-79397676D01*
X58033333Y-79397676D02*
X58128571Y-79302438D01*
X58128571Y-79302438D02*
X58271428Y-79254819D01*
X58271428Y-79254819D02*
X58366666Y-79254819D01*
X58366666Y-79254819D02*
X58509523Y-79302438D01*
X58509523Y-79302438D02*
X58557142Y-79350057D01*
X58938095Y-79350057D02*
X58985714Y-79302438D01*
X58985714Y-79302438D02*
X59080952Y-79254819D01*
X59080952Y-79254819D02*
X59319047Y-79254819D01*
X59319047Y-79254819D02*
X59414285Y-79302438D01*
X59414285Y-79302438D02*
X59461904Y-79350057D01*
X59461904Y-79350057D02*
X59509523Y-79445295D01*
X59509523Y-79445295D02*
X59509523Y-79540533D01*
X59509523Y-79540533D02*
X59461904Y-79683390D01*
X59461904Y-79683390D02*
X58890476Y-80254819D01*
X58890476Y-80254819D02*
X59509523Y-80254819D01*
X60080952Y-79683390D02*
X59985714Y-79635771D01*
X59985714Y-79635771D02*
X59938095Y-79588152D01*
X59938095Y-79588152D02*
X59890476Y-79492914D01*
X59890476Y-79492914D02*
X59890476Y-79445295D01*
X59890476Y-79445295D02*
X59938095Y-79350057D01*
X59938095Y-79350057D02*
X59985714Y-79302438D01*
X59985714Y-79302438D02*
X60080952Y-79254819D01*
X60080952Y-79254819D02*
X60271428Y-79254819D01*
X60271428Y-79254819D02*
X60366666Y-79302438D01*
X60366666Y-79302438D02*
X60414285Y-79350057D01*
X60414285Y-79350057D02*
X60461904Y-79445295D01*
X60461904Y-79445295D02*
X60461904Y-79492914D01*
X60461904Y-79492914D02*
X60414285Y-79588152D01*
X60414285Y-79588152D02*
X60366666Y-79635771D01*
X60366666Y-79635771D02*
X60271428Y-79683390D01*
X60271428Y-79683390D02*
X60080952Y-79683390D01*
X60080952Y-79683390D02*
X59985714Y-79731009D01*
X59985714Y-79731009D02*
X59938095Y-79778628D01*
X59938095Y-79778628D02*
X59890476Y-79873866D01*
X59890476Y-79873866D02*
X59890476Y-80064342D01*
X59890476Y-80064342D02*
X59938095Y-80159580D01*
X59938095Y-80159580D02*
X59985714Y-80207200D01*
X59985714Y-80207200D02*
X60080952Y-80254819D01*
X60080952Y-80254819D02*
X60271428Y-80254819D01*
X60271428Y-80254819D02*
X60366666Y-80207200D01*
X60366666Y-80207200D02*
X60414285Y-80159580D01*
X60414285Y-80159580D02*
X60461904Y-80064342D01*
X60461904Y-80064342D02*
X60461904Y-79873866D01*
X60461904Y-79873866D02*
X60414285Y-79778628D01*
X60414285Y-79778628D02*
X60366666Y-79731009D01*
X60366666Y-79731009D02*
X60271428Y-79683390D01*
X59432142Y-56759580D02*
X59384523Y-56807200D01*
X59384523Y-56807200D02*
X59241666Y-56854819D01*
X59241666Y-56854819D02*
X59146428Y-56854819D01*
X59146428Y-56854819D02*
X59003571Y-56807200D01*
X59003571Y-56807200D02*
X58908333Y-56711961D01*
X58908333Y-56711961D02*
X58860714Y-56616723D01*
X58860714Y-56616723D02*
X58813095Y-56426247D01*
X58813095Y-56426247D02*
X58813095Y-56283390D01*
X58813095Y-56283390D02*
X58860714Y-56092914D01*
X58860714Y-56092914D02*
X58908333Y-55997676D01*
X58908333Y-55997676D02*
X59003571Y-55902438D01*
X59003571Y-55902438D02*
X59146428Y-55854819D01*
X59146428Y-55854819D02*
X59241666Y-55854819D01*
X59241666Y-55854819D02*
X59384523Y-55902438D01*
X59384523Y-55902438D02*
X59432142Y-55950057D01*
X59813095Y-55950057D02*
X59860714Y-55902438D01*
X59860714Y-55902438D02*
X59955952Y-55854819D01*
X59955952Y-55854819D02*
X60194047Y-55854819D01*
X60194047Y-55854819D02*
X60289285Y-55902438D01*
X60289285Y-55902438D02*
X60336904Y-55950057D01*
X60336904Y-55950057D02*
X60384523Y-56045295D01*
X60384523Y-56045295D02*
X60384523Y-56140533D01*
X60384523Y-56140533D02*
X60336904Y-56283390D01*
X60336904Y-56283390D02*
X59765476Y-56854819D01*
X59765476Y-56854819D02*
X60384523Y-56854819D01*
X60717857Y-55854819D02*
X61384523Y-55854819D01*
X61384523Y-55854819D02*
X60955952Y-56854819D01*
X50550547Y-31114190D02*
X51008129Y-31114190D01*
X51008129Y-31114190D02*
X51099646Y-31144696D01*
X51099646Y-31144696D02*
X51160657Y-31205707D01*
X51160657Y-31205707D02*
X51191162Y-31297223D01*
X51191162Y-31297223D02*
X51191162Y-31358234D01*
X51191162Y-30473575D02*
X51191162Y-30839641D01*
X51191162Y-30656608D02*
X50550547Y-30656608D01*
X50550547Y-30656608D02*
X50642063Y-30717619D01*
X50642063Y-30717619D02*
X50703074Y-30778630D01*
X50703074Y-30778630D02*
X50733580Y-30839641D01*
X93082142Y-73309580D02*
X93034523Y-73357200D01*
X93034523Y-73357200D02*
X92891666Y-73404819D01*
X92891666Y-73404819D02*
X92796428Y-73404819D01*
X92796428Y-73404819D02*
X92653571Y-73357200D01*
X92653571Y-73357200D02*
X92558333Y-73261961D01*
X92558333Y-73261961D02*
X92510714Y-73166723D01*
X92510714Y-73166723D02*
X92463095Y-72976247D01*
X92463095Y-72976247D02*
X92463095Y-72833390D01*
X92463095Y-72833390D02*
X92510714Y-72642914D01*
X92510714Y-72642914D02*
X92558333Y-72547676D01*
X92558333Y-72547676D02*
X92653571Y-72452438D01*
X92653571Y-72452438D02*
X92796428Y-72404819D01*
X92796428Y-72404819D02*
X92891666Y-72404819D01*
X92891666Y-72404819D02*
X93034523Y-72452438D01*
X93034523Y-72452438D02*
X93082142Y-72500057D01*
X93463095Y-72500057D02*
X93510714Y-72452438D01*
X93510714Y-72452438D02*
X93605952Y-72404819D01*
X93605952Y-72404819D02*
X93844047Y-72404819D01*
X93844047Y-72404819D02*
X93939285Y-72452438D01*
X93939285Y-72452438D02*
X93986904Y-72500057D01*
X93986904Y-72500057D02*
X94034523Y-72595295D01*
X94034523Y-72595295D02*
X94034523Y-72690533D01*
X94034523Y-72690533D02*
X93986904Y-72833390D01*
X93986904Y-72833390D02*
X93415476Y-73404819D01*
X93415476Y-73404819D02*
X94034523Y-73404819D01*
X94939285Y-72404819D02*
X94463095Y-72404819D01*
X94463095Y-72404819D02*
X94415476Y-72881009D01*
X94415476Y-72881009D02*
X94463095Y-72833390D01*
X94463095Y-72833390D02*
X94558333Y-72785771D01*
X94558333Y-72785771D02*
X94796428Y-72785771D01*
X94796428Y-72785771D02*
X94891666Y-72833390D01*
X94891666Y-72833390D02*
X94939285Y-72881009D01*
X94939285Y-72881009D02*
X94986904Y-72976247D01*
X94986904Y-72976247D02*
X94986904Y-73214342D01*
X94986904Y-73214342D02*
X94939285Y-73309580D01*
X94939285Y-73309580D02*
X94891666Y-73357200D01*
X94891666Y-73357200D02*
X94796428Y-73404819D01*
X94796428Y-73404819D02*
X94558333Y-73404819D01*
X94558333Y-73404819D02*
X94463095Y-73357200D01*
X94463095Y-73357200D02*
X94415476Y-73309580D01*
X86010905Y-80943819D02*
X86010905Y-81753342D01*
X86010905Y-81753342D02*
X86058524Y-81848580D01*
X86058524Y-81848580D02*
X86106143Y-81896200D01*
X86106143Y-81896200D02*
X86201381Y-81943819D01*
X86201381Y-81943819D02*
X86391857Y-81943819D01*
X86391857Y-81943819D02*
X86487095Y-81896200D01*
X86487095Y-81896200D02*
X86534714Y-81848580D01*
X86534714Y-81848580D02*
X86582333Y-81753342D01*
X86582333Y-81753342D02*
X86582333Y-80943819D01*
X87582333Y-81943819D02*
X87010905Y-81943819D01*
X87296619Y-81943819D02*
X87296619Y-80943819D01*
X87296619Y-80943819D02*
X87201381Y-81086676D01*
X87201381Y-81086676D02*
X87106143Y-81181914D01*
X87106143Y-81181914D02*
X87010905Y-81229533D01*
X87915667Y-80943819D02*
X88582333Y-80943819D01*
X88582333Y-80943819D02*
X88153762Y-81943819D01*
X83216905Y-107023819D02*
X83216905Y-107833342D01*
X83216905Y-107833342D02*
X83264524Y-107928580D01*
X83264524Y-107928580D02*
X83312143Y-107976200D01*
X83312143Y-107976200D02*
X83407381Y-108023819D01*
X83407381Y-108023819D02*
X83597857Y-108023819D01*
X83597857Y-108023819D02*
X83693095Y-107976200D01*
X83693095Y-107976200D02*
X83740714Y-107928580D01*
X83740714Y-107928580D02*
X83788333Y-107833342D01*
X83788333Y-107833342D02*
X83788333Y-107023819D01*
X84788333Y-108023819D02*
X84216905Y-108023819D01*
X84502619Y-108023819D02*
X84502619Y-107023819D01*
X84502619Y-107023819D02*
X84407381Y-107166676D01*
X84407381Y-107166676D02*
X84312143Y-107261914D01*
X84312143Y-107261914D02*
X84216905Y-107309533D01*
X85645476Y-107357152D02*
X85645476Y-108023819D01*
X85407381Y-106976200D02*
X85169286Y-107690485D01*
X85169286Y-107690485D02*
X85788333Y-107690485D01*
X65761905Y-76854819D02*
X65761905Y-77664342D01*
X65761905Y-77664342D02*
X65809524Y-77759580D01*
X65809524Y-77759580D02*
X65857143Y-77807200D01*
X65857143Y-77807200D02*
X65952381Y-77854819D01*
X65952381Y-77854819D02*
X66142857Y-77854819D01*
X66142857Y-77854819D02*
X66238095Y-77807200D01*
X66238095Y-77807200D02*
X66285714Y-77759580D01*
X66285714Y-77759580D02*
X66333333Y-77664342D01*
X66333333Y-77664342D02*
X66333333Y-76854819D01*
X67333333Y-77854819D02*
X66761905Y-77854819D01*
X67047619Y-77854819D02*
X67047619Y-76854819D01*
X67047619Y-76854819D02*
X66952381Y-76997676D01*
X66952381Y-76997676D02*
X66857143Y-77092914D01*
X66857143Y-77092914D02*
X66761905Y-77140533D01*
X67809524Y-77854819D02*
X68000000Y-77854819D01*
X68000000Y-77854819D02*
X68095238Y-77807200D01*
X68095238Y-77807200D02*
X68142857Y-77759580D01*
X68142857Y-77759580D02*
X68238095Y-77616723D01*
X68238095Y-77616723D02*
X68285714Y-77426247D01*
X68285714Y-77426247D02*
X68285714Y-77045295D01*
X68285714Y-77045295D02*
X68238095Y-76950057D01*
X68238095Y-76950057D02*
X68190476Y-76902438D01*
X68190476Y-76902438D02*
X68095238Y-76854819D01*
X68095238Y-76854819D02*
X67904762Y-76854819D01*
X67904762Y-76854819D02*
X67809524Y-76902438D01*
X67809524Y-76902438D02*
X67761905Y-76950057D01*
X67761905Y-76950057D02*
X67714286Y-77045295D01*
X67714286Y-77045295D02*
X67714286Y-77283390D01*
X67714286Y-77283390D02*
X67761905Y-77378628D01*
X67761905Y-77378628D02*
X67809524Y-77426247D01*
X67809524Y-77426247D02*
X67904762Y-77473866D01*
X67904762Y-77473866D02*
X68095238Y-77473866D01*
X68095238Y-77473866D02*
X68190476Y-77426247D01*
X68190476Y-77426247D02*
X68238095Y-77378628D01*
X68238095Y-77378628D02*
X68285714Y-77283390D01*
X63161905Y-102854819D02*
X63161905Y-103664342D01*
X63161905Y-103664342D02*
X63209524Y-103759580D01*
X63209524Y-103759580D02*
X63257143Y-103807200D01*
X63257143Y-103807200D02*
X63352381Y-103854819D01*
X63352381Y-103854819D02*
X63542857Y-103854819D01*
X63542857Y-103854819D02*
X63638095Y-103807200D01*
X63638095Y-103807200D02*
X63685714Y-103759580D01*
X63685714Y-103759580D02*
X63733333Y-103664342D01*
X63733333Y-103664342D02*
X63733333Y-102854819D01*
X64733333Y-103854819D02*
X64161905Y-103854819D01*
X64447619Y-103854819D02*
X64447619Y-102854819D01*
X64447619Y-102854819D02*
X64352381Y-102997676D01*
X64352381Y-102997676D02*
X64257143Y-103092914D01*
X64257143Y-103092914D02*
X64161905Y-103140533D01*
X65590476Y-102854819D02*
X65400000Y-102854819D01*
X65400000Y-102854819D02*
X65304762Y-102902438D01*
X65304762Y-102902438D02*
X65257143Y-102950057D01*
X65257143Y-102950057D02*
X65161905Y-103092914D01*
X65161905Y-103092914D02*
X65114286Y-103283390D01*
X65114286Y-103283390D02*
X65114286Y-103664342D01*
X65114286Y-103664342D02*
X65161905Y-103759580D01*
X65161905Y-103759580D02*
X65209524Y-103807200D01*
X65209524Y-103807200D02*
X65304762Y-103854819D01*
X65304762Y-103854819D02*
X65495238Y-103854819D01*
X65495238Y-103854819D02*
X65590476Y-103807200D01*
X65590476Y-103807200D02*
X65638095Y-103759580D01*
X65638095Y-103759580D02*
X65685714Y-103664342D01*
X65685714Y-103664342D02*
X65685714Y-103426247D01*
X65685714Y-103426247D02*
X65638095Y-103331009D01*
X65638095Y-103331009D02*
X65590476Y-103283390D01*
X65590476Y-103283390D02*
X65495238Y-103235771D01*
X65495238Y-103235771D02*
X65304762Y-103235771D01*
X65304762Y-103235771D02*
X65209524Y-103283390D01*
X65209524Y-103283390D02*
X65161905Y-103331009D01*
X65161905Y-103331009D02*
X65114286Y-103426247D01*
X63561905Y-53254819D02*
X63561905Y-54064342D01*
X63561905Y-54064342D02*
X63609524Y-54159580D01*
X63609524Y-54159580D02*
X63657143Y-54207200D01*
X63657143Y-54207200D02*
X63752381Y-54254819D01*
X63752381Y-54254819D02*
X63942857Y-54254819D01*
X63942857Y-54254819D02*
X64038095Y-54207200D01*
X64038095Y-54207200D02*
X64085714Y-54159580D01*
X64085714Y-54159580D02*
X64133333Y-54064342D01*
X64133333Y-54064342D02*
X64133333Y-53254819D01*
X64561905Y-53350057D02*
X64609524Y-53302438D01*
X64609524Y-53302438D02*
X64704762Y-53254819D01*
X64704762Y-53254819D02*
X64942857Y-53254819D01*
X64942857Y-53254819D02*
X65038095Y-53302438D01*
X65038095Y-53302438D02*
X65085714Y-53350057D01*
X65085714Y-53350057D02*
X65133333Y-53445295D01*
X65133333Y-53445295D02*
X65133333Y-53540533D01*
X65133333Y-53540533D02*
X65085714Y-53683390D01*
X65085714Y-53683390D02*
X64514286Y-54254819D01*
X64514286Y-54254819D02*
X65133333Y-54254819D01*
X65514286Y-53350057D02*
X65561905Y-53302438D01*
X65561905Y-53302438D02*
X65657143Y-53254819D01*
X65657143Y-53254819D02*
X65895238Y-53254819D01*
X65895238Y-53254819D02*
X65990476Y-53302438D01*
X65990476Y-53302438D02*
X66038095Y-53350057D01*
X66038095Y-53350057D02*
X66085714Y-53445295D01*
X66085714Y-53445295D02*
X66085714Y-53540533D01*
X66085714Y-53540533D02*
X66038095Y-53683390D01*
X66038095Y-53683390D02*
X65466667Y-54254819D01*
X65466667Y-54254819D02*
X66085714Y-54254819D01*
X83597905Y-86428819D02*
X83597905Y-87238342D01*
X83597905Y-87238342D02*
X83645524Y-87333580D01*
X83645524Y-87333580D02*
X83693143Y-87381200D01*
X83693143Y-87381200D02*
X83788381Y-87428819D01*
X83788381Y-87428819D02*
X83978857Y-87428819D01*
X83978857Y-87428819D02*
X84074095Y-87381200D01*
X84074095Y-87381200D02*
X84121714Y-87333580D01*
X84121714Y-87333580D02*
X84169333Y-87238342D01*
X84169333Y-87238342D02*
X84169333Y-86428819D01*
X85169333Y-87428819D02*
X84597905Y-87428819D01*
X84883619Y-87428819D02*
X84883619Y-86428819D01*
X84883619Y-86428819D02*
X84788381Y-86571676D01*
X84788381Y-86571676D02*
X84693143Y-86666914D01*
X84693143Y-86666914D02*
X84597905Y-86714533D01*
X86074095Y-86428819D02*
X85597905Y-86428819D01*
X85597905Y-86428819D02*
X85550286Y-86905009D01*
X85550286Y-86905009D02*
X85597905Y-86857390D01*
X85597905Y-86857390D02*
X85693143Y-86809771D01*
X85693143Y-86809771D02*
X85931238Y-86809771D01*
X85931238Y-86809771D02*
X86026476Y-86857390D01*
X86026476Y-86857390D02*
X86074095Y-86905009D01*
X86074095Y-86905009D02*
X86121714Y-87000247D01*
X86121714Y-87000247D02*
X86121714Y-87238342D01*
X86121714Y-87238342D02*
X86074095Y-87333580D01*
X86074095Y-87333580D02*
X86026476Y-87381200D01*
X86026476Y-87381200D02*
X85931238Y-87428819D01*
X85931238Y-87428819D02*
X85693143Y-87428819D01*
X85693143Y-87428819D02*
X85597905Y-87381200D01*
X85597905Y-87381200D02*
X85550286Y-87333580D01*
X86010905Y-61536819D02*
X86010905Y-62346342D01*
X86010905Y-62346342D02*
X86058524Y-62441580D01*
X86058524Y-62441580D02*
X86106143Y-62489200D01*
X86106143Y-62489200D02*
X86201381Y-62536819D01*
X86201381Y-62536819D02*
X86391857Y-62536819D01*
X86391857Y-62536819D02*
X86487095Y-62489200D01*
X86487095Y-62489200D02*
X86534714Y-62441580D01*
X86534714Y-62441580D02*
X86582333Y-62346342D01*
X86582333Y-62346342D02*
X86582333Y-61536819D01*
X87582333Y-62536819D02*
X87010905Y-62536819D01*
X87296619Y-62536819D02*
X87296619Y-61536819D01*
X87296619Y-61536819D02*
X87201381Y-61679676D01*
X87201381Y-61679676D02*
X87106143Y-61774914D01*
X87106143Y-61774914D02*
X87010905Y-61822533D01*
X88153762Y-61965390D02*
X88058524Y-61917771D01*
X88058524Y-61917771D02*
X88010905Y-61870152D01*
X88010905Y-61870152D02*
X87963286Y-61774914D01*
X87963286Y-61774914D02*
X87963286Y-61727295D01*
X87963286Y-61727295D02*
X88010905Y-61632057D01*
X88010905Y-61632057D02*
X88058524Y-61584438D01*
X88058524Y-61584438D02*
X88153762Y-61536819D01*
X88153762Y-61536819D02*
X88344238Y-61536819D01*
X88344238Y-61536819D02*
X88439476Y-61584438D01*
X88439476Y-61584438D02*
X88487095Y-61632057D01*
X88487095Y-61632057D02*
X88534714Y-61727295D01*
X88534714Y-61727295D02*
X88534714Y-61774914D01*
X88534714Y-61774914D02*
X88487095Y-61870152D01*
X88487095Y-61870152D02*
X88439476Y-61917771D01*
X88439476Y-61917771D02*
X88344238Y-61965390D01*
X88344238Y-61965390D02*
X88153762Y-61965390D01*
X88153762Y-61965390D02*
X88058524Y-62013009D01*
X88058524Y-62013009D02*
X88010905Y-62060628D01*
X88010905Y-62060628D02*
X87963286Y-62155866D01*
X87963286Y-62155866D02*
X87963286Y-62346342D01*
X87963286Y-62346342D02*
X88010905Y-62441580D01*
X88010905Y-62441580D02*
X88058524Y-62489200D01*
X88058524Y-62489200D02*
X88153762Y-62536819D01*
X88153762Y-62536819D02*
X88344238Y-62536819D01*
X88344238Y-62536819D02*
X88439476Y-62489200D01*
X88439476Y-62489200D02*
X88487095Y-62441580D01*
X88487095Y-62441580D02*
X88534714Y-62346342D01*
X88534714Y-62346342D02*
X88534714Y-62155866D01*
X88534714Y-62155866D02*
X88487095Y-62060628D01*
X88487095Y-62060628D02*
X88439476Y-62013009D01*
X88439476Y-62013009D02*
X88344238Y-61965390D01*
X90757142Y-47509580D02*
X90709523Y-47557200D01*
X90709523Y-47557200D02*
X90566666Y-47604819D01*
X90566666Y-47604819D02*
X90471428Y-47604819D01*
X90471428Y-47604819D02*
X90328571Y-47557200D01*
X90328571Y-47557200D02*
X90233333Y-47461961D01*
X90233333Y-47461961D02*
X90185714Y-47366723D01*
X90185714Y-47366723D02*
X90138095Y-47176247D01*
X90138095Y-47176247D02*
X90138095Y-47033390D01*
X90138095Y-47033390D02*
X90185714Y-46842914D01*
X90185714Y-46842914D02*
X90233333Y-46747676D01*
X90233333Y-46747676D02*
X90328571Y-46652438D01*
X90328571Y-46652438D02*
X90471428Y-46604819D01*
X90471428Y-46604819D02*
X90566666Y-46604819D01*
X90566666Y-46604819D02*
X90709523Y-46652438D01*
X90709523Y-46652438D02*
X90757142Y-46700057D01*
X91709523Y-47604819D02*
X91138095Y-47604819D01*
X91423809Y-47604819D02*
X91423809Y-46604819D01*
X91423809Y-46604819D02*
X91328571Y-46747676D01*
X91328571Y-46747676D02*
X91233333Y-46842914D01*
X91233333Y-46842914D02*
X91138095Y-46890533D01*
X92566666Y-46938152D02*
X92566666Y-47604819D01*
X92328571Y-46557200D02*
X92090476Y-47271485D01*
X92090476Y-47271485D02*
X92709523Y-47271485D01*
X90482142Y-98909580D02*
X90434523Y-98957200D01*
X90434523Y-98957200D02*
X90291666Y-99004819D01*
X90291666Y-99004819D02*
X90196428Y-99004819D01*
X90196428Y-99004819D02*
X90053571Y-98957200D01*
X90053571Y-98957200D02*
X89958333Y-98861961D01*
X89958333Y-98861961D02*
X89910714Y-98766723D01*
X89910714Y-98766723D02*
X89863095Y-98576247D01*
X89863095Y-98576247D02*
X89863095Y-98433390D01*
X89863095Y-98433390D02*
X89910714Y-98242914D01*
X89910714Y-98242914D02*
X89958333Y-98147676D01*
X89958333Y-98147676D02*
X90053571Y-98052438D01*
X90053571Y-98052438D02*
X90196428Y-98004819D01*
X90196428Y-98004819D02*
X90291666Y-98004819D01*
X90291666Y-98004819D02*
X90434523Y-98052438D01*
X90434523Y-98052438D02*
X90482142Y-98100057D01*
X90863095Y-98100057D02*
X90910714Y-98052438D01*
X90910714Y-98052438D02*
X91005952Y-98004819D01*
X91005952Y-98004819D02*
X91244047Y-98004819D01*
X91244047Y-98004819D02*
X91339285Y-98052438D01*
X91339285Y-98052438D02*
X91386904Y-98100057D01*
X91386904Y-98100057D02*
X91434523Y-98195295D01*
X91434523Y-98195295D02*
X91434523Y-98290533D01*
X91434523Y-98290533D02*
X91386904Y-98433390D01*
X91386904Y-98433390D02*
X90815476Y-99004819D01*
X90815476Y-99004819D02*
X91434523Y-99004819D01*
X92291666Y-98004819D02*
X92101190Y-98004819D01*
X92101190Y-98004819D02*
X92005952Y-98052438D01*
X92005952Y-98052438D02*
X91958333Y-98100057D01*
X91958333Y-98100057D02*
X91863095Y-98242914D01*
X91863095Y-98242914D02*
X91815476Y-98433390D01*
X91815476Y-98433390D02*
X91815476Y-98814342D01*
X91815476Y-98814342D02*
X91863095Y-98909580D01*
X91863095Y-98909580D02*
X91910714Y-98957200D01*
X91910714Y-98957200D02*
X92005952Y-99004819D01*
X92005952Y-99004819D02*
X92196428Y-99004819D01*
X92196428Y-99004819D02*
X92291666Y-98957200D01*
X92291666Y-98957200D02*
X92339285Y-98909580D01*
X92339285Y-98909580D02*
X92386904Y-98814342D01*
X92386904Y-98814342D02*
X92386904Y-98576247D01*
X92386904Y-98576247D02*
X92339285Y-98481009D01*
X92339285Y-98481009D02*
X92291666Y-98433390D01*
X92291666Y-98433390D02*
X92196428Y-98385771D01*
X92196428Y-98385771D02*
X92005952Y-98385771D01*
X92005952Y-98385771D02*
X91910714Y-98433390D01*
X91910714Y-98433390D02*
X91863095Y-98481009D01*
X91863095Y-98481009D02*
X91815476Y-98576247D01*
X55811905Y-37754819D02*
X55811905Y-38564342D01*
X55811905Y-38564342D02*
X55859524Y-38659580D01*
X55859524Y-38659580D02*
X55907143Y-38707200D01*
X55907143Y-38707200D02*
X56002381Y-38754819D01*
X56002381Y-38754819D02*
X56192857Y-38754819D01*
X56192857Y-38754819D02*
X56288095Y-38707200D01*
X56288095Y-38707200D02*
X56335714Y-38659580D01*
X56335714Y-38659580D02*
X56383333Y-38564342D01*
X56383333Y-38564342D02*
X56383333Y-37754819D01*
X56811905Y-37850057D02*
X56859524Y-37802438D01*
X56859524Y-37802438D02*
X56954762Y-37754819D01*
X56954762Y-37754819D02*
X57192857Y-37754819D01*
X57192857Y-37754819D02*
X57288095Y-37802438D01*
X57288095Y-37802438D02*
X57335714Y-37850057D01*
X57335714Y-37850057D02*
X57383333Y-37945295D01*
X57383333Y-37945295D02*
X57383333Y-38040533D01*
X57383333Y-38040533D02*
X57335714Y-38183390D01*
X57335714Y-38183390D02*
X56764286Y-38754819D01*
X56764286Y-38754819D02*
X57383333Y-38754819D01*
X57859524Y-38754819D02*
X58050000Y-38754819D01*
X58050000Y-38754819D02*
X58145238Y-38707200D01*
X58145238Y-38707200D02*
X58192857Y-38659580D01*
X58192857Y-38659580D02*
X58288095Y-38516723D01*
X58288095Y-38516723D02*
X58335714Y-38326247D01*
X58335714Y-38326247D02*
X58335714Y-37945295D01*
X58335714Y-37945295D02*
X58288095Y-37850057D01*
X58288095Y-37850057D02*
X58240476Y-37802438D01*
X58240476Y-37802438D02*
X58145238Y-37754819D01*
X58145238Y-37754819D02*
X57954762Y-37754819D01*
X57954762Y-37754819D02*
X57859524Y-37802438D01*
X57859524Y-37802438D02*
X57811905Y-37850057D01*
X57811905Y-37850057D02*
X57764286Y-37945295D01*
X57764286Y-37945295D02*
X57764286Y-38183390D01*
X57764286Y-38183390D02*
X57811905Y-38278628D01*
X57811905Y-38278628D02*
X57859524Y-38326247D01*
X57859524Y-38326247D02*
X57954762Y-38373866D01*
X57954762Y-38373866D02*
X58145238Y-38373866D01*
X58145238Y-38373866D02*
X58240476Y-38326247D01*
X58240476Y-38326247D02*
X58288095Y-38278628D01*
X58288095Y-38278628D02*
X58335714Y-38183390D01*
X52361905Y-124654819D02*
X52361905Y-125464342D01*
X52361905Y-125464342D02*
X52409524Y-125559580D01*
X52409524Y-125559580D02*
X52457143Y-125607200D01*
X52457143Y-125607200D02*
X52552381Y-125654819D01*
X52552381Y-125654819D02*
X52742857Y-125654819D01*
X52742857Y-125654819D02*
X52838095Y-125607200D01*
X52838095Y-125607200D02*
X52885714Y-125559580D01*
X52885714Y-125559580D02*
X52933333Y-125464342D01*
X52933333Y-125464342D02*
X52933333Y-124654819D01*
X53933333Y-125654819D02*
X53361905Y-125654819D01*
X53647619Y-125654819D02*
X53647619Y-124654819D01*
X53647619Y-124654819D02*
X53552381Y-124797676D01*
X53552381Y-124797676D02*
X53457143Y-124892914D01*
X53457143Y-124892914D02*
X53361905Y-124940533D01*
X54266667Y-124654819D02*
X54885714Y-124654819D01*
X54885714Y-124654819D02*
X54552381Y-125035771D01*
X54552381Y-125035771D02*
X54695238Y-125035771D01*
X54695238Y-125035771D02*
X54790476Y-125083390D01*
X54790476Y-125083390D02*
X54838095Y-125131009D01*
X54838095Y-125131009D02*
X54885714Y-125226247D01*
X54885714Y-125226247D02*
X54885714Y-125464342D01*
X54885714Y-125464342D02*
X54838095Y-125559580D01*
X54838095Y-125559580D02*
X54790476Y-125607200D01*
X54790476Y-125607200D02*
X54695238Y-125654819D01*
X54695238Y-125654819D02*
X54409524Y-125654819D01*
X54409524Y-125654819D02*
X54314286Y-125607200D01*
X54314286Y-125607200D02*
X54266667Y-125559580D01*
X59357142Y-110359580D02*
X59309523Y-110407200D01*
X59309523Y-110407200D02*
X59166666Y-110454819D01*
X59166666Y-110454819D02*
X59071428Y-110454819D01*
X59071428Y-110454819D02*
X58928571Y-110407200D01*
X58928571Y-110407200D02*
X58833333Y-110311961D01*
X58833333Y-110311961D02*
X58785714Y-110216723D01*
X58785714Y-110216723D02*
X58738095Y-110026247D01*
X58738095Y-110026247D02*
X58738095Y-109883390D01*
X58738095Y-109883390D02*
X58785714Y-109692914D01*
X58785714Y-109692914D02*
X58833333Y-109597676D01*
X58833333Y-109597676D02*
X58928571Y-109502438D01*
X58928571Y-109502438D02*
X59071428Y-109454819D01*
X59071428Y-109454819D02*
X59166666Y-109454819D01*
X59166666Y-109454819D02*
X59309523Y-109502438D01*
X59309523Y-109502438D02*
X59357142Y-109550057D01*
X59738095Y-109550057D02*
X59785714Y-109502438D01*
X59785714Y-109502438D02*
X59880952Y-109454819D01*
X59880952Y-109454819D02*
X60119047Y-109454819D01*
X60119047Y-109454819D02*
X60214285Y-109502438D01*
X60214285Y-109502438D02*
X60261904Y-109550057D01*
X60261904Y-109550057D02*
X60309523Y-109645295D01*
X60309523Y-109645295D02*
X60309523Y-109740533D01*
X60309523Y-109740533D02*
X60261904Y-109883390D01*
X60261904Y-109883390D02*
X59690476Y-110454819D01*
X59690476Y-110454819D02*
X60309523Y-110454819D01*
X60642857Y-109454819D02*
X61261904Y-109454819D01*
X61261904Y-109454819D02*
X60928571Y-109835771D01*
X60928571Y-109835771D02*
X61071428Y-109835771D01*
X61071428Y-109835771D02*
X61166666Y-109883390D01*
X61166666Y-109883390D02*
X61214285Y-109931009D01*
X61214285Y-109931009D02*
X61261904Y-110026247D01*
X61261904Y-110026247D02*
X61261904Y-110264342D01*
X61261904Y-110264342D02*
X61214285Y-110359580D01*
X61214285Y-110359580D02*
X61166666Y-110407200D01*
X61166666Y-110407200D02*
X61071428Y-110454819D01*
X61071428Y-110454819D02*
X60785714Y-110454819D01*
X60785714Y-110454819D02*
X60690476Y-110407200D01*
X60690476Y-110407200D02*
X60642857Y-110359580D01*
X90832142Y-36509580D02*
X90784523Y-36557200D01*
X90784523Y-36557200D02*
X90641666Y-36604819D01*
X90641666Y-36604819D02*
X90546428Y-36604819D01*
X90546428Y-36604819D02*
X90403571Y-36557200D01*
X90403571Y-36557200D02*
X90308333Y-36461961D01*
X90308333Y-36461961D02*
X90260714Y-36366723D01*
X90260714Y-36366723D02*
X90213095Y-36176247D01*
X90213095Y-36176247D02*
X90213095Y-36033390D01*
X90213095Y-36033390D02*
X90260714Y-35842914D01*
X90260714Y-35842914D02*
X90308333Y-35747676D01*
X90308333Y-35747676D02*
X90403571Y-35652438D01*
X90403571Y-35652438D02*
X90546428Y-35604819D01*
X90546428Y-35604819D02*
X90641666Y-35604819D01*
X90641666Y-35604819D02*
X90784523Y-35652438D01*
X90784523Y-35652438D02*
X90832142Y-35700057D01*
X91784523Y-36604819D02*
X91213095Y-36604819D01*
X91498809Y-36604819D02*
X91498809Y-35604819D01*
X91498809Y-35604819D02*
X91403571Y-35747676D01*
X91403571Y-35747676D02*
X91308333Y-35842914D01*
X91308333Y-35842914D02*
X91213095Y-35890533D01*
X92117857Y-35604819D02*
X92736904Y-35604819D01*
X92736904Y-35604819D02*
X92403571Y-35985771D01*
X92403571Y-35985771D02*
X92546428Y-35985771D01*
X92546428Y-35985771D02*
X92641666Y-36033390D01*
X92641666Y-36033390D02*
X92689285Y-36081009D01*
X92689285Y-36081009D02*
X92736904Y-36176247D01*
X92736904Y-36176247D02*
X92736904Y-36414342D01*
X92736904Y-36414342D02*
X92689285Y-36509580D01*
X92689285Y-36509580D02*
X92641666Y-36557200D01*
X92641666Y-36557200D02*
X92546428Y-36604819D01*
X92546428Y-36604819D02*
X92260714Y-36604819D01*
X92260714Y-36604819D02*
X92165476Y-36557200D01*
X92165476Y-36557200D02*
X92117857Y-36509580D01*
X90557142Y-85309580D02*
X90509523Y-85357200D01*
X90509523Y-85357200D02*
X90366666Y-85404819D01*
X90366666Y-85404819D02*
X90271428Y-85404819D01*
X90271428Y-85404819D02*
X90128571Y-85357200D01*
X90128571Y-85357200D02*
X90033333Y-85261961D01*
X90033333Y-85261961D02*
X89985714Y-85166723D01*
X89985714Y-85166723D02*
X89938095Y-84976247D01*
X89938095Y-84976247D02*
X89938095Y-84833390D01*
X89938095Y-84833390D02*
X89985714Y-84642914D01*
X89985714Y-84642914D02*
X90033333Y-84547676D01*
X90033333Y-84547676D02*
X90128571Y-84452438D01*
X90128571Y-84452438D02*
X90271428Y-84404819D01*
X90271428Y-84404819D02*
X90366666Y-84404819D01*
X90366666Y-84404819D02*
X90509523Y-84452438D01*
X90509523Y-84452438D02*
X90557142Y-84500057D01*
X90890476Y-84404819D02*
X91509523Y-84404819D01*
X91509523Y-84404819D02*
X91176190Y-84785771D01*
X91176190Y-84785771D02*
X91319047Y-84785771D01*
X91319047Y-84785771D02*
X91414285Y-84833390D01*
X91414285Y-84833390D02*
X91461904Y-84881009D01*
X91461904Y-84881009D02*
X91509523Y-84976247D01*
X91509523Y-84976247D02*
X91509523Y-85214342D01*
X91509523Y-85214342D02*
X91461904Y-85309580D01*
X91461904Y-85309580D02*
X91414285Y-85357200D01*
X91414285Y-85357200D02*
X91319047Y-85404819D01*
X91319047Y-85404819D02*
X91033333Y-85404819D01*
X91033333Y-85404819D02*
X90938095Y-85357200D01*
X90938095Y-85357200D02*
X90890476Y-85309580D01*
X92128571Y-84404819D02*
X92223809Y-84404819D01*
X92223809Y-84404819D02*
X92319047Y-84452438D01*
X92319047Y-84452438D02*
X92366666Y-84500057D01*
X92366666Y-84500057D02*
X92414285Y-84595295D01*
X92414285Y-84595295D02*
X92461904Y-84785771D01*
X92461904Y-84785771D02*
X92461904Y-85023866D01*
X92461904Y-85023866D02*
X92414285Y-85214342D01*
X92414285Y-85214342D02*
X92366666Y-85309580D01*
X92366666Y-85309580D02*
X92319047Y-85357200D01*
X92319047Y-85357200D02*
X92223809Y-85404819D01*
X92223809Y-85404819D02*
X92128571Y-85404819D01*
X92128571Y-85404819D02*
X92033333Y-85357200D01*
X92033333Y-85357200D02*
X91985714Y-85309580D01*
X91985714Y-85309580D02*
X91938095Y-85214342D01*
X91938095Y-85214342D02*
X91890476Y-85023866D01*
X91890476Y-85023866D02*
X91890476Y-84785771D01*
X91890476Y-84785771D02*
X91938095Y-84595295D01*
X91938095Y-84595295D02*
X91985714Y-84500057D01*
X91985714Y-84500057D02*
X92033333Y-84452438D01*
X92033333Y-84452438D02*
X92128571Y-84404819D01*
X92957142Y-61309580D02*
X92909523Y-61357200D01*
X92909523Y-61357200D02*
X92766666Y-61404819D01*
X92766666Y-61404819D02*
X92671428Y-61404819D01*
X92671428Y-61404819D02*
X92528571Y-61357200D01*
X92528571Y-61357200D02*
X92433333Y-61261961D01*
X92433333Y-61261961D02*
X92385714Y-61166723D01*
X92385714Y-61166723D02*
X92338095Y-60976247D01*
X92338095Y-60976247D02*
X92338095Y-60833390D01*
X92338095Y-60833390D02*
X92385714Y-60642914D01*
X92385714Y-60642914D02*
X92433333Y-60547676D01*
X92433333Y-60547676D02*
X92528571Y-60452438D01*
X92528571Y-60452438D02*
X92671428Y-60404819D01*
X92671428Y-60404819D02*
X92766666Y-60404819D01*
X92766666Y-60404819D02*
X92909523Y-60452438D01*
X92909523Y-60452438D02*
X92957142Y-60500057D01*
X93338095Y-60500057D02*
X93385714Y-60452438D01*
X93385714Y-60452438D02*
X93480952Y-60404819D01*
X93480952Y-60404819D02*
X93719047Y-60404819D01*
X93719047Y-60404819D02*
X93814285Y-60452438D01*
X93814285Y-60452438D02*
X93861904Y-60500057D01*
X93861904Y-60500057D02*
X93909523Y-60595295D01*
X93909523Y-60595295D02*
X93909523Y-60690533D01*
X93909523Y-60690533D02*
X93861904Y-60833390D01*
X93861904Y-60833390D02*
X93290476Y-61404819D01*
X93290476Y-61404819D02*
X93909523Y-61404819D01*
X94766666Y-60738152D02*
X94766666Y-61404819D01*
X94528571Y-60357200D02*
X94290476Y-61071485D01*
X94290476Y-61071485D02*
X94909523Y-61071485D01*
X83793405Y-55289819D02*
X83793405Y-56099342D01*
X83793405Y-56099342D02*
X83841024Y-56194580D01*
X83841024Y-56194580D02*
X83888643Y-56242200D01*
X83888643Y-56242200D02*
X83983881Y-56289819D01*
X83983881Y-56289819D02*
X84174357Y-56289819D01*
X84174357Y-56289819D02*
X84269595Y-56242200D01*
X84269595Y-56242200D02*
X84317214Y-56194580D01*
X84317214Y-56194580D02*
X84364833Y-56099342D01*
X84364833Y-56099342D02*
X84364833Y-55289819D01*
X84793405Y-55385057D02*
X84841024Y-55337438D01*
X84841024Y-55337438D02*
X84936262Y-55289819D01*
X84936262Y-55289819D02*
X85174357Y-55289819D01*
X85174357Y-55289819D02*
X85269595Y-55337438D01*
X85269595Y-55337438D02*
X85317214Y-55385057D01*
X85317214Y-55385057D02*
X85364833Y-55480295D01*
X85364833Y-55480295D02*
X85364833Y-55575533D01*
X85364833Y-55575533D02*
X85317214Y-55718390D01*
X85317214Y-55718390D02*
X84745786Y-56289819D01*
X84745786Y-56289819D02*
X85364833Y-56289819D01*
X85983881Y-55289819D02*
X86079119Y-55289819D01*
X86079119Y-55289819D02*
X86174357Y-55337438D01*
X86174357Y-55337438D02*
X86221976Y-55385057D01*
X86221976Y-55385057D02*
X86269595Y-55480295D01*
X86269595Y-55480295D02*
X86317214Y-55670771D01*
X86317214Y-55670771D02*
X86317214Y-55908866D01*
X86317214Y-55908866D02*
X86269595Y-56099342D01*
X86269595Y-56099342D02*
X86221976Y-56194580D01*
X86221976Y-56194580D02*
X86174357Y-56242200D01*
X86174357Y-56242200D02*
X86079119Y-56289819D01*
X86079119Y-56289819D02*
X85983881Y-56289819D01*
X85983881Y-56289819D02*
X85888643Y-56242200D01*
X85888643Y-56242200D02*
X85841024Y-56194580D01*
X85841024Y-56194580D02*
X85793405Y-56099342D01*
X85793405Y-56099342D02*
X85745786Y-55908866D01*
X85745786Y-55908866D02*
X85745786Y-55670771D01*
X85745786Y-55670771D02*
X85793405Y-55480295D01*
X85793405Y-55480295D02*
X85841024Y-55385057D01*
X85841024Y-55385057D02*
X85888643Y-55337438D01*
X85888643Y-55337438D02*
X85983881Y-55289819D01*
X61557142Y-31559580D02*
X61509523Y-31607200D01*
X61509523Y-31607200D02*
X61366666Y-31654819D01*
X61366666Y-31654819D02*
X61271428Y-31654819D01*
X61271428Y-31654819D02*
X61128571Y-31607200D01*
X61128571Y-31607200D02*
X61033333Y-31511961D01*
X61033333Y-31511961D02*
X60985714Y-31416723D01*
X60985714Y-31416723D02*
X60938095Y-31226247D01*
X60938095Y-31226247D02*
X60938095Y-31083390D01*
X60938095Y-31083390D02*
X60985714Y-30892914D01*
X60985714Y-30892914D02*
X61033333Y-30797676D01*
X61033333Y-30797676D02*
X61128571Y-30702438D01*
X61128571Y-30702438D02*
X61271428Y-30654819D01*
X61271428Y-30654819D02*
X61366666Y-30654819D01*
X61366666Y-30654819D02*
X61509523Y-30702438D01*
X61509523Y-30702438D02*
X61557142Y-30750057D01*
X62509523Y-31654819D02*
X61938095Y-31654819D01*
X62223809Y-31654819D02*
X62223809Y-30654819D01*
X62223809Y-30654819D02*
X62128571Y-30797676D01*
X62128571Y-30797676D02*
X62033333Y-30892914D01*
X62033333Y-30892914D02*
X61938095Y-30940533D01*
X63414285Y-30654819D02*
X62938095Y-30654819D01*
X62938095Y-30654819D02*
X62890476Y-31131009D01*
X62890476Y-31131009D02*
X62938095Y-31083390D01*
X62938095Y-31083390D02*
X63033333Y-31035771D01*
X63033333Y-31035771D02*
X63271428Y-31035771D01*
X63271428Y-31035771D02*
X63366666Y-31083390D01*
X63366666Y-31083390D02*
X63414285Y-31131009D01*
X63414285Y-31131009D02*
X63461904Y-31226247D01*
X63461904Y-31226247D02*
X63461904Y-31464342D01*
X63461904Y-31464342D02*
X63414285Y-31559580D01*
X63414285Y-31559580D02*
X63366666Y-31607200D01*
X63366666Y-31607200D02*
X63271428Y-31654819D01*
X63271428Y-31654819D02*
X63033333Y-31654819D01*
X63033333Y-31654819D02*
X62938095Y-31607200D01*
X62938095Y-31607200D02*
X62890476Y-31559580D01*
X55157142Y-103959580D02*
X55109523Y-104007200D01*
X55109523Y-104007200D02*
X54966666Y-104054819D01*
X54966666Y-104054819D02*
X54871428Y-104054819D01*
X54871428Y-104054819D02*
X54728571Y-104007200D01*
X54728571Y-104007200D02*
X54633333Y-103911961D01*
X54633333Y-103911961D02*
X54585714Y-103816723D01*
X54585714Y-103816723D02*
X54538095Y-103626247D01*
X54538095Y-103626247D02*
X54538095Y-103483390D01*
X54538095Y-103483390D02*
X54585714Y-103292914D01*
X54585714Y-103292914D02*
X54633333Y-103197676D01*
X54633333Y-103197676D02*
X54728571Y-103102438D01*
X54728571Y-103102438D02*
X54871428Y-103054819D01*
X54871428Y-103054819D02*
X54966666Y-103054819D01*
X54966666Y-103054819D02*
X55109523Y-103102438D01*
X55109523Y-103102438D02*
X55157142Y-103150057D01*
X55538095Y-103150057D02*
X55585714Y-103102438D01*
X55585714Y-103102438D02*
X55680952Y-103054819D01*
X55680952Y-103054819D02*
X55919047Y-103054819D01*
X55919047Y-103054819D02*
X56014285Y-103102438D01*
X56014285Y-103102438D02*
X56061904Y-103150057D01*
X56061904Y-103150057D02*
X56109523Y-103245295D01*
X56109523Y-103245295D02*
X56109523Y-103340533D01*
X56109523Y-103340533D02*
X56061904Y-103483390D01*
X56061904Y-103483390D02*
X55490476Y-104054819D01*
X55490476Y-104054819D02*
X56109523Y-104054819D01*
X56585714Y-104054819D02*
X56776190Y-104054819D01*
X56776190Y-104054819D02*
X56871428Y-104007200D01*
X56871428Y-104007200D02*
X56919047Y-103959580D01*
X56919047Y-103959580D02*
X57014285Y-103816723D01*
X57014285Y-103816723D02*
X57061904Y-103626247D01*
X57061904Y-103626247D02*
X57061904Y-103245295D01*
X57061904Y-103245295D02*
X57014285Y-103150057D01*
X57014285Y-103150057D02*
X56966666Y-103102438D01*
X56966666Y-103102438D02*
X56871428Y-103054819D01*
X56871428Y-103054819D02*
X56680952Y-103054819D01*
X56680952Y-103054819D02*
X56585714Y-103102438D01*
X56585714Y-103102438D02*
X56538095Y-103150057D01*
X56538095Y-103150057D02*
X56490476Y-103245295D01*
X56490476Y-103245295D02*
X56490476Y-103483390D01*
X56490476Y-103483390D02*
X56538095Y-103578628D01*
X56538095Y-103578628D02*
X56585714Y-103626247D01*
X56585714Y-103626247D02*
X56680952Y-103673866D01*
X56680952Y-103673866D02*
X56871428Y-103673866D01*
X56871428Y-103673866D02*
X56966666Y-103626247D01*
X56966666Y-103626247D02*
X57014285Y-103578628D01*
X57014285Y-103578628D02*
X57061904Y-103483390D01*
D11*
%TO.C,U21*%
X85275500Y-38411000D02*
X81675500Y-38411000D01*
X85275500Y-38411000D02*
X87475500Y-38411000D01*
X85275500Y-43631000D02*
X83075500Y-43631000D01*
X85275500Y-43631000D02*
X87475500Y-43631000D01*
%TO.C,C28*%
X58688748Y-77090000D02*
X60111252Y-77090000D01*
X58688748Y-78910000D02*
X60111252Y-78910000D01*
%TO.C,C27*%
X59488748Y-53690000D02*
X60911252Y-53690000D01*
X59488748Y-55510000D02*
X60911252Y-55510000D01*
D12*
%TO.C,J1*%
X31800000Y-29200000D02*
X44420000Y-29200000D01*
X31800000Y-123200000D02*
X31800000Y-29200000D01*
X44420000Y-29210000D02*
X44420000Y-34290000D01*
X44420000Y-118110000D02*
X44420000Y-123190000D01*
X44420000Y-123200000D02*
X31800000Y-123200000D01*
D13*
X43090000Y-115570000D02*
G75*
G02*
X42890000Y-115570000I-100000J0D01*
G01*
X42890000Y-115570000D02*
G75*
G02*
X43090000Y-115570000I100000J0D01*
G01*
D11*
%TO.C,C25*%
X93013748Y-73890000D02*
X94436252Y-73890000D01*
X93013748Y-75710000D02*
X94436252Y-75710000D01*
%TO.C,U17*%
X87249000Y-75114000D02*
X83649000Y-75114000D01*
X87249000Y-75114000D02*
X89449000Y-75114000D01*
X87249000Y-80334000D02*
X85049000Y-80334000D01*
X87249000Y-80334000D02*
X89449000Y-80334000D01*
%TO.C,U14*%
X84640500Y-101448000D02*
X81040500Y-101448000D01*
X84640500Y-101448000D02*
X86840500Y-101448000D01*
X84640500Y-106668000D02*
X82440500Y-106668000D01*
X84640500Y-106668000D02*
X86840500Y-106668000D01*
%TO.C,U19*%
X58800000Y-63340000D02*
X58800000Y-63575000D01*
X58800000Y-76360000D02*
X58800000Y-76125000D01*
X62660000Y-63340000D02*
X58800000Y-63340000D01*
X62660000Y-63340000D02*
X66520000Y-63340000D01*
X62660000Y-76360000D02*
X58800000Y-76360000D01*
X62660000Y-76360000D02*
X66520000Y-76360000D01*
X66520000Y-63340000D02*
X66520000Y-63575000D01*
X66520000Y-76125000D02*
X68335000Y-76125000D01*
X66520000Y-76360000D02*
X66520000Y-76125000D01*
%TO.C,U16*%
X58800000Y-88740000D02*
X58800000Y-88975000D01*
X58800000Y-101760000D02*
X58800000Y-101525000D01*
X62660000Y-88740000D02*
X58800000Y-88740000D01*
X62660000Y-88740000D02*
X66520000Y-88740000D01*
X62660000Y-101760000D02*
X58800000Y-101760000D01*
X62660000Y-101760000D02*
X66520000Y-101760000D01*
X66520000Y-88740000D02*
X66520000Y-88975000D01*
X66520000Y-101525000D02*
X68335000Y-101525000D01*
X66520000Y-101760000D02*
X66520000Y-101525000D01*
%TO.C,U22*%
X59435000Y-39845000D02*
X59435000Y-40080000D01*
X59435000Y-52865000D02*
X59435000Y-52630000D01*
X63295000Y-39845000D02*
X59435000Y-39845000D01*
X63295000Y-39845000D02*
X67155000Y-39845000D01*
X63295000Y-52865000D02*
X59435000Y-52865000D01*
X63295000Y-52865000D02*
X67155000Y-52865000D01*
X67155000Y-39845000D02*
X67155000Y-40080000D01*
X67155000Y-52630000D02*
X68970000Y-52630000D01*
X67155000Y-52865000D02*
X67155000Y-52630000D01*
%TO.C,U15*%
X84836000Y-87814000D02*
X81236000Y-87814000D01*
X84836000Y-87814000D02*
X87036000Y-87814000D01*
X84836000Y-93034000D02*
X82636000Y-93034000D01*
X84836000Y-93034000D02*
X87036000Y-93034000D01*
%TO.C,U18*%
X87249000Y-62922000D02*
X83649000Y-62922000D01*
X87249000Y-62922000D02*
X89449000Y-62922000D01*
X87249000Y-68142000D02*
X85049000Y-68142000D01*
X87249000Y-68142000D02*
X89449000Y-68142000D01*
%TO.C,C14*%
X90688748Y-48090000D02*
X92111252Y-48090000D01*
X90688748Y-49910000D02*
X92111252Y-49910000D01*
%TO.C,C26*%
X90413748Y-99490000D02*
X91836252Y-99490000D01*
X90413748Y-101310000D02*
X91836252Y-101310000D01*
%TO.C,U29*%
X56954500Y-32037000D02*
X53354500Y-32037000D01*
X56954500Y-32037000D02*
X59154500Y-32037000D01*
X56954500Y-37507000D02*
X54754500Y-37507000D01*
X56954500Y-37507000D02*
X59154500Y-37507000D01*
%TO.C,U13*%
X57305000Y-111600000D02*
X57305000Y-111835000D01*
X57305000Y-111835000D02*
X55490000Y-111835000D01*
X57305000Y-124620000D02*
X57305000Y-124385000D01*
X61165000Y-111600000D02*
X57305000Y-111600000D01*
X61165000Y-111600000D02*
X65025000Y-111600000D01*
X61165000Y-124620000D02*
X57305000Y-124620000D01*
X61165000Y-124620000D02*
X65025000Y-124620000D01*
X65025000Y-111600000D02*
X65025000Y-111835000D01*
X65025000Y-124620000D02*
X65025000Y-124385000D01*
%TO.C,C23*%
X65111252Y-109090000D02*
X63688748Y-109090000D01*
X65111252Y-110910000D02*
X63688748Y-110910000D01*
%TO.C,C13*%
X90763748Y-37090000D02*
X92186252Y-37090000D01*
X90763748Y-38910000D02*
X92186252Y-38910000D01*
%TO.C,C30*%
X90488748Y-85890000D02*
X91911252Y-85890000D01*
X90488748Y-87710000D02*
X91911252Y-87710000D01*
%TO.C,C24*%
X92888748Y-61890000D02*
X94311252Y-61890000D01*
X92888748Y-63710000D02*
X94311252Y-63710000D01*
%TO.C,U20*%
X85090000Y-49714000D02*
X81490000Y-49714000D01*
X85090000Y-49714000D02*
X87290000Y-49714000D01*
X85090000Y-54934000D02*
X82890000Y-54934000D01*
X85090000Y-54934000D02*
X87290000Y-54934000D01*
%TO.C,C15*%
X59111252Y-29890000D02*
X57688748Y-29890000D01*
X59111252Y-31710000D02*
X57688748Y-31710000D01*
%TO.C,C29*%
X58888748Y-102490000D02*
X60311252Y-102490000D01*
X58888748Y-104310000D02*
X60311252Y-104310000D01*
%TD*%
M02*
