M48
; DRILL file {KiCad 8.0.5-8.0.5-0~ubuntu24.04.1} date 2024-09-12T21:54:17+0300
; FORMAT={-:-/ absolute / inch / decimal}
; #@! TF.CreationDate,2024-09-12T21:54:17+03:00
; #@! TF.GenerationSoftware,Kicad,Pcbnew,8.0.5-8.0.5-0~ubuntu24.04.1
; #@! TF.FileFunction,Plated,1,4,PTH
FMAT,2
INCH
; #@! TA.AperFunction,Plated,PTH,ViaDrill
T1C0.0079
; #@! TA.AperFunction,Plated,PTH,ComponentDrill
T2C0.0394
%
G90
G05
T1
X1.7854Y-1.4016
X2.0Y-2.525
X2.025Y-2.575
X2.05Y-2.625
X2.075Y-2.675
X2.1Y-2.72
X2.12Y-2.77
X2.15Y-2.825
X2.175Y-2.87
X2.1811Y-1.2677
X2.1811Y-1.3307
X2.1811Y-1.4331
X2.1969Y-1.2972
X2.1969Y-1.4075
X2.2126Y-2.5276
X2.2126Y-2.5748
X2.2126Y-2.622
X2.2126Y-2.6772
X2.2126Y-2.7165
X2.2126Y-2.7717
X2.2126Y-2.8268
X2.2126Y-2.8661
X2.3Y-4.475
X2.3Y-4.525
X2.3Y-4.575
X2.3Y-4.625
X2.3Y-4.675
X2.3Y-4.725
X2.3Y-4.775
X2.3Y-4.825
X2.31Y-1.405
X2.34Y-3.525
X2.34Y-3.575
X2.34Y-3.625
X2.34Y-3.675
X2.34Y-3.725
X2.34Y-3.775
X2.34Y-3.825
X2.34Y-3.875
X2.35Y-2.525
X2.35Y-2.575
X2.35Y-2.625
X2.35Y-2.675
X2.35Y-2.725
X2.35Y-2.775
X2.35Y-2.825
X2.35Y-2.875
X2.375Y-1.6
X2.375Y-1.65
X2.375Y-1.7
X2.375Y-1.75
X2.375Y-1.8
X2.375Y-1.85
X2.375Y-1.9
X2.375Y-1.95
X2.405Y-1.46
X2.4331Y-4.3307
X2.4567Y-4.0709
X2.4646Y-3.0787
X2.4803Y-2.1496
X2.4902Y-2.5764
X2.4902Y-2.6264
X2.4902Y-2.6764
X2.4902Y-2.7264
X2.4902Y-2.7764
X2.4902Y-2.8264
X2.4902Y-2.8764
X2.4902Y-2.9264
X2.4902Y-2.9764
X2.5Y-3.5705
X2.5Y-3.6205
X2.5Y-3.6705
X2.5Y-3.7205
X2.5Y-3.7705
X2.5Y-3.8205
X2.5Y-3.8705
X2.5Y-3.9205
X2.5Y-3.9705
X2.525Y-4.525
X2.525Y-4.575
X2.525Y-4.625
X2.525Y-4.675
X2.525Y-4.725
X2.525Y-4.775
X2.525Y-4.825
X2.525Y-4.875
X2.585Y-2.975
X2.59Y-3.975
X2.5984Y-1.2795
X2.5984Y-1.3554
X2.5984Y-1.4272
X2.5984Y-1.5031
X2.5984Y-1.6512
X2.5984Y-1.7012
X2.5984Y-1.7512
X2.5984Y-1.8012
X2.5984Y-1.8512
X2.5984Y-1.9012
X2.5984Y-1.9512
X2.5984Y-2.0012
X2.5984Y-3.1299
X2.5984Y-3.2058
X2.5984Y-3.2776
X2.5984Y-3.3534
X2.65Y-4.525
X2.65Y-4.575
X2.65Y-4.625
X2.65Y-4.675
X2.65Y-4.725
X2.65Y-4.775
X2.65Y-4.825
X2.65Y-4.875
X2.6673Y-1.2795
X2.6673Y-1.3554
X2.6673Y-1.4272
X2.6673Y-1.5031
X2.6673Y-3.1299
X2.6673Y-3.2058
X2.6673Y-3.2776
X2.6673Y-3.3534
X2.71Y-2.725
X2.715Y-2.575
X2.715Y-2.625
X2.715Y-2.675
X2.715Y-2.775
X2.715Y-2.825
X2.715Y-2.875
X2.715Y-2.925
X2.715Y-3.575
X2.715Y-3.625
X2.715Y-3.675
X2.715Y-3.725
X2.715Y-3.775
X2.715Y-3.825
X2.715Y-3.875
X2.715Y-3.925
X2.735Y-1.65
X2.735Y-1.7
X2.735Y-1.75
X2.735Y-1.8
X2.735Y-1.85
X2.735Y-1.9
X2.735Y-1.95
X2.735Y-2.0
X2.7362Y-1.2795
X2.7362Y-1.3554
X2.7362Y-1.4272
X2.7362Y-1.5031
X2.7362Y-3.1299
X2.7362Y-3.2058
X2.7362Y-3.2776
X2.7362Y-3.3534
X2.8051Y-1.2795
X2.8051Y-1.3554
X2.8051Y-1.4272
X2.8051Y-1.5031
X2.8051Y-3.1299
X2.8051Y-3.2058
X2.8051Y-3.2776
X2.8051Y-3.3534
X2.9724Y-4.3898
X2.9724Y-4.4657
X2.9724Y-4.5374
X2.9724Y-4.6133
X3.0413Y-4.3898
X3.0413Y-4.4657
X3.0413Y-4.5374
X3.0413Y-4.6133
X3.1102Y-4.3898
X3.1102Y-4.4657
X3.1102Y-4.5374
X3.1102Y-4.6133
X3.1496Y-4.145
X3.1575Y-4.1732
X3.1594Y-3.61
X3.165Y-4.07
X3.1654Y-3.6378
X3.1791Y-4.3898
X3.1791Y-4.4657
X3.1791Y-4.5374
X3.1791Y-4.6133
X3.18Y-2.11
X3.18Y-3.535
X3.1811Y-2.1417
X3.185Y-2.035
X3.189Y-1.6929
X3.195Y-1.5882
X3.195Y-1.6632
X3.2205Y-4.2205
X3.2283Y-3.6772
X3.2362Y-2.1811
X3.2441Y-1.7323
X3.2677Y-2.6693
X3.2677Y-3.1417
X3.2677Y-4.0709
X3.2677Y-4.1339
X3.27Y-2.555
X3.27Y-3.035
X3.275Y-2.63
X3.275Y-3.11
X3.2756Y-4.0039
X3.2756Y-4.1732
X3.2835Y-1.9843
X3.2835Y-2.063
X3.2835Y-2.1339
X3.2835Y-3.5433
X3.2835Y-3.6063
X3.2835Y-3.6378
X3.2913Y-1.5354
X3.2913Y-1.6004
X3.2913Y-1.6929
X3.2913Y-3.4705
X3.305Y-1.6254
X3.3228Y-2.7008
X3.3228Y-3.1811
X3.3563Y-2.0709
X3.3602Y-3.5079
X3.3701Y-2.1339
X3.3701Y-2.5039
X3.3701Y-2.5827
X3.3701Y-2.6614
X3.3701Y-4.189
X3.378Y-2.9843
X3.378Y-3.0551
X3.378Y-3.1339
X3.3799Y-4.0472
X3.3858Y-4.126
X3.4Y-4.095
X3.4016Y-3.5906
X3.4035Y-1.6142
X3.405Y-4.17
X3.41Y-2.135
X3.41Y-3.56
X3.41Y-3.635
X3.415Y-2.06
X3.4193Y-1.6614
X3.4232Y-1.5906
X3.43Y-1.6882
X3.4311Y-1.4508
X3.4331Y-1.4882
X3.4587Y-2.5748
X3.4705Y-2.6575
X3.4803Y-1.4882
X3.4823Y-1.4528
X3.5Y-2.58
X3.5Y-2.6575
X3.5Y-3.06
X3.505Y-3.135
X3.695Y-1.59
X3.715Y-1.67
X3.74Y-1.425
X3.74Y-2.56
X3.74Y-3.515
X3.76Y-1.4
X3.76Y-2.635
X3.76Y-3.59
X3.78Y-2.035
X3.785Y-2.385
X3.785Y-3.365
X3.805Y-2.365
X3.805Y-3.34
X3.815Y-2.11
X3.83Y-3.035
X3.83Y-4.045
X3.8344Y-1.885
X3.85Y-3.115
X3.85Y-4.125
X3.8544Y-1.8628
X3.87Y-2.85
X3.87Y-3.88
X3.89Y-2.83
X3.89Y-3.855
X4.0059Y-1.3484
X4.0059Y-1.4243
X4.0059Y-1.4961
X4.0059Y-1.572
X4.0059Y-1.8799
X4.0059Y-1.9558
X4.0059Y-2.0276
X4.0059Y-2.1034
X4.0059Y-2.3819
X4.0059Y-2.4578
X4.0059Y-2.5295
X4.0059Y-2.6054
X4.0059Y-2.874
X4.0059Y-2.9499
X4.0059Y-3.0217
X4.0059Y-3.0975
X4.0059Y-3.4055
X4.0059Y-3.4814
X4.0059Y-3.5531
X4.0059Y-3.629
X4.0059Y-3.8878
X4.0059Y-3.9637
X4.0059Y-4.0354
X4.0059Y-4.1113
X4.0748Y-1.3484
X4.0748Y-1.4243
X4.0748Y-1.4961
X4.0748Y-1.572
X4.0748Y-1.8799
X4.0748Y-1.9558
X4.0748Y-2.0276
X4.0748Y-2.1034
X4.0748Y-2.3819
X4.0748Y-2.4578
X4.0748Y-2.5295
X4.0748Y-2.6054
X4.0748Y-2.874
X4.0748Y-2.9499
X4.0748Y-3.0217
X4.0748Y-3.0975
X4.0748Y-3.4055
X4.0748Y-3.4814
X4.0748Y-3.5531
X4.0748Y-3.629
X4.0748Y-3.8878
X4.0748Y-3.9637
X4.0748Y-4.0354
X4.0748Y-4.1113
X4.1437Y-1.3484
X4.1437Y-1.4243
X4.1437Y-1.4961
X4.1437Y-1.572
X4.1437Y-1.8799
X4.1437Y-1.9558
X4.1437Y-2.0276
X4.1437Y-2.1034
X4.1437Y-2.3819
X4.1437Y-2.4578
X4.1437Y-2.5295
X4.1437Y-2.6054
X4.1437Y-2.874
X4.1437Y-2.9499
X4.1437Y-3.0217
X4.1437Y-3.0975
X4.1437Y-3.4055
X4.1437Y-3.4814
X4.1437Y-3.5531
X4.1437Y-3.629
X4.1437Y-3.8878
X4.1437Y-3.9637
X4.1437Y-4.0354
X4.1437Y-4.1113
X4.2126Y-1.3484
X4.2126Y-1.4243
X4.2126Y-1.4961
X4.2126Y-1.572
X4.2126Y-1.8799
X4.2126Y-1.9558
X4.2126Y-2.0276
X4.2126Y-2.1034
X4.2126Y-2.3819
X4.2126Y-2.4578
X4.2126Y-2.5295
X4.2126Y-2.6054
X4.2126Y-2.874
X4.2126Y-2.9499
X4.2126Y-3.0217
X4.2126Y-3.0975
X4.2126Y-3.4055
X4.2126Y-3.4814
X4.2126Y-3.5531
X4.2126Y-3.629
X4.2126Y-3.8878
X4.2126Y-3.9637
X4.2126Y-4.0354
X4.2126Y-4.1113
X4.385Y-1.755
X4.41Y-1.735
X4.42Y-2.72
X4.42Y-3.695
X4.45Y-2.7
X4.45Y-3.675
X4.47Y-1.7706
X4.485Y-2.74
X4.485Y-3.72
X4.5Y-1.79
X4.51Y-2.76
X4.51Y-3.74
X4.53Y-2.225
X4.53Y-3.195
X4.53Y-4.25
X4.55Y-2.2
X4.55Y-3.17
X4.55Y-4.225
X4.57Y-3.23
X4.57Y-4.275
X4.5706Y-2.245
X4.59Y-2.275
X4.59Y-3.255
X4.59Y-4.305
T2
X1.75Y-1.45
X1.75Y-1.55
X1.75Y-1.65
X1.75Y-1.75
X1.75Y-1.85
X1.75Y-1.95
X1.75Y-2.05
X1.75Y-2.15
X1.75Y-2.25
X1.75Y-2.35
X1.75Y-2.45
X1.75Y-2.55
X1.75Y-2.65
X1.75Y-2.75
X1.75Y-2.85
X1.75Y-2.95
X1.75Y-3.05
X1.75Y-3.15
X1.75Y-3.25
X1.75Y-3.35
X1.75Y-3.45
X1.75Y-3.55
X1.75Y-3.65
X1.75Y-3.75
X1.75Y-3.85
X1.75Y-3.95
X1.75Y-4.05
X1.75Y-4.15
X1.75Y-4.25
X1.75Y-4.35
X1.75Y-4.45
X1.75Y-4.55
X1.85Y-1.45
X1.85Y-1.55
X1.85Y-1.65
X1.85Y-1.75
X1.85Y-1.85
X1.85Y-1.95
X1.85Y-2.05
X1.85Y-2.15
X1.85Y-2.25
X1.85Y-2.35
X1.85Y-2.45
X1.85Y-2.55
X1.85Y-2.65
X1.85Y-2.75
X1.85Y-2.85
X1.85Y-2.95
X1.85Y-3.05
X1.85Y-3.15
X1.85Y-3.25
X1.85Y-3.35
X1.85Y-3.45
X1.85Y-3.55
X1.85Y-3.65
X1.85Y-3.75
X1.85Y-3.85
X1.85Y-3.95
X1.85Y-4.05
X1.85Y-4.15
X1.85Y-4.25
X1.85Y-4.35
X1.85Y-4.45
X1.85Y-4.55
X1.95Y-1.45
X1.95Y-1.55
X1.95Y-1.65
X1.95Y-1.75
X1.95Y-1.85
X1.95Y-1.95
X1.95Y-2.05
X1.95Y-2.15
X1.95Y-2.25
X1.95Y-2.35
X1.95Y-2.45
X1.95Y-2.55
X1.95Y-2.65
X1.95Y-2.75
X1.95Y-2.85
X1.95Y-2.95
X1.95Y-3.05
X1.95Y-3.15
X1.95Y-3.25
X1.95Y-3.35
X1.95Y-3.45
X1.95Y-3.55
X1.95Y-3.65
X1.95Y-3.75
X1.95Y-3.85
X1.95Y-3.95
X1.95Y-4.05
X1.95Y-4.15
X1.95Y-4.25
X1.95Y-4.35
X1.95Y-4.45
X1.95Y-4.55
M30
