%TF.GenerationSoftware,KiCad,Pcbnew,8.0.5-8.0.5-0~ubuntu24.04.1*%
%TF.CreationDate,2024-09-12T21:54:20+03:00*%
%TF.ProjectId,alu,616c752e-6b69-4636-9164-5f7063625858,rev?*%
%TF.SameCoordinates,Original*%
%TF.FileFunction,Drillmap*%
%TF.FilePolarity,Positive*%
%FSLAX45Y45*%
G04 Gerber Fmt 4.5, Leading zero omitted, Abs format (unit mm)*
G04 Created by KiCad (PCBNEW 8.0.5-8.0.5-0~ubuntu24.04.1) date 2024-09-12 21:54:20*
%MOMM*%
%LPD*%
G01*
G04 APERTURE LIST*
%ADD10C,0.150000*%
%ADD11C,0.200000*%
%ADD12C,0.100000*%
G04 APERTURE END LIST*
D10*
X3937000Y-2667000D02*
X13970000Y-2667000D01*
X13970000Y-12700000D01*
X3937000Y-12700000D01*
X3937000Y-2667000D01*
D11*
D12*
X4525000Y-3550000D02*
X4545000Y-3570000D01*
X4545000Y-3550000D02*
X4525000Y-3570000D01*
X5070000Y-6403500D02*
X5090000Y-6423500D01*
X5090000Y-6403500D02*
X5070000Y-6423500D01*
X5133500Y-6530500D02*
X5153500Y-6550500D01*
X5153500Y-6530500D02*
X5133500Y-6550500D01*
X5197000Y-6657500D02*
X5217000Y-6677500D01*
X5217000Y-6657500D02*
X5197000Y-6677500D01*
X5260500Y-6784500D02*
X5280500Y-6804500D01*
X5280500Y-6784500D02*
X5260500Y-6804500D01*
X5324000Y-6898800D02*
X5344000Y-6918800D01*
X5344000Y-6898800D02*
X5324000Y-6918800D01*
X5374800Y-7025800D02*
X5394800Y-7045800D01*
X5394800Y-7025800D02*
X5374800Y-7045800D01*
X5451000Y-7165500D02*
X5471000Y-7185500D01*
X5471000Y-7165500D02*
X5451000Y-7185500D01*
X5514500Y-7279800D02*
X5534500Y-7299800D01*
X5534500Y-7279800D02*
X5514500Y-7299800D01*
X5530000Y-3210000D02*
X5550000Y-3230000D01*
X5550000Y-3210000D02*
X5530000Y-3230000D01*
X5530000Y-3370000D02*
X5550000Y-3390000D01*
X5550000Y-3370000D02*
X5530000Y-3390000D01*
X5530000Y-3630000D02*
X5550000Y-3650000D01*
X5550000Y-3630000D02*
X5530000Y-3650000D01*
X5570000Y-3285000D02*
X5590000Y-3305000D01*
X5590000Y-3285000D02*
X5570000Y-3305000D01*
X5570000Y-3565000D02*
X5590000Y-3585000D01*
X5590000Y-3565000D02*
X5570000Y-3585000D01*
X5610000Y-6410000D02*
X5630000Y-6430000D01*
X5630000Y-6410000D02*
X5610000Y-6430000D01*
X5610000Y-6530000D02*
X5630000Y-6550000D01*
X5630000Y-6530000D02*
X5610000Y-6550000D01*
X5610000Y-6650000D02*
X5630000Y-6670000D01*
X5630000Y-6650000D02*
X5610000Y-6670000D01*
X5610000Y-6790000D02*
X5630000Y-6810000D01*
X5630000Y-6790000D02*
X5610000Y-6810000D01*
X5610000Y-6890000D02*
X5630000Y-6910000D01*
X5630000Y-6890000D02*
X5610000Y-6910000D01*
X5610000Y-7030000D02*
X5630000Y-7050000D01*
X5630000Y-7030000D02*
X5610000Y-7050000D01*
X5610000Y-7170000D02*
X5630000Y-7190000D01*
X5630000Y-7170000D02*
X5610000Y-7190000D01*
X5610000Y-7270000D02*
X5630000Y-7290000D01*
X5630000Y-7270000D02*
X5610000Y-7290000D01*
X5832000Y-11356500D02*
X5852000Y-11376500D01*
X5852000Y-11356500D02*
X5832000Y-11376500D01*
X5832000Y-11483500D02*
X5852000Y-11503500D01*
X5852000Y-11483500D02*
X5832000Y-11503500D01*
X5832000Y-11610500D02*
X5852000Y-11630500D01*
X5852000Y-11610500D02*
X5832000Y-11630500D01*
X5832000Y-11737500D02*
X5852000Y-11757500D01*
X5852000Y-11737500D02*
X5832000Y-11757500D01*
X5832000Y-11864500D02*
X5852000Y-11884500D01*
X5852000Y-11864500D02*
X5832000Y-11884500D01*
X5832000Y-11991500D02*
X5852000Y-12011500D01*
X5852000Y-11991500D02*
X5832000Y-12011500D01*
X5832000Y-12118500D02*
X5852000Y-12138500D01*
X5852000Y-12118500D02*
X5832000Y-12138500D01*
X5832000Y-12245500D02*
X5852000Y-12265500D01*
X5852000Y-12245500D02*
X5832000Y-12265500D01*
X5857400Y-3558700D02*
X5877400Y-3578700D01*
X5877400Y-3558700D02*
X5857400Y-3578700D01*
X5933600Y-8943500D02*
X5953600Y-8963500D01*
X5953600Y-8943500D02*
X5933600Y-8963500D01*
X5933600Y-9070500D02*
X5953600Y-9090500D01*
X5953600Y-9070500D02*
X5933600Y-9090500D01*
X5933600Y-9197500D02*
X5953600Y-9217500D01*
X5953600Y-9197500D02*
X5933600Y-9217500D01*
X5933600Y-9324500D02*
X5953600Y-9344500D01*
X5953600Y-9324500D02*
X5933600Y-9344500D01*
X5933600Y-9451500D02*
X5953600Y-9471500D01*
X5953600Y-9451500D02*
X5933600Y-9471500D01*
X5933600Y-9578500D02*
X5953600Y-9598500D01*
X5953600Y-9578500D02*
X5933600Y-9598500D01*
X5933600Y-9705500D02*
X5953600Y-9725500D01*
X5953600Y-9705500D02*
X5933600Y-9725500D01*
X5933600Y-9832500D02*
X5953600Y-9852500D01*
X5953600Y-9832500D02*
X5933600Y-9852500D01*
X5959000Y-6403500D02*
X5979000Y-6423500D01*
X5979000Y-6403500D02*
X5959000Y-6423500D01*
X5959000Y-6530500D02*
X5979000Y-6550500D01*
X5979000Y-6530500D02*
X5959000Y-6550500D01*
X5959000Y-6657500D02*
X5979000Y-6677500D01*
X5979000Y-6657500D02*
X5959000Y-6677500D01*
X5959000Y-6784500D02*
X5979000Y-6804500D01*
X5979000Y-6784500D02*
X5959000Y-6804500D01*
X5959000Y-6911500D02*
X5979000Y-6931500D01*
X5979000Y-6911500D02*
X5959000Y-6931500D01*
X5959000Y-7038500D02*
X5979000Y-7058500D01*
X5979000Y-7038500D02*
X5959000Y-7058500D01*
X5959000Y-7165500D02*
X5979000Y-7185500D01*
X5979000Y-7165500D02*
X5959000Y-7185500D01*
X5959000Y-7292500D02*
X5979000Y-7312500D01*
X5979000Y-7292500D02*
X5959000Y-7312500D01*
X6022500Y-4054000D02*
X6042500Y-4074000D01*
X6042500Y-4054000D02*
X6022500Y-4074000D01*
X6022500Y-4181000D02*
X6042500Y-4201000D01*
X6042500Y-4181000D02*
X6022500Y-4201000D01*
X6022500Y-4308000D02*
X6042500Y-4328000D01*
X6042500Y-4308000D02*
X6022500Y-4328000D01*
X6022500Y-4435000D02*
X6042500Y-4455000D01*
X6042500Y-4435000D02*
X6022500Y-4455000D01*
X6022500Y-4562000D02*
X6042500Y-4582000D01*
X6042500Y-4562000D02*
X6022500Y-4582000D01*
X6022500Y-4689000D02*
X6042500Y-4709000D01*
X6042500Y-4689000D02*
X6022500Y-4709000D01*
X6022500Y-4816000D02*
X6042500Y-4836000D01*
X6042500Y-4816000D02*
X6022500Y-4836000D01*
X6022500Y-4943000D02*
X6042500Y-4963000D01*
X6042500Y-4943000D02*
X6022500Y-4963000D01*
X6098700Y-3698400D02*
X6118700Y-3718400D01*
X6118700Y-3698400D02*
X6098700Y-3718400D01*
X6170000Y-10990000D02*
X6190000Y-11010000D01*
X6190000Y-10990000D02*
X6170000Y-11010000D01*
X6230000Y-10330000D02*
X6250000Y-10350000D01*
X6250000Y-10330000D02*
X6230000Y-10350000D01*
X6250000Y-7810000D02*
X6270000Y-7830000D01*
X6270000Y-7810000D02*
X6250000Y-7830000D01*
X6290000Y-5450000D02*
X6310000Y-5470000D01*
X6310000Y-5450000D02*
X6290000Y-5470000D01*
X6315000Y-6534000D02*
X6335000Y-6554000D01*
X6335000Y-6534000D02*
X6315000Y-6554000D01*
X6315000Y-6661000D02*
X6335000Y-6681000D01*
X6335000Y-6661000D02*
X6315000Y-6681000D01*
X6315000Y-6788000D02*
X6335000Y-6808000D01*
X6335000Y-6788000D02*
X6315000Y-6808000D01*
X6315000Y-6915000D02*
X6335000Y-6935000D01*
X6335000Y-6915000D02*
X6315000Y-6935000D01*
X6315000Y-7042000D02*
X6335000Y-7062000D01*
X6335000Y-7042000D02*
X6315000Y-7062000D01*
X6315000Y-7169000D02*
X6335000Y-7189000D01*
X6335000Y-7169000D02*
X6315000Y-7189000D01*
X6315000Y-7296000D02*
X6335000Y-7316000D01*
X6335000Y-7296000D02*
X6315000Y-7316000D01*
X6315000Y-7423000D02*
X6335000Y-7443000D01*
X6335000Y-7423000D02*
X6315000Y-7443000D01*
X6315000Y-7550000D02*
X6335000Y-7570000D01*
X6335000Y-7550000D02*
X6315000Y-7570000D01*
X6340000Y-9059000D02*
X6360000Y-9079000D01*
X6360000Y-9059000D02*
X6340000Y-9079000D01*
X6340000Y-9186000D02*
X6360000Y-9206000D01*
X6360000Y-9186000D02*
X6340000Y-9206000D01*
X6340000Y-9313000D02*
X6360000Y-9333000D01*
X6360000Y-9313000D02*
X6340000Y-9333000D01*
X6340000Y-9440000D02*
X6360000Y-9460000D01*
X6360000Y-9440000D02*
X6340000Y-9460000D01*
X6340000Y-9567000D02*
X6360000Y-9587000D01*
X6360000Y-9567000D02*
X6340000Y-9587000D01*
X6340000Y-9694000D02*
X6360000Y-9714000D01*
X6360000Y-9694000D02*
X6340000Y-9714000D01*
X6340000Y-9821000D02*
X6360000Y-9841000D01*
X6360000Y-9821000D02*
X6340000Y-9841000D01*
X6340000Y-9948000D02*
X6360000Y-9968000D01*
X6360000Y-9948000D02*
X6340000Y-9968000D01*
X6340000Y-10075000D02*
X6360000Y-10095000D01*
X6360000Y-10075000D02*
X6340000Y-10095000D01*
X6403500Y-11483500D02*
X6423500Y-11503500D01*
X6423500Y-11483500D02*
X6403500Y-11503500D01*
X6403500Y-11610500D02*
X6423500Y-11630500D01*
X6423500Y-11610500D02*
X6403500Y-11630500D01*
X6403500Y-11737500D02*
X6423500Y-11757500D01*
X6423500Y-11737500D02*
X6403500Y-11757500D01*
X6403500Y-11864500D02*
X6423500Y-11884500D01*
X6423500Y-11864500D02*
X6403500Y-11884500D01*
X6403500Y-11991500D02*
X6423500Y-12011500D01*
X6423500Y-11991500D02*
X6403500Y-12011500D01*
X6403500Y-12118500D02*
X6423500Y-12138500D01*
X6423500Y-12118500D02*
X6403500Y-12138500D01*
X6403500Y-12245500D02*
X6423500Y-12265500D01*
X6423500Y-12245500D02*
X6403500Y-12265500D01*
X6403500Y-12372500D02*
X6423500Y-12392500D01*
X6423500Y-12372500D02*
X6403500Y-12392500D01*
X6555900Y-7546500D02*
X6575900Y-7566500D01*
X6575900Y-7546500D02*
X6555900Y-7566500D01*
X6568600Y-10086500D02*
X6588600Y-10106500D01*
X6588600Y-10086500D02*
X6568600Y-10106500D01*
X6590000Y-3240000D02*
X6610000Y-3260000D01*
X6610000Y-3240000D02*
X6590000Y-3260000D01*
X6590000Y-3432760D02*
X6610000Y-3452760D01*
X6610000Y-3432760D02*
X6590000Y-3452760D01*
X6590000Y-3615000D02*
X6610000Y-3635000D01*
X6610000Y-3615000D02*
X6590000Y-3635000D01*
X6590000Y-3807760D02*
X6610000Y-3827760D01*
X6610000Y-3807760D02*
X6590000Y-3827760D01*
X6590000Y-4184000D02*
X6610000Y-4204000D01*
X6610000Y-4184000D02*
X6590000Y-4204000D01*
X6590000Y-4311000D02*
X6610000Y-4331000D01*
X6610000Y-4311000D02*
X6590000Y-4331000D01*
X6590000Y-4438000D02*
X6610000Y-4458000D01*
X6610000Y-4438000D02*
X6590000Y-4458000D01*
X6590000Y-4565000D02*
X6610000Y-4585000D01*
X6610000Y-4565000D02*
X6590000Y-4585000D01*
X6590000Y-4692000D02*
X6610000Y-4712000D01*
X6610000Y-4692000D02*
X6590000Y-4712000D01*
X6590000Y-4819000D02*
X6610000Y-4839000D01*
X6610000Y-4819000D02*
X6590000Y-4839000D01*
X6590000Y-4946000D02*
X6610000Y-4966000D01*
X6610000Y-4946000D02*
X6590000Y-4966000D01*
X6590000Y-5073000D02*
X6610000Y-5093000D01*
X6610000Y-5073000D02*
X6590000Y-5093000D01*
X6590000Y-7940000D02*
X6610000Y-7960000D01*
X6610000Y-7940000D02*
X6590000Y-7960000D01*
X6590000Y-8132760D02*
X6610000Y-8152760D01*
X6610000Y-8132760D02*
X6590000Y-8152760D01*
X6590000Y-8315000D02*
X6610000Y-8335000D01*
X6610000Y-8315000D02*
X6590000Y-8335000D01*
X6590000Y-8507760D02*
X6610000Y-8527760D01*
X6610000Y-8507760D02*
X6590000Y-8527760D01*
X6721000Y-11483500D02*
X6741000Y-11503500D01*
X6741000Y-11483500D02*
X6721000Y-11503500D01*
X6721000Y-11610500D02*
X6741000Y-11630500D01*
X6741000Y-11610500D02*
X6721000Y-11630500D01*
X6721000Y-11737500D02*
X6741000Y-11757500D01*
X6741000Y-11737500D02*
X6721000Y-11757500D01*
X6721000Y-11864500D02*
X6741000Y-11884500D01*
X6741000Y-11864500D02*
X6721000Y-11884500D01*
X6721000Y-11991500D02*
X6741000Y-12011500D01*
X6741000Y-11991500D02*
X6721000Y-12011500D01*
X6721000Y-12118500D02*
X6741000Y-12138500D01*
X6741000Y-12118500D02*
X6721000Y-12138500D01*
X6721000Y-12245500D02*
X6741000Y-12265500D01*
X6741000Y-12245500D02*
X6721000Y-12265500D01*
X6721000Y-12372500D02*
X6741000Y-12392500D01*
X6741000Y-12372500D02*
X6721000Y-12392500D01*
X6765000Y-3240000D02*
X6785000Y-3260000D01*
X6785000Y-3240000D02*
X6765000Y-3260000D01*
X6765000Y-3432760D02*
X6785000Y-3452760D01*
X6785000Y-3432760D02*
X6765000Y-3452760D01*
X6765000Y-3615000D02*
X6785000Y-3635000D01*
X6785000Y-3615000D02*
X6765000Y-3635000D01*
X6765000Y-3807760D02*
X6785000Y-3827760D01*
X6785000Y-3807760D02*
X6765000Y-3827760D01*
X6765000Y-7940000D02*
X6785000Y-7960000D01*
X6785000Y-7940000D02*
X6765000Y-7960000D01*
X6765000Y-8132760D02*
X6785000Y-8152760D01*
X6785000Y-8132760D02*
X6765000Y-8152760D01*
X6765000Y-8315000D02*
X6785000Y-8335000D01*
X6785000Y-8315000D02*
X6765000Y-8335000D01*
X6765000Y-8507760D02*
X6785000Y-8527760D01*
X6785000Y-8507760D02*
X6765000Y-8527760D01*
X6873400Y-6911500D02*
X6893400Y-6931500D01*
X6893400Y-6911500D02*
X6873400Y-6931500D01*
X6886100Y-6530500D02*
X6906100Y-6550500D01*
X6906100Y-6530500D02*
X6886100Y-6550500D01*
X6886100Y-6657500D02*
X6906100Y-6677500D01*
X6906100Y-6657500D02*
X6886100Y-6677500D01*
X6886100Y-6784500D02*
X6906100Y-6804500D01*
X6906100Y-6784500D02*
X6886100Y-6804500D01*
X6886100Y-7038500D02*
X6906100Y-7058500D01*
X6906100Y-7038500D02*
X6886100Y-7058500D01*
X6886100Y-7165500D02*
X6906100Y-7185500D01*
X6906100Y-7165500D02*
X6886100Y-7185500D01*
X6886100Y-7292500D02*
X6906100Y-7312500D01*
X6906100Y-7292500D02*
X6886100Y-7312500D01*
X6886100Y-7419500D02*
X6906100Y-7439500D01*
X6906100Y-7419500D02*
X6886100Y-7439500D01*
X6886100Y-9070500D02*
X6906100Y-9090500D01*
X6906100Y-9070500D02*
X6886100Y-9090500D01*
X6886100Y-9197500D02*
X6906100Y-9217500D01*
X6906100Y-9197500D02*
X6886100Y-9217500D01*
X6886100Y-9324500D02*
X6906100Y-9344500D01*
X6906100Y-9324500D02*
X6886100Y-9344500D01*
X6886100Y-9451500D02*
X6906100Y-9471500D01*
X6906100Y-9451500D02*
X6886100Y-9471500D01*
X6886100Y-9578500D02*
X6906100Y-9598500D01*
X6906100Y-9578500D02*
X6886100Y-9598500D01*
X6886100Y-9705500D02*
X6906100Y-9725500D01*
X6906100Y-9705500D02*
X6886100Y-9725500D01*
X6886100Y-9832500D02*
X6906100Y-9852500D01*
X6906100Y-9832500D02*
X6886100Y-9852500D01*
X6886100Y-9959500D02*
X6906100Y-9979500D01*
X6906100Y-9959500D02*
X6886100Y-9979500D01*
X6936900Y-4181000D02*
X6956900Y-4201000D01*
X6956900Y-4181000D02*
X6936900Y-4201000D01*
X6936900Y-4308000D02*
X6956900Y-4328000D01*
X6956900Y-4308000D02*
X6936900Y-4328000D01*
X6936900Y-4435000D02*
X6956900Y-4455000D01*
X6956900Y-4435000D02*
X6936900Y-4455000D01*
X6936900Y-4562000D02*
X6956900Y-4582000D01*
X6956900Y-4562000D02*
X6936900Y-4582000D01*
X6936900Y-4689000D02*
X6956900Y-4709000D01*
X6956900Y-4689000D02*
X6936900Y-4709000D01*
X6936900Y-4816000D02*
X6956900Y-4836000D01*
X6956900Y-4816000D02*
X6936900Y-4836000D01*
X6936900Y-4943000D02*
X6956900Y-4963000D01*
X6956900Y-4943000D02*
X6936900Y-4963000D01*
X6936900Y-5070000D02*
X6956900Y-5090000D01*
X6956900Y-5070000D02*
X6936900Y-5090000D01*
X6940000Y-3240000D02*
X6960000Y-3260000D01*
X6960000Y-3240000D02*
X6940000Y-3260000D01*
X6940000Y-3432760D02*
X6960000Y-3452760D01*
X6960000Y-3432760D02*
X6940000Y-3452760D01*
X6940000Y-3615000D02*
X6960000Y-3635000D01*
X6960000Y-3615000D02*
X6940000Y-3635000D01*
X6940000Y-3807760D02*
X6960000Y-3827760D01*
X6960000Y-3807760D02*
X6940000Y-3827760D01*
X6940000Y-7940000D02*
X6960000Y-7960000D01*
X6960000Y-7940000D02*
X6940000Y-7960000D01*
X6940000Y-8132760D02*
X6960000Y-8152760D01*
X6960000Y-8132760D02*
X6940000Y-8152760D01*
X6940000Y-8315000D02*
X6960000Y-8335000D01*
X6960000Y-8315000D02*
X6940000Y-8335000D01*
X6940000Y-8507760D02*
X6960000Y-8527760D01*
X6960000Y-8507760D02*
X6940000Y-8527760D01*
X7115000Y-3240000D02*
X7135000Y-3260000D01*
X7135000Y-3240000D02*
X7115000Y-3260000D01*
X7115000Y-3432760D02*
X7135000Y-3452760D01*
X7135000Y-3432760D02*
X7115000Y-3452760D01*
X7115000Y-3615000D02*
X7135000Y-3635000D01*
X7135000Y-3615000D02*
X7115000Y-3635000D01*
X7115000Y-3807760D02*
X7135000Y-3827760D01*
X7135000Y-3807760D02*
X7115000Y-3827760D01*
X7115000Y-7940000D02*
X7135000Y-7960000D01*
X7135000Y-7940000D02*
X7115000Y-7960000D01*
X7115000Y-8132760D02*
X7135000Y-8152760D01*
X7135000Y-8132760D02*
X7115000Y-8152760D01*
X7115000Y-8315000D02*
X7135000Y-8335000D01*
X7135000Y-8315000D02*
X7115000Y-8335000D01*
X7115000Y-8507760D02*
X7135000Y-8527760D01*
X7135000Y-8507760D02*
X7115000Y-8527760D01*
X7540000Y-11140000D02*
X7560000Y-11160000D01*
X7560000Y-11140000D02*
X7540000Y-11160000D01*
X7540000Y-11332760D02*
X7560000Y-11352760D01*
X7560000Y-11332760D02*
X7540000Y-11352760D01*
X7540000Y-11515000D02*
X7560000Y-11535000D01*
X7560000Y-11515000D02*
X7540000Y-11535000D01*
X7540000Y-11707760D02*
X7560000Y-11727760D01*
X7560000Y-11707760D02*
X7540000Y-11727760D01*
X7715000Y-11140000D02*
X7735000Y-11160000D01*
X7735000Y-11140000D02*
X7715000Y-11160000D01*
X7715000Y-11332760D02*
X7735000Y-11352760D01*
X7735000Y-11332760D02*
X7715000Y-11352760D01*
X7715000Y-11515000D02*
X7735000Y-11535000D01*
X7735000Y-11515000D02*
X7715000Y-11535000D01*
X7715000Y-11707760D02*
X7735000Y-11727760D01*
X7735000Y-11707760D02*
X7715000Y-11727760D01*
X7890000Y-11140000D02*
X7910000Y-11160000D01*
X7910000Y-11140000D02*
X7890000Y-11160000D01*
X7890000Y-11332760D02*
X7910000Y-11352760D01*
X7910000Y-11332760D02*
X7890000Y-11352760D01*
X7890000Y-11515000D02*
X7910000Y-11535000D01*
X7910000Y-11515000D02*
X7890000Y-11535000D01*
X7890000Y-11707760D02*
X7910000Y-11727760D01*
X7910000Y-11707760D02*
X7890000Y-11727760D01*
X7990000Y-10518300D02*
X8010000Y-10538300D01*
X8010000Y-10518300D02*
X7990000Y-10538300D01*
X8010000Y-10590000D02*
X8030000Y-10610000D01*
X8030000Y-10590000D02*
X8010000Y-10610000D01*
X8015000Y-9159400D02*
X8035000Y-9179400D01*
X8035000Y-9159400D02*
X8015000Y-9179400D01*
X8029100Y-10327800D02*
X8049100Y-10347800D01*
X8049100Y-10327800D02*
X8029100Y-10347800D01*
X8030000Y-9230000D02*
X8050000Y-9250000D01*
X8050000Y-9230000D02*
X8030000Y-9250000D01*
X8065000Y-11140000D02*
X8085000Y-11160000D01*
X8085000Y-11140000D02*
X8065000Y-11160000D01*
X8065000Y-11332760D02*
X8085000Y-11352760D01*
X8085000Y-11332760D02*
X8065000Y-11352760D01*
X8065000Y-11515000D02*
X8085000Y-11535000D01*
X8085000Y-11515000D02*
X8065000Y-11535000D01*
X8065000Y-11707760D02*
X8085000Y-11727760D01*
X8085000Y-11707760D02*
X8065000Y-11727760D01*
X8067200Y-5349400D02*
X8087200Y-5369400D01*
X8087200Y-5349400D02*
X8067200Y-5369400D01*
X8067200Y-8968900D02*
X8087200Y-8988900D01*
X8087200Y-8968900D02*
X8067200Y-8988900D01*
X8070000Y-5430000D02*
X8090000Y-5450000D01*
X8090000Y-5430000D02*
X8070000Y-5450000D01*
X8079900Y-5158900D02*
X8099900Y-5178900D01*
X8099900Y-5158900D02*
X8079900Y-5178900D01*
X8090000Y-4290000D02*
X8110000Y-4310000D01*
X8110000Y-4290000D02*
X8090000Y-4310000D01*
X8105300Y-4024100D02*
X8125300Y-4044100D01*
X8125300Y-4024100D02*
X8105300Y-4044100D01*
X8105300Y-4214600D02*
X8125300Y-4234600D01*
X8125300Y-4214600D02*
X8105300Y-4234600D01*
X8170000Y-10710000D02*
X8190000Y-10730000D01*
X8190000Y-10710000D02*
X8170000Y-10730000D01*
X8190000Y-9330000D02*
X8210000Y-9350000D01*
X8210000Y-9330000D02*
X8190000Y-9350000D01*
X8210000Y-5530000D02*
X8230000Y-5550000D01*
X8230000Y-5530000D02*
X8210000Y-5550000D01*
X8230000Y-4390000D02*
X8250000Y-4410000D01*
X8250000Y-4390000D02*
X8230000Y-4410000D01*
X8290000Y-6770000D02*
X8310000Y-6790000D01*
X8310000Y-6770000D02*
X8290000Y-6790000D01*
X8290000Y-7970000D02*
X8310000Y-7990000D01*
X8310000Y-7970000D02*
X8290000Y-7990000D01*
X8290000Y-10330000D02*
X8310000Y-10350000D01*
X8310000Y-10330000D02*
X8290000Y-10350000D01*
X8290000Y-10490000D02*
X8310000Y-10510000D01*
X8310000Y-10490000D02*
X8290000Y-10510000D01*
X8295800Y-6479700D02*
X8315800Y-6499700D01*
X8315800Y-6479700D02*
X8295800Y-6499700D01*
X8295800Y-7698900D02*
X8315800Y-7718900D01*
X8315800Y-7698900D02*
X8295800Y-7718900D01*
X8308500Y-6670200D02*
X8328500Y-6690200D01*
X8328500Y-6670200D02*
X8308500Y-6690200D01*
X8308500Y-7889400D02*
X8328500Y-7909400D01*
X8328500Y-7889400D02*
X8308500Y-7909400D01*
X8310000Y-10160000D02*
X8330000Y-10180000D01*
X8330000Y-10160000D02*
X8310000Y-10180000D01*
X8310000Y-10590000D02*
X8330000Y-10610000D01*
X8330000Y-10590000D02*
X8310000Y-10610000D01*
X8330000Y-5030000D02*
X8350000Y-5050000D01*
X8350000Y-5030000D02*
X8330000Y-5050000D01*
X8330000Y-5230000D02*
X8350000Y-5250000D01*
X8350000Y-5230000D02*
X8330000Y-5250000D01*
X8330000Y-5410000D02*
X8350000Y-5430000D01*
X8350000Y-5410000D02*
X8330000Y-5430000D01*
X8330000Y-8990000D02*
X8350000Y-9010000D01*
X8350000Y-8990000D02*
X8330000Y-9010000D01*
X8330000Y-9150000D02*
X8350000Y-9170000D01*
X8350000Y-9150000D02*
X8330000Y-9170000D01*
X8330000Y-9230000D02*
X8350000Y-9250000D01*
X8350000Y-9230000D02*
X8330000Y-9250000D01*
X8350000Y-3890000D02*
X8370000Y-3910000D01*
X8370000Y-3890000D02*
X8350000Y-3910000D01*
X8350000Y-4055000D02*
X8370000Y-4075000D01*
X8370000Y-4055000D02*
X8350000Y-4075000D01*
X8350000Y-4290000D02*
X8370000Y-4310000D01*
X8370000Y-4290000D02*
X8350000Y-4310000D01*
X8350000Y-8805000D02*
X8370000Y-8825000D01*
X8370000Y-8805000D02*
X8350000Y-8825000D01*
X8384600Y-4118541D02*
X8404600Y-4138541D01*
X8404600Y-4118541D02*
X8384600Y-4138541D01*
X8430000Y-6850000D02*
X8450000Y-6870000D01*
X8450000Y-6850000D02*
X8430000Y-6870000D01*
X8430000Y-8070000D02*
X8450000Y-8090000D01*
X8450000Y-8070000D02*
X8430000Y-8090000D01*
X8515000Y-5250000D02*
X8535000Y-5270000D01*
X8535000Y-5250000D02*
X8515000Y-5270000D01*
X8525000Y-8900000D02*
X8545000Y-8920000D01*
X8545000Y-8900000D02*
X8525000Y-8920000D01*
X8550000Y-5410000D02*
X8570000Y-5430000D01*
X8570000Y-5410000D02*
X8550000Y-5430000D01*
X8550000Y-6350000D02*
X8570000Y-6370000D01*
X8570000Y-6350000D02*
X8550000Y-6370000D01*
X8550000Y-6550000D02*
X8570000Y-6570000D01*
X8570000Y-6550000D02*
X8550000Y-6570000D01*
X8550000Y-6750000D02*
X8570000Y-6770000D01*
X8570000Y-6750000D02*
X8550000Y-6770000D01*
X8550000Y-10630000D02*
X8570000Y-10650000D01*
X8570000Y-10630000D02*
X8550000Y-10650000D01*
X8570000Y-7570000D02*
X8590000Y-7590000D01*
X8590000Y-7570000D02*
X8570000Y-7590000D01*
X8570000Y-7750000D02*
X8590000Y-7770000D01*
X8590000Y-7750000D02*
X8570000Y-7770000D01*
X8570000Y-7950000D02*
X8590000Y-7970000D01*
X8590000Y-7950000D02*
X8570000Y-7970000D01*
X8575000Y-10270000D02*
X8595000Y-10290000D01*
X8595000Y-10270000D02*
X8575000Y-10290000D01*
X8590000Y-10470000D02*
X8610000Y-10490000D01*
X8610000Y-10470000D02*
X8590000Y-10490000D01*
X8626000Y-10391300D02*
X8646000Y-10411300D01*
X8646000Y-10391300D02*
X8626000Y-10411300D01*
X8630000Y-9110000D02*
X8650000Y-9130000D01*
X8650000Y-9110000D02*
X8630000Y-9130000D01*
X8635000Y-4090000D02*
X8655000Y-4110000D01*
X8655000Y-4090000D02*
X8635000Y-4110000D01*
X8638700Y-10581800D02*
X8658700Y-10601800D01*
X8658700Y-10581800D02*
X8638700Y-10601800D01*
X8651400Y-5412900D02*
X8671400Y-5432900D01*
X8671400Y-5412900D02*
X8651400Y-5432900D01*
X8651400Y-9032400D02*
X8671400Y-9052400D01*
X8671400Y-9032400D02*
X8651400Y-9052400D01*
X8651400Y-9222900D02*
X8671400Y-9242900D01*
X8671400Y-9222900D02*
X8651400Y-9242900D01*
X8664100Y-5222400D02*
X8684100Y-5242400D01*
X8684100Y-5222400D02*
X8664100Y-5242400D01*
X8675000Y-4210000D02*
X8695000Y-4230000D01*
X8695000Y-4210000D02*
X8675000Y-4230000D01*
X8685000Y-4030000D02*
X8705000Y-4050000D01*
X8705000Y-4030000D02*
X8685000Y-4050000D01*
X8702200Y-4278100D02*
X8722200Y-4298100D01*
X8722200Y-4278100D02*
X8702200Y-4298100D01*
X8705000Y-3675000D02*
X8725000Y-3695000D01*
X8725000Y-3675000D02*
X8705000Y-3695000D01*
X8710000Y-3770000D02*
X8730000Y-3790000D01*
X8730000Y-3770000D02*
X8710000Y-3790000D01*
X8775000Y-6530000D02*
X8795000Y-6550000D01*
X8795000Y-6530000D02*
X8775000Y-6550000D01*
X8805000Y-6740000D02*
X8825000Y-6760000D01*
X8825000Y-6740000D02*
X8805000Y-6760000D01*
X8830000Y-3770000D02*
X8850000Y-3790000D01*
X8850000Y-3770000D02*
X8830000Y-3790000D01*
X8835000Y-3680000D02*
X8855000Y-3700000D01*
X8855000Y-3680000D02*
X8835000Y-3700000D01*
X8880000Y-6543200D02*
X8900000Y-6563200D01*
X8900000Y-6543200D02*
X8880000Y-6563200D01*
X8880000Y-6740000D02*
X8900000Y-6760000D01*
X8900000Y-6740000D02*
X8880000Y-6760000D01*
X8880000Y-7762400D02*
X8900000Y-7782400D01*
X8900000Y-7762400D02*
X8880000Y-7782400D01*
X8892700Y-7952900D02*
X8912700Y-7972900D01*
X8912700Y-7952900D02*
X8892700Y-7972900D01*
X9375300Y-4028600D02*
X9395300Y-4048600D01*
X9395300Y-4028600D02*
X9375300Y-4048600D01*
X9426100Y-4231800D02*
X9446100Y-4251800D01*
X9446100Y-4231800D02*
X9426100Y-4251800D01*
X9489600Y-3609500D02*
X9509600Y-3629500D01*
X9509600Y-3609500D02*
X9489600Y-3629500D01*
X9489600Y-6492400D02*
X9509600Y-6512400D01*
X9509600Y-6492400D02*
X9489600Y-6512400D01*
X9489600Y-8918100D02*
X9509600Y-8938100D01*
X9509600Y-8918100D02*
X9489600Y-8938100D01*
X9540400Y-3546000D02*
X9560400Y-3566000D01*
X9560400Y-3546000D02*
X9540400Y-3566000D01*
X9540400Y-6682900D02*
X9560400Y-6702900D01*
X9560400Y-6682900D02*
X9540400Y-6702900D01*
X9540400Y-9108600D02*
X9560400Y-9128600D01*
X9560400Y-9108600D02*
X9540400Y-9128600D01*
X9591200Y-5158900D02*
X9611200Y-5178900D01*
X9611200Y-5158900D02*
X9591200Y-5178900D01*
X9603900Y-6047900D02*
X9623900Y-6067900D01*
X9623900Y-6047900D02*
X9603900Y-6067900D01*
X9603900Y-8537100D02*
X9623900Y-8557100D01*
X9623900Y-8537100D02*
X9603900Y-8557100D01*
X9654700Y-5997100D02*
X9674700Y-6017100D01*
X9674700Y-5997100D02*
X9654700Y-6017100D01*
X9654700Y-8473600D02*
X9674700Y-8493600D01*
X9674700Y-8473600D02*
X9654700Y-8493600D01*
X9680100Y-5349400D02*
X9700100Y-5369400D01*
X9700100Y-5349400D02*
X9680100Y-5369400D01*
X9718200Y-7698900D02*
X9738200Y-7718900D01*
X9738200Y-7698900D02*
X9718200Y-7718900D01*
X9718200Y-10264300D02*
X9738200Y-10284300D01*
X9738200Y-10264300D02*
X9718200Y-10284300D01*
X9729300Y-4777900D02*
X9749300Y-4797900D01*
X9749300Y-4777900D02*
X9729300Y-4797900D01*
X9769000Y-7902100D02*
X9789000Y-7922100D01*
X9789000Y-7902100D02*
X9769000Y-7922100D01*
X9769000Y-10467500D02*
X9789000Y-10487500D01*
X9789000Y-10467500D02*
X9769000Y-10487500D01*
X9780100Y-4721398D02*
X9800100Y-4741398D01*
X9800100Y-4721398D02*
X9780100Y-4741398D01*
X9819800Y-7229000D02*
X9839800Y-7249000D01*
X9839800Y-7229000D02*
X9819800Y-7249000D01*
X9819800Y-9845200D02*
X9839800Y-9865200D01*
X9839800Y-9845200D02*
X9819800Y-9865200D01*
X9870600Y-7178200D02*
X9890600Y-7198200D01*
X9890600Y-7178200D02*
X9870600Y-7198200D01*
X9870600Y-9781700D02*
X9890600Y-9801700D01*
X9890600Y-9781700D02*
X9870600Y-9801700D01*
X10165000Y-3415000D02*
X10185000Y-3435000D01*
X10185000Y-3415000D02*
X10165000Y-3435000D01*
X10165000Y-3607760D02*
X10185000Y-3627760D01*
X10185000Y-3607760D02*
X10165000Y-3627760D01*
X10165000Y-3790000D02*
X10185000Y-3810000D01*
X10185000Y-3790000D02*
X10165000Y-3810000D01*
X10165000Y-3982760D02*
X10185000Y-4002760D01*
X10185000Y-3982760D02*
X10165000Y-4002760D01*
X10165000Y-4765000D02*
X10185000Y-4785000D01*
X10185000Y-4765000D02*
X10165000Y-4785000D01*
X10165000Y-4957760D02*
X10185000Y-4977760D01*
X10185000Y-4957760D02*
X10165000Y-4977760D01*
X10165000Y-5140000D02*
X10185000Y-5160000D01*
X10185000Y-5140000D02*
X10165000Y-5160000D01*
X10165000Y-5332760D02*
X10185000Y-5352760D01*
X10185000Y-5332760D02*
X10165000Y-5352760D01*
X10165000Y-6040000D02*
X10185000Y-6060000D01*
X10185000Y-6040000D02*
X10165000Y-6060000D01*
X10165000Y-6232760D02*
X10185000Y-6252760D01*
X10185000Y-6232760D02*
X10165000Y-6252760D01*
X10165000Y-6415000D02*
X10185000Y-6435000D01*
X10185000Y-6415000D02*
X10165000Y-6435000D01*
X10165000Y-6607760D02*
X10185000Y-6627760D01*
X10185000Y-6607760D02*
X10165000Y-6627760D01*
X10165000Y-7290000D02*
X10185000Y-7310000D01*
X10185000Y-7290000D02*
X10165000Y-7310000D01*
X10165000Y-7482760D02*
X10185000Y-7502760D01*
X10185000Y-7482760D02*
X10165000Y-7502760D01*
X10165000Y-7665000D02*
X10185000Y-7685000D01*
X10185000Y-7665000D02*
X10165000Y-7685000D01*
X10165000Y-7857760D02*
X10185000Y-7877760D01*
X10185000Y-7857760D02*
X10165000Y-7877760D01*
X10165000Y-8640000D02*
X10185000Y-8660000D01*
X10185000Y-8640000D02*
X10165000Y-8660000D01*
X10165000Y-8832760D02*
X10185000Y-8852760D01*
X10185000Y-8832760D02*
X10165000Y-8852760D01*
X10165000Y-9015000D02*
X10185000Y-9035000D01*
X10185000Y-9015000D02*
X10165000Y-9035000D01*
X10165000Y-9207760D02*
X10185000Y-9227760D01*
X10185000Y-9207760D02*
X10165000Y-9227760D01*
X10165000Y-9865000D02*
X10185000Y-9885000D01*
X10185000Y-9865000D02*
X10165000Y-9885000D01*
X10165000Y-10057760D02*
X10185000Y-10077760D01*
X10185000Y-10057760D02*
X10165000Y-10077760D01*
X10165000Y-10240000D02*
X10185000Y-10260000D01*
X10185000Y-10240000D02*
X10165000Y-10260000D01*
X10165000Y-10432760D02*
X10185000Y-10452760D01*
X10185000Y-10432760D02*
X10165000Y-10452760D01*
X10340000Y-3415000D02*
X10360000Y-3435000D01*
X10360000Y-3415000D02*
X10340000Y-3435000D01*
X10340000Y-3607760D02*
X10360000Y-3627760D01*
X10360000Y-3607760D02*
X10340000Y-3627760D01*
X10340000Y-3790000D02*
X10360000Y-3810000D01*
X10360000Y-3790000D02*
X10340000Y-3810000D01*
X10340000Y-3982760D02*
X10360000Y-4002760D01*
X10360000Y-3982760D02*
X10340000Y-4002760D01*
X10340000Y-4765000D02*
X10360000Y-4785000D01*
X10360000Y-4765000D02*
X10340000Y-4785000D01*
X10340000Y-4957760D02*
X10360000Y-4977760D01*
X10360000Y-4957760D02*
X10340000Y-4977760D01*
X10340000Y-5140000D02*
X10360000Y-5160000D01*
X10360000Y-5140000D02*
X10340000Y-5160000D01*
X10340000Y-5332760D02*
X10360000Y-5352760D01*
X10360000Y-5332760D02*
X10340000Y-5352760D01*
X10340000Y-6040000D02*
X10360000Y-6060000D01*
X10360000Y-6040000D02*
X10340000Y-6060000D01*
X10340000Y-6232760D02*
X10360000Y-6252760D01*
X10360000Y-6232760D02*
X10340000Y-6252760D01*
X10340000Y-6415000D02*
X10360000Y-6435000D01*
X10360000Y-6415000D02*
X10340000Y-6435000D01*
X10340000Y-6607760D02*
X10360000Y-6627760D01*
X10360000Y-6607760D02*
X10340000Y-6627760D01*
X10340000Y-7290000D02*
X10360000Y-7310000D01*
X10360000Y-7290000D02*
X10340000Y-7310000D01*
X10340000Y-7482760D02*
X10360000Y-7502760D01*
X10360000Y-7482760D02*
X10340000Y-7502760D01*
X10340000Y-7665000D02*
X10360000Y-7685000D01*
X10360000Y-7665000D02*
X10340000Y-7685000D01*
X10340000Y-7857760D02*
X10360000Y-7877760D01*
X10360000Y-7857760D02*
X10340000Y-7877760D01*
X10340000Y-8640000D02*
X10360000Y-8660000D01*
X10360000Y-8640000D02*
X10340000Y-8660000D01*
X10340000Y-8832760D02*
X10360000Y-8852760D01*
X10360000Y-8832760D02*
X10340000Y-8852760D01*
X10340000Y-9015000D02*
X10360000Y-9035000D01*
X10360000Y-9015000D02*
X10340000Y-9035000D01*
X10340000Y-9207760D02*
X10360000Y-9227760D01*
X10360000Y-9207760D02*
X10340000Y-9227760D01*
X10340000Y-9865000D02*
X10360000Y-9885000D01*
X10360000Y-9865000D02*
X10340000Y-9885000D01*
X10340000Y-10057760D02*
X10360000Y-10077760D01*
X10360000Y-10057760D02*
X10340000Y-10077760D01*
X10340000Y-10240000D02*
X10360000Y-10260000D01*
X10360000Y-10240000D02*
X10340000Y-10260000D01*
X10340000Y-10432760D02*
X10360000Y-10452760D01*
X10360000Y-10432760D02*
X10340000Y-10452760D01*
X10515000Y-3415000D02*
X10535000Y-3435000D01*
X10535000Y-3415000D02*
X10515000Y-3435000D01*
X10515000Y-3607760D02*
X10535000Y-3627760D01*
X10535000Y-3607760D02*
X10515000Y-3627760D01*
X10515000Y-3790000D02*
X10535000Y-3810000D01*
X10535000Y-3790000D02*
X10515000Y-3810000D01*
X10515000Y-3982760D02*
X10535000Y-4002760D01*
X10535000Y-3982760D02*
X10515000Y-4002760D01*
X10515000Y-4765000D02*
X10535000Y-4785000D01*
X10535000Y-4765000D02*
X10515000Y-4785000D01*
X10515000Y-4957760D02*
X10535000Y-4977760D01*
X10535000Y-4957760D02*
X10515000Y-4977760D01*
X10515000Y-5140000D02*
X10535000Y-5160000D01*
X10535000Y-5140000D02*
X10515000Y-5160000D01*
X10515000Y-5332760D02*
X10535000Y-5352760D01*
X10535000Y-5332760D02*
X10515000Y-5352760D01*
X10515000Y-6040000D02*
X10535000Y-6060000D01*
X10535000Y-6040000D02*
X10515000Y-6060000D01*
X10515000Y-6232760D02*
X10535000Y-6252760D01*
X10535000Y-6232760D02*
X10515000Y-6252760D01*
X10515000Y-6415000D02*
X10535000Y-6435000D01*
X10535000Y-6415000D02*
X10515000Y-6435000D01*
X10515000Y-6607760D02*
X10535000Y-6627760D01*
X10535000Y-6607760D02*
X10515000Y-6627760D01*
X10515000Y-7290000D02*
X10535000Y-7310000D01*
X10535000Y-7290000D02*
X10515000Y-7310000D01*
X10515000Y-7482760D02*
X10535000Y-7502760D01*
X10535000Y-7482760D02*
X10515000Y-7502760D01*
X10515000Y-7665000D02*
X10535000Y-7685000D01*
X10535000Y-7665000D02*
X10515000Y-7685000D01*
X10515000Y-7857760D02*
X10535000Y-7877760D01*
X10535000Y-7857760D02*
X10515000Y-7877760D01*
X10515000Y-8640000D02*
X10535000Y-8660000D01*
X10535000Y-8640000D02*
X10515000Y-8660000D01*
X10515000Y-8832760D02*
X10535000Y-8852760D01*
X10535000Y-8832760D02*
X10515000Y-8852760D01*
X10515000Y-9015000D02*
X10535000Y-9035000D01*
X10535000Y-9015000D02*
X10515000Y-9035000D01*
X10515000Y-9207760D02*
X10535000Y-9227760D01*
X10535000Y-9207760D02*
X10515000Y-9227760D01*
X10515000Y-9865000D02*
X10535000Y-9885000D01*
X10535000Y-9865000D02*
X10515000Y-9885000D01*
X10515000Y-10057760D02*
X10535000Y-10077760D01*
X10535000Y-10057760D02*
X10515000Y-10077760D01*
X10515000Y-10240000D02*
X10535000Y-10260000D01*
X10535000Y-10240000D02*
X10515000Y-10260000D01*
X10515000Y-10432760D02*
X10535000Y-10452760D01*
X10535000Y-10432760D02*
X10515000Y-10452760D01*
X10690000Y-3415000D02*
X10710000Y-3435000D01*
X10710000Y-3415000D02*
X10690000Y-3435000D01*
X10690000Y-3607760D02*
X10710000Y-3627760D01*
X10710000Y-3607760D02*
X10690000Y-3627760D01*
X10690000Y-3790000D02*
X10710000Y-3810000D01*
X10710000Y-3790000D02*
X10690000Y-3810000D01*
X10690000Y-3982760D02*
X10710000Y-4002760D01*
X10710000Y-3982760D02*
X10690000Y-4002760D01*
X10690000Y-4765000D02*
X10710000Y-4785000D01*
X10710000Y-4765000D02*
X10690000Y-4785000D01*
X10690000Y-4957760D02*
X10710000Y-4977760D01*
X10710000Y-4957760D02*
X10690000Y-4977760D01*
X10690000Y-5140000D02*
X10710000Y-5160000D01*
X10710000Y-5140000D02*
X10690000Y-5160000D01*
X10690000Y-5332760D02*
X10710000Y-5352760D01*
X10710000Y-5332760D02*
X10690000Y-5352760D01*
X10690000Y-6040000D02*
X10710000Y-6060000D01*
X10710000Y-6040000D02*
X10690000Y-6060000D01*
X10690000Y-6232760D02*
X10710000Y-6252760D01*
X10710000Y-6232760D02*
X10690000Y-6252760D01*
X10690000Y-6415000D02*
X10710000Y-6435000D01*
X10710000Y-6415000D02*
X10690000Y-6435000D01*
X10690000Y-6607760D02*
X10710000Y-6627760D01*
X10710000Y-6607760D02*
X10690000Y-6627760D01*
X10690000Y-7290000D02*
X10710000Y-7310000D01*
X10710000Y-7290000D02*
X10690000Y-7310000D01*
X10690000Y-7482760D02*
X10710000Y-7502760D01*
X10710000Y-7482760D02*
X10690000Y-7502760D01*
X10690000Y-7665000D02*
X10710000Y-7685000D01*
X10710000Y-7665000D02*
X10690000Y-7685000D01*
X10690000Y-7857760D02*
X10710000Y-7877760D01*
X10710000Y-7857760D02*
X10690000Y-7877760D01*
X10690000Y-8640000D02*
X10710000Y-8660000D01*
X10710000Y-8640000D02*
X10690000Y-8660000D01*
X10690000Y-8832760D02*
X10710000Y-8852760D01*
X10710000Y-8832760D02*
X10690000Y-8852760D01*
X10690000Y-9015000D02*
X10710000Y-9035000D01*
X10710000Y-9015000D02*
X10690000Y-9035000D01*
X10690000Y-9207760D02*
X10710000Y-9227760D01*
X10710000Y-9207760D02*
X10690000Y-9227760D01*
X10690000Y-9865000D02*
X10710000Y-9885000D01*
X10710000Y-9865000D02*
X10690000Y-9885000D01*
X10690000Y-10057760D02*
X10710000Y-10077760D01*
X10710000Y-10057760D02*
X10690000Y-10077760D01*
X10690000Y-10240000D02*
X10710000Y-10260000D01*
X10710000Y-10240000D02*
X10690000Y-10260000D01*
X10690000Y-10432760D02*
X10710000Y-10452760D01*
X10710000Y-10432760D02*
X10690000Y-10452760D01*
X11127900Y-4447700D02*
X11147900Y-4467700D01*
X11147900Y-4447700D02*
X11127900Y-4467700D01*
X11191400Y-4396900D02*
X11211400Y-4416900D01*
X11211400Y-4396900D02*
X11191400Y-4416900D01*
X11216800Y-6898800D02*
X11236800Y-6918800D01*
X11236800Y-6898800D02*
X11216800Y-6918800D01*
X11216800Y-9375300D02*
X11236800Y-9395300D01*
X11236800Y-9375300D02*
X11216800Y-9395300D01*
X11293000Y-6848000D02*
X11313000Y-6868000D01*
X11313000Y-6848000D02*
X11293000Y-6868000D01*
X11293000Y-9324500D02*
X11313000Y-9344500D01*
X11313000Y-9324500D02*
X11293000Y-9344500D01*
X11343800Y-4487400D02*
X11363800Y-4507400D01*
X11363800Y-4487400D02*
X11343800Y-4507400D01*
X11381900Y-6949600D02*
X11401900Y-6969600D01*
X11401900Y-6949600D02*
X11381900Y-6969600D01*
X11381900Y-9438800D02*
X11401900Y-9458800D01*
X11401900Y-9438800D02*
X11381900Y-9458800D01*
X11419950Y-4536600D02*
X11439950Y-4556600D01*
X11439950Y-4536600D02*
X11419950Y-4556600D01*
X11445400Y-7000400D02*
X11465400Y-7020400D01*
X11465400Y-7000400D02*
X11445400Y-7020400D01*
X11445400Y-9489600D02*
X11465400Y-9509600D01*
X11465400Y-9489600D02*
X11445400Y-9509600D01*
X11496200Y-5641500D02*
X11516200Y-5661500D01*
X11516200Y-5641500D02*
X11496200Y-5661500D01*
X11496200Y-8105300D02*
X11516200Y-8125300D01*
X11516200Y-8105300D02*
X11496200Y-8125300D01*
X11496200Y-10785000D02*
X11516200Y-10805000D01*
X11516200Y-10785000D02*
X11496200Y-10805000D01*
X11547000Y-5578000D02*
X11567000Y-5598000D01*
X11567000Y-5578000D02*
X11547000Y-5598000D01*
X11547000Y-8041800D02*
X11567000Y-8061800D01*
X11567000Y-8041800D02*
X11547000Y-8061800D01*
X11547000Y-10721500D02*
X11567000Y-10741500D01*
X11567000Y-10721500D02*
X11547000Y-10741500D01*
X11597800Y-8194200D02*
X11617800Y-8214200D01*
X11617800Y-8194200D02*
X11597800Y-8214200D01*
X11597800Y-10848500D02*
X11617800Y-10868500D01*
X11617800Y-10848500D02*
X11597800Y-10868500D01*
X11599350Y-5692300D02*
X11619350Y-5712300D01*
X11619350Y-5692300D02*
X11599350Y-5712300D01*
X11648600Y-5768500D02*
X11668600Y-5788500D01*
X11668600Y-5768500D02*
X11648600Y-5788500D01*
X11648600Y-8257700D02*
X11668600Y-8277700D01*
X11668600Y-8257700D02*
X11648600Y-8277700D01*
X11648600Y-10924700D02*
X11668600Y-10944700D01*
X11668600Y-10924700D02*
X11648600Y-10944700D01*
X4495000Y-3683000D02*
G75*
G02*
X4395000Y-3683000I-50000J0D01*
G01*
X4395000Y-3683000D02*
G75*
G02*
X4495000Y-3683000I50000J0D01*
G01*
X4495000Y-3937000D02*
G75*
G02*
X4395000Y-3937000I-50000J0D01*
G01*
X4395000Y-3937000D02*
G75*
G02*
X4495000Y-3937000I50000J0D01*
G01*
X4495000Y-4191000D02*
G75*
G02*
X4395000Y-4191000I-50000J0D01*
G01*
X4395000Y-4191000D02*
G75*
G02*
X4495000Y-4191000I50000J0D01*
G01*
X4495000Y-4445000D02*
G75*
G02*
X4395000Y-4445000I-50000J0D01*
G01*
X4395000Y-4445000D02*
G75*
G02*
X4495000Y-4445000I50000J0D01*
G01*
X4495000Y-4699000D02*
G75*
G02*
X4395000Y-4699000I-50000J0D01*
G01*
X4395000Y-4699000D02*
G75*
G02*
X4495000Y-4699000I50000J0D01*
G01*
X4495000Y-4953000D02*
G75*
G02*
X4395000Y-4953000I-50000J0D01*
G01*
X4395000Y-4953000D02*
G75*
G02*
X4495000Y-4953000I50000J0D01*
G01*
X4495000Y-5207000D02*
G75*
G02*
X4395000Y-5207000I-50000J0D01*
G01*
X4395000Y-5207000D02*
G75*
G02*
X4495000Y-5207000I50000J0D01*
G01*
X4495000Y-5461000D02*
G75*
G02*
X4395000Y-5461000I-50000J0D01*
G01*
X4395000Y-5461000D02*
G75*
G02*
X4495000Y-5461000I50000J0D01*
G01*
X4495000Y-5715000D02*
G75*
G02*
X4395000Y-5715000I-50000J0D01*
G01*
X4395000Y-5715000D02*
G75*
G02*
X4495000Y-5715000I50000J0D01*
G01*
X4495000Y-5969000D02*
G75*
G02*
X4395000Y-5969000I-50000J0D01*
G01*
X4395000Y-5969000D02*
G75*
G02*
X4495000Y-5969000I50000J0D01*
G01*
X4495000Y-6223000D02*
G75*
G02*
X4395000Y-6223000I-50000J0D01*
G01*
X4395000Y-6223000D02*
G75*
G02*
X4495000Y-6223000I50000J0D01*
G01*
X4495000Y-6477000D02*
G75*
G02*
X4395000Y-6477000I-50000J0D01*
G01*
X4395000Y-6477000D02*
G75*
G02*
X4495000Y-6477000I50000J0D01*
G01*
X4495000Y-6731000D02*
G75*
G02*
X4395000Y-6731000I-50000J0D01*
G01*
X4395000Y-6731000D02*
G75*
G02*
X4495000Y-6731000I50000J0D01*
G01*
X4495000Y-6985000D02*
G75*
G02*
X4395000Y-6985000I-50000J0D01*
G01*
X4395000Y-6985000D02*
G75*
G02*
X4495000Y-6985000I50000J0D01*
G01*
X4495000Y-7239000D02*
G75*
G02*
X4395000Y-7239000I-50000J0D01*
G01*
X4395000Y-7239000D02*
G75*
G02*
X4495000Y-7239000I50000J0D01*
G01*
X4495000Y-7493000D02*
G75*
G02*
X4395000Y-7493000I-50000J0D01*
G01*
X4395000Y-7493000D02*
G75*
G02*
X4495000Y-7493000I50000J0D01*
G01*
X4495000Y-7747000D02*
G75*
G02*
X4395000Y-7747000I-50000J0D01*
G01*
X4395000Y-7747000D02*
G75*
G02*
X4495000Y-7747000I50000J0D01*
G01*
X4495000Y-8001000D02*
G75*
G02*
X4395000Y-8001000I-50000J0D01*
G01*
X4395000Y-8001000D02*
G75*
G02*
X4495000Y-8001000I50000J0D01*
G01*
X4495000Y-8255000D02*
G75*
G02*
X4395000Y-8255000I-50000J0D01*
G01*
X4395000Y-8255000D02*
G75*
G02*
X4495000Y-8255000I50000J0D01*
G01*
X4495000Y-8509000D02*
G75*
G02*
X4395000Y-8509000I-50000J0D01*
G01*
X4395000Y-8509000D02*
G75*
G02*
X4495000Y-8509000I50000J0D01*
G01*
X4495000Y-8763000D02*
G75*
G02*
X4395000Y-8763000I-50000J0D01*
G01*
X4395000Y-8763000D02*
G75*
G02*
X4495000Y-8763000I50000J0D01*
G01*
X4495000Y-9017000D02*
G75*
G02*
X4395000Y-9017000I-50000J0D01*
G01*
X4395000Y-9017000D02*
G75*
G02*
X4495000Y-9017000I50000J0D01*
G01*
X4495000Y-9271000D02*
G75*
G02*
X4395000Y-9271000I-50000J0D01*
G01*
X4395000Y-9271000D02*
G75*
G02*
X4495000Y-9271000I50000J0D01*
G01*
X4495000Y-9525000D02*
G75*
G02*
X4395000Y-9525000I-50000J0D01*
G01*
X4395000Y-9525000D02*
G75*
G02*
X4495000Y-9525000I50000J0D01*
G01*
X4495000Y-9779000D02*
G75*
G02*
X4395000Y-9779000I-50000J0D01*
G01*
X4395000Y-9779000D02*
G75*
G02*
X4495000Y-9779000I50000J0D01*
G01*
X4495000Y-10033000D02*
G75*
G02*
X4395000Y-10033000I-50000J0D01*
G01*
X4395000Y-10033000D02*
G75*
G02*
X4495000Y-10033000I50000J0D01*
G01*
X4495000Y-10287000D02*
G75*
G02*
X4395000Y-10287000I-50000J0D01*
G01*
X4395000Y-10287000D02*
G75*
G02*
X4495000Y-10287000I50000J0D01*
G01*
X4495000Y-10541000D02*
G75*
G02*
X4395000Y-10541000I-50000J0D01*
G01*
X4395000Y-10541000D02*
G75*
G02*
X4495000Y-10541000I50000J0D01*
G01*
X4495000Y-10795000D02*
G75*
G02*
X4395000Y-10795000I-50000J0D01*
G01*
X4395000Y-10795000D02*
G75*
G02*
X4495000Y-10795000I50000J0D01*
G01*
X4495000Y-11049000D02*
G75*
G02*
X4395000Y-11049000I-50000J0D01*
G01*
X4395000Y-11049000D02*
G75*
G02*
X4495000Y-11049000I50000J0D01*
G01*
X4495000Y-11303000D02*
G75*
G02*
X4395000Y-11303000I-50000J0D01*
G01*
X4395000Y-11303000D02*
G75*
G02*
X4495000Y-11303000I50000J0D01*
G01*
X4495000Y-11557000D02*
G75*
G02*
X4395000Y-11557000I-50000J0D01*
G01*
X4395000Y-11557000D02*
G75*
G02*
X4495000Y-11557000I50000J0D01*
G01*
X4749000Y-3683000D02*
G75*
G02*
X4649000Y-3683000I-50000J0D01*
G01*
X4649000Y-3683000D02*
G75*
G02*
X4749000Y-3683000I50000J0D01*
G01*
X4749000Y-3937000D02*
G75*
G02*
X4649000Y-3937000I-50000J0D01*
G01*
X4649000Y-3937000D02*
G75*
G02*
X4749000Y-3937000I50000J0D01*
G01*
X4749000Y-4191000D02*
G75*
G02*
X4649000Y-4191000I-50000J0D01*
G01*
X4649000Y-4191000D02*
G75*
G02*
X4749000Y-4191000I50000J0D01*
G01*
X4749000Y-4445000D02*
G75*
G02*
X4649000Y-4445000I-50000J0D01*
G01*
X4649000Y-4445000D02*
G75*
G02*
X4749000Y-4445000I50000J0D01*
G01*
X4749000Y-4699000D02*
G75*
G02*
X4649000Y-4699000I-50000J0D01*
G01*
X4649000Y-4699000D02*
G75*
G02*
X4749000Y-4699000I50000J0D01*
G01*
X4749000Y-4953000D02*
G75*
G02*
X4649000Y-4953000I-50000J0D01*
G01*
X4649000Y-4953000D02*
G75*
G02*
X4749000Y-4953000I50000J0D01*
G01*
X4749000Y-5207000D02*
G75*
G02*
X4649000Y-5207000I-50000J0D01*
G01*
X4649000Y-5207000D02*
G75*
G02*
X4749000Y-5207000I50000J0D01*
G01*
X4749000Y-5461000D02*
G75*
G02*
X4649000Y-5461000I-50000J0D01*
G01*
X4649000Y-5461000D02*
G75*
G02*
X4749000Y-5461000I50000J0D01*
G01*
X4749000Y-5715000D02*
G75*
G02*
X4649000Y-5715000I-50000J0D01*
G01*
X4649000Y-5715000D02*
G75*
G02*
X4749000Y-5715000I50000J0D01*
G01*
X4749000Y-5969000D02*
G75*
G02*
X4649000Y-5969000I-50000J0D01*
G01*
X4649000Y-5969000D02*
G75*
G02*
X4749000Y-5969000I50000J0D01*
G01*
X4749000Y-6223000D02*
G75*
G02*
X4649000Y-6223000I-50000J0D01*
G01*
X4649000Y-6223000D02*
G75*
G02*
X4749000Y-6223000I50000J0D01*
G01*
X4749000Y-6477000D02*
G75*
G02*
X4649000Y-6477000I-50000J0D01*
G01*
X4649000Y-6477000D02*
G75*
G02*
X4749000Y-6477000I50000J0D01*
G01*
X4749000Y-6731000D02*
G75*
G02*
X4649000Y-6731000I-50000J0D01*
G01*
X4649000Y-6731000D02*
G75*
G02*
X4749000Y-6731000I50000J0D01*
G01*
X4749000Y-6985000D02*
G75*
G02*
X4649000Y-6985000I-50000J0D01*
G01*
X4649000Y-6985000D02*
G75*
G02*
X4749000Y-6985000I50000J0D01*
G01*
X4749000Y-7239000D02*
G75*
G02*
X4649000Y-7239000I-50000J0D01*
G01*
X4649000Y-7239000D02*
G75*
G02*
X4749000Y-7239000I50000J0D01*
G01*
X4749000Y-7493000D02*
G75*
G02*
X4649000Y-7493000I-50000J0D01*
G01*
X4649000Y-7493000D02*
G75*
G02*
X4749000Y-7493000I50000J0D01*
G01*
X4749000Y-7747000D02*
G75*
G02*
X4649000Y-7747000I-50000J0D01*
G01*
X4649000Y-7747000D02*
G75*
G02*
X4749000Y-7747000I50000J0D01*
G01*
X4749000Y-8001000D02*
G75*
G02*
X4649000Y-8001000I-50000J0D01*
G01*
X4649000Y-8001000D02*
G75*
G02*
X4749000Y-8001000I50000J0D01*
G01*
X4749000Y-8255000D02*
G75*
G02*
X4649000Y-8255000I-50000J0D01*
G01*
X4649000Y-8255000D02*
G75*
G02*
X4749000Y-8255000I50000J0D01*
G01*
X4749000Y-8509000D02*
G75*
G02*
X4649000Y-8509000I-50000J0D01*
G01*
X4649000Y-8509000D02*
G75*
G02*
X4749000Y-8509000I50000J0D01*
G01*
X4749000Y-8763000D02*
G75*
G02*
X4649000Y-8763000I-50000J0D01*
G01*
X4649000Y-8763000D02*
G75*
G02*
X4749000Y-8763000I50000J0D01*
G01*
X4749000Y-9017000D02*
G75*
G02*
X4649000Y-9017000I-50000J0D01*
G01*
X4649000Y-9017000D02*
G75*
G02*
X4749000Y-9017000I50000J0D01*
G01*
X4749000Y-9271000D02*
G75*
G02*
X4649000Y-9271000I-50000J0D01*
G01*
X4649000Y-9271000D02*
G75*
G02*
X4749000Y-9271000I50000J0D01*
G01*
X4749000Y-9525000D02*
G75*
G02*
X4649000Y-9525000I-50000J0D01*
G01*
X4649000Y-9525000D02*
G75*
G02*
X4749000Y-9525000I50000J0D01*
G01*
X4749000Y-9779000D02*
G75*
G02*
X4649000Y-9779000I-50000J0D01*
G01*
X4649000Y-9779000D02*
G75*
G02*
X4749000Y-9779000I50000J0D01*
G01*
X4749000Y-10033000D02*
G75*
G02*
X4649000Y-10033000I-50000J0D01*
G01*
X4649000Y-10033000D02*
G75*
G02*
X4749000Y-10033000I50000J0D01*
G01*
X4749000Y-10287000D02*
G75*
G02*
X4649000Y-10287000I-50000J0D01*
G01*
X4649000Y-10287000D02*
G75*
G02*
X4749000Y-10287000I50000J0D01*
G01*
X4749000Y-10541000D02*
G75*
G02*
X4649000Y-10541000I-50000J0D01*
G01*
X4649000Y-10541000D02*
G75*
G02*
X4749000Y-10541000I50000J0D01*
G01*
X4749000Y-10795000D02*
G75*
G02*
X4649000Y-10795000I-50000J0D01*
G01*
X4649000Y-10795000D02*
G75*
G02*
X4749000Y-10795000I50000J0D01*
G01*
X4749000Y-11049000D02*
G75*
G02*
X4649000Y-11049000I-50000J0D01*
G01*
X4649000Y-11049000D02*
G75*
G02*
X4749000Y-11049000I50000J0D01*
G01*
X4749000Y-11303000D02*
G75*
G02*
X4649000Y-11303000I-50000J0D01*
G01*
X4649000Y-11303000D02*
G75*
G02*
X4749000Y-11303000I50000J0D01*
G01*
X4749000Y-11557000D02*
G75*
G02*
X4649000Y-11557000I-50000J0D01*
G01*
X4649000Y-11557000D02*
G75*
G02*
X4749000Y-11557000I50000J0D01*
G01*
X5003000Y-3683000D02*
G75*
G02*
X4903000Y-3683000I-50000J0D01*
G01*
X4903000Y-3683000D02*
G75*
G02*
X5003000Y-3683000I50000J0D01*
G01*
X5003000Y-3937000D02*
G75*
G02*
X4903000Y-3937000I-50000J0D01*
G01*
X4903000Y-3937000D02*
G75*
G02*
X5003000Y-3937000I50000J0D01*
G01*
X5003000Y-4191000D02*
G75*
G02*
X4903000Y-4191000I-50000J0D01*
G01*
X4903000Y-4191000D02*
G75*
G02*
X5003000Y-4191000I50000J0D01*
G01*
X5003000Y-4445000D02*
G75*
G02*
X4903000Y-4445000I-50000J0D01*
G01*
X4903000Y-4445000D02*
G75*
G02*
X5003000Y-4445000I50000J0D01*
G01*
X5003000Y-4699000D02*
G75*
G02*
X4903000Y-4699000I-50000J0D01*
G01*
X4903000Y-4699000D02*
G75*
G02*
X5003000Y-4699000I50000J0D01*
G01*
X5003000Y-4953000D02*
G75*
G02*
X4903000Y-4953000I-50000J0D01*
G01*
X4903000Y-4953000D02*
G75*
G02*
X5003000Y-4953000I50000J0D01*
G01*
X5003000Y-5207000D02*
G75*
G02*
X4903000Y-5207000I-50000J0D01*
G01*
X4903000Y-5207000D02*
G75*
G02*
X5003000Y-5207000I50000J0D01*
G01*
X5003000Y-5461000D02*
G75*
G02*
X4903000Y-5461000I-50000J0D01*
G01*
X4903000Y-5461000D02*
G75*
G02*
X5003000Y-5461000I50000J0D01*
G01*
X5003000Y-5715000D02*
G75*
G02*
X4903000Y-5715000I-50000J0D01*
G01*
X4903000Y-5715000D02*
G75*
G02*
X5003000Y-5715000I50000J0D01*
G01*
X5003000Y-5969000D02*
G75*
G02*
X4903000Y-5969000I-50000J0D01*
G01*
X4903000Y-5969000D02*
G75*
G02*
X5003000Y-5969000I50000J0D01*
G01*
X5003000Y-6223000D02*
G75*
G02*
X4903000Y-6223000I-50000J0D01*
G01*
X4903000Y-6223000D02*
G75*
G02*
X5003000Y-6223000I50000J0D01*
G01*
X5003000Y-6477000D02*
G75*
G02*
X4903000Y-6477000I-50000J0D01*
G01*
X4903000Y-6477000D02*
G75*
G02*
X5003000Y-6477000I50000J0D01*
G01*
X5003000Y-6731000D02*
G75*
G02*
X4903000Y-6731000I-50000J0D01*
G01*
X4903000Y-6731000D02*
G75*
G02*
X5003000Y-6731000I50000J0D01*
G01*
X5003000Y-6985000D02*
G75*
G02*
X4903000Y-6985000I-50000J0D01*
G01*
X4903000Y-6985000D02*
G75*
G02*
X5003000Y-6985000I50000J0D01*
G01*
X5003000Y-7239000D02*
G75*
G02*
X4903000Y-7239000I-50000J0D01*
G01*
X4903000Y-7239000D02*
G75*
G02*
X5003000Y-7239000I50000J0D01*
G01*
X5003000Y-7493000D02*
G75*
G02*
X4903000Y-7493000I-50000J0D01*
G01*
X4903000Y-7493000D02*
G75*
G02*
X5003000Y-7493000I50000J0D01*
G01*
X5003000Y-7747000D02*
G75*
G02*
X4903000Y-7747000I-50000J0D01*
G01*
X4903000Y-7747000D02*
G75*
G02*
X5003000Y-7747000I50000J0D01*
G01*
X5003000Y-8001000D02*
G75*
G02*
X4903000Y-8001000I-50000J0D01*
G01*
X4903000Y-8001000D02*
G75*
G02*
X5003000Y-8001000I50000J0D01*
G01*
X5003000Y-8255000D02*
G75*
G02*
X4903000Y-8255000I-50000J0D01*
G01*
X4903000Y-8255000D02*
G75*
G02*
X5003000Y-8255000I50000J0D01*
G01*
X5003000Y-8509000D02*
G75*
G02*
X4903000Y-8509000I-50000J0D01*
G01*
X4903000Y-8509000D02*
G75*
G02*
X5003000Y-8509000I50000J0D01*
G01*
X5003000Y-8763000D02*
G75*
G02*
X4903000Y-8763000I-50000J0D01*
G01*
X4903000Y-8763000D02*
G75*
G02*
X5003000Y-8763000I50000J0D01*
G01*
X5003000Y-9017000D02*
G75*
G02*
X4903000Y-9017000I-50000J0D01*
G01*
X4903000Y-9017000D02*
G75*
G02*
X5003000Y-9017000I50000J0D01*
G01*
X5003000Y-9271000D02*
G75*
G02*
X4903000Y-9271000I-50000J0D01*
G01*
X4903000Y-9271000D02*
G75*
G02*
X5003000Y-9271000I50000J0D01*
G01*
X5003000Y-9525000D02*
G75*
G02*
X4903000Y-9525000I-50000J0D01*
G01*
X4903000Y-9525000D02*
G75*
G02*
X5003000Y-9525000I50000J0D01*
G01*
X5003000Y-9779000D02*
G75*
G02*
X4903000Y-9779000I-50000J0D01*
G01*
X4903000Y-9779000D02*
G75*
G02*
X5003000Y-9779000I50000J0D01*
G01*
X5003000Y-10033000D02*
G75*
G02*
X4903000Y-10033000I-50000J0D01*
G01*
X4903000Y-10033000D02*
G75*
G02*
X5003000Y-10033000I50000J0D01*
G01*
X5003000Y-10287000D02*
G75*
G02*
X4903000Y-10287000I-50000J0D01*
G01*
X4903000Y-10287000D02*
G75*
G02*
X5003000Y-10287000I50000J0D01*
G01*
X5003000Y-10541000D02*
G75*
G02*
X4903000Y-10541000I-50000J0D01*
G01*
X4903000Y-10541000D02*
G75*
G02*
X5003000Y-10541000I50000J0D01*
G01*
X5003000Y-10795000D02*
G75*
G02*
X4903000Y-10795000I-50000J0D01*
G01*
X4903000Y-10795000D02*
G75*
G02*
X5003000Y-10795000I50000J0D01*
G01*
X5003000Y-11049000D02*
G75*
G02*
X4903000Y-11049000I-50000J0D01*
G01*
X4903000Y-11049000D02*
G75*
G02*
X5003000Y-11049000I50000J0D01*
G01*
X5003000Y-11303000D02*
G75*
G02*
X4903000Y-11303000I-50000J0D01*
G01*
X4903000Y-11303000D02*
G75*
G02*
X5003000Y-11303000I50000J0D01*
G01*
X5003000Y-11557000D02*
G75*
G02*
X4903000Y-11557000I-50000J0D01*
G01*
X4903000Y-11557000D02*
G75*
G02*
X5003000Y-11557000I50000J0D01*
G01*
D11*
X4190277Y-13018984D02*
X4190277Y-12818984D01*
X4190277Y-12818984D02*
X4237896Y-12818984D01*
X4237896Y-12818984D02*
X4266467Y-12828508D01*
X4266467Y-12828508D02*
X4285515Y-12847555D01*
X4285515Y-12847555D02*
X4295039Y-12866603D01*
X4295039Y-12866603D02*
X4304563Y-12904698D01*
X4304563Y-12904698D02*
X4304563Y-12933269D01*
X4304563Y-12933269D02*
X4295039Y-12971365D01*
X4295039Y-12971365D02*
X4285515Y-12990412D01*
X4285515Y-12990412D02*
X4266467Y-13009460D01*
X4266467Y-13009460D02*
X4237896Y-13018984D01*
X4237896Y-13018984D02*
X4190277Y-13018984D01*
X4390277Y-13018984D02*
X4390277Y-12885650D01*
X4390277Y-12923746D02*
X4399801Y-12904698D01*
X4399801Y-12904698D02*
X4409324Y-12895174D01*
X4409324Y-12895174D02*
X4428372Y-12885650D01*
X4428372Y-12885650D02*
X4447420Y-12885650D01*
X4514086Y-13018984D02*
X4514086Y-12885650D01*
X4514086Y-12818984D02*
X4504563Y-12828508D01*
X4504563Y-12828508D02*
X4514086Y-12838031D01*
X4514086Y-12838031D02*
X4523610Y-12828508D01*
X4523610Y-12828508D02*
X4514086Y-12818984D01*
X4514086Y-12818984D02*
X4514086Y-12838031D01*
X4637896Y-13018984D02*
X4618848Y-13009460D01*
X4618848Y-13009460D02*
X4609324Y-12990412D01*
X4609324Y-12990412D02*
X4609324Y-12818984D01*
X4742658Y-13018984D02*
X4723610Y-13009460D01*
X4723610Y-13009460D02*
X4714086Y-12990412D01*
X4714086Y-12990412D02*
X4714086Y-12818984D01*
X4971229Y-13018984D02*
X4971229Y-12818984D01*
X4971229Y-12818984D02*
X5037896Y-12961841D01*
X5037896Y-12961841D02*
X5104563Y-12818984D01*
X5104563Y-12818984D02*
X5104563Y-13018984D01*
X5285515Y-13018984D02*
X5285515Y-12914222D01*
X5285515Y-12914222D02*
X5275991Y-12895174D01*
X5275991Y-12895174D02*
X5256944Y-12885650D01*
X5256944Y-12885650D02*
X5218848Y-12885650D01*
X5218848Y-12885650D02*
X5199801Y-12895174D01*
X5285515Y-13009460D02*
X5266467Y-13018984D01*
X5266467Y-13018984D02*
X5218848Y-13018984D01*
X5218848Y-13018984D02*
X5199801Y-13009460D01*
X5199801Y-13009460D02*
X5190277Y-12990412D01*
X5190277Y-12990412D02*
X5190277Y-12971365D01*
X5190277Y-12971365D02*
X5199801Y-12952317D01*
X5199801Y-12952317D02*
X5218848Y-12942793D01*
X5218848Y-12942793D02*
X5266467Y-12942793D01*
X5266467Y-12942793D02*
X5285515Y-12933269D01*
X5380753Y-12885650D02*
X5380753Y-13085650D01*
X5380753Y-12895174D02*
X5399801Y-12885650D01*
X5399801Y-12885650D02*
X5437896Y-12885650D01*
X5437896Y-12885650D02*
X5456944Y-12895174D01*
X5456944Y-12895174D02*
X5466467Y-12904698D01*
X5466467Y-12904698D02*
X5475991Y-12923746D01*
X5475991Y-12923746D02*
X5475991Y-12980888D01*
X5475991Y-12980888D02*
X5466467Y-12999936D01*
X5466467Y-12999936D02*
X5456944Y-13009460D01*
X5456944Y-13009460D02*
X5437896Y-13018984D01*
X5437896Y-13018984D02*
X5399801Y-13018984D01*
X5399801Y-13018984D02*
X5380753Y-13009460D01*
X5561705Y-12999936D02*
X5571229Y-13009460D01*
X5571229Y-13009460D02*
X5561705Y-13018984D01*
X5561705Y-13018984D02*
X5552182Y-13009460D01*
X5552182Y-13009460D02*
X5561705Y-12999936D01*
X5561705Y-12999936D02*
X5561705Y-13018984D01*
X5561705Y-12895174D02*
X5571229Y-12904698D01*
X5571229Y-12904698D02*
X5561705Y-12914222D01*
X5561705Y-12914222D02*
X5552182Y-12904698D01*
X5552182Y-12904698D02*
X5561705Y-12895174D01*
X5561705Y-12895174D02*
X5561705Y-12914222D01*
D12*
X3909500Y-13337500D02*
X3929500Y-13357500D01*
X3929500Y-13337500D02*
X3909500Y-13357500D01*
D11*
X4228372Y-13238984D02*
X4247420Y-13238984D01*
X4247420Y-13238984D02*
X4266467Y-13248508D01*
X4266467Y-13248508D02*
X4275991Y-13258031D01*
X4275991Y-13258031D02*
X4285515Y-13277079D01*
X4285515Y-13277079D02*
X4295039Y-13315174D01*
X4295039Y-13315174D02*
X4295039Y-13362793D01*
X4295039Y-13362793D02*
X4285515Y-13400888D01*
X4285515Y-13400888D02*
X4275991Y-13419936D01*
X4275991Y-13419936D02*
X4266467Y-13429460D01*
X4266467Y-13429460D02*
X4247420Y-13438984D01*
X4247420Y-13438984D02*
X4228372Y-13438984D01*
X4228372Y-13438984D02*
X4209324Y-13429460D01*
X4209324Y-13429460D02*
X4199801Y-13419936D01*
X4199801Y-13419936D02*
X4190277Y-13400888D01*
X4190277Y-13400888D02*
X4180753Y-13362793D01*
X4180753Y-13362793D02*
X4180753Y-13315174D01*
X4180753Y-13315174D02*
X4190277Y-13277079D01*
X4190277Y-13277079D02*
X4199801Y-13258031D01*
X4199801Y-13258031D02*
X4209324Y-13248508D01*
X4209324Y-13248508D02*
X4228372Y-13238984D01*
X4380753Y-13419936D02*
X4390277Y-13429460D01*
X4390277Y-13429460D02*
X4380753Y-13438984D01*
X4380753Y-13438984D02*
X4371229Y-13429460D01*
X4371229Y-13429460D02*
X4380753Y-13419936D01*
X4380753Y-13419936D02*
X4380753Y-13438984D01*
X4466467Y-13258031D02*
X4475991Y-13248508D01*
X4475991Y-13248508D02*
X4495039Y-13238984D01*
X4495039Y-13238984D02*
X4542658Y-13238984D01*
X4542658Y-13238984D02*
X4561705Y-13248508D01*
X4561705Y-13248508D02*
X4571229Y-13258031D01*
X4571229Y-13258031D02*
X4580753Y-13277079D01*
X4580753Y-13277079D02*
X4580753Y-13296127D01*
X4580753Y-13296127D02*
X4571229Y-13324698D01*
X4571229Y-13324698D02*
X4456944Y-13438984D01*
X4456944Y-13438984D02*
X4580753Y-13438984D01*
X4704563Y-13238984D02*
X4723610Y-13238984D01*
X4723610Y-13238984D02*
X4742658Y-13248508D01*
X4742658Y-13248508D02*
X4752182Y-13258031D01*
X4752182Y-13258031D02*
X4761705Y-13277079D01*
X4761705Y-13277079D02*
X4771229Y-13315174D01*
X4771229Y-13315174D02*
X4771229Y-13362793D01*
X4771229Y-13362793D02*
X4761705Y-13400888D01*
X4761705Y-13400888D02*
X4752182Y-13419936D01*
X4752182Y-13419936D02*
X4742658Y-13429460D01*
X4742658Y-13429460D02*
X4723610Y-13438984D01*
X4723610Y-13438984D02*
X4704563Y-13438984D01*
X4704563Y-13438984D02*
X4685515Y-13429460D01*
X4685515Y-13429460D02*
X4675991Y-13419936D01*
X4675991Y-13419936D02*
X4666467Y-13400888D01*
X4666467Y-13400888D02*
X4656944Y-13362793D01*
X4656944Y-13362793D02*
X4656944Y-13315174D01*
X4656944Y-13315174D02*
X4666467Y-13277079D01*
X4666467Y-13277079D02*
X4675991Y-13258031D01*
X4675991Y-13258031D02*
X4685515Y-13248508D01*
X4685515Y-13248508D02*
X4704563Y-13238984D01*
X4895039Y-13238984D02*
X4914086Y-13238984D01*
X4914086Y-13238984D02*
X4933134Y-13248508D01*
X4933134Y-13248508D02*
X4942658Y-13258031D01*
X4942658Y-13258031D02*
X4952182Y-13277079D01*
X4952182Y-13277079D02*
X4961705Y-13315174D01*
X4961705Y-13315174D02*
X4961705Y-13362793D01*
X4961705Y-13362793D02*
X4952182Y-13400888D01*
X4952182Y-13400888D02*
X4942658Y-13419936D01*
X4942658Y-13419936D02*
X4933134Y-13429460D01*
X4933134Y-13429460D02*
X4914086Y-13438984D01*
X4914086Y-13438984D02*
X4895039Y-13438984D01*
X4895039Y-13438984D02*
X4875991Y-13429460D01*
X4875991Y-13429460D02*
X4866467Y-13419936D01*
X4866467Y-13419936D02*
X4856944Y-13400888D01*
X4856944Y-13400888D02*
X4847420Y-13362793D01*
X4847420Y-13362793D02*
X4847420Y-13315174D01*
X4847420Y-13315174D02*
X4856944Y-13277079D01*
X4856944Y-13277079D02*
X4866467Y-13258031D01*
X4866467Y-13258031D02*
X4875991Y-13248508D01*
X4875991Y-13248508D02*
X4895039Y-13238984D01*
X5047420Y-13438984D02*
X5047420Y-13305650D01*
X5047420Y-13324698D02*
X5056944Y-13315174D01*
X5056944Y-13315174D02*
X5075991Y-13305650D01*
X5075991Y-13305650D02*
X5104563Y-13305650D01*
X5104563Y-13305650D02*
X5123610Y-13315174D01*
X5123610Y-13315174D02*
X5133134Y-13334222D01*
X5133134Y-13334222D02*
X5133134Y-13438984D01*
X5133134Y-13334222D02*
X5142658Y-13315174D01*
X5142658Y-13315174D02*
X5161705Y-13305650D01*
X5161705Y-13305650D02*
X5190277Y-13305650D01*
X5190277Y-13305650D02*
X5209325Y-13315174D01*
X5209325Y-13315174D02*
X5218848Y-13334222D01*
X5218848Y-13334222D02*
X5218848Y-13438984D01*
X5314086Y-13438984D02*
X5314086Y-13305650D01*
X5314086Y-13324698D02*
X5323610Y-13315174D01*
X5323610Y-13315174D02*
X5342658Y-13305650D01*
X5342658Y-13305650D02*
X5371229Y-13305650D01*
X5371229Y-13305650D02*
X5390277Y-13315174D01*
X5390277Y-13315174D02*
X5399801Y-13334222D01*
X5399801Y-13334222D02*
X5399801Y-13438984D01*
X5399801Y-13334222D02*
X5409325Y-13315174D01*
X5409325Y-13315174D02*
X5428372Y-13305650D01*
X5428372Y-13305650D02*
X5456944Y-13305650D01*
X5456944Y-13305650D02*
X5475991Y-13315174D01*
X5475991Y-13315174D02*
X5485515Y-13334222D01*
X5485515Y-13334222D02*
X5485515Y-13438984D01*
X5875991Y-13229460D02*
X5704563Y-13486603D01*
X6133134Y-13238984D02*
X6152182Y-13238984D01*
X6152182Y-13238984D02*
X6171229Y-13248508D01*
X6171229Y-13248508D02*
X6180753Y-13258031D01*
X6180753Y-13258031D02*
X6190277Y-13277079D01*
X6190277Y-13277079D02*
X6199801Y-13315174D01*
X6199801Y-13315174D02*
X6199801Y-13362793D01*
X6199801Y-13362793D02*
X6190277Y-13400888D01*
X6190277Y-13400888D02*
X6180753Y-13419936D01*
X6180753Y-13419936D02*
X6171229Y-13429460D01*
X6171229Y-13429460D02*
X6152182Y-13438984D01*
X6152182Y-13438984D02*
X6133134Y-13438984D01*
X6133134Y-13438984D02*
X6114086Y-13429460D01*
X6114086Y-13429460D02*
X6104563Y-13419936D01*
X6104563Y-13419936D02*
X6095039Y-13400888D01*
X6095039Y-13400888D02*
X6085515Y-13362793D01*
X6085515Y-13362793D02*
X6085515Y-13315174D01*
X6085515Y-13315174D02*
X6095039Y-13277079D01*
X6095039Y-13277079D02*
X6104563Y-13258031D01*
X6104563Y-13258031D02*
X6114086Y-13248508D01*
X6114086Y-13248508D02*
X6133134Y-13238984D01*
X6285515Y-13419936D02*
X6295039Y-13429460D01*
X6295039Y-13429460D02*
X6285515Y-13438984D01*
X6285515Y-13438984D02*
X6275991Y-13429460D01*
X6275991Y-13429460D02*
X6285515Y-13419936D01*
X6285515Y-13419936D02*
X6285515Y-13438984D01*
X6418848Y-13238984D02*
X6437896Y-13238984D01*
X6437896Y-13238984D02*
X6456944Y-13248508D01*
X6456944Y-13248508D02*
X6466467Y-13258031D01*
X6466467Y-13258031D02*
X6475991Y-13277079D01*
X6475991Y-13277079D02*
X6485515Y-13315174D01*
X6485515Y-13315174D02*
X6485515Y-13362793D01*
X6485515Y-13362793D02*
X6475991Y-13400888D01*
X6475991Y-13400888D02*
X6466467Y-13419936D01*
X6466467Y-13419936D02*
X6456944Y-13429460D01*
X6456944Y-13429460D02*
X6437896Y-13438984D01*
X6437896Y-13438984D02*
X6418848Y-13438984D01*
X6418848Y-13438984D02*
X6399801Y-13429460D01*
X6399801Y-13429460D02*
X6390277Y-13419936D01*
X6390277Y-13419936D02*
X6380753Y-13400888D01*
X6380753Y-13400888D02*
X6371229Y-13362793D01*
X6371229Y-13362793D02*
X6371229Y-13315174D01*
X6371229Y-13315174D02*
X6380753Y-13277079D01*
X6380753Y-13277079D02*
X6390277Y-13258031D01*
X6390277Y-13258031D02*
X6399801Y-13248508D01*
X6399801Y-13248508D02*
X6418848Y-13238984D01*
X6609325Y-13238984D02*
X6628372Y-13238984D01*
X6628372Y-13238984D02*
X6647420Y-13248508D01*
X6647420Y-13248508D02*
X6656944Y-13258031D01*
X6656944Y-13258031D02*
X6666467Y-13277079D01*
X6666467Y-13277079D02*
X6675991Y-13315174D01*
X6675991Y-13315174D02*
X6675991Y-13362793D01*
X6675991Y-13362793D02*
X6666467Y-13400888D01*
X6666467Y-13400888D02*
X6656944Y-13419936D01*
X6656944Y-13419936D02*
X6647420Y-13429460D01*
X6647420Y-13429460D02*
X6628372Y-13438984D01*
X6628372Y-13438984D02*
X6609325Y-13438984D01*
X6609325Y-13438984D02*
X6590277Y-13429460D01*
X6590277Y-13429460D02*
X6580753Y-13419936D01*
X6580753Y-13419936D02*
X6571229Y-13400888D01*
X6571229Y-13400888D02*
X6561706Y-13362793D01*
X6561706Y-13362793D02*
X6561706Y-13315174D01*
X6561706Y-13315174D02*
X6571229Y-13277079D01*
X6571229Y-13277079D02*
X6580753Y-13258031D01*
X6580753Y-13258031D02*
X6590277Y-13248508D01*
X6590277Y-13248508D02*
X6609325Y-13238984D01*
X6742658Y-13238984D02*
X6875991Y-13238984D01*
X6875991Y-13238984D02*
X6790277Y-13438984D01*
X6961706Y-13438984D02*
X6999801Y-13438984D01*
X6999801Y-13438984D02*
X7018848Y-13429460D01*
X7018848Y-13429460D02*
X7028372Y-13419936D01*
X7028372Y-13419936D02*
X7047420Y-13391365D01*
X7047420Y-13391365D02*
X7056944Y-13353269D01*
X7056944Y-13353269D02*
X7056944Y-13277079D01*
X7056944Y-13277079D02*
X7047420Y-13258031D01*
X7047420Y-13258031D02*
X7037896Y-13248508D01*
X7037896Y-13248508D02*
X7018848Y-13238984D01*
X7018848Y-13238984D02*
X6980753Y-13238984D01*
X6980753Y-13238984D02*
X6961706Y-13248508D01*
X6961706Y-13248508D02*
X6952182Y-13258031D01*
X6952182Y-13258031D02*
X6942658Y-13277079D01*
X6942658Y-13277079D02*
X6942658Y-13324698D01*
X6942658Y-13324698D02*
X6952182Y-13343746D01*
X6952182Y-13343746D02*
X6961706Y-13353269D01*
X6961706Y-13353269D02*
X6980753Y-13362793D01*
X6980753Y-13362793D02*
X7018848Y-13362793D01*
X7018848Y-13362793D02*
X7037896Y-13353269D01*
X7037896Y-13353269D02*
X7047420Y-13343746D01*
X7047420Y-13343746D02*
X7056944Y-13324698D01*
X7133134Y-13238984D02*
X7133134Y-13277079D01*
X7209325Y-13238984D02*
X7209325Y-13277079D01*
X7504563Y-13515174D02*
X7495039Y-13505650D01*
X7495039Y-13505650D02*
X7475991Y-13477079D01*
X7475991Y-13477079D02*
X7466468Y-13458031D01*
X7466468Y-13458031D02*
X7456944Y-13429460D01*
X7456944Y-13429460D02*
X7447420Y-13381841D01*
X7447420Y-13381841D02*
X7447420Y-13343746D01*
X7447420Y-13343746D02*
X7456944Y-13296127D01*
X7456944Y-13296127D02*
X7466468Y-13267555D01*
X7466468Y-13267555D02*
X7475991Y-13248508D01*
X7475991Y-13248508D02*
X7495039Y-13219936D01*
X7495039Y-13219936D02*
X7504563Y-13210412D01*
X7561706Y-13238984D02*
X7685515Y-13238984D01*
X7685515Y-13238984D02*
X7618848Y-13315174D01*
X7618848Y-13315174D02*
X7647420Y-13315174D01*
X7647420Y-13315174D02*
X7666468Y-13324698D01*
X7666468Y-13324698D02*
X7675991Y-13334222D01*
X7675991Y-13334222D02*
X7685515Y-13353269D01*
X7685515Y-13353269D02*
X7685515Y-13400888D01*
X7685515Y-13400888D02*
X7675991Y-13419936D01*
X7675991Y-13419936D02*
X7666468Y-13429460D01*
X7666468Y-13429460D02*
X7647420Y-13438984D01*
X7647420Y-13438984D02*
X7590277Y-13438984D01*
X7590277Y-13438984D02*
X7571229Y-13429460D01*
X7571229Y-13429460D02*
X7561706Y-13419936D01*
X7780753Y-13438984D02*
X7818848Y-13438984D01*
X7818848Y-13438984D02*
X7837896Y-13429460D01*
X7837896Y-13429460D02*
X7847420Y-13419936D01*
X7847420Y-13419936D02*
X7866468Y-13391365D01*
X7866468Y-13391365D02*
X7875991Y-13353269D01*
X7875991Y-13353269D02*
X7875991Y-13277079D01*
X7875991Y-13277079D02*
X7866468Y-13258031D01*
X7866468Y-13258031D02*
X7856944Y-13248508D01*
X7856944Y-13248508D02*
X7837896Y-13238984D01*
X7837896Y-13238984D02*
X7799801Y-13238984D01*
X7799801Y-13238984D02*
X7780753Y-13248508D01*
X7780753Y-13248508D02*
X7771229Y-13258031D01*
X7771229Y-13258031D02*
X7761706Y-13277079D01*
X7761706Y-13277079D02*
X7761706Y-13324698D01*
X7761706Y-13324698D02*
X7771229Y-13343746D01*
X7771229Y-13343746D02*
X7780753Y-13353269D01*
X7780753Y-13353269D02*
X7799801Y-13362793D01*
X7799801Y-13362793D02*
X7837896Y-13362793D01*
X7837896Y-13362793D02*
X7856944Y-13353269D01*
X7856944Y-13353269D02*
X7866468Y-13343746D01*
X7866468Y-13343746D02*
X7875991Y-13324698D01*
X7952182Y-13258031D02*
X7961706Y-13248508D01*
X7961706Y-13248508D02*
X7980753Y-13238984D01*
X7980753Y-13238984D02*
X8028372Y-13238984D01*
X8028372Y-13238984D02*
X8047420Y-13248508D01*
X8047420Y-13248508D02*
X8056944Y-13258031D01*
X8056944Y-13258031D02*
X8066468Y-13277079D01*
X8066468Y-13277079D02*
X8066468Y-13296127D01*
X8066468Y-13296127D02*
X8056944Y-13324698D01*
X8056944Y-13324698D02*
X7942658Y-13438984D01*
X7942658Y-13438984D02*
X8066468Y-13438984D01*
X8304563Y-13438984D02*
X8304563Y-13238984D01*
X8390277Y-13438984D02*
X8390277Y-13334222D01*
X8390277Y-13334222D02*
X8380753Y-13315174D01*
X8380753Y-13315174D02*
X8361706Y-13305650D01*
X8361706Y-13305650D02*
X8333134Y-13305650D01*
X8333134Y-13305650D02*
X8314087Y-13315174D01*
X8314087Y-13315174D02*
X8304563Y-13324698D01*
X8514087Y-13438984D02*
X8495039Y-13429460D01*
X8495039Y-13429460D02*
X8485515Y-13419936D01*
X8485515Y-13419936D02*
X8475992Y-13400888D01*
X8475992Y-13400888D02*
X8475992Y-13343746D01*
X8475992Y-13343746D02*
X8485515Y-13324698D01*
X8485515Y-13324698D02*
X8495039Y-13315174D01*
X8495039Y-13315174D02*
X8514087Y-13305650D01*
X8514087Y-13305650D02*
X8542658Y-13305650D01*
X8542658Y-13305650D02*
X8561706Y-13315174D01*
X8561706Y-13315174D02*
X8571230Y-13324698D01*
X8571230Y-13324698D02*
X8580753Y-13343746D01*
X8580753Y-13343746D02*
X8580753Y-13400888D01*
X8580753Y-13400888D02*
X8571230Y-13419936D01*
X8571230Y-13419936D02*
X8561706Y-13429460D01*
X8561706Y-13429460D02*
X8542658Y-13438984D01*
X8542658Y-13438984D02*
X8514087Y-13438984D01*
X8695039Y-13438984D02*
X8675992Y-13429460D01*
X8675992Y-13429460D02*
X8666468Y-13410412D01*
X8666468Y-13410412D02*
X8666468Y-13238984D01*
X8847420Y-13429460D02*
X8828373Y-13438984D01*
X8828373Y-13438984D02*
X8790277Y-13438984D01*
X8790277Y-13438984D02*
X8771230Y-13429460D01*
X8771230Y-13429460D02*
X8761706Y-13410412D01*
X8761706Y-13410412D02*
X8761706Y-13334222D01*
X8761706Y-13334222D02*
X8771230Y-13315174D01*
X8771230Y-13315174D02*
X8790277Y-13305650D01*
X8790277Y-13305650D02*
X8828373Y-13305650D01*
X8828373Y-13305650D02*
X8847420Y-13315174D01*
X8847420Y-13315174D02*
X8856944Y-13334222D01*
X8856944Y-13334222D02*
X8856944Y-13353269D01*
X8856944Y-13353269D02*
X8761706Y-13372317D01*
X8933134Y-13429460D02*
X8952182Y-13438984D01*
X8952182Y-13438984D02*
X8990277Y-13438984D01*
X8990277Y-13438984D02*
X9009325Y-13429460D01*
X9009325Y-13429460D02*
X9018849Y-13410412D01*
X9018849Y-13410412D02*
X9018849Y-13400888D01*
X9018849Y-13400888D02*
X9009325Y-13381841D01*
X9009325Y-13381841D02*
X8990277Y-13372317D01*
X8990277Y-13372317D02*
X8961706Y-13372317D01*
X8961706Y-13372317D02*
X8942658Y-13362793D01*
X8942658Y-13362793D02*
X8933134Y-13343746D01*
X8933134Y-13343746D02*
X8933134Y-13334222D01*
X8933134Y-13334222D02*
X8942658Y-13315174D01*
X8942658Y-13315174D02*
X8961706Y-13305650D01*
X8961706Y-13305650D02*
X8990277Y-13305650D01*
X8990277Y-13305650D02*
X9009325Y-13315174D01*
X9085515Y-13515174D02*
X9095039Y-13505650D01*
X9095039Y-13505650D02*
X9114087Y-13477079D01*
X9114087Y-13477079D02*
X9123611Y-13458031D01*
X9123611Y-13458031D02*
X9133134Y-13429460D01*
X9133134Y-13429460D02*
X9142658Y-13381841D01*
X9142658Y-13381841D02*
X9142658Y-13343746D01*
X9142658Y-13343746D02*
X9133134Y-13296127D01*
X9133134Y-13296127D02*
X9123611Y-13267555D01*
X9123611Y-13267555D02*
X9114087Y-13248508D01*
X9114087Y-13248508D02*
X9095039Y-13219936D01*
X9095039Y-13219936D02*
X9085515Y-13210412D01*
D12*
X3929500Y-13611500D02*
G75*
G02*
X3829500Y-13611500I-50000J0D01*
G01*
X3829500Y-13611500D02*
G75*
G02*
X3929500Y-13611500I50000J0D01*
G01*
D11*
X4295039Y-13702984D02*
X4180753Y-13702984D01*
X4237896Y-13702984D02*
X4237896Y-13502984D01*
X4237896Y-13502984D02*
X4218848Y-13531555D01*
X4218848Y-13531555D02*
X4199801Y-13550603D01*
X4199801Y-13550603D02*
X4180753Y-13560127D01*
X4380753Y-13683936D02*
X4390277Y-13693460D01*
X4390277Y-13693460D02*
X4380753Y-13702984D01*
X4380753Y-13702984D02*
X4371229Y-13693460D01*
X4371229Y-13693460D02*
X4380753Y-13683936D01*
X4380753Y-13683936D02*
X4380753Y-13702984D01*
X4514086Y-13502984D02*
X4533134Y-13502984D01*
X4533134Y-13502984D02*
X4552182Y-13512508D01*
X4552182Y-13512508D02*
X4561705Y-13522031D01*
X4561705Y-13522031D02*
X4571229Y-13541079D01*
X4571229Y-13541079D02*
X4580753Y-13579174D01*
X4580753Y-13579174D02*
X4580753Y-13626793D01*
X4580753Y-13626793D02*
X4571229Y-13664888D01*
X4571229Y-13664888D02*
X4561705Y-13683936D01*
X4561705Y-13683936D02*
X4552182Y-13693460D01*
X4552182Y-13693460D02*
X4533134Y-13702984D01*
X4533134Y-13702984D02*
X4514086Y-13702984D01*
X4514086Y-13702984D02*
X4495039Y-13693460D01*
X4495039Y-13693460D02*
X4485515Y-13683936D01*
X4485515Y-13683936D02*
X4475991Y-13664888D01*
X4475991Y-13664888D02*
X4466467Y-13626793D01*
X4466467Y-13626793D02*
X4466467Y-13579174D01*
X4466467Y-13579174D02*
X4475991Y-13541079D01*
X4475991Y-13541079D02*
X4485515Y-13522031D01*
X4485515Y-13522031D02*
X4495039Y-13512508D01*
X4495039Y-13512508D02*
X4514086Y-13502984D01*
X4704563Y-13502984D02*
X4723610Y-13502984D01*
X4723610Y-13502984D02*
X4742658Y-13512508D01*
X4742658Y-13512508D02*
X4752182Y-13522031D01*
X4752182Y-13522031D02*
X4761705Y-13541079D01*
X4761705Y-13541079D02*
X4771229Y-13579174D01*
X4771229Y-13579174D02*
X4771229Y-13626793D01*
X4771229Y-13626793D02*
X4761705Y-13664888D01*
X4761705Y-13664888D02*
X4752182Y-13683936D01*
X4752182Y-13683936D02*
X4742658Y-13693460D01*
X4742658Y-13693460D02*
X4723610Y-13702984D01*
X4723610Y-13702984D02*
X4704563Y-13702984D01*
X4704563Y-13702984D02*
X4685515Y-13693460D01*
X4685515Y-13693460D02*
X4675991Y-13683936D01*
X4675991Y-13683936D02*
X4666467Y-13664888D01*
X4666467Y-13664888D02*
X4656944Y-13626793D01*
X4656944Y-13626793D02*
X4656944Y-13579174D01*
X4656944Y-13579174D02*
X4666467Y-13541079D01*
X4666467Y-13541079D02*
X4675991Y-13522031D01*
X4675991Y-13522031D02*
X4685515Y-13512508D01*
X4685515Y-13512508D02*
X4704563Y-13502984D01*
X4895039Y-13502984D02*
X4914086Y-13502984D01*
X4914086Y-13502984D02*
X4933134Y-13512508D01*
X4933134Y-13512508D02*
X4942658Y-13522031D01*
X4942658Y-13522031D02*
X4952182Y-13541079D01*
X4952182Y-13541079D02*
X4961705Y-13579174D01*
X4961705Y-13579174D02*
X4961705Y-13626793D01*
X4961705Y-13626793D02*
X4952182Y-13664888D01*
X4952182Y-13664888D02*
X4942658Y-13683936D01*
X4942658Y-13683936D02*
X4933134Y-13693460D01*
X4933134Y-13693460D02*
X4914086Y-13702984D01*
X4914086Y-13702984D02*
X4895039Y-13702984D01*
X4895039Y-13702984D02*
X4875991Y-13693460D01*
X4875991Y-13693460D02*
X4866467Y-13683936D01*
X4866467Y-13683936D02*
X4856944Y-13664888D01*
X4856944Y-13664888D02*
X4847420Y-13626793D01*
X4847420Y-13626793D02*
X4847420Y-13579174D01*
X4847420Y-13579174D02*
X4856944Y-13541079D01*
X4856944Y-13541079D02*
X4866467Y-13522031D01*
X4866467Y-13522031D02*
X4875991Y-13512508D01*
X4875991Y-13512508D02*
X4895039Y-13502984D01*
X5047420Y-13702984D02*
X5047420Y-13569650D01*
X5047420Y-13588698D02*
X5056944Y-13579174D01*
X5056944Y-13579174D02*
X5075991Y-13569650D01*
X5075991Y-13569650D02*
X5104563Y-13569650D01*
X5104563Y-13569650D02*
X5123610Y-13579174D01*
X5123610Y-13579174D02*
X5133134Y-13598222D01*
X5133134Y-13598222D02*
X5133134Y-13702984D01*
X5133134Y-13598222D02*
X5142658Y-13579174D01*
X5142658Y-13579174D02*
X5161705Y-13569650D01*
X5161705Y-13569650D02*
X5190277Y-13569650D01*
X5190277Y-13569650D02*
X5209325Y-13579174D01*
X5209325Y-13579174D02*
X5218848Y-13598222D01*
X5218848Y-13598222D02*
X5218848Y-13702984D01*
X5314086Y-13702984D02*
X5314086Y-13569650D01*
X5314086Y-13588698D02*
X5323610Y-13579174D01*
X5323610Y-13579174D02*
X5342658Y-13569650D01*
X5342658Y-13569650D02*
X5371229Y-13569650D01*
X5371229Y-13569650D02*
X5390277Y-13579174D01*
X5390277Y-13579174D02*
X5399801Y-13598222D01*
X5399801Y-13598222D02*
X5399801Y-13702984D01*
X5399801Y-13598222D02*
X5409325Y-13579174D01*
X5409325Y-13579174D02*
X5428372Y-13569650D01*
X5428372Y-13569650D02*
X5456944Y-13569650D01*
X5456944Y-13569650D02*
X5475991Y-13579174D01*
X5475991Y-13579174D02*
X5485515Y-13598222D01*
X5485515Y-13598222D02*
X5485515Y-13702984D01*
X5875991Y-13493460D02*
X5704563Y-13750603D01*
X6133134Y-13502984D02*
X6152182Y-13502984D01*
X6152182Y-13502984D02*
X6171229Y-13512508D01*
X6171229Y-13512508D02*
X6180753Y-13522031D01*
X6180753Y-13522031D02*
X6190277Y-13541079D01*
X6190277Y-13541079D02*
X6199801Y-13579174D01*
X6199801Y-13579174D02*
X6199801Y-13626793D01*
X6199801Y-13626793D02*
X6190277Y-13664888D01*
X6190277Y-13664888D02*
X6180753Y-13683936D01*
X6180753Y-13683936D02*
X6171229Y-13693460D01*
X6171229Y-13693460D02*
X6152182Y-13702984D01*
X6152182Y-13702984D02*
X6133134Y-13702984D01*
X6133134Y-13702984D02*
X6114086Y-13693460D01*
X6114086Y-13693460D02*
X6104563Y-13683936D01*
X6104563Y-13683936D02*
X6095039Y-13664888D01*
X6095039Y-13664888D02*
X6085515Y-13626793D01*
X6085515Y-13626793D02*
X6085515Y-13579174D01*
X6085515Y-13579174D02*
X6095039Y-13541079D01*
X6095039Y-13541079D02*
X6104563Y-13522031D01*
X6104563Y-13522031D02*
X6114086Y-13512508D01*
X6114086Y-13512508D02*
X6133134Y-13502984D01*
X6285515Y-13683936D02*
X6295039Y-13693460D01*
X6295039Y-13693460D02*
X6285515Y-13702984D01*
X6285515Y-13702984D02*
X6275991Y-13693460D01*
X6275991Y-13693460D02*
X6285515Y-13683936D01*
X6285515Y-13683936D02*
X6285515Y-13702984D01*
X6418848Y-13502984D02*
X6437896Y-13502984D01*
X6437896Y-13502984D02*
X6456944Y-13512508D01*
X6456944Y-13512508D02*
X6466467Y-13522031D01*
X6466467Y-13522031D02*
X6475991Y-13541079D01*
X6475991Y-13541079D02*
X6485515Y-13579174D01*
X6485515Y-13579174D02*
X6485515Y-13626793D01*
X6485515Y-13626793D02*
X6475991Y-13664888D01*
X6475991Y-13664888D02*
X6466467Y-13683936D01*
X6466467Y-13683936D02*
X6456944Y-13693460D01*
X6456944Y-13693460D02*
X6437896Y-13702984D01*
X6437896Y-13702984D02*
X6418848Y-13702984D01*
X6418848Y-13702984D02*
X6399801Y-13693460D01*
X6399801Y-13693460D02*
X6390277Y-13683936D01*
X6390277Y-13683936D02*
X6380753Y-13664888D01*
X6380753Y-13664888D02*
X6371229Y-13626793D01*
X6371229Y-13626793D02*
X6371229Y-13579174D01*
X6371229Y-13579174D02*
X6380753Y-13541079D01*
X6380753Y-13541079D02*
X6390277Y-13522031D01*
X6390277Y-13522031D02*
X6399801Y-13512508D01*
X6399801Y-13512508D02*
X6418848Y-13502984D01*
X6552182Y-13502984D02*
X6675991Y-13502984D01*
X6675991Y-13502984D02*
X6609325Y-13579174D01*
X6609325Y-13579174D02*
X6637896Y-13579174D01*
X6637896Y-13579174D02*
X6656944Y-13588698D01*
X6656944Y-13588698D02*
X6666467Y-13598222D01*
X6666467Y-13598222D02*
X6675991Y-13617269D01*
X6675991Y-13617269D02*
X6675991Y-13664888D01*
X6675991Y-13664888D02*
X6666467Y-13683936D01*
X6666467Y-13683936D02*
X6656944Y-13693460D01*
X6656944Y-13693460D02*
X6637896Y-13702984D01*
X6637896Y-13702984D02*
X6580753Y-13702984D01*
X6580753Y-13702984D02*
X6561706Y-13693460D01*
X6561706Y-13693460D02*
X6552182Y-13683936D01*
X6771229Y-13702984D02*
X6809325Y-13702984D01*
X6809325Y-13702984D02*
X6828372Y-13693460D01*
X6828372Y-13693460D02*
X6837896Y-13683936D01*
X6837896Y-13683936D02*
X6856944Y-13655365D01*
X6856944Y-13655365D02*
X6866467Y-13617269D01*
X6866467Y-13617269D02*
X6866467Y-13541079D01*
X6866467Y-13541079D02*
X6856944Y-13522031D01*
X6856944Y-13522031D02*
X6847420Y-13512508D01*
X6847420Y-13512508D02*
X6828372Y-13502984D01*
X6828372Y-13502984D02*
X6790277Y-13502984D01*
X6790277Y-13502984D02*
X6771229Y-13512508D01*
X6771229Y-13512508D02*
X6761706Y-13522031D01*
X6761706Y-13522031D02*
X6752182Y-13541079D01*
X6752182Y-13541079D02*
X6752182Y-13588698D01*
X6752182Y-13588698D02*
X6761706Y-13607746D01*
X6761706Y-13607746D02*
X6771229Y-13617269D01*
X6771229Y-13617269D02*
X6790277Y-13626793D01*
X6790277Y-13626793D02*
X6828372Y-13626793D01*
X6828372Y-13626793D02*
X6847420Y-13617269D01*
X6847420Y-13617269D02*
X6856944Y-13607746D01*
X6856944Y-13607746D02*
X6866467Y-13588698D01*
X7037896Y-13569650D02*
X7037896Y-13702984D01*
X6990277Y-13493460D02*
X6942658Y-13636317D01*
X6942658Y-13636317D02*
X7066467Y-13636317D01*
X7133134Y-13502984D02*
X7133134Y-13541079D01*
X7209325Y-13502984D02*
X7209325Y-13541079D01*
X7504563Y-13779174D02*
X7495039Y-13769650D01*
X7495039Y-13769650D02*
X7475991Y-13741079D01*
X7475991Y-13741079D02*
X7466468Y-13722031D01*
X7466468Y-13722031D02*
X7456944Y-13693460D01*
X7456944Y-13693460D02*
X7447420Y-13645841D01*
X7447420Y-13645841D02*
X7447420Y-13607746D01*
X7447420Y-13607746D02*
X7456944Y-13560127D01*
X7456944Y-13560127D02*
X7466468Y-13531555D01*
X7466468Y-13531555D02*
X7475991Y-13512508D01*
X7475991Y-13512508D02*
X7495039Y-13483936D01*
X7495039Y-13483936D02*
X7504563Y-13474412D01*
X7590277Y-13702984D02*
X7628372Y-13702984D01*
X7628372Y-13702984D02*
X7647420Y-13693460D01*
X7647420Y-13693460D02*
X7656944Y-13683936D01*
X7656944Y-13683936D02*
X7675991Y-13655365D01*
X7675991Y-13655365D02*
X7685515Y-13617269D01*
X7685515Y-13617269D02*
X7685515Y-13541079D01*
X7685515Y-13541079D02*
X7675991Y-13522031D01*
X7675991Y-13522031D02*
X7666468Y-13512508D01*
X7666468Y-13512508D02*
X7647420Y-13502984D01*
X7647420Y-13502984D02*
X7609325Y-13502984D01*
X7609325Y-13502984D02*
X7590277Y-13512508D01*
X7590277Y-13512508D02*
X7580753Y-13522031D01*
X7580753Y-13522031D02*
X7571229Y-13541079D01*
X7571229Y-13541079D02*
X7571229Y-13588698D01*
X7571229Y-13588698D02*
X7580753Y-13607746D01*
X7580753Y-13607746D02*
X7590277Y-13617269D01*
X7590277Y-13617269D02*
X7609325Y-13626793D01*
X7609325Y-13626793D02*
X7647420Y-13626793D01*
X7647420Y-13626793D02*
X7666468Y-13617269D01*
X7666468Y-13617269D02*
X7675991Y-13607746D01*
X7675991Y-13607746D02*
X7685515Y-13588698D01*
X7856944Y-13502984D02*
X7818848Y-13502984D01*
X7818848Y-13502984D02*
X7799801Y-13512508D01*
X7799801Y-13512508D02*
X7790277Y-13522031D01*
X7790277Y-13522031D02*
X7771229Y-13550603D01*
X7771229Y-13550603D02*
X7761706Y-13588698D01*
X7761706Y-13588698D02*
X7761706Y-13664888D01*
X7761706Y-13664888D02*
X7771229Y-13683936D01*
X7771229Y-13683936D02*
X7780753Y-13693460D01*
X7780753Y-13693460D02*
X7799801Y-13702984D01*
X7799801Y-13702984D02*
X7837896Y-13702984D01*
X7837896Y-13702984D02*
X7856944Y-13693460D01*
X7856944Y-13693460D02*
X7866468Y-13683936D01*
X7866468Y-13683936D02*
X7875991Y-13664888D01*
X7875991Y-13664888D02*
X7875991Y-13617269D01*
X7875991Y-13617269D02*
X7866468Y-13598222D01*
X7866468Y-13598222D02*
X7856944Y-13588698D01*
X7856944Y-13588698D02*
X7837896Y-13579174D01*
X7837896Y-13579174D02*
X7799801Y-13579174D01*
X7799801Y-13579174D02*
X7780753Y-13588698D01*
X7780753Y-13588698D02*
X7771229Y-13598222D01*
X7771229Y-13598222D02*
X7761706Y-13617269D01*
X8114087Y-13702984D02*
X8114087Y-13502984D01*
X8199801Y-13702984D02*
X8199801Y-13598222D01*
X8199801Y-13598222D02*
X8190277Y-13579174D01*
X8190277Y-13579174D02*
X8171230Y-13569650D01*
X8171230Y-13569650D02*
X8142658Y-13569650D01*
X8142658Y-13569650D02*
X8123610Y-13579174D01*
X8123610Y-13579174D02*
X8114087Y-13588698D01*
X8323610Y-13702984D02*
X8304563Y-13693460D01*
X8304563Y-13693460D02*
X8295039Y-13683936D01*
X8295039Y-13683936D02*
X8285515Y-13664888D01*
X8285515Y-13664888D02*
X8285515Y-13607746D01*
X8285515Y-13607746D02*
X8295039Y-13588698D01*
X8295039Y-13588698D02*
X8304563Y-13579174D01*
X8304563Y-13579174D02*
X8323610Y-13569650D01*
X8323610Y-13569650D02*
X8352182Y-13569650D01*
X8352182Y-13569650D02*
X8371230Y-13579174D01*
X8371230Y-13579174D02*
X8380753Y-13588698D01*
X8380753Y-13588698D02*
X8390277Y-13607746D01*
X8390277Y-13607746D02*
X8390277Y-13664888D01*
X8390277Y-13664888D02*
X8380753Y-13683936D01*
X8380753Y-13683936D02*
X8371230Y-13693460D01*
X8371230Y-13693460D02*
X8352182Y-13702984D01*
X8352182Y-13702984D02*
X8323610Y-13702984D01*
X8504563Y-13702984D02*
X8485515Y-13693460D01*
X8485515Y-13693460D02*
X8475992Y-13674412D01*
X8475992Y-13674412D02*
X8475992Y-13502984D01*
X8656944Y-13693460D02*
X8637896Y-13702984D01*
X8637896Y-13702984D02*
X8599801Y-13702984D01*
X8599801Y-13702984D02*
X8580753Y-13693460D01*
X8580753Y-13693460D02*
X8571230Y-13674412D01*
X8571230Y-13674412D02*
X8571230Y-13598222D01*
X8571230Y-13598222D02*
X8580753Y-13579174D01*
X8580753Y-13579174D02*
X8599801Y-13569650D01*
X8599801Y-13569650D02*
X8637896Y-13569650D01*
X8637896Y-13569650D02*
X8656944Y-13579174D01*
X8656944Y-13579174D02*
X8666468Y-13598222D01*
X8666468Y-13598222D02*
X8666468Y-13617269D01*
X8666468Y-13617269D02*
X8571230Y-13636317D01*
X8742658Y-13693460D02*
X8761706Y-13702984D01*
X8761706Y-13702984D02*
X8799801Y-13702984D01*
X8799801Y-13702984D02*
X8818849Y-13693460D01*
X8818849Y-13693460D02*
X8828373Y-13674412D01*
X8828373Y-13674412D02*
X8828373Y-13664888D01*
X8828373Y-13664888D02*
X8818849Y-13645841D01*
X8818849Y-13645841D02*
X8799801Y-13636317D01*
X8799801Y-13636317D02*
X8771230Y-13636317D01*
X8771230Y-13636317D02*
X8752182Y-13626793D01*
X8752182Y-13626793D02*
X8742658Y-13607746D01*
X8742658Y-13607746D02*
X8742658Y-13598222D01*
X8742658Y-13598222D02*
X8752182Y-13579174D01*
X8752182Y-13579174D02*
X8771230Y-13569650D01*
X8771230Y-13569650D02*
X8799801Y-13569650D01*
X8799801Y-13569650D02*
X8818849Y-13579174D01*
X8895039Y-13779174D02*
X8904563Y-13769650D01*
X8904563Y-13769650D02*
X8923611Y-13741079D01*
X8923611Y-13741079D02*
X8933134Y-13722031D01*
X8933134Y-13722031D02*
X8942658Y-13693460D01*
X8942658Y-13693460D02*
X8952182Y-13645841D01*
X8952182Y-13645841D02*
X8952182Y-13607746D01*
X8952182Y-13607746D02*
X8942658Y-13560127D01*
X8942658Y-13560127D02*
X8933134Y-13531555D01*
X8933134Y-13531555D02*
X8923611Y-13512508D01*
X8923611Y-13512508D02*
X8904563Y-13483936D01*
X8904563Y-13483936D02*
X8895039Y-13474412D01*
M02*
