%TF.GenerationSoftware,KiCad,Pcbnew,(7.0.0)*%
%TF.CreationDate,2023-12-30T21:58:10+02:00*%
%TF.ProjectId,alu,616c752e-6b69-4636-9164-5f7063625858,rev?*%
%TF.SameCoordinates,Original*%
%TF.FileFunction,Soldermask,Top*%
%TF.FilePolarity,Negative*%
%FSLAX46Y46*%
G04 Gerber Fmt 4.6, Leading zero omitted, Abs format (unit mm)*
G04 Created by KiCad (PCBNEW (7.0.0)) date 2023-12-30 21:58:10*
%MOMM*%
%LPD*%
G01*
G04 APERTURE LIST*
G04 Aperture macros list*
%AMRoundRect*
0 Rectangle with rounded corners*
0 $1 Rounding radius*
0 $2 $3 $4 $5 $6 $7 $8 $9 X,Y pos of 4 corners*
0 Add a 4 corners polygon primitive as box body*
4,1,4,$2,$3,$4,$5,$6,$7,$8,$9,$2,$3,0*
0 Add four circle primitives for the rounded corners*
1,1,$1+$1,$2,$3*
1,1,$1+$1,$4,$5*
1,1,$1+$1,$6,$7*
1,1,$1+$1,$8,$9*
0 Add four rect primitives between the rounded corners*
20,1,$1+$1,$2,$3,$4,$5,0*
20,1,$1+$1,$4,$5,$6,$7,0*
20,1,$1+$1,$6,$7,$8,$9,0*
20,1,$1+$1,$8,$9,$2,$3,0*%
G04 Aperture macros list end*
%ADD10RoundRect,0.140000X-0.140000X-0.170000X0.140000X-0.170000X0.140000X0.170000X-0.140000X0.170000X0*%
%ADD11RoundRect,0.100000X-0.637500X-0.100000X0.637500X-0.100000X0.637500X0.100000X-0.637500X0.100000X0*%
%ADD12C,2.790000*%
%ADD13RoundRect,0.102000X-0.754000X0.754000X-0.754000X-0.754000X0.754000X-0.754000X0.754000X0.754000X0*%
%ADD14C,1.712000*%
%ADD15RoundRect,0.140000X0.140000X0.170000X-0.140000X0.170000X-0.140000X-0.170000X0.140000X-0.170000X0*%
%ADD16RoundRect,0.140000X0.170000X-0.140000X0.170000X0.140000X-0.170000X0.140000X-0.170000X-0.140000X0*%
%ADD17RoundRect,0.150000X-0.875000X-0.150000X0.875000X-0.150000X0.875000X0.150000X-0.875000X0.150000X0*%
%ADD18C,3.200000*%
%ADD19RoundRect,0.150000X0.875000X0.150000X-0.875000X0.150000X-0.875000X-0.150000X0.875000X-0.150000X0*%
%ADD20RoundRect,0.140000X-0.170000X0.140000X-0.170000X-0.140000X0.170000X-0.140000X0.170000X0.140000X0*%
G04 APERTURE END LIST*
D10*
%TO.C,C28*%
X92258000Y-77724000D03*
X93218000Y-77724000D03*
%TD*%
%TO.C,C27*%
X92230000Y-71120000D03*
X93190000Y-71120000D03*
%TD*%
D11*
%TO.C,U24*%
X84767500Y-72472000D03*
X84767500Y-73122000D03*
X84767500Y-73772000D03*
X84767500Y-74422000D03*
X84767500Y-75072000D03*
X84767500Y-75722000D03*
X84767500Y-76372000D03*
X90492500Y-76372000D03*
X90492500Y-75722000D03*
X90492500Y-75072000D03*
X90492500Y-74422000D03*
X90492500Y-73772000D03*
X90492500Y-73122000D03*
X90492500Y-72472000D03*
%TD*%
D12*
%TO.C,J1*%
X41910000Y-31750000D03*
X41910000Y-120650000D03*
D13*
X44450000Y-115570000D03*
D14*
X44450000Y-113030000D03*
X44450000Y-110490000D03*
X44450000Y-107950000D03*
X44450000Y-105410000D03*
X44450000Y-102870000D03*
X44450000Y-100330000D03*
X44450000Y-97790000D03*
X44450000Y-95250000D03*
X44450000Y-92710000D03*
X44450000Y-90170000D03*
X44450000Y-87630000D03*
X44450000Y-85090000D03*
X44450000Y-82550000D03*
X44450000Y-80010000D03*
X44450000Y-77470000D03*
X44450000Y-74930000D03*
X44450000Y-72390000D03*
X44450000Y-69850000D03*
X44450000Y-67310000D03*
X44450000Y-64770000D03*
X44450000Y-62230000D03*
X44450000Y-59690000D03*
X44450000Y-57150000D03*
X44450000Y-54610000D03*
X44450000Y-52070000D03*
X44450000Y-49530000D03*
X44450000Y-46990000D03*
X44450000Y-44450000D03*
X44450000Y-41910000D03*
X44450000Y-39370000D03*
X44450000Y-36830000D03*
X46990000Y-115570000D03*
X46990000Y-113030000D03*
X46990000Y-110490000D03*
X46990000Y-107950000D03*
X46990000Y-105410000D03*
X46990000Y-102870000D03*
X46990000Y-100330000D03*
X46990000Y-97790000D03*
X46990000Y-95250000D03*
X46990000Y-92710000D03*
X46990000Y-90170000D03*
X46990000Y-87630000D03*
X46990000Y-85090000D03*
X46990000Y-82550000D03*
X46990000Y-80010000D03*
X46990000Y-77470000D03*
X46990000Y-74930000D03*
X46990000Y-72390000D03*
X46990000Y-69850000D03*
X46990000Y-67310000D03*
X46990000Y-64770000D03*
X46990000Y-62230000D03*
X46990000Y-59690000D03*
X46990000Y-57150000D03*
X46990000Y-54610000D03*
X46990000Y-52070000D03*
X46990000Y-49530000D03*
X46990000Y-46990000D03*
X46990000Y-44450000D03*
X46990000Y-41910000D03*
X46990000Y-39370000D03*
X46990000Y-36830000D03*
X49530000Y-115570000D03*
X49530000Y-113030000D03*
X49530000Y-110490000D03*
X49530000Y-107950000D03*
X49530000Y-105410000D03*
X49530000Y-102870000D03*
X49530000Y-100330000D03*
X49530000Y-97790000D03*
X49530000Y-95250000D03*
X49530000Y-92710000D03*
X49530000Y-90170000D03*
X49530000Y-87630000D03*
X49530000Y-85090000D03*
X49530000Y-82550000D03*
X49530000Y-80010000D03*
X49530000Y-77470000D03*
X49530000Y-74930000D03*
X49530000Y-72390000D03*
X49530000Y-69850000D03*
X49530000Y-67310000D03*
X49530000Y-64770000D03*
X49530000Y-62230000D03*
X49530000Y-59690000D03*
X49530000Y-57150000D03*
X49530000Y-54610000D03*
X49530000Y-52070000D03*
X49530000Y-49530000D03*
X49530000Y-46990000D03*
X49530000Y-44450000D03*
X49530000Y-41910000D03*
X49530000Y-39370000D03*
X49530000Y-36830000D03*
%TD*%
D11*
%TO.C,U27*%
X83937000Y-44958000D03*
X83937000Y-45608000D03*
X83937000Y-46258000D03*
X83937000Y-46908000D03*
X83937000Y-47558000D03*
X83937000Y-48208000D03*
X83937000Y-48858000D03*
X83937000Y-49508000D03*
X89662000Y-49508000D03*
X89662000Y-48858000D03*
X89662000Y-48208000D03*
X89662000Y-47558000D03*
X89662000Y-46908000D03*
X89662000Y-46258000D03*
X89662000Y-45608000D03*
X89662000Y-44958000D03*
%TD*%
D15*
%TO.C,C25*%
X55598000Y-80292000D03*
X54638000Y-80292000D03*
%TD*%
D16*
%TO.C,C1*%
X84963000Y-35024000D03*
X84963000Y-34064000D03*
%TD*%
D11*
%TO.C,U30*%
X77274500Y-36277000D03*
X77274500Y-36927000D03*
X77274500Y-37577000D03*
X77274500Y-38227000D03*
X77274500Y-38877000D03*
X77274500Y-39527000D03*
X77274500Y-40177000D03*
X82999500Y-40177000D03*
X82999500Y-39527000D03*
X82999500Y-38877000D03*
X82999500Y-38227000D03*
X82999500Y-37577000D03*
X82999500Y-36927000D03*
X82999500Y-36277000D03*
%TD*%
D16*
%TO.C,C26*%
X70739000Y-35278000D03*
X70739000Y-34318000D03*
%TD*%
D11*
%TO.C,U29*%
X63363000Y-36434000D03*
X63363000Y-37084000D03*
X63363000Y-37734000D03*
X63363000Y-38384000D03*
X63363000Y-39034000D03*
X63363000Y-39684000D03*
X63363000Y-40334000D03*
X63363000Y-40984000D03*
X69088000Y-40984000D03*
X69088000Y-40334000D03*
X69088000Y-39684000D03*
X69088000Y-39034000D03*
X69088000Y-38384000D03*
X69088000Y-37734000D03*
X69088000Y-37084000D03*
X69088000Y-36434000D03*
%TD*%
D17*
%TO.C,U13*%
X56515000Y-112395000D03*
X56515000Y-113665000D03*
X56515000Y-114935000D03*
X56515000Y-116205000D03*
X56515000Y-117475000D03*
X56515000Y-118745000D03*
X56515000Y-120015000D03*
X56515000Y-121285000D03*
X56515000Y-122555000D03*
X56515000Y-123825000D03*
X65815000Y-123825000D03*
X65815000Y-122555000D03*
X65815000Y-121285000D03*
X65815000Y-120015000D03*
X65815000Y-118745000D03*
X65815000Y-117475000D03*
X65815000Y-116205000D03*
X65815000Y-114935000D03*
X65815000Y-113665000D03*
X65815000Y-112395000D03*
%TD*%
D18*
%TO.C,REF\u002A\u002A*%
X113665000Y-122555000D03*
%TD*%
D11*
%TO.C,U26*%
X83751500Y-58685000D03*
X83751500Y-59335000D03*
X83751500Y-59985000D03*
X83751500Y-60635000D03*
X83751500Y-61285000D03*
X83751500Y-61935000D03*
X83751500Y-62585000D03*
X83751500Y-63235000D03*
X89476500Y-63235000D03*
X89476500Y-62585000D03*
X89476500Y-61935000D03*
X89476500Y-61285000D03*
X89476500Y-60635000D03*
X89476500Y-59985000D03*
X89476500Y-59335000D03*
X89476500Y-58685000D03*
%TD*%
D10*
%TO.C,C23*%
X68100000Y-112395000D03*
X69060000Y-112395000D03*
%TD*%
D19*
%TO.C,U28*%
X67134000Y-65659000D03*
X67134000Y-64389000D03*
X67134000Y-63119000D03*
X67134000Y-61849000D03*
X67134000Y-60579000D03*
X67134000Y-59309000D03*
X67134000Y-58039000D03*
X67134000Y-56769000D03*
X67134000Y-55499000D03*
X67134000Y-54229000D03*
X57834000Y-54229000D03*
X57834000Y-55499000D03*
X57834000Y-56769000D03*
X57834000Y-58039000D03*
X57834000Y-59309000D03*
X57834000Y-60579000D03*
X57834000Y-61849000D03*
X57834000Y-63119000D03*
X57834000Y-64389000D03*
X57834000Y-65659000D03*
%TD*%
%TO.C,U25*%
X67134000Y-80391000D03*
X67134000Y-79121000D03*
X67134000Y-77851000D03*
X67134000Y-76581000D03*
X67134000Y-75311000D03*
X67134000Y-74041000D03*
X67134000Y-72771000D03*
X67134000Y-71501000D03*
X67134000Y-70231000D03*
X67134000Y-68961000D03*
X57834000Y-68961000D03*
X57834000Y-70231000D03*
X57834000Y-71501000D03*
X57834000Y-72771000D03*
X57834000Y-74041000D03*
X57834000Y-75311000D03*
X57834000Y-76581000D03*
X57834000Y-77851000D03*
X57834000Y-79121000D03*
X57834000Y-80391000D03*
%TD*%
D20*
%TO.C,C30*%
X91694000Y-44732000D03*
X91694000Y-45692000D03*
%TD*%
D15*
%TO.C,C24*%
X55598000Y-65532000D03*
X54638000Y-65532000D03*
%TD*%
D18*
%TO.C,REF\u002A\u002A*%
X113665000Y-30988000D03*
%TD*%
D11*
%TO.C,U23*%
X84767500Y-79076000D03*
X84767500Y-79726000D03*
X84767500Y-80376000D03*
X84767500Y-81026000D03*
X84767500Y-81676000D03*
X84767500Y-82326000D03*
X84767500Y-82976000D03*
X90492500Y-82976000D03*
X90492500Y-82326000D03*
X90492500Y-81676000D03*
X90492500Y-81026000D03*
X90492500Y-80376000D03*
X90492500Y-79726000D03*
X90492500Y-79076000D03*
%TD*%
D20*
%TO.C,C29*%
X91948000Y-58448000D03*
X91948000Y-59408000D03*
%TD*%
M02*
