M48
; DRILL file {KiCad (7.0.0)} date Sat Dec 30 21:58:13 2023
; FORMAT={-:-/ absolute / inch / decimal}
; #@! TF.CreationDate,2023-12-30T21:58:13+02:00
; #@! TF.GenerationSoftware,Kicad,Pcbnew,(7.0.0)
; #@! TF.FileFunction,Plated,1,4,PTH
FMAT,2
INCH
; #@! TA.AperFunction,Plated,PTH,ViaDrill
T1C0.0079
; #@! TA.AperFunction,Plated,PTH,ComponentDrill
T2C0.0394
%
G90
G05
T1
X1.9Y-1.72
X1.9Y-1.775
X2.005Y-1.71
X2.01Y-1.755
X2.0768Y-1.1446
X2.0768Y-1.2205
X2.0768Y-1.2922
X2.0768Y-1.3681
X2.1Y-4.475
X2.1Y-4.525
X2.1Y-4.575
X2.1Y-4.625
X2.1Y-4.675
X2.1Y-4.725
X2.1Y-4.775
X2.1Y-4.825
X2.11Y-2.58
X2.11Y-3.16
X2.1457Y-1.1446
X2.1457Y-1.2205
X2.1457Y-1.2922
X2.1457Y-1.3681
X2.15Y-4.425
X2.15Y-4.875
X2.1752Y-3.4773
X2.1752Y-3.5531
X2.1752Y-3.6249
X2.1752Y-3.7008
X2.19Y-2.61
X2.19Y-3.19
X2.21Y-2.135
X2.21Y-2.19
X2.21Y-2.23
X2.21Y-2.28
X2.21Y-2.715
X2.21Y-2.77
X2.21Y-2.82
X2.21Y-2.87
X2.21Y-2.92
X2.21Y-2.965
X2.21Y-3.01
X2.21Y-3.06
X2.212Y-2.335
X2.212Y-2.385
X2.212Y-2.435
X2.212Y-2.485
X2.2146Y-1.1446
X2.2146Y-1.2205
X2.2146Y-1.2922
X2.2146Y-1.3681
X2.225Y-4.925
X2.2441Y-3.4773
X2.2441Y-3.5531
X2.2441Y-3.6249
X2.2441Y-3.7008
X2.2835Y-1.1446
X2.2835Y-1.2205
X2.2835Y-1.2922
X2.2835Y-1.3681
X2.3Y-4.425
X2.3Y-4.475
X2.3Y-4.525
X2.3Y-4.575
X2.3Y-4.625
X2.3Y-4.675
X2.3Y-4.725
X2.3Y-4.775
X2.3Y-4.825
X2.3Y-4.875
X2.313Y-3.4773
X2.313Y-3.5531
X2.313Y-3.6249
X2.313Y-3.7008
X2.3524Y-2.7094
X2.3524Y-2.7594
X2.3524Y-2.8094
X2.3524Y-2.8594
X2.3524Y-2.9094
X2.3524Y-2.9594
X2.3524Y-3.0094
X2.3524Y-3.0594
X2.3524Y-3.1094
X2.3524Y-3.1594
X2.3819Y-3.4773
X2.3819Y-3.5531
X2.3819Y-3.6249
X2.3819Y-3.7008
X2.4213Y-1.435
X2.4213Y-1.485
X2.4213Y-1.5484
X2.44Y-1.515
X2.445Y-1.46
X2.445Y-1.565
X2.445Y-1.61
X2.495Y-1.65
X2.5Y-2.1386
X2.5Y-2.1886
X2.5Y-2.2386
X2.5Y-2.2886
X2.5Y-2.3386
X2.5Y-2.3886
X2.5Y-2.4386
X2.5Y-2.4886
X2.5Y-2.5386
X2.525Y-4.425
X2.525Y-4.475
X2.525Y-4.525
X2.525Y-4.575
X2.525Y-4.625
X2.525Y-4.675
X2.525Y-4.725
X2.525Y-4.775
X2.525Y-4.825
X2.525Y-4.875
X2.55Y-1.52
X2.55Y-1.615
X2.5591Y-1.5551
X2.56Y-2.585
X2.5689Y-2.1386
X2.5689Y-2.1886
X2.5689Y-2.2386
X2.5689Y-2.2886
X2.5689Y-2.3386
X2.5689Y-2.3886
X2.5689Y-2.4386
X2.5689Y-2.4886
X2.5689Y-2.5386
X2.5689Y-2.7193
X2.5689Y-2.7693
X2.5689Y-2.8193
X2.5689Y-2.8693
X2.5689Y-2.9193
X2.5689Y-2.9693
X2.5689Y-3.0193
X2.5689Y-3.0693
X2.5689Y-3.1193
X2.64Y-2.67
X2.65Y-2.09
X2.65Y-4.525
X2.65Y-4.575
X2.65Y-4.625
X2.65Y-4.675
X2.65Y-4.775
X2.65Y-4.825
X2.65Y-4.875
X2.655Y-4.725
X2.675Y-4.475
X2.68Y-4.36
X2.71Y-2.19
X2.71Y-2.24
X2.71Y-2.29
X2.71Y-2.34
X2.71Y-2.39
X2.71Y-2.44
X2.71Y-2.48
X2.71Y-2.53
X2.72Y-2.14
X2.72Y-2.72
X2.72Y-2.76
X2.72Y-2.81
X2.72Y-2.86
X2.72Y-2.91
X2.72Y-2.96
X2.72Y-3.01
X2.72Y-3.06
X2.72Y-3.11
X2.72Y-3.16
X2.725Y-4.475
X2.745Y-1.35
X2.775Y-1.535
X2.775Y-1.59
X2.785Y-1.305
X2.7953Y-1.51
X2.82Y-1.39
X2.83Y-1.35
X2.9724Y-1.53
X2.9724Y-1.5945
X2.9921Y-1.4961
X2.995Y-1.555
X3.045Y-1.62
X3.095Y-1.585
X3.2283Y-1.92
X3.23Y-2.31
X3.24Y-2.39
X3.24Y-2.47
X3.245Y-1.765
X3.248Y-1.9685
X3.2532Y-1.8468
X3.28Y-3.14
X3.28Y-3.19
X3.28Y-3.2382
X3.28Y-3.27
X3.29Y-2.874
X3.29Y-2.93
X3.29Y-3.01
X3.298Y-2.538
X3.305Y-1.34
X3.3071Y-1.9882
X3.344Y-2.49
X3.345Y-1.295
X3.345Y-2.41
X3.345Y-2.44
X3.35Y-1.8733
X3.3535Y-1.9094
X3.355Y-1.835
X3.356Y-2.378
X3.375Y-1.38
X3.38Y-2.855
X3.38Y-2.905
X3.385Y-3.115
X3.385Y-3.165
X3.39Y-1.34
X3.39Y-3.01
X3.39Y-3.27
X3.395Y-3.225
X3.4055Y-1.9882
X3.47Y-2.41
X3.475Y-1.84
X3.475Y-2.335
X3.48Y-1.88
X3.48Y-1.95
X3.48Y-2.49
X3.51Y-3.16
X3.52Y-3.21
X3.52Y-3.26
X3.575Y-2.3624
X3.575Y-2.39
X3.575Y-2.4384
X3.58Y-1.925
X3.5827Y-2.4803
X3.6024Y-1.9
X3.61Y-1.73
X3.61Y-1.84
X3.61Y-2.8
X3.61Y-3.06
X3.615Y-3.14
X3.615Y-3.19
X3.615Y-3.24
X3.62Y-2.26
X3.62Y-2.38
X3.65Y-1.8
X3.67Y-2.34
X3.72Y-2.8
X3.72Y-3.06
X3.8189Y-4.1859
X3.8189Y-4.2618
X3.8189Y-4.3336
X3.8189Y-4.4094
X3.8878Y-4.1859
X3.8878Y-4.2618
X3.8878Y-4.3336
X3.8878Y-4.4094
X3.9567Y-4.1859
X3.9567Y-4.2618
X3.9567Y-4.3336
X3.9567Y-4.4094
X4.0256Y-4.1859
X4.0256Y-4.2618
X4.0256Y-4.3336
X4.0256Y-4.4094
X4.0551Y-1.2036
X4.0551Y-1.2795
X4.0551Y-1.3513
X4.0551Y-1.4272
X4.124Y-1.2036
X4.124Y-1.2795
X4.124Y-1.3513
X4.124Y-1.4272
X4.175Y-1.9
X4.175Y-2.885
X4.1929Y-1.2036
X4.1929Y-1.2795
X4.1929Y-1.3513
X4.1929Y-1.4272
X4.21Y-2.115
X4.21Y-2.905
X4.235Y-1.925
X4.235Y-3.14
X4.255Y-2.135
X4.255Y-2.5
X4.255Y-3.19
X4.2618Y-1.2036
X4.2618Y-1.2795
X4.2618Y-1.3513
X4.2618Y-1.4272
X4.28Y-1.865
X4.28Y-2.545
X4.28Y-3.24
X4.305Y-2.525
X4.305Y-3.515
X4.335Y-2.57
X4.335Y-3.54
X4.355Y-2.595
X4.355Y-3.56
T2
X1.75Y-1.45
X1.75Y-1.55
X1.75Y-1.65
X1.75Y-1.75
X1.75Y-1.85
X1.75Y-1.95
X1.75Y-2.05
X1.75Y-2.15
X1.75Y-2.25
X1.75Y-2.35
X1.75Y-2.45
X1.75Y-2.55
X1.75Y-2.65
X1.75Y-2.75
X1.75Y-2.85
X1.75Y-2.95
X1.75Y-3.05
X1.75Y-3.15
X1.75Y-3.25
X1.75Y-3.35
X1.75Y-3.45
X1.75Y-3.55
X1.75Y-3.65
X1.75Y-3.75
X1.75Y-3.85
X1.75Y-3.95
X1.75Y-4.05
X1.75Y-4.15
X1.75Y-4.25
X1.75Y-4.35
X1.75Y-4.45
X1.75Y-4.55
X1.85Y-1.45
X1.85Y-1.55
X1.85Y-1.65
X1.85Y-1.75
X1.85Y-1.85
X1.85Y-1.95
X1.85Y-2.05
X1.85Y-2.15
X1.85Y-2.25
X1.85Y-2.35
X1.85Y-2.45
X1.85Y-2.55
X1.85Y-2.65
X1.85Y-2.75
X1.85Y-2.85
X1.85Y-2.95
X1.85Y-3.05
X1.85Y-3.15
X1.85Y-3.25
X1.85Y-3.35
X1.85Y-3.45
X1.85Y-3.55
X1.85Y-3.65
X1.85Y-3.75
X1.85Y-3.85
X1.85Y-3.95
X1.85Y-4.05
X1.85Y-4.15
X1.85Y-4.25
X1.85Y-4.35
X1.85Y-4.45
X1.85Y-4.55
X1.95Y-1.45
X1.95Y-1.55
X1.95Y-1.65
X1.95Y-1.75
X1.95Y-1.85
X1.95Y-1.95
X1.95Y-2.05
X1.95Y-2.15
X1.95Y-2.25
X1.95Y-2.35
X1.95Y-2.45
X1.95Y-2.55
X1.95Y-2.65
X1.95Y-2.75
X1.95Y-2.85
X1.95Y-2.95
X1.95Y-3.05
X1.95Y-3.15
X1.95Y-3.25
X1.95Y-3.35
X1.95Y-3.45
X1.95Y-3.55
X1.95Y-3.65
X1.95Y-3.75
X1.95Y-3.85
X1.95Y-3.95
X1.95Y-4.05
X1.95Y-4.15
X1.95Y-4.25
X1.95Y-4.35
X1.95Y-4.45
X1.95Y-4.55
T0
M30
